<svg xmlns="http://www.w3.org/2000/svg" width="731.209" height="397.745" viewBox="0 0 731.209 397.745">
  <g id="Divider_10_" data-name="Divider 10 " transform="matrix(0.914, 0.407, -0.407, 0.914, 241.186, -451.674)">
    <path id="Path_1210" data-name="Path 1210" d="M756.527,503.277v36.287l-46.852,53.414-54.621-62.272L600.43,592.978,545.8,530.706l-54.622,62.272-54.622-62.272-54.622,62.272-54.617-62.272-54.628,62.272-54.617-62.272-54.623,62.272L108.83,530.706,54.2,592.978,0,530.706V494.419l54.2,62.272,54.628-62.272,54.617,62.272,54.623-62.272,54.617,62.272,54.628-62.272,54.617,62.272,54.622-62.272,54.622,62.272L545.8,494.419l54.633,62.272,54.624-62.272,54.621,62.272Z" fill="#34315d"/>
  </g>
</svg>
