<svg xmlns="http://www.w3.org/2000/svg" xmlns:xlink="http://www.w3.org/1999/xlink" width="967.738" height="321.411" viewBox="0 0 967.738 321.411">
  <defs>
    <linearGradient id="linear-gradient" x1="-11.741" y1="5.084" x2="-11.741" y2="4.933" gradientUnits="objectBoundingBox">
      <stop offset="0" stop-color="gray" stop-opacity="0.251"/>
      <stop offset="0.535" stop-color="gray" stop-opacity="0.122"/>
      <stop offset="1" stop-color="gray" stop-opacity="0.102"/>
    </linearGradient>
    <linearGradient id="linear-gradient-2" x1="0.5" y1="1" x2="0.5" gradientUnits="objectBoundingBox">
      <stop offset="0" stop-color="gray" stop-opacity="0.251"/>
      <stop offset="0.54" stop-color="gray" stop-opacity="0.122"/>
      <stop offset="1" stop-color="gray" stop-opacity="0.102"/>
    </linearGradient>
  </defs>
  <g id="Group_585" data-name="Group 585" transform="translate(-478.638 -289.089)">
    <path id="Path_2006" data-name="Path 2006" d="M152.547,452.462a8.623,8.623,0,0,0-3.279,2.319c-5.439,5.374-13.2,17.978-13.2,17.978-9.939-11.831,1.062-21.185,5.778-24.4,1.141-.78,1.907-1.2,1.907-1.2Z" transform="translate(374.234 23.001)" fill="#ffbdc6"/>
    <g id="Group_584" data-name="Group 584" transform="translate(478.638 289.089)">
      <g id="Confetti" transform="translate(674.065 69.181)">
        <path id="Path_331" data-name="Path 331" d="M449.836,239.393l10.671-14.365,4.925,3.694-9.03,16.828Zm80.035,46.681-5.054-6.8-2.333,1.749,4.277,7.971ZM361.39,296.759l5.054,6.8-3.11,2.916-4.277-7.971ZM590.051,276.4l-13.465-18.127-6.215,4.661,11.394,21.234ZM478.958,334.861l13.465,18.126-8.286,7.769-11.394-21.234Z" transform="translate(-337.787 -210.663)" fill="#ffcc12" fill-rule="evenodd"/>
        <path id="Path_332" data-name="Path 332" d="M365.493,212.4l6.832-9.2,3.153,2.365L369.7,216.343Zm53.02,57.916,10.671,14.365-6.567,6.156-9.029-16.828Zm82.317,4.544-13.465,18.126,8.286,7.769,11.394-21.234Zm133.372,45.8-6.378-8.587-2.944,2.208,5.4,10.058Zm-69.784,9.557L556.9,342.345l-6.493-3.062,9.827-11.636Zm-168.554,1.213,6.832-9.2,3.153,2.365-5.781,10.773Zm48.008,25.531,3.237,4.356-1.992,1.867-2.738-5.1Zm93.665-144.1,10.671,14.365-6.567,6.156-9.029-16.828Z" transform="translate(-340.529 -201.365)" fill="#fff" fill-rule="evenodd"/>
        <path id="Path_333" data-name="Path 333" d="M401.36,200l6.832,9.2-4.2,3.941-5.781-10.774Zm30.371,119.025,6.832,9.2-4.2,3.941-5.781-10.774ZM510.646,346.3l13.465,18.126-8.286,7.769-11.394-21.234ZM362.357,365.011l-6.832-9.2-3.153,2.365,5.781,10.773ZM331.985,245.986l-6.832-9.2L322,239.154l5.781,10.774Zm62.986-9.418,3.236,4.356-1.992,1.867-2.738-5.1Z" transform="translate(-322 -200)" fill="#4987cf" fill-rule="evenodd"/>
      </g>
      <g id="Confetti-2" data-name="Confetti" transform="matrix(-1, 0, 0, 1, 305.025, 71.745)">
        <path id="Path_331-2" data-name="Path 331" d="M94.288,14.92,105.372,0l5.116,3.836-9.379,17.478Zm83.128,48.486-5.25-7.067-2.423,1.817,4.443,8.279ZM2.423,74.5l5.25,7.068L4.443,84.6,0,76.321Zm237.5-21.146L225.937,34.53l-6.455,4.841,11.834,22.055Zm-115.388,60.72L138.521,132.9l-8.607,8.069L118.08,118.919Z" transform="translate(22.092 14.921)" fill="#ffcc12" fill-rule="evenodd"/>
        <path id="Path_332-2" data-name="Path 332" d="M0,9.553,7.1,0l3.275,2.457-6,11.19ZM55.07,69.708,66.154,84.628l-6.821,6.395L49.955,73.544Zm85.5,4.719L126.583,93.254l8.607,8.069,11.834-22.055ZM279.1,121.993l-6.625-8.919-3.058,2.293,5.606,10.447Zm-72.481,9.926-7.81,12.6-6.744-3.181,10.207-12.086Zm-175.07,1.26,7.1-9.553,3.275,2.457-6,11.19ZM81.409,159.7l3.362,4.525L82.7,166.161l-2.844-5.3ZM178.695,10.026l11.084,14.921-6.821,6.394L173.58,13.863Z" transform="translate(25.929 1.91)" fill="#fff" fill-rule="evenodd"/>
        <path id="Path_333-2" data-name="Path 333" d="M82.427,0l7.1,9.553-4.367,4.094-6-11.191Zm31.545,123.626,7.1,9.553-4.367,4.094-6-11.191Zm81.965,28.327,13.986,18.827-8.607,8.069-11.834-22.055ZM41.917,171.389l-7.1-9.553-3.275,2.457,6,11.19ZM10.371,47.763l-7.1-9.553L0,40.667l6,11.19Zm65.421-9.782,3.361,4.525-2.069,1.939-2.844-5.3Z" transform="translate(0 0)" fill="#4987cf" fill-rule="evenodd"/>
      </g>
      <text id="_10_Klasse" data-name="10 Klasse" transform="translate(268.362 58.911)" fill="#fff" font-size="10" font-family="HelveticaNeue-Bold, Helvetica Neue" font-weight="700" letter-spacing="0.1em"><tspan x="0" y="0">10 Klasse</tspan></text>
      <g id="Group_101" data-name="Group 101" transform="translate(660.618 216.151)">
        <path id="Path_378" data-name="Path 378" d="M118.762,444.4l-54.215-.264L59.16,431.5l19.049-1.383-3.32-13.853,37.676-4.883L76.487,398.837l3.187-.757,58.012,9.464-3.195,21.619-4.567,11.881Z" transform="translate(-57.666 -391.601)" fill="#ffcc12"/>
        <path id="Path_379" data-name="Path 379" d="M187,698.565s3.326-.532,5.322,1.818c0,0-1.464,1.153-4.612-.444Z" transform="translate(-179.288 -651.326)" fill="#ffcc12"/>
        <path id="Path_380" data-name="Path 380" d="M177.539,698.51s-2.122,2.612-1.077,5.52c0,0,1.73-.692,1.918-4.218Z" transform="translate(-170.175 -651.323)" fill="#ffcc12"/>
        <path id="Path_381" data-name="Path 381" d="M172.76,666.912s1.33-2.441,6.653.976a2.987,2.987,0,0,1-3.06,1.508A3.607,3.607,0,0,1,172.76,666.912Z" transform="translate(-167.303 -624.018)" fill="#ffcc12"/>
        <path id="Path_382" data-name="Path 382" d="M154.5,670.276s-2.761-.317-3.028,6a2.988,2.988,0,0,0,2.994-1.636A3.6,3.6,0,0,0,154.5,670.276Z" transform="translate(-149.385 -627.558)" fill="#ffcc12"/>
        <path id="Path_415" data-name="Path 415" d="M541.7,670.36s-3.591,4.383-.74,11.008L512.288,693.8l-2.751.577-1.267-5.544.847-7v-3.824Z" transform="translate(-449.67 -627.631)" fill="#d5d6db"/>
        <path id="Path_416" data-name="Path 416" d="M59.16,570.624l39.681-7.234,52.579,8.376-32.658,11.758Z" transform="translate(-57.666 -530.727)" fill="#ffcc12"/>
        <path id="Path_417" data-name="Path 417" d="M59.16,570.624l39.681-7.234,52.579,8.376-32.658,11.758Z" transform="translate(-57.666 -530.727)" fill="#b7b7b7"/>
        <path id="Path_418" data-name="Path 418" d="M139.8,652.47s-3.711,7.031.565,13.525l58.844,12.751s-3.653-5.6.188-13.375Z" transform="translate(-138.309 -612.575)" fill="#fff"/>
        <path id="Path_419" data-name="Path 419" d="M139.8,652.47s-3.711,7.031.565,13.525l58.844,12.751s-3.653-5.6.188-13.375Z" transform="translate(-138.309 -612.575)" opacity="0.1"/>
        <path id="Path_420" data-name="Path 420" d="M153.8,667.86s-2.121,5.145,0,8.474" transform="translate(-150.554 -625.527)" opacity="0.1"/>
        <path id="Path_421" data-name="Path 421" d="M210.154,743.878,243,729.86s1.837.4.649,1.742-32.867,13.622-32.867,13.622l-59.477-14.1Z" transform="translate(-149.251 -677.707)" fill="#fff"/>
        <path id="Path_422" data-name="Path 422" d="M210.154,743.878,243,729.86s1.837.4.649,1.742-32.867,13.622-32.867,13.622l-59.477-14.1Z" transform="translate(-149.251 -677.707)" opacity="0.1"/>
        <path id="Path_423" data-name="Path 423" d="M498.329,742.86s-3.168,3.8,0,9.5" transform="translate(-440.119 -688.648)" opacity="0.1"/>
        <rect id="Rectangle_106" data-name="Rectangle 106" width="14.979" height="0.158" transform="translate(59.338 58.888) rotate(-18.45)" opacity="0.1"/>
        <rect id="Rectangle_107" data-name="Rectangle 107" width="18.252" height="0.158" transform="translate(59.333 60.164) rotate(-20.82)" opacity="0.1"/>
        <rect id="Rectangle_108" data-name="Rectangle 108" width="21.155" height="0.158" transform="translate(59.428 61.667) rotate(-22.26)" opacity="0.1"/>
        <rect id="Rectangle_109" data-name="Rectangle 109" width="24.352" height="0.158" transform="translate(59.657 62.992) rotate(-24.31)" opacity="0.1"/>
        <rect id="Rectangle_110" data-name="Rectangle 110" width="26.634" height="0.158" transform="matrix(0.916, -0.401, 0.401, 0.916, 59.833, 63.638)" opacity="0.1"/>
        <rect id="Rectangle_111" data-name="Rectangle 111" width="31.872" height="0.158" transform="translate(60.201 64.721) rotate(-23.36)" opacity="0.1"/>
        <path id="Path_424" data-name="Path 424" d="M152.23,582.8l27.877-5.861,16.983,3.247-22.844,7.365Z" transform="translate(-135.995 -542.131)" fill="#fff" opacity="0.3"/>
        <path id="Path_425" data-name="Path 425" d="M556.663,659.69s1.441.581.6,1.479S524,671.448,524,671.448Z" transform="translate(-462.908 -618.652)" fill="#b7b7b7"/>
        <path id="Path_426" data-name="Path 426" d="M641,574.18s-3.589,4.381-.738,11.008l-28.67,12.434-2.751.58-1.267-5.544.86-6.995v-3.828Z" transform="translate(-533.241 -546.685)" fill="#d5d6db"/>
        <path id="Path_427" data-name="Path 427" d="M158.46,474.442l39.68-7.232,52.581,8.376-32.658,11.758Z" transform="translate(-141.238 -449.782)" fill="#3a3768"/>
        <path id="Path_428" data-name="Path 428" d="M239.057,556.29s-3.713,7.031.564,13.525l58.844,12.751s-3.651-5.606.195-13.376Z" transform="translate(-221.841 -531.629)" fill="#3a3768"/>
        <path id="Path_429" data-name="Path 429" d="M239.057,556.29s-3.713,7.031.564,13.525l58.844,12.751s-3.651-5.606.195-13.376l-18.608-4.028Z" transform="translate(-221.841 -531.629)" opacity="0.1"/>
        <path id="Path_430" data-name="Path 430" d="M253.1,571.68s-2.119,5.143,0,8.474" transform="translate(-234.121 -544.581)" opacity="0.1"/>
        <path id="Path_431" data-name="Path 431" d="M309.444,647.7,342.3,633.68s1.836.4.648,1.742-32.867,13.622-32.867,13.622l-59.477-14.1Z" transform="translate(-232.814 -596.762)" fill="#3a3768"/>
        <path id="Path_432" data-name="Path 432" d="M309.444,647.7,342.3,633.68s1.836.4.648,1.742-32.867,13.622-32.867,13.622l-59.477-14.1Z" transform="translate(-232.814 -596.762)" opacity="0.1"/>
        <path id="Path_433" data-name="Path 433" d="M597.619,646.68s-3.168,3.8,0,9.5" transform="translate(-523.681 -607.702)" opacity="0.1"/>
        <rect id="Rectangle_112" data-name="Rectangle 112" width="14.979" height="0.158" transform="translate(75.066 43.656) rotate(-18.45)" opacity="0.1"/>
        <rect id="Rectangle_113" data-name="Rectangle 113" width="18.252" height="0.158" transform="translate(75.063 44.93) rotate(-20.82)" opacity="0.1"/>
        <rect id="Rectangle_114" data-name="Rectangle 114" width="21.155" height="0.158" transform="translate(75.156 46.431) rotate(-22.26)" opacity="0.1"/>
        <rect id="Rectangle_115" data-name="Rectangle 115" width="24.352" height="0.158" transform="translate(75.386 47.757) rotate(-24.31)" opacity="0.1"/>
        <rect id="Rectangle_116" data-name="Rectangle 116" width="26.634" height="0.158" transform="matrix(0.916, -0.401, 0.401, 0.916, 75.56, 48.4)" opacity="0.1"/>
        <rect id="Rectangle_117" data-name="Rectangle 117" width="31.872" height="0.158" transform="translate(75.93 49.483) rotate(-23.36)" opacity="0.1"/>
        <path id="Path_434" data-name="Path 434" d="M251.53,486.621l27.878-5.861,16.983,3.247-22.844,7.365Z" transform="translate(-219.566 -461.185)" fill="#fff" opacity="0.45"/>
        <path id="Path_435" data-name="Path 435" d="M655.988,563.51s1.44.581.6,1.478-33.253,10.278-33.253,10.278Z" transform="translate(-546.505 -537.706)" fill="#3a3768"/>
        <path id="Path_436" data-name="Path 436" d="M650.421,464.15s-3.591,7.867-.74,14.493l-28.669,8.949-2.745.581L617,482.63l.847-7v-3.828Z" transform="translate(-541.178 -454.084)" fill="#d5d6db"/>
        <path id="Path_437" data-name="Path 437" d="M167.89,364.414l39.681-7.234,52.581,8.376-32.659,11.758Z" transform="translate(-149.174 -357.18)" fill="#79cfcd"/>
        <path id="Path_438" data-name="Path 438" d="M248.509,446.26s-3.718,7.031.559,13.525l58.844,12.751s-3.653-5.606.193-13.375Z" transform="translate(-229.794 -439.027)" fill="#79cfcd"/>
        <path id="Path_439" data-name="Path 439" d="M248.509,446.26s-3.718,7.031.559,13.525l58.844,12.751s-3.653-5.606.193-13.375Z" transform="translate(-229.794 -439.027)" opacity="0.1"/>
        <path id="Path_440" data-name="Path 440" d="M262.532,461.65s-2.121,5.145,0,8.474" transform="translate(-242.062 -451.98)" opacity="0.1"/>
        <path id="Path_441" data-name="Path 441" d="M318.884,544.4l32.851-10.533s1.837.4.649,1.742-32.867,10.137-32.867,10.137l-59.477-14.1Z" transform="translate(-240.758 -510.892)" fill="#79cfcd"/>
        <path id="Path_442" data-name="Path 442" d="M318.884,544.4l32.851-10.533s1.837.4.649,1.742-32.867,10.137-32.867,10.137l-59.477-14.1Z" transform="translate(-240.758 -510.892)" opacity="0.1"/>
        <path id="Path_443" data-name="Path 443" d="M607.059,536.65s-3.168,3.8,0,9.5" transform="translate(-531.626 -515.1)" opacity="0.1"/>
        <rect id="Rectangle_118" data-name="Rectangle 118" width="14.979" height="0.158" transform="translate(76.562 26.227) rotate(-18.45)" opacity="0.1"/>
        <rect id="Rectangle_119" data-name="Rectangle 119" width="18.252" height="0.158" transform="translate(76.558 27.503) rotate(-20.82)" opacity="0.1"/>
        <rect id="Rectangle_120" data-name="Rectangle 120" width="21.155" height="0.158" transform="translate(76.649 29.004) rotate(-22.26)" opacity="0.1"/>
        <rect id="Rectangle_121" data-name="Rectangle 121" width="24.352" height="0.158" transform="translate(76.882 30.329) rotate(-24.31)" opacity="0.1"/>
        <rect id="Rectangle_122" data-name="Rectangle 122" width="26.634" height="0.158" transform="matrix(0.916, -0.401, 0.401, 0.916, 77.056, 30.973)" opacity="0.1"/>
        <rect id="Rectangle_123" data-name="Rectangle 123" width="31.872" height="0.158" transform="translate(77.426 32.058) rotate(-23.36)" opacity="0.1"/>
        <path id="Path_444" data-name="Path 444" d="M260.96,376.591l27.878-5.861,16.983,3.247-22.844,7.365Z" transform="translate(-227.502 -368.584)" fill="#fff" opacity="0.3"/>
        <path id="Path_445" data-name="Path 445" d="M665.418,453.48s1.441.581.6,1.479-33.253,10.278-33.253,10.278Z" transform="translate(-554.442 -445.104)" fill="#79cfcd"/>
        <path id="Path_505" data-name="Path 505" d="M650.52,447.385a12.122,12.122,0,0,1,1.818-1.129,29.677,29.677,0,0,0,2.693-1.646" transform="translate(-569.388 -437.639)" opacity="0.1"/>
      </g>
      <g id="Group_103" data-name="Group 103" transform="translate(240.019 216.99)">
        <path id="Path_554" data-name="Path 554" d="M861.326,583.8H856.44v-4.886h4.886Zm-4.51-.376h4.134v-4.135h-4.134Z" transform="translate(-741.573 -507.83)" fill="#3f3d56"/>
        <path id="Path_555" data-name="Path 555" d="M329.688,556.028l-3.333-3.573,3.573-3.333,3.333,3.573Zm-2.8-3.555,2.82,3.023,3.023-2.82-2.82-3.023Z" transform="translate(-326.355 -484.496)" fill="#3f3d56"/>
        <path id="Path_558" data-name="Path 558" d="M376.418,85.873,353.51,113.667l33.9,40.012,22.6-26.573Z" transform="translate(-329.857 -85.873)" fill="#fa3d7f"/>
        <path id="Path_559" data-name="Path 559" d="M376.418,85.873,353.51,113.667l33.9,40.012,22.6-26.573Z" transform="translate(-329.857 -85.873)" opacity="0.1"/>
        <path id="Path_560" data-name="Path 560" d="M439.739,293.737h0a11.516,11.516,0,0,1,1.868-2.494l21.04-21.33s7.33-1.222,8.858,2.443l-26.878,21.991Z" transform="translate(-415.169 -265.637)" fill="#f2f2f2"/>
        <path id="Path_561" data-name="Path 561" d="M434.805,290.674l31.154,47.648s3.054,2.138,6.109.916L503.986,317.7l-33.9-51.313L439.54,290.215Z" transform="translate(-411.305 -263.032)" fill="#fa3d7f"/>
        <rect id="Rectangle_128" data-name="Rectangle 128" width="24.073" height="0.495" transform="matrix(0.812, -0.584, 0.584, 0.812, 35.42, 24.843)" fill="#3f3d56"/>
        <rect id="Rectangle_129" data-name="Rectangle 129" width="0.495" height="46.507" transform="matrix(0.834, -0.552, 0.552, 0.834, 34.749, 30.374)" fill="#3f3d56"/>
        <rect id="Rectangle_130" data-name="Rectangle 130" width="25.78" height="0.495" transform="translate(63.52 70.053) rotate(-36.344)" fill="#3f3d56"/>
        <rect id="Rectangle_131" data-name="Rectangle 131" width="0.495" height="46.516" transform="translate(58.27 11.747) rotate(-34.838)" fill="#3f3d56"/>
        <rect id="Rectangle_132" data-name="Rectangle 132" width="32.805" height="0.305" transform="translate(26.299 26.154) rotate(-42.545)" fill="#3f3d56"/>
        <rect id="Rectangle_133" data-name="Rectangle 133" width="33.694" height="0.306" transform="translate(27.222 26.463) rotate(-41.439)" fill="#3f3d56"/>
        <rect id="Rectangle_134" data-name="Rectangle 134" width="34.137" height="0.306" transform="matrix(0.768, -0.64, 0.64, 0.768, 27.839, 26.465)" fill="#3f3d56"/>
      </g>
      <g id="undraw_Graduation_ktn0" transform="translate(370.533 41.82)">
        <ellipse id="Ellipse_88" data-name="Ellipse 88" cx="12.579" cy="1.887" rx="12.579" ry="1.887" transform="translate(3.383 113.329) rotate(-63.611)" fill="#e0e0e0"/>
        <ellipse id="Ellipse_89" data-name="Ellipse 89" cx="12.579" cy="1.282" rx="12.579" ry="1.282" transform="translate(161.101 191.657) rotate(-63.611)" fill="#e0e0e0"/>
        <rect id="Rectangle_838" data-name="Rectangle 838" width="7.547" height="25.158" transform="translate(78.996 145.264) rotate(39.547)" fill="#f55f44"/>
        <rect id="Rectangle_839" data-name="Rectangle 839" width="8.492" height="25.158" transform="translate(79.701 172.96) rotate(-166.769)" opacity="0.05"/>
        <rect id="Rectangle_840" data-name="Rectangle 840" width="7.547" height="25.158" transform="translate(79.701 172.96) rotate(-166.769)" fill="#f55f44"/>
        <rect id="Rectangle_841" data-name="Rectangle 841" width="26.415" height="175.474" transform="translate(4.794 114.73) rotate(-63.611)" fill="url(#linear-gradient)"/>
        <path id="Path_1806" data-name="Path 1806" d="M373.6,519.159c-3.077-1.476-159.442-79.11-157.189-77.992,8.679-13.246,11.182-22.536,11.182-22.536l157.189,77.992S379.266,506.311,373.6,519.159Z" transform="translate(-211.344 -327)" fill="#f5f5f5"/>
        <rect id="Rectangle_842" data-name="Rectangle 842" width="14.466" height="25.158" transform="translate(84.989 125.736) rotate(26.389)" opacity="0.05"/>
        <rect id="Rectangle_843" data-name="Rectangle 843" width="13.208" height="25.158" transform="translate(85.552 126.016) rotate(26.389)" fill="#f55f44"/>
        <rect id="Rectangle_844" data-name="Rectangle 844" width="8.805" height="25.158" transform="translate(87.243 126.855) rotate(26.389)" opacity="0.05"/>
        <rect id="Rectangle_845" data-name="Rectangle 845" width="7.547" height="25.158" transform="translate(87.806 127.134) rotate(26.389)" fill="#f55f44"/>
        <circle id="Ellipse_90" data-name="Ellipse 90" cx="1.049" cy="1.049" r="1.049" transform="translate(92.608 201.075)" fill="#dbdbdb"/>
        <g id="Group_570" data-name="Group 570" transform="translate(8.025 172.76)" opacity="0.5">
          <rect id="Rectangle_846" data-name="Rectangle 846" width="1.075" height="6.093" transform="translate(2.509)" fill="#47e6b1"/>
          <rect id="Rectangle_847" data-name="Rectangle 847" width="1.075" height="6.093" transform="translate(6.093 2.509) rotate(90)" fill="#47e6b1"/>
        </g>
        <g id="Group_571" data-name="Group 571" transform="translate(278.993 96.774)" opacity="0.5">
          <rect id="Rectangle_848" data-name="Rectangle 848" width="1.075" height="6.093" transform="translate(2.509)" fill="#47e6b1"/>
          <rect id="Rectangle_849" data-name="Rectangle 849" width="1.075" height="6.093" transform="translate(6.093 2.509) rotate(90)" fill="#47e6b1"/>
        </g>
        <g id="Group_572" data-name="Group 572" transform="translate(14.477 21.147)" opacity="0.5">
          <rect id="Rectangle_850" data-name="Rectangle 850" width="1.075" height="6.093" transform="translate(2.509)" fill="#47e6b1"/>
          <rect id="Rectangle_851" data-name="Rectangle 851" width="1.075" height="6.093" transform="translate(6.093 2.509) rotate(90)" fill="#47e6b1"/>
        </g>
        <g id="Group_573" data-name="Group 573" transform="translate(246.735 11.828)" opacity="0.5">
          <rect id="Rectangle_852" data-name="Rectangle 852" width="1.075" height="6.093" transform="translate(2.509)" fill="#47e6b1"/>
          <rect id="Rectangle_853" data-name="Rectangle 853" width="1.075" height="6.093" transform="translate(6.093 2.509) rotate(90)" fill="#47e6b1"/>
        </g>
        <path id="Path_1807" data-name="Path 1807" d="M206.711,412.073a1.317,1.317,0,0,1-.734-1.592.634.634,0,0,0,.029-.146h0a.66.66,0,0,0-1.187-.438h0a.635.635,0,0,0-.073.13,1.317,1.317,0,0,1-1.592.734.632.632,0,0,0-.146-.029h0a.66.66,0,0,0-.438,1.187h0a.632.632,0,0,0,.13.073,1.317,1.317,0,0,1,.734,1.592.633.633,0,0,0-.029.146h0a.66.66,0,0,0,1.187.438h0a.632.632,0,0,0,.073-.13,1.317,1.317,0,0,1,1.592-.734.631.631,0,0,0,.146.029h0a.66.66,0,0,0,.438-1.187h0A.635.635,0,0,0,206.711,412.073Z" transform="translate(-202.307 -321.228)" fill="#4d8af0" opacity="0.5"/>
        <path id="Path_1808" data-name="Path 1808" d="M378.711,215.073a1.317,1.317,0,0,1-.734-1.592.632.632,0,0,0,.029-.146h0a.66.66,0,0,0-1.187-.438h0a.633.633,0,0,0-.073.13,1.317,1.317,0,0,1-1.592.734.633.633,0,0,0-.146-.029h0a.66.66,0,0,0-.438,1.187h0a.633.633,0,0,0,.13.073,1.317,1.317,0,0,1,.734,1.592.634.634,0,0,0-.029.146h0a.66.66,0,0,0,1.187.438h0a.632.632,0,0,0,.073-.13,1.317,1.317,0,0,1,1.592-.734.634.634,0,0,0,.146.029h0a.66.66,0,0,0,.438-1.187h0A.634.634,0,0,0,378.711,215.073Z" transform="translate(-312.659 -194.837)" fill="#4d8af0" opacity="0.5"/>
        <path id="Path_1809" data-name="Path 1809" d="M588.711,726.073a1.317,1.317,0,0,1-.734-1.592.631.631,0,0,0,.029-.146h0a.66.66,0,0,0-1.186-.438h0a.636.636,0,0,0-.073.13,1.317,1.317,0,0,1-1.592.734.627.627,0,0,0-.146-.029h0a.66.66,0,0,0-.438,1.186h0a.63.63,0,0,0,.13.073,1.317,1.317,0,0,1,.734,1.592.637.637,0,0,0-.029.146h0a.66.66,0,0,0,1.187.438h0a.631.631,0,0,0,.073-.13,1.317,1.317,0,0,1,1.592-.734.634.634,0,0,0,.146.029h0a.66.66,0,0,0,.438-1.187h0A.639.639,0,0,0,588.711,726.073Z" transform="translate(-447.39 -522.683)" fill="#4d8af0" opacity="0.5"/>
        <circle id="Ellipse_91" data-name="Ellipse 91" cx="2.151" cy="2.151" r="2.151" transform="translate(270.032 156.989)" fill="#f55f44" opacity="0.5"/>
        <circle id="Ellipse_92" data-name="Ellipse 92" cx="2.151" cy="2.151" r="2.151" transform="translate(222.72 170.609)" fill="#4d8af0" opacity="0.5"/>
        <circle id="Ellipse_93" data-name="Ellipse 93" cx="2.151" cy="2.151" r="2.151" transform="translate(34.907 191.756)" fill="#47e6b1" opacity="0.5"/>
        <circle id="Ellipse_94" data-name="Ellipse 94" cx="2.151" cy="2.151" r="2.151" transform="translate(145.301)" fill="#f55f44" opacity="0.5"/>
        <path id="Path_1810" data-name="Path 1810" d="M391.8,468.513l-8.6,12.9s2.867,13.262,66.308,12.9,68.459-12.9,68.459-12.9l-11.828-17.2-36.2-24.731Z" transform="translate(-318.362 -340.377)" fill="#4e6ae6"/>
        <path id="Path_1811" data-name="Path 1811" d="M391.8,468.513l-8.6,12.9s2.867,13.262,66.308,12.9,68.459-12.9,68.459-12.9l-11.828-17.2-36.2-24.731Z" transform="translate(-318.362 -340.377)" opacity="0.15"/>
        <path id="Path_1812" data-name="Path 1812" d="M266.932,121.348l-112.9,49.821L16.394,121.348,142.559,64l61.932,28.556,2.219,1.025Z" transform="translate(-10.52 -41.061)" fill="#4e6ae6"/>
        <path id="Path_1813" data-name="Path 1813" d="M266.932,121.348l-112.9,49.821L16.394,121.348,142.559,64l61.932,28.556,2.219,1.025Z" transform="translate(-10.52 -41.061)" opacity="0.15"/>
        <path id="Path_1814" data-name="Path 1814" d="M545.74,184.4l-2.151.129-2.405-40.864L543.4,144.7Z" transform="translate(-347.213 -92.175)" fill="#f5f5f5"/>
        <path id="Path_1815" data-name="Path 1815" d="M393.233,373.413,383.2,434.345s72.043-23.3,134.767,0l-9.319-64.516S424.416,359.435,393.233,373.413Z" transform="translate(-318.362 -293.306)" fill="#4e6ae6"/>
        <ellipse id="Ellipse_95" data-name="Ellipse 95" cx="10.394" cy="7.168" rx="10.394" ry="7.168" transform="translate(187.953 90.323)" fill="#f5f5f5"/>
      </g>
      <g id="Group_102" data-name="Group 102" transform="matrix(0.643, -0.766, 0.766, 0.643, 619.243, 67.337)">
        <path id="Path_508" data-name="Path 508" d="M42.131,82.228c-9.622-2.718-19.683-5.445-27.889-11.4a33.08,33.08,0,0,1-9.872-11.2A34.33,34.33,0,0,1,.392,45.309,52.787,52.787,0,0,1,1.62,32.037a78.015,78.015,0,0,1,4.062-13.3A60.431,60.431,0,0,1,11.395,7.686c1.656-2.468,3.653-5.1,6.3-6.564a4.343,4.343,0,0,1,5.607.67c1.244,1.337,1.86,3.146,2.745,4.713a42.992,42.992,0,0,0,4.7,6.689c7.069,8.323,16.66,14.227,26.377,18.976,2.142,1.047,4.309,2.041,6.492,3,2.212.97,4.442,1.887,6.581,3.015A39.465,39.465,0,0,1,80.83,46.118c4.669,5.045,7.578,11.838,6.486,18.78-1.042,6.626-5.495,12.093-11.222,15.376-7.784,4.461-17.251,5.03-25.955,3.705a66.741,66.741,0,0,1-8.008-1.751.178.178,0,0,0-.095.344A59.612,59.612,0,0,0,58.164,84.96,39.569,39.569,0,0,0,71.23,82.873a28.156,28.156,0,0,0,9.465-5.465,21.98,21.98,0,0,0,5.679-7.879,19.929,19.929,0,0,0,1.466-9.24,22.5,22.5,0,0,0-3.113-9.563,31.344,31.344,0,0,0-7.991-8.8,44.025,44.025,0,0,0-6.022-3.871c-2.2-1.183-4.5-2.137-6.789-3.138a144.849,144.849,0,0,1-13.7-6.783,81.449,81.449,0,0,1-13.952-9.819A46.513,46.513,0,0,1,25.611,4.933C24.514,2.783,23.248.121,20.47,0c-2.428-.1-4.6,1.766-6.162,3.408A39.42,39.42,0,0,0,8.085,12.63a75.691,75.691,0,0,0-5.12,12.731A68.629,68.629,0,0,0,.194,39.078a37.6,37.6,0,0,0,.912,13.085A33.815,33.815,0,0,0,8.494,66.152a40,40,0,0,0,11.842,8.776,89.417,89.417,0,0,0,14.392,5.523c2.426.74,4.867,1.431,7.308,2.121a.178.178,0,0,0,.095-.344Z" transform="translate(0 0)" fill="#f2f2f2"/>
        <path id="Path_511" data-name="Path 511" d="M50.706,0H0V72.959H50.706a2.527,2.527,0,0,0,2.527-2.528V2.527A2.527,2.527,0,0,0,50.706,0ZM2.733,71.652a1.306,1.306,0,1,1,.924-.383A1.307,1.307,0,0,1,2.733,71.652Zm0-4.515a1.306,1.306,0,1,1,.924-.383A1.307,1.307,0,0,1,2.733,67.137Zm0-4.515a1.306,1.306,0,1,1,.924-.383A1.307,1.307,0,0,1,2.733,62.621Zm0-4.515a1.306,1.306,0,1,1,.924-.383A1.307,1.307,0,0,1,2.733,58.106Zm0-4.515a1.306,1.306,0,1,1,.924-.383A1.307,1.307,0,0,1,2.733,53.59Zm0-4.515a1.306,1.306,0,1,1,.924-.383A1.307,1.307,0,0,1,2.733,49.075Zm0-4.515a1.306,1.306,0,1,1,.924-.383A1.307,1.307,0,0,1,2.733,44.56Zm0-4.515a1.306,1.306,0,1,1,.924-.383A1.307,1.307,0,0,1,2.733,40.044Zm0-4.515a1.306,1.306,0,1,1,.924-.383A1.307,1.307,0,0,1,2.733,35.529Zm0-4.515a1.306,1.306,0,1,1,.924-.383A1.307,1.307,0,0,1,2.733,31.014Zm0-4.515a1.306,1.306,0,1,1,.924-.383A1.307,1.307,0,0,1,2.733,26.5Zm0-4.515a1.306,1.306,0,1,1,.924-.383A1.307,1.307,0,0,1,2.733,21.983Zm0-4.515a1.306,1.306,0,1,1,.924-.383,1.307,1.307,0,0,1-.924.383Zm0-4.515a1.306,1.306,0,1,1,.924-.383A1.307,1.307,0,0,1,2.733,12.952Zm0-4.515a1.306,1.306,0,1,1,.924-.383A1.307,1.307,0,0,1,2.733,8.437Zm0-4.515a1.306,1.306,0,1,1,.924-.383A1.307,1.307,0,0,1,2.733,3.921Z" transform="translate(27.803 12.79)" fill="#3f3d56"/>
        <path id="Path_512" data-name="Path 512" d="M3.089,1.068C2.574,1.068,0,1.042,0,.533,0,.068,2.182.008,2.85,0l0,.238a8.111,8.111,0,0,0-2.589.3,8.806,8.806,0,0,0,2.825.3A9.5,9.5,0,0,0,5.884.549,6.93,6.93,0,0,0,4.653.336L4.681.1c1.39.167,1.5.285,1.5.434C6.179,1.042,3.605,1.068,3.089,1.068Z" transform="translate(24.952 59.371)"/>
        <path id="Path_513" data-name="Path 513" d="M3.089,1.068C2.574,1.068,0,1.042,0,.533,0,.068,2.182.007,2.85,0l0,.238a8.107,8.107,0,0,0-2.589.3,8.811,8.811,0,0,0,2.825.3A9.9,9.9,0,0,0,5.862.559C5.591.487,4.926.409,4.54.364L4.3.336,4.324.1l.243.029C6.021.3,6.179.36,6.179.533,6.179,1.042,3.605,1.068,3.089,1.068Z" transform="translate(24.952 60.441)"/>
        <path id="Path_514" data-name="Path 514" d="M3.089,1.068C2.574,1.068,0,1.042,0,.533,0,.068,2.182.007,2.85,0l0,.238a8.106,8.106,0,0,0-2.589.3,8.811,8.811,0,0,0,2.825.3A9.5,9.5,0,0,0,5.884.549,6.931,6.931,0,0,0,4.653.336L4.681.1c1.39.167,1.5.285,1.5.434C6.179,1.042,3.605,1.068,3.089,1.068Z" transform="translate(24.952 54.974)"/>
        <path id="Path_515" data-name="Path 515" d="M3.089,1.068C2.574,1.068,0,1.042,0,.533,0,.068,2.182.007,2.85,0l0,.238a8.109,8.109,0,0,0-2.589.3,8.807,8.807,0,0,0,2.825.3A9.9,9.9,0,0,0,5.862.559C5.591.487,4.926.409,4.54.364L4.3.336,4.324.1l.243.029C6.021.3,6.179.36,6.179.533,6.179,1.042,3.605,1.068,3.089,1.068Z" transform="translate(24.952 56.044)"/>
        <path id="Path_516" data-name="Path 516" d="M3.089,1.068C2.574,1.068,0,1.042,0,.533,0,.068,2.182.007,2.85,0l0,.238a8.108,8.108,0,0,0-2.589.3,8.809,8.809,0,0,0,2.825.3A9.5,9.5,0,0,0,5.884.549,6.928,6.928,0,0,0,4.653.336L4.681.1c1.39.167,1.5.285,1.5.434C6.179,1.042,3.605,1.068,3.089,1.068Z" transform="translate(24.952 50.34)"/>
        <path id="Path_517" data-name="Path 517" d="M3.089,1.068C2.574,1.068,0,1.042,0,.533,0,.068,2.182.007,2.85,0l0,.238a8.106,8.106,0,0,0-2.589.3,8.809,8.809,0,0,0,2.825.3A9.9,9.9,0,0,0,5.862.559C5.591.487,4.926.409,4.54.364L4.3.336,4.324.1l.243.029C6.021.3,6.179.36,6.179.533,6.179,1.042,3.605,1.068,3.089,1.068Z" transform="translate(24.952 51.409)"/>
        <path id="Path_518" data-name="Path 518" d="M3.089,1.068C2.574,1.068,0,1.042,0,.533,0,.068,2.182.007,2.85,0l0,.238a8.109,8.109,0,0,0-2.589.3,8.81,8.81,0,0,0,2.825.3A9.5,9.5,0,0,0,5.884.549,6.93,6.93,0,0,0,4.653.336L4.681.1c1.39.167,1.5.285,1.5.434C6.179,1.042,3.605,1.068,3.089,1.068Z" transform="translate(24.952 45.825)"/>
        <path id="Path_519" data-name="Path 519" d="M3.089,1.068C2.574,1.068,0,1.042,0,.533,0,.068,2.182.007,2.85,0l0,.238a8.11,8.11,0,0,0-2.589.3,8.808,8.808,0,0,0,2.825.3A9.9,9.9,0,0,0,5.862.559C5.591.487,4.926.409,4.54.364L4.3.336,4.324.1l.243.029C6.021.3,6.179.36,6.179.533,6.179,1.042,3.605,1.068,3.089,1.068Z" transform="translate(24.952 46.894)"/>
        <path id="Path_520" data-name="Path 520" d="M3.089,1.068C2.574,1.068,0,1.042,0,.533,0,.068,2.182.007,2.85,0l0,.238a8.107,8.107,0,0,0-2.589.3,8.81,8.81,0,0,0,2.825.3A9.5,9.5,0,0,0,5.884.549,6.913,6.913,0,0,0,4.653.336L4.681.1c1.391.167,1.5.285,1.5.434C6.179,1.042,3.605,1.068,3.089,1.068Z" transform="translate(24.952 41.31)"/>
        <path id="Path_521" data-name="Path 521" d="M3.089,1.068C2.574,1.068,0,1.042,0,.533,0,.068,2.182.007,2.85,0l0,.238a8.109,8.109,0,0,0-2.589.3,8.809,8.809,0,0,0,2.825.3A9.9,9.9,0,0,0,5.862.559C5.591.487,4.925.409,4.538.364L4.3.336,4.324.1l.241.028C6.02.3,6.179.36,6.179.533,6.179,1.042,3.605,1.068,3.089,1.068Z" transform="translate(24.952 42.379)"/>
        <path id="Path_522" data-name="Path 522" d="M3.089,1.068C2.574,1.068,0,1.042,0,.533,0,.068,2.182.007,2.85,0l0,.238a8.111,8.111,0,0,0-2.589.3,8.809,8.809,0,0,0,2.825.3A9.5,9.5,0,0,0,5.884.549,6.913,6.913,0,0,0,4.653.336L4.681.1c1.391.167,1.5.285,1.5.434C6.179,1.042,3.605,1.068,3.089,1.068Z" transform="translate(24.952 36.794)"/>
        <path id="Path_523" data-name="Path 523" d="M3.089,1.068C2.574,1.068,0,1.042,0,.533,0,.068,2.182.007,2.85,0l0,.238a8.11,8.11,0,0,0-2.589.3,8.809,8.809,0,0,0,2.825.3A9.9,9.9,0,0,0,5.862.559C5.591.487,4.925.409,4.538.364L4.3.336,4.324.1l.241.028C6.02.3,6.179.36,6.179.533,6.179,1.042,3.605,1.068,3.089,1.068Z" transform="translate(24.952 37.864)"/>
        <path id="Path_524" data-name="Path 524" d="M3.089,1.068C2.574,1.068,0,1.042,0,.533,0,.068,2.182.007,2.85,0l0,.238a8.109,8.109,0,0,0-2.589.3,8.81,8.81,0,0,0,2.825.3A9.5,9.5,0,0,0,5.884.549,6.916,6.916,0,0,0,4.653.336L4.681.1c1.391.167,1.5.285,1.5.434C6.179,1.042,3.605,1.068,3.089,1.068Z" transform="translate(24.952 32.279)"/>
        <path id="Path_525" data-name="Path 525" d="M3.089,1.068C2.574,1.068,0,1.042,0,.533,0,.068,2.182.007,2.85,0l0,.238a8.112,8.112,0,0,0-2.589.3,8.807,8.807,0,0,0,2.825.3A9.9,9.9,0,0,0,5.862.559C5.591.487,4.925.409,4.538.364L4.3.336,4.324.1l.241.028C6.02.3,6.179.36,6.179.533,6.179,1.042,3.605,1.068,3.089,1.068Z" transform="translate(24.952 33.348)"/>
        <path id="Path_526" data-name="Path 526" d="M3.089,1.068C2.574,1.068,0,1.042,0,.533,0,.068,2.182.007,2.85,0l0,.238a8.111,8.111,0,0,0-2.589.3,8.807,8.807,0,0,0,2.825.3A9.5,9.5,0,0,0,5.884.549,6.916,6.916,0,0,0,4.653.336L4.681.1c1.391.167,1.5.285,1.5.434C6.179,1.042,3.605,1.068,3.089,1.068Z" transform="translate(24.952 27.764)"/>
        <path id="Path_527" data-name="Path 527" d="M3.089,1.068C2.574,1.068,0,1.042,0,.533,0,.068,2.182.007,2.85,0l0,.238a8.109,8.109,0,0,0-2.589.3,8.81,8.81,0,0,0,2.825.3A9.9,9.9,0,0,0,5.862.559C5.591.487,4.925.409,4.538.364L4.3.336,4.324.1l.241.028C6.02.3,6.179.36,6.179.533,6.179,1.042,3.605,1.068,3.089,1.068Z" transform="translate(24.952 28.833)"/>
        <path id="Path_528" data-name="Path 528" d="M3.089,1.068C2.574,1.068,0,1.042,0,.533,0,.068,2.182.007,2.85,0l0,.238a8.11,8.11,0,0,0-2.589.3,8.807,8.807,0,0,0,2.825.3A9.5,9.5,0,0,0,5.884.549,6.916,6.916,0,0,0,4.653.336L4.681.1c1.391.167,1.5.285,1.5.434C6.179,1.042,3.605,1.068,3.089,1.068Z" transform="translate(24.952 23.248)"/>
        <path id="Path_529" data-name="Path 529" d="M3.089,1.068C2.574,1.068,0,1.042,0,.533,0,.068,2.182.007,2.85,0l0,.238a8.11,8.11,0,0,0-2.589.3,8.809,8.809,0,0,0,2.825.3A9.9,9.9,0,0,0,5.862.559C5.591.487,4.925.409,4.538.364L4.3.336,4.324.1l.241.028C6.02.3,6.179.36,6.179.533,6.179,1.042,3.605,1.068,3.089,1.068Z" transform="translate(24.952 24.318)"/>
        <path id="Path_530" data-name="Path 530" d="M3.089,1.068C2.574,1.068,0,1.042,0,.533,0,.068,2.182.007,2.85,0l0,.238a8.11,8.11,0,0,0-2.589.3,8.81,8.81,0,0,0,2.825.3A9.5,9.5,0,0,0,5.884.549,6.915,6.915,0,0,0,4.653.336L4.681.1c1.391.167,1.5.285,1.5.434C6.179,1.042,3.605,1.068,3.089,1.068Z" transform="translate(24.952 18.733)"/>
        <path id="Path_531" data-name="Path 531" d="M3.089,1.068C2.574,1.068,0,1.042,0,.533,0,.068,2.182.007,2.85,0l0,.238a8.11,8.11,0,0,0-2.589.3,8.807,8.807,0,0,0,2.825.3A9.9,9.9,0,0,0,5.862.559C5.591.487,4.925.409,4.538.364L4.3.336,4.324.1l.241.028C6.02.3,6.179.36,6.179.533,6.179,1.042,3.605,1.068,3.089,1.068Z" transform="translate(24.952 19.802)"/>
        <path id="Path_532" data-name="Path 532" d="M3.089,1.068C2.574,1.068,0,1.042,0,.533,0,.068,2.182.007,2.85,0l0,.238a8.109,8.109,0,0,0-2.589.3,8.809,8.809,0,0,0,2.825.3A9.5,9.5,0,0,0,5.884.549,6.913,6.913,0,0,0,4.653.336L4.681.1c1.391.167,1.5.285,1.5.434C6.179,1.042,3.605,1.068,3.089,1.068Z" transform="translate(24.952 14.217)"/>
        <path id="Path_533" data-name="Path 533" d="M3.089,1.068C2.574,1.068,0,1.042,0,.533,0,.068,2.182.007,2.85,0l0,.238a8.109,8.109,0,0,0-2.589.3,8.808,8.808,0,0,0,2.825.3A9.9,9.9,0,0,0,5.862.559C5.591.487,4.925.409,4.538.364L4.3.336,4.324.1l.241.028C6.02.3,6.179.36,6.179.533,6.179,1.042,3.605,1.068,3.089,1.068Z" transform="translate(24.952 15.287)"/>
        <path id="Path_534" data-name="Path 534" d="M3.089,1.068C2.574,1.068,0,1.042,0,.533,0,.068,2.182.007,2.85,0l0,.238a8.11,8.11,0,0,0-2.589.3,8.807,8.807,0,0,0,2.825.3A9.5,9.5,0,0,0,5.884.549,6.939,6.939,0,0,0,4.653.336L4.681.1c1.39.167,1.5.285,1.5.434C6.179,1.042,3.605,1.068,3.089,1.068Z" transform="translate(24.952 64.005)"/>
        <path id="Path_535" data-name="Path 535" d="M3.089,1.068C2.574,1.068,0,1.042,0,.534,0,.068,2.182.008,2.85,0l0,.238a8.109,8.109,0,0,0-2.589.3,8.811,8.811,0,0,0,2.825.3A9.9,9.9,0,0,0,5.862.559C5.591.487,4.926.409,4.54.364L4.3.336,4.324.1l.243.029C6.021.3,6.179.36,6.179.534,6.179,1.042,3.605,1.068,3.089,1.068Z" transform="translate(24.952 65.075)"/>
        <path id="Path_536" data-name="Path 536" d="M3.089,1.068C2.574,1.068,0,1.042,0,.533,0,.068,2.182.007,2.85,0l0,.238a8.109,8.109,0,0,0-2.589.3,8.807,8.807,0,0,0,2.825.3A9.5,9.5,0,0,0,5.884.549,6.93,6.93,0,0,0,4.653.336L4.681.1c1.39.167,1.5.285,1.5.434C6.179,1.042,3.605,1.068,3.089,1.068Z" transform="translate(24.952 68.402)"/>
        <path id="Path_537" data-name="Path 537" d="M3.089,1.068C2.574,1.068,0,1.042,0,.533,0,.068,2.182.007,2.85,0l0,.238a8.106,8.106,0,0,0-2.589.3,8.809,8.809,0,0,0,2.825.3A9.9,9.9,0,0,0,5.862.559C5.591.487,4.926.409,4.54.364L4.3.336,4.324.1l.243.029C6.021.3,6.179.36,6.179.533,6.179,1.042,3.605,1.068,3.089,1.068Z" transform="translate(24.952 69.471)"/>
        <path id="Path_538" data-name="Path 538" d="M3.089,1.068C2.574,1.068,0,1.042,0,.533,0,.068,2.182.007,2.85,0l0,.238a8.109,8.109,0,0,0-2.589.3,8.807,8.807,0,0,0,2.825.3A9.5,9.5,0,0,0,5.884.549,6.923,6.923,0,0,0,4.653.336L4.681.1c1.39.167,1.5.285,1.5.434C6.179,1.042,3.605,1.068,3.089,1.068Z" transform="translate(24.952 73.036)"/>
        <path id="Path_539" data-name="Path 539" d="M3.089,1.068C2.574,1.068,0,1.042,0,.534,0,.068,2.182.007,2.85,0l0,.238a8.106,8.106,0,0,0-2.589.3,8.812,8.812,0,0,0,2.825.3A9.9,9.9,0,0,0,5.862.559C5.591.487,4.926.409,4.54.364L4.3.336,4.324.1l.243.029C6.021.3,6.179.36,6.179.534,6.179,1.042,3.605,1.068,3.089,1.068Z" transform="translate(24.952 74.105)"/>
        <path id="Path_540" data-name="Path 540" d="M3.089,1.068C2.574,1.068,0,1.042,0,.534,0,.068,2.182.008,2.85,0l0,.238a8.109,8.109,0,0,0-2.589.3,8.811,8.811,0,0,0,2.825.3A9.5,9.5,0,0,0,5.884.549,6.933,6.933,0,0,0,4.653.336L4.681.1c1.39.167,1.5.285,1.5.434C6.179,1.042,3.605,1.068,3.089,1.068Z" transform="translate(24.952 77.432)"/>
        <path id="Path_541" data-name="Path 541" d="M3.089,1.068C2.574,1.068,0,1.042,0,.533,0,.068,2.182.007,2.85,0l0,.238a8.107,8.107,0,0,0-2.589.3,8.807,8.807,0,0,0,2.825.3A9.9,9.9,0,0,0,5.862.559C5.591.487,4.926.409,4.54.364L4.3.336,4.324.1l.243.029C6.021.3,6.179.36,6.179.533,6.179,1.042,3.605,1.068,3.089,1.068Z" transform="translate(24.952 78.502)"/>
        <path id="Path_542" data-name="Path 542" d="M3.089,1.068C2.574,1.068,0,1.042,0,.533,0,.068,2.182.007,2.85,0l0,.238a8.108,8.108,0,0,0-2.589.3,8.809,8.809,0,0,0,2.825.3A9.5,9.5,0,0,0,5.884.549,6.936,6.936,0,0,0,4.653.336L4.681.1c1.39.167,1.5.285,1.5.434C6.179,1.042,3.605,1.068,3.089,1.068Z" transform="translate(24.952 81.948)"/>
        <path id="Path_543" data-name="Path 543" d="M3.089,1.068C2.574,1.068,0,1.042,0,.533,0,.068,2.182.007,2.85,0l0,.238a8.106,8.106,0,0,0-2.589.3,8.809,8.809,0,0,0,2.825.3A9.9,9.9,0,0,0,5.862.559C5.591.487,4.926.409,4.54.364L4.3.336,4.324.1l.243.029C6.021.3,6.179.36,6.179.533,6.179,1.042,3.605,1.068,3.089,1.068Z" transform="translate(24.952 83.018)"/>
        <path id="Path_544" data-name="Path 544" d="M1.426,2.852A1.426,1.426,0,1,1,2.852,1.426,1.426,1.426,0,0,1,1.426,2.852Zm0-2.614A1.188,1.188,0,1,0,2.614,1.426,1.188,1.188,0,0,0,1.426.238Z" transform="translate(10.023 12.432)" fill="#3f3d56"/>
        <path id="Path_545" data-name="Path 545" d="M3.089,3.089H0V0H3.089ZM.238,2.852H2.852V.238H.238Z" transform="translate(13.485 49.329)" fill="#3f3d56"/>
        <path id="Path_546" data-name="Path 546" d="M2.06,4.362,0,2.06,2.3,0l2.06,2.3ZM.336,2.079,2.079,4.027,4.027,2.284,2.284.336Z" transform="translate(43.981 4.608)" fill="#3f3d56"/>
        <rect id="Rectangle_126" data-name="Rectangle 126" width="29.825" height="13.546" transform="translate(41.647 32.218)" fill="#fff"/>
        <path id="Path_547" data-name="Path 547" d="M.22,1.011a16.453,16.453,0,0,1,5.945-.6c2.072.177,4.075.8,6.121,1.138a36.2,36.2,0,0,0,5.693.492c1.648.011,3.665.142,5.125-.759.195-.12.016-.429-.18-.308a5.717,5.717,0,0,1-2.79.661q-1.473.08-2.949.036A35.648,35.648,0,0,1,11.265,1,40.193,40.193,0,0,0,5.717.024,16.806,16.806,0,0,0,.125.667a.178.178,0,0,0,.095.344Z" transform="translate(44.497 40.287)" fill="#f2f2f2"/>
        <path id="Path_548" data-name="Path 548" d="M.22,1.011a16.456,16.456,0,0,1,5.945-.6c2.072.177,4.075.8,6.121,1.138a36.2,36.2,0,0,0,5.693.492c1.648.011,3.665.142,5.125-.759.195-.12.016-.429-.18-.308a5.717,5.717,0,0,1-2.79.661q-1.473.08-2.949.036A35.661,35.661,0,0,1,11.265,1,40.2,40.2,0,0,0,5.717.024,16.807,16.807,0,0,0,.125.667a.178.178,0,0,0,.095.344Z" transform="translate(44.497 36.603)" fill="#f2f2f2"/>
        <path id="Path_549" data-name="Path 549" d="M21.639,0V14.155a2.527,2.527,0,0,1-2.528,2.527H0Z" transform="translate(59.398 69.067)" opacity="0.2"/>
        <path id="Path_550" data-name="Path 550" d="M25.23,2.527V16.051L0,0H22.7A2.527,2.527,0,0,1,25.23,2.528Z" transform="translate(55.807 12.79)" opacity="0.2"/>
        <circle id="Ellipse_8" data-name="Ellipse 8" cx="2.971" cy="2.971" r="2.971" transform="translate(76.879 25.174)" fill="#fff"/>
        <circle id="Ellipse_9" data-name="Ellipse 9" cx="0.91" cy="0.91" r="0.91" transform="translate(78.913 27.149)" fill="#d0cde1"/>
      </g>
      <path id="Path_2007" data-name="Path 2007" d="M288.348,331.09s2.651,18.534,11.766,22.947-11.766,12.647-11.766,12.647L259.81,356.1s16.179-5.294,12.943-20.889Z" transform="translate(-139.887 -233.854)" fill="#ffbdc6"/>
      <path id="Path_2008" data-name="Path 2008" d="M243.77,485.45l-.65,3.532-.5,2.7-.91,4.94-8.826,6.176s-.795-.679-2.109-1.755c-3.611-2.976-11.217-9.014-16.8-12.279a18.778,18.778,0,0,0-4.615-2.131Z" transform="translate(-125.876 -276.722)" fill="#ffbdc6"/>
      <path id="Path_2009" data-name="Path 2009" d="M243.767,485.45l-.65,3.532a27.445,27.445,0,0,1-5.822-.3l-20.592.3c-.975-.058-1.885-.137-2.737-.224a18.779,18.779,0,0,0-4.615-2.131Z" transform="translate(-125.873 -276.722)" opacity="0.1"/>
      <path id="Path_2010" data-name="Path 2010" d="M234.506,485.377s10.3,1.762,10.885-2.651-5.294-6.768-10.3-7.057-35.009,1.762-35.009,1.762-5.294,7.057,13.825,8.234Z" transform="translate(-123.113 -273.998)" fill="#7679b4"/>
      <path id="Path_2011" data-name="Path 2011" d="M250.816,494.009l-.91,4.94-8.826,6.176s-.795-.679-2.109-1.755l11.672-9.57Z" transform="translate(-134.099 -279.04)" opacity="0.1"/>
      <path id="Path_2012" data-name="Path 2012" d="M308.615,556.323q-.607-.3-1.228-.628l-1.076-1.372L292.1,536.265v.318c-.094,3-1.12,26.905-9.108,29.108-8.53,2.355-18.83,2.94-23.532-12.943s-13.24-50.6-22.066-52.655l13.088-10.74s8.667,10.112,12.207,19.848c-.13-.621-6.118-28.581-1.177-33.521h42.947s6.616,18.881,11.181,28.241c3.539,7.266,8.848,24.442,12.279,36.064A13.814,13.814,0,0,1,308.615,556.323Z" transform="translate(-133.66 -274.008)" fill="#7679b4"/>
      <path id="Path_2013" data-name="Path 2013" d="M315.911,467.17c-6.623,3.922-35.746,2.326-45.237,1.69l-2.579-.188c-.282,0,.043-.159.043-.159l.267-2.672,7.057-17.942,37.8-21.9a32.716,32.716,0,0,0-.961,9.888C312.495,448.875,315.911,467.17,315.911,467.17Z" transform="translate(-142.156 -260.212)" opacity="0.1"/>
      <path id="Path_2014" data-name="Path 2014" d="M315.792,465.966c-6.623,3.922-35.746,2.326-45.237,1.69l-2.579-.188h-.426l.47-.123,2.326-.614,5-20.007,37.8-21.914a32.713,32.713,0,0,0-.961,9.888C312.375,447.663,315.792,465.966,315.792,465.966Z" transform="translate(-142.036 -259.881)" fill="#f2f1f2"/>
      <path id="Path_2015" data-name="Path 2015" d="M312.354,434.644c-7.685,1.77-24.6,6.977-31.1,19.5-4.334,8.364-7.945,11.954-10.524,13.456l-2.579-.188.043-.159,2.326-.614,5-20.007,37.8-21.914A32.715,32.715,0,0,0,312.354,434.644Z" transform="translate(-142.203 -259.856)" opacity="0.1"/>
      <path id="Path_2017" data-name="Path 2017" d="M265.761,484.309a.527.527,0,0,1-.621-.079A2.124,2.124,0,0,0,265.761,484.309Z" transform="translate(-141.367 -276.383)" opacity="0.1"/>
      <path id="Path_2018" data-name="Path 2018" d="M252.436,343.94s-7.945.881-13.536-5c0,0-23.532,6.768-31.477,22.066s-62.073,45.3-62.073,45.3,9.39,5.294,8.53,7.945l35.594-20.592s12.647-9.122,16.179-11.181,22.947-14.706,27.064,19.711,0,30.336,0,30.336,5.887,2.059,14.446-14.446,35.009-20.3,35.009-20.3l1.445-17.335s5.251-11.5,1.228-16.295a10.184,10.184,0,0,1-2.355-4.977c-.672-4.406,0-11.752,9.39-17.855,14.446-9.39,20.007-17.06,20.007-17.06s.3-5.59-8.53-8.234-44.717-17.06-44.717-17.06l-1.177,5L285.7,323.976s-14.121,11.47-25.28,11.181C260.382,335.106,262.44,343.643,252.436,343.94Z" transform="translate(-108.1 -224.934)" fill="#565388"/>
      <path id="Path_2019" data-name="Path 2019" d="M294.4,339.483a57.8,57.8,0,0,1-1.625-7.223l-15.594,4.146a17.191,17.191,0,0,1-.354,8.992,16.771,16.771,0,0,0,17.573-5.923Z" transform="translate(-144.613 -234.179)" opacity="0.1"/>
      <ellipse id="Ellipse_107" data-name="Ellipse 107" cx="16.772" cy="16.772" rx="16.772" ry="16.772" transform="translate(120.068 77.373)" fill="#ffbdc6"/>
      <path id="Path_2020" data-name="Path 2020" d="M278.02,273.943c4.651.527,9.079,2.528,13.658,3.611a6.746,6.746,0,0,0,3.532.137c1.777-.549,3.221-2.412,5.056-2.355a5.315,5.315,0,0,1,3.077,1.553,36.917,36.917,0,0,1,4.24,3.763c3.156,3.431,5.121,8.053,8,11.78s7.425,6.631,11.52,4.919c-2.781,10.834-11.911,19.119-21.777,19.791-3.936.267-7.945-.549-11.781.607a10.313,10.313,0,0,1-2.976.722c-2.167,0-3.958-2.015-5.33-3.973-3.207-4.608-5.778-9.838-9.39-14.034-1.192-1.387-2.6-2.709-4.283-2.961s-3.236.549-4.738,1.329a22.5,22.5,0,0,0-6.934,4.81,9.615,9.615,0,0,0-2.34,8.458c.426,1.6,1.408,3.048,1.445,4.731,0,2.672-2.326,4.63-2.8,7.223a27.855,27.855,0,0,0-.116,3.294c-.209,3.568-2.535,6.5-4.977,8.732a6.281,6.281,0,0,0-2.275,3.156c-.188.917,0,1.892-.123,2.824-.354,2.319-2.665,3.489-4.709,3.792a13.651,13.651,0,0,1-7.064-.838c2.889-1.351,4.615-5.2,3.951-8.667-.91-4.774-5.706-8.2-5.3-13.066a15.117,15.117,0,0,1,1.329-4.3,39.33,39.33,0,0,0,2.268-8.147,13.8,13.8,0,0,0-.137-6.5,20.523,20.523,0,0,0-2.932-4.94,28.04,28.04,0,0,1-3.395-6.956,4.875,4.875,0,0,1-.325-2.3,4.76,4.76,0,0,1,1.445-2.384c2.629-2.752,5.446-5.619,8.942-6.414a20.049,20.049,0,0,1,5.056-.195,59.412,59.412,0,0,0,8.819-.376c2.412-.282,6.5-.246,8.537-1.82,1.9-1.445,2.976-3.286,5.323-4.211A15.58,15.58,0,0,1,278.02,273.943Z" transform="translate(-132.268 -217.943)" opacity="0.1"/>
      <path id="Path_2021" data-name="Path 2021" d="M308.48,513.76s9.708,19.119,6.768,25.006" transform="translate(-153.403 -284.584)" opacity="0.1"/>
      <path id="Path_2022" data-name="Path 2022" d="M327.339,576.1l-14.215-18.057v.318s-.823-5.836,1.885-3.871c5.93,4.29,15.421,11.325,15.623,12.539S328.712,573.105,327.339,576.1Z" transform="translate(-154.66 -295.781)" opacity="0.1"/>
      <g id="Group_581" data-name="Group 581" transform="translate(37.546 73.986)" opacity="0.1">
        <path id="Path_1904" data-name="Path 1904" d="M303.97,348.908s1.2,4.969-2.68,7.454c5.973-1.026,6.233-5.67,6.053-7.692A18.82,18.82,0,0,1,303.97,348.908Z" transform="translate(-188.953 -312.722)"/>
        <path id="Path_1905" data-name="Path 1905" d="M149,420.686s54.128-30,62.073-45.3c5.7-10.979,19.43-17.559,26.725-20.4-5.323,1.784-23.236,8.624-29.968,21.582-7.945,15.3-62.073,45.3-62.073,45.3Z" transform="translate(-145.76 -314.474)"/>
        <path id="Path_1906" data-name="Path 1906" d="M314.4,332.754c9.209-2.889,18.014-10.018,18.014-10.018l-28.241-20.007.643-2.745-2.7-1.083-1.177,5,28.241,20.007A68.15,68.15,0,0,1,314.4,332.754Z" transform="translate(-188.855 -298.9)"/>
        <path id="Path_1907" data-name="Path 1907" d="M319.83,438.336a69.982,69.982,0,0,1,11.073-2.8l.051-.571a74.937,74.937,0,0,0-11.123,3.366Z" transform="translate(-194.101 -336.688)"/>
        <path id="Path_1908" data-name="Path 1908" d="M263.262,461.518H263a.527.527,0,0,1-.621-.079,2.166,2.166,0,0,0,.621.079c.968-.563,2.42-4.955-.621-30.379-3.25-27.144-16.006-25.013-22.99-21.893,7.136-1.965,16.959-.267,19.755,23.07,3.041,25.425,1.589,29.823.621,30.379A6.5,6.5,0,0,0,263.262,461.518Z" transform="translate(-171.762 -329.051)"/>
        <path id="Path_1909" data-name="Path 1909" d="M267.361,483.909a2.166,2.166,0,0,1-.621-.079A.527.527,0,0,0,267.361,483.909Z" transform="translate(-179.358 -350.257)"/>
      </g>
      <path id="Path_2023" data-name="Path 2023" d="M278.02,273.153c4.652.527,9.079,2.528,13.658,3.611a6.746,6.746,0,0,0,3.532.137c1.777-.549,3.221-2.412,5.056-2.355a5.315,5.315,0,0,1,3.077,1.553,36.918,36.918,0,0,1,4.24,3.763c3.156,3.431,5.121,8.053,8,11.78s7.425,6.631,11.521,4.919c-2.781,10.834-11.911,19.119-21.777,19.791-3.936.267-7.945-.549-11.781.607a10.313,10.313,0,0,1-2.976.722c-2.167,0-3.958-2.015-5.33-3.973-3.207-4.608-5.778-9.838-9.39-14.034-1.192-1.387-2.6-2.709-4.283-2.961s-3.236.549-4.738,1.329a22.494,22.494,0,0,0-6.934,4.81,9.615,9.615,0,0,0-2.34,8.458c.426,1.6,1.408,3.048,1.445,4.731,0,2.672-2.326,4.63-2.8,7.223a27.881,27.881,0,0,0-.116,3.294c-.209,3.568-2.535,6.5-4.977,8.732a6.281,6.281,0,0,0-2.275,3.156c-.188.917,0,1.892-.123,2.824-.354,2.319-2.665,3.489-4.709,3.792a13.651,13.651,0,0,1-7.064-.838c2.889-1.351,4.615-5.2,3.951-8.667-.91-4.774-5.706-8.2-5.3-13.066a15.118,15.118,0,0,1,1.329-4.3,39.331,39.331,0,0,0,2.268-8.147,13.8,13.8,0,0,0-.137-6.5,20.522,20.522,0,0,0-2.932-4.94,28.042,28.042,0,0,1-3.395-6.956,4.876,4.876,0,0,1-.325-2.3,4.76,4.76,0,0,1,1.445-2.384c2.629-2.752,5.446-5.619,8.942-6.414a20.051,20.051,0,0,1,5.056-.2,59.4,59.4,0,0,0,8.819-.376c2.412-.282,6.5-.246,8.537-1.82,1.9-1.445,2.976-3.286,5.323-4.211A15.579,15.579,0,0,1,278.02,273.153Z" transform="translate(-132.268 -217.723)" fill="#a66477"/>
      <path id="Path_2024" data-name="Path 2024" d="M902.6,214.2h0v-.272a.62.62,0,0,0-.044-.28h-.118v-.611c-.294-6.821-9.727-21.338-13.509-17.1-3.311,3.723,1.685,13.141,4.231,17.379l.228.383-.125-.081s-10.529,31.4-11.772,32.624-9.911,25.914-21.338,28.7c-2.259.537-4.135,1.023-5.71,1.472l.125-.419a45.519,45.519,0,0,0,2.009-7.358c.368-2.678,0-5.923-1.354-7.225-.662-.648-1.472-.736-2.016-1.766a8.15,8.15,0,0,1-.559-2.833l-.971-11.9.677-.206c4.091-1.31,8.057-4.415,8.52-8.594a4.4,4.4,0,0,1-.434.14,7.428,7.428,0,0,0,.125-.736c-3.436,1.354-6.622-2.207-9.933-3.8-5.452-2.671-11.684-.155-17.313.456-6.379.7-12.435-1.95-18.954-1.472-3.546.272-7.49,2.678-7.3,6.173.11,1.92,1.472,3.546,2.031,5.386,1.413,4.451-1.729,8.918-4.481,12.714-1.81,2.494-3.546,5.533-3.855,8.461-6.335-6.622-13.185-14.274-13.98-17.151l-18.328-31.4s-.434.464-1.133,1.148c-.11-.338-.243-.736-.39-1.133-2.34-6.556-8.962-22.441-17.357-19.528s3.48,19.2,8.645,25.686l.736.9a2.325,2.325,0,0,1-1.31-.059l20.44,35.06s3.716,6.71,7.122,8.535c0,0,25.392,32.014,25.7,38.415s11.419,23.479,11.419,23.479,3.716,27.746-2.789,32.624h1.074q-.463.453-.949.993c-4.819,5.342-10.978,16.79-2.56,36.259,12.383,28.7,14.245,39.938,14.245,39.938s-23.545,1.221-28.18,2.134c-4.106.809-20.065,1.376-23.714,1.472-1.3-1.516-5.15-4.871-10.345,0-6.5,6.1-11.147,26.488-11.147,26.488s-2.48,16.467,5.886,12.192c0,0,9.911-13.722,12.692-14.333,1.383-.3,2.847-2.34,3.966-4.3l.059.037h0c.066,0,.339-.147.78-.324h0c2.06-.817,7.733-2.781,12.207-1.8,2.45.537,12.957.662,23.972.633-2.487,5.96-6.946,21.338-6.946,21.338s-1.862,14.34,4.319,13.752c4.415-.434,11.184-11.714,14.716-18.152,2.56-1.876,9.9-8.6,15.319-8.094l36.539-14.024s8.667-4.878,4.025-21.036c-3.679-12.847-14.149-39.143-18.284-49.393h0l-.125-.265c-1-2.48-1.6-3.951-1.6-3.951h0a60.471,60.471,0,0,1-3.318-14.5c-.037-.39-.066-.787-.1-1.177a6.5,6.5,0,0,0,1.435-.831s-3.407-34.449,0-38.113h0l.059-.066h0v-.044h0l.059-.074h0l.132-.169h0l.162-.206h0c.184-.243.4-.544.655-.912h0c1.95-2.855,5.585-9.374,4.54-17.07h0q-.066-.5-.162-1.008h0a21.022,21.022,0,0,0-2.119-5.975,16.562,16.562,0,0,1-.272-2.362v-2.09a7.077,7.077,0,0,1,.11-1.06v-.132a1.318,1.318,0,0,1,.066-.4v-.169a1.929,1.929,0,0,1,.088-.4v-.14c.044-.177.088-.353.147-.53v-.088q.066-.221.147-.434l.066-.169.147-.353.074-.177c.059-.132.125-.265.191-.4l.051-.11q.132-.243.28-.478l.081-.125.243-.346.118-.154.258-.309.118-.132c.132-.14.265-.28.412-.412,4.025-3.679,21.985-30.792,21.985-30.792s4.334-6.1,4.334-10.058C895.713,247.49,903.372,221.959,902.6,214.2ZM854.384,442.1c-.441-4.179-.883-9.359-1.288-14.716l7,10.919S859.439,441.633,854.384,442.1Z" transform="translate(37.344 -173.068)" fill="url(#linear-gradient-2)"/>
      <path id="Path_2025" data-name="Path 2025" d="M786.049,526.577s-4.194-6.622-10.492-.6-10.786,26.069-10.786,26.069-2.4,16.187,5.695,11.986c0,0,9.565-13.487,12.288-14.083s5.695-8.094,5.695-8.094Z" transform="translate(32.645 -259.852)" fill="#493545"/>
      <path id="Path_2026" data-name="Path 2026" d="M849.322,549.188s-5.695-2.7-7.49-.6-7.792,23.074-7.792,23.074-1.8,13.788,4.194,13.185,16.481-22.191,16.481-22.191Z" transform="translate(14.322 -266.283)" fill="#493545"/>
      <path id="Path_2027" data-name="Path 2027" d="M849.322,549.188s-5.695-2.7-7.49-.6-7.792,23.074-7.792,23.074-1.8,13.788,4.194,13.185,16.481-22.191,16.481-22.191Z" transform="translate(14.322 -266.283)" opacity="0.05"/>
      <path id="Path_2028" data-name="Path 2028" d="M873.585,481.189l12.883,20.079s-.9,4.5-8.69,3.6L851.107,521.65s-2.318,20.433,5.092,18.578c1.2-.3,9.565-8.991,15.584-8.388l35.369-13.788s8.388-4.8,3.892-20.675-19.358-52.7-19.358-52.7l-23.493,13.141Z" transform="translate(9.836 -239.039)" fill="#3e3d77"/>
      <path id="Path_2029" data-name="Path 2029" d="M873.585,481.189l12.883,20.079s-.9,4.5-8.69,3.6L851.107,521.65s-2.318,20.433,5.092,18.578c1.2-.3,9.565-8.991,15.584-8.388l35.369-13.788s8.388-4.8,3.892-20.675-19.358-52.7-19.358-52.7l-23.493,13.141Z" transform="translate(9.836 -239.039)" opacity="0.05"/>
      <path id="Path_2030" data-name="Path 2030" d="M865.173,503.093c1.8,11.39-8.388,12.287-8.388,12.287s-45.854.9-51.247-.3-12.589,2.1-12.589,2.1c-9.293-5.695-1.8-19.778-1.8-19.778s19.182-.6,23.677-1.472,27.268-2.119,27.268-2.119-1.8-11.088-13.788-39.254c-8.145-19.13-2.207-30.388,2.48-35.634a19.73,19.73,0,0,1,4.113-3.62l36.862,1.8a47.812,47.812,0,0,0,.206,5.57,59.319,59.319,0,0,0,4.893,18.395c-2.1,0-15.584,12.589-15.584,12.589S863.37,491.711,865.173,503.093Z" transform="translate(26.342 -231.276)" fill="#3e3d77"/>
      <path id="Path_2031" data-name="Path 2031" d="M793.848,498.605s19.182-.6,23.677-1.472,27.268-2.1,27.268-2.1S843,483.949,831,455.783c-8.145-19.13-2.207-30.388,2.48-35.634a19.733,19.733,0,0,1,4.113-3.62l34.155,1.663v-1.067l-36.862-1.8a19.734,19.734,0,0,0-4.113,3.62c-4.665,5.253-10.625,16.5-2.48,35.634,12.023,28.143,13.8,39.232,13.8,39.232s-22.809,1.2-27.268,2.1-23.677,1.472-23.677,1.472-7.49,14.09,1.8,19.807c0,0,.28-.132.736-.324C787.513,510.518,793.848,498.605,793.848,498.605Z" transform="translate(26.341 -231.284)" opacity="0.1"/>
      <rect id="Rectangle_873" data-name="Rectangle 873" width="18.578" height="47.046" transform="translate(856.448 74.032)" fill="#493545"/>
      <rect id="Rectangle_874" data-name="Rectangle 874" width="18.578" height="47.046" transform="translate(856.448 74.032)" opacity="0.1"/>
      <path id="Path_2032" data-name="Path 2032" d="M881.781,253.574c.64.177,1.361.2,1.8,1.082a6.623,6.623,0,0,1,.434,2.207l1.17,14.539a8.092,8.092,0,0,0,.544,2.781c.493.986,1.31,1.1,1.95,1.736,1.288,1.28,1.663,4.488,1.31,7.1a46.654,46.654,0,0,1-1.942,7.211c-1,3.385-1.663,7.189-3.068,10.043s-3.959,4.415-5.607,2.016-1.427-7.24-1.736-11.206c-.515-6.622-3.1-12.332-3.274-19-.147-5.393,1.3-10.426,2.207-15.54.647-3.51.684-7.77,1.626-10.926C877.977,249.372,879.478,252.941,881.781,253.574Z" transform="translate(3.87 -186.443)" fill="#493545"/>
      <path id="Path_2033" data-name="Path 2033" d="M881.781,253.574c.64.177,1.361.2,1.8,1.082a6.623,6.623,0,0,1,.434,2.207l1.17,14.539a8.092,8.092,0,0,0,.544,2.781c.493.986,1.31,1.1,1.95,1.736,1.288,1.28,1.663,4.488,1.31,7.1a46.654,46.654,0,0,1-1.942,7.211c-1,3.385-1.663,7.189-3.068,10.043s-3.959,4.415-5.607,2.016-1.427-7.24-1.736-11.206c-.515-6.622-3.1-12.332-3.274-19-.147-5.393,1.3-10.426,2.207-15.54.647-3.51.684-7.77,1.626-10.926C877.977,249.372,879.478,252.941,881.781,253.574Z" transform="translate(3.87 -186.443)" opacity="0.1"/>
      <path id="Path_2034" data-name="Path 2034" d="M770.558,220.363l-7.189,6s-.853-1-2.126-2.619c-5-6.379-16.481-22.382-8.366-25.245s14.532,12.744,16.8,19.189C770.249,219.318,770.558,220.363,770.558,220.363Z" transform="translate(36.445 -173.9)" fill="#c77485"/>
      <path id="Path_2035" data-name="Path 2035" d="M949.381,218.331c-2.995,4.5-7.189,0-7.189,0s-.537-.8-1.295-2.1c-2.465-4.172-7.3-13.421-4.1-17.085,3.679-4.187,12.8,10.1,13.075,16.805A3.988,3.988,0,0,1,949.381,218.331Z" transform="translate(-12.616 -173.965)" fill="#c77485"/>
      <path id="Path_2036" data-name="Path 2036" d="M854.08,289.647s6,19.182,4.194,24.869,12.891,12.31,12.891,12.31h16.783s6-12.287,4.5-15.885-14.384-6.291-14.384-6.291-7.49,0-7.189-20.079Z" transform="translate(8.96 -196.734)" fill="#c77485"/>
      <path id="Path_2037" data-name="Path 2037" d="M774.575,227.378l-7.189,6s-.854-1-2.126-2.619c2.612-.464,6.666-4.275,8.439-6.055C774.266,226.333,774.575,227.378,774.575,227.378Z" transform="translate(32.428 -180.915)" opacity="0.1"/>
      <path id="Path_2038" data-name="Path 2038" d="M951.234,224.629c-2.995,4.5-7.189,0-7.189,0s-.537-.8-1.295-2.1l.1-.3c1.942,1.391,7.983.206,8.881,0a3.987,3.987,0,0,1-.493,2.4Z" transform="translate(-14.469 -180.263)" opacity="0.1"/>
      <path id="Path_2039" data-name="Path 2039" d="M887.2,422.652c-9.271,4.231-39.394-3.3-41.2-3.752a19.732,19.732,0,0,1,4.113-3.62l36.862,1.8a47.838,47.838,0,0,0,.228,5.577Z" transform="translate(11.095 -231.271)" opacity="0.1"/>
      <path id="Path_2040" data-name="Path 2040" d="M834.311,289.881s-7.189,2.4-17.379-6.894c0,0-22.809-22.478-24.281-27.871l-17.659-30.9s-7.49,8.094-10.492,6.894l19.778,34.464s3.6,6.622,6.894,8.388c0,0,24.575,31.469,24.869,37.76s11.073,23.14,11.073,23.14,3.6,27.268-2.7,32.065c0,0,35.06,8.991,42.55,2.995,0,0-3.3-33.846,0-37.458,0,0,10.191-11.986,3.3-25.171,0,0-1.472-7.189,2.4-10.787s21.279-30.27,21.279-30.27,4.194-6,4.194-9.889c0,0,7.792-26.37,6.622-33.264,0,0-6.894,1.472-8.991,0,0,0-10.191,30.9-11.39,32.065s-9.565,25.473-20.675,28.173-12.884,3.892-12.884,3.892S872.387,300.7,861.9,306.686,834.311,289.881,834.311,289.881Z" transform="translate(32.629 -180.487)" fill="#ffaac4"/>
      <path id="Path_2041" data-name="Path 2041" d="M871.707,294.683a57.273,57.273,0,0,1-.434-8.513l-16.783,5.092a22.629,22.629,0,0,1,1.052,3.443c1.92.846,4.51,2.847,6.74,2.847a15.282,15.282,0,0,0,9.425-2.87Z" transform="translate(8.852 -197.157)" opacity="0.1"/>
      <ellipse id="Ellipse_108" data-name="Ellipse 108" cx="15.584" cy="15.584" rx="15.584" ry="15.584" transform="translate(855.248 68.338)" fill="#c77485"/>
      <path id="Path_2042" data-name="Path 2042" d="M834.731,246.544c-3.429.265-7.255,2.634-7.063,6.07.1,1.891,1.4,3.488,1.965,5.3,1.361,4.378-1.67,8.77-4.334,12.508s-5.151,8.69-2.87,12.648a31.183,31.183,0,0,0,2.1,2.744c2.818,3.8,2.781,8.94,4.032,13.509a23.7,23.7,0,0,0,27.842,16.923,14.818,14.818,0,0,1-3.127-10.021c.169-2.619,1.015-5.357,0-7.777-1.31-3.112-5.15-4.341-7.13-7.063s-1.847-6.5-.89-9.742,2.612-6.254,3.407-9.565a28.8,28.8,0,0,1,.736-2.862c1.383-3.929,5.518-6.21,9.565-7.189s8.3-1.037,12.251-2.325,7.792-4.3,8.248-8.447c-3.326,1.332-6.409-2.141-9.617-3.738-5.283-2.619-11.309-.155-16.754.449C846.893,248.656,841.007,246.088,834.731,246.544Z" transform="translate(17.56 -186.631)" opacity="0.1"/>
      <path id="Path_2043" data-name="Path 2043" d="M834.321,245.734c-3.429.265-7.255,2.634-7.063,6.07.1,1.891,1.4,3.488,1.965,5.3,1.361,4.378-1.67,8.77-4.334,12.508s-5.15,8.69-2.87,12.648a31.19,31.19,0,0,0,2.1,2.744c2.818,3.8,2.781,8.94,4.032,13.509A23.7,23.7,0,0,0,856,315.435a14.818,14.818,0,0,1-3.127-10.021c.169-2.619,1.015-5.356,0-7.777-1.31-3.112-5.15-4.341-7.13-7.063s-1.847-6.5-.89-9.742,2.612-6.254,3.407-9.565a28.8,28.8,0,0,1,.736-2.862c1.383-3.929,5.518-6.21,9.565-7.189s8.3-1.037,12.251-2.325,7.792-4.3,8.248-8.447c-3.326,1.332-6.409-2.141-9.617-3.738-5.283-2.619-11.309-.155-16.754.449C846.5,247.839,840.634,245.241,834.321,245.734Z" transform="translate(17.668 -186.418)" fill="#493545"/>
      <path id="Path_2044" data-name="Path 2044" d="M885.65,326.3s6.239,5.57,7.468,8.027" transform="translate(0.619 -207.76)" opacity="0.1"/>
      <path id="Path_2045" data-name="Path 2045" d="M895.5,371.51s-7.792,0-11.39.9-12.288,0-12.288,0" transform="translate(4.273 -219.706)" opacity="0.1"/>
      <g id="Group_582" data-name="Group 582" transform="translate(797.122 42.571)" opacity="0.1">
        <path id="Path_1933" data-name="Path 1933" d="M892.868,329.686a7.492,7.492,0,0,1-2.156.824,8.241,8.241,0,0,0,5.754-.824c10.492-6-11.088-19.476-11.088-19.476h-3.6S903.36,323.7,892.868,329.686Z" transform="translate(-795.481 -246.08)"/>
        <path id="Path_1934" data-name="Path 1934" d="M953.824,223.594a3.138,3.138,0,0,0-.074-.544,35.2,35.2,0,0,1-3.73.567A16.525,16.525,0,0,0,953.824,223.594Z" transform="translate(-813.511 -223.05)"/>
        <path id="Path_1935" data-name="Path 1935" d="M828.017,369.8c6.291-4.8,2.7-32.065,2.7-32.065s-10.786-16.783-11.088-23.074S794.76,276.9,794.76,276.9c-3.3-1.8-6.894-8.388-6.894-8.388s-20.381-33.264-23.376-34.464l19.778,34.464s3.6,6.622,6.894,8.388c0,0,24.575,31.469,24.869,37.76s11.081,23.1,11.081,23.1,3.6,27.268-2.7,32.065c0,0,21.551,5.526,34.471,5.025C845.933,374.392,828.017,369.8,828.017,369.8Z" transform="translate(-764.49 -225.956)"/>
        <path id="Path_1936" data-name="Path 1936" d="M859.332,314.108l-.177-.228a4.733,4.733,0,0,1-.625.14C858.81,314.057,859.074,314.086,859.332,314.108Z" transform="translate(-789.337 -247.049)"/>
      </g>
      <g id="Group_583" data-name="Group 583" transform="translate(899.306 42.534)" opacity="0.1">
        <path id="Path_1937" data-name="Path 1937" d="M942.506,223l-.184.037c-.316,9.2-6.7,30.829-6.7,30.829,0,3.892-4.194,9.889-4.194,9.889s-17.379,26.672-21.279,30.27-2.4,10.786-2.4,10.786l.037.074c-.118-2.421.177-6.173,2.656-8.469,3.892-3.6,21.279-30.27,21.279-30.27s4.194-6,4.194-9.889C935.914,256.3,943.706,229.931,942.506,223Z" transform="translate(-904.452 -223)"/>
        <path id="Path_1938" data-name="Path 1938" d="M903.37,362.381c.449,2.546.147-.147.3,2.4,0,0,7.358-8.631,5.349-19.3C909.624,355.016,903.37,362.381,903.37,362.381Z" transform="translate(-903.37 -255.362)"/>
      </g>
    </g>
  </g>
</svg>
