<svg xmlns="http://www.w3.org/2000/svg" xmlns:xlink="http://www.w3.org/1999/xlink" width="1207.693" height="375.911" viewBox="0 0 1207.693 375.911">
  <defs>
    <linearGradient id="linear-gradient" x1="-11.741" y1="5.084" x2="-11.741" y2="4.933" gradientUnits="objectBoundingBox">
      <stop offset="0" stop-color="gray" stop-opacity="0.251"/>
      <stop offset="0.535" stop-color="gray" stop-opacity="0.122"/>
      <stop offset="1" stop-color="gray" stop-opacity="0.102"/>
    </linearGradient>
    <linearGradient id="linear-gradient-2" x1="0.5" y1="1" x2="0.5" gradientUnits="objectBoundingBox">
      <stop offset="0" stop-color="gray" stop-opacity="0.251"/>
      <stop offset="0.54" stop-color="gray" stop-opacity="0.122"/>
      <stop offset="1" stop-color="gray" stop-opacity="0.102"/>
    </linearGradient>
  </defs>
  <g id="Group_584" data-name="Group 584" transform="translate(-478.638 -289.089)">
    <g id="Confetti" transform="translate(945 170)">
      <path id="Path_331" data-name="Path 331" d="M465.229,241.829l12.481-16.8,5.76,4.32-10.561,19.681Zm93.606,54.6-5.911-7.958-2.729,2.046,5,9.322Zm-197.048,12.5,5.911,7.958-3.638,3.411-5-9.323ZM629.22,285.111l-15.749-21.2-7.269,5.451L619.528,294.2ZM499.289,353.484l15.749,21.2-9.692,9.086L492.02,358.935Z" transform="translate(-12.181 -8.227)" fill="#ffcc12" fill-rule="evenodd"/>
      <path id="Path_332" data-name="Path 332" d="M365.493,213.961l7.991-10.757,3.688,2.766-6.761,12.6ZM427.5,281.7l12.481,16.8-7.68,7.2-10.56-19.681Zm96.275,5.314-15.749,21.2,9.692,9.086,13.326-24.835Zm155.987,53.562-7.46-10.043-3.443,2.582,6.312,11.764ZM598.149,351.75l-8.794,14.188-7.594-3.581,11.493-13.609Zm-197.135,1.418L409,342.412l3.688,2.766-6.761,12.6Zm56.148,29.86,3.785,5.1-2.329,2.184-3.2-5.969ZM566.71,214.493l12.481,16.8-7.68,7.2-10.56-19.681Z" transform="translate(-14.296 -1.053)" fill="#fff" fill-rule="evenodd"/>
      <path id="Path_333" data-name="Path 333" d="M414.816,200l7.99,10.757-4.917,4.61-6.761-12.6Zm35.521,139.208,7.991,10.757-4.917,4.61-6.761-12.6Zm92.3,31.9,15.749,21.2-9.692,9.086-13.326-24.835ZM369.2,392.99l-7.99-10.757L357.521,385l6.761,12.6ZM333.679,253.783l-7.991-10.757L322,245.793l6.761,12.6Zm73.667-11.015,3.785,5.1-2.329,2.184-3.2-5.969Z" transform="translate(0 0)" fill="#4987cf" fill-rule="evenodd"/>
    </g>
    <g id="Confetti-2" data-name="Confetti" transform="matrix(-1, 0, 0, 1, 1157.385, 173)">
      <path id="Path_331-2" data-name="Path 331" d="M469.333,242.478l12.963-17.45,5.983,4.487L477.31,249.957Zm97.224,56.707-6.14-8.266-2.834,2.125,5.2,9.683ZM361.891,312.165l6.14,8.266-3.778,3.543-5.2-9.683Zm277.771-24.731-16.357-22.02-7.55,5.662L629.6,296.87ZM504.709,358.45l16.357,22.019L511,389.906l-13.841-25.795Z" transform="translate(-11.219 -7.577)" fill="#ffcc12" fill-rule="evenodd"/>
      <path id="Path_332-2" data-name="Path 332" d="M365.493,214.377l8.3-11.173,3.831,2.873L370.6,219.165ZM429.9,284.731l12.963,17.451-7.977,7.479-10.968-20.442Zm100,5.519L513.54,312.27l10.066,9.437,13.841-25.795Zm162.016,55.632-7.748-10.431-3.576,2.682,6.556,12.219Zm-84.772,11.609-9.134,14.736-7.888-3.72,11.938-14.135Zm-204.755,1.473,8.3-11.173,3.831,2.873-7.023,13.087Zm58.319,31.014,3.932,5.292-2.419,2.268-3.327-6.2ZM574.488,214.93l12.963,17.451-7.977,7.479-10.968-20.442Z" transform="translate(-13.167 -0.97)" fill="#fff" fill-rule="evenodd"/>
      <path id="Path_333-2" data-name="Path 333" d="M418.4,200l8.3,11.173-5.107,4.788-7.023-13.088ZM455.3,344.589l8.3,11.173-5.107,4.788-7.023-13.088Zm95.864,33.13,16.357,22.019-10.066,9.437L543.612,383.38ZM371.024,400.45l-8.3-11.173-3.831,2.873,7.023,13.087ZM334.13,255.862l-8.3-11.173L322,247.563l7.023,13.087Zm76.514-11.44,3.931,5.292-2.419,2.268-3.327-6.2Z" transform="translate(0 0)" fill="#4987cf" fill-rule="evenodd"/>
    </g>
    <text id="_10_Klasse" data-name="10 Klasse" transform="translate(792 358)" fill="#fff" font-size="12" font-family="HelveticaNeue-Bold, Helvetica Neue" font-weight="700" letter-spacing="0.1em"><tspan x="0" y="0">10 Klasse</tspan></text>
    <g id="Group_101" data-name="Group 101" transform="translate(6623 -5271.9)">
      <path id="Path_378" data-name="Path 378" d="M128.869,452.252l-63.408-.309-6.3-14.778,22.279-1.617-3.883-16.2,44.064-5.711-42.2-14.668,3.727-.886L151,409.149l-3.737,25.285-5.341,13.9Z" transform="translate(-5429.139 5423.289)" fill="#ffcc12"/>
      <path id="Path_379" data-name="Path 379" d="M187,698.574s3.89-.622,6.225,2.127c0,0-1.712,1.349-5.395-.519Z" transform="translate(-5549.706 5170.468)" fill="#ffcc12"/>
      <path id="Path_380" data-name="Path 380" d="M177.771,698.51s-2.482,3.055-1.26,6.456c0,0,2.023-.81,2.243-4.933Z" transform="translate(-5540.884 5170.471)" fill="#ffcc12"/>
      <path id="Path_381" data-name="Path 381" d="M172.76,667.055s1.556-2.855,7.781,1.141a3.494,3.494,0,0,1-3.579,1.764A4.219,4.219,0,0,1,172.76,667.055Z" transform="translate(-5538.104 5196.904)" fill="#ffcc12"/>
      <path id="Path_382" data-name="Path 382" d="M155.012,670.276s-3.229-.37-3.542,7.021a3.5,3.5,0,0,0,3.5-1.914A4.212,4.212,0,0,0,155.012,670.276Z" transform="translate(-5520.758 5193.477)" fill="#ffcc12"/>
      <path id="Path_415" data-name="Path 415" d="M547.366,670.36s-4.2,5.126-.865,12.875L512.97,697.777l-3.218.674-1.482-6.484.991-8.183v-4.472Z" transform="translate(-5811.46 5193.406)" fill="#d5d6db"/>
      <path id="Path_416" data-name="Path 416" d="M59.16,571.85l46.41-8.46,61.495,9.8-38.2,13.751Z" transform="translate(-5429.139 5288.604)" fill="#ffcc12"/>
      <path id="Path_417" data-name="Path 417" d="M59.16,571.85l46.41-8.46,61.495,9.8-38.2,13.751Z" transform="translate(-5429.139 5288.604)" fill="#b7b7b7"/>
      <path id="Path_418" data-name="Path 418" d="M140.056,652.47s-4.34,8.223.661,15.819L209.539,683.2s-4.272-6.551.22-15.643Z" transform="translate(-5510.035 5207.982)" fill="#fff"/>
      <path id="Path_419" data-name="Path 419" d="M140.056,652.47s-4.34,8.223.661,15.819L209.539,683.2s-4.272-6.551.22-15.643Z" transform="translate(-5510.035 5207.982)" opacity="0.1"/>
      <path id="Path_420" data-name="Path 420" d="M153.961,667.86s-2.481,6.017,0,9.911" transform="translate(-5521.889 5195.443)" opacity="0.1"/>
      <path id="Path_421" data-name="Path 421" d="M220.131,746.255l38.421-16.395s2.149.463.76,2.038-38.44,15.932-38.44,15.932L151.31,731.342Z" transform="translate(-5520.627 5144.929)" fill="#fff"/>
      <path id="Path_422" data-name="Path 422" d="M220.131,746.255l38.421-16.395s2.149.463.76,2.038-38.44,15.932-38.44,15.932L151.31,731.342Z" transform="translate(-5520.627 5144.929)" opacity="0.1"/>
      <path id="Path_423" data-name="Path 423" d="M498.568,742.86s-3.705,4.446,0,11.115" transform="translate(-5802.213 5134.337)" opacity="0.1"/>
      <rect id="Rectangle_106" data-name="Rectangle 106" width="17.519" height="0.185" transform="translate(-5302.326 5882.666) rotate(-18.45)" opacity="0.1"/>
      <rect id="Rectangle_107" data-name="Rectangle 107" width="21.347" height="0.185" transform="translate(-5302.333 5884.158) rotate(-20.82)" opacity="0.1"/>
      <rect id="Rectangle_108" data-name="Rectangle 108" width="24.742" height="0.185" transform="translate(-5302.221 5885.916) rotate(-22.26)" opacity="0.1"/>
      <rect id="Rectangle_109" data-name="Rectangle 109" width="28.481" height="0.185" transform="translate(-5301.954 5887.465) rotate(-24.31)" opacity="0.1"/>
      <rect id="Rectangle_110" data-name="Rectangle 110" width="31.15" height="0.185" transform="matrix(0.916, -0.401, 0.401, 0.916, -5301.748, 5888.22)" opacity="0.1"/>
      <rect id="Rectangle_111" data-name="Rectangle 111" width="37.277" height="0.185" transform="translate(-5301.317 5889.487) rotate(-23.36)" opacity="0.1"/>
      <path id="Path_424" data-name="Path 424" d="M152.23,583.794l32.6-6.854,19.863,3.8-26.717,8.614Z" transform="translate(-5504.968 5277.563)" fill="#fff" opacity="0.3"/>
      <path id="Path_425" data-name="Path 425" d="M562.2,659.69s1.686.68.7,1.73S524,673.441,524,673.441Z" transform="translate(-5824.275 5202.099)" fill="#b7b7b7"/>
      <path id="Path_426" data-name="Path 426" d="M646.664,574.18s-4.2,5.124-.863,12.875L612.27,601.6l-3.218.678-1.482-6.484,1.006-8.181v-4.478Z" transform="translate(-5892.364 5271.769)" fill="#d5d6db"/>
      <path id="Path_427" data-name="Path 427" d="M158.46,475.669l46.408-8.459,61.5,9.8-38.2,13.751Z" transform="translate(-5510.043 5366.965)" fill="#3a3768"/>
      <path id="Path_428" data-name="Path 428" d="M239.31,556.29s-4.342,8.223.66,15.819l68.822,14.913s-4.27-6.556.228-15.645Z" transform="translate(-5590.901 5286.344)" fill="#3a3768"/>
      <path id="Path_429" data-name="Path 429" d="M239.31,556.29s-4.342,8.223.66,15.819l68.822,14.913s-4.27-6.556.228-15.645l-21.764-4.711Z" transform="translate(-5590.901 5286.344)" opacity="0.1"/>
      <path id="Path_430" data-name="Path 430" d="M253.255,571.68s-2.479,6.015,0,9.911" transform="translate(-5602.789 5273.806)" opacity="0.1"/>
      <path id="Path_431" data-name="Path 431" d="M319.422,650.075l38.423-16.395s2.147.463.758,2.038-38.44,15.932-38.44,15.932L250.6,635.162Z" transform="translate(-5601.524 5223.291)" fill="#3a3768"/>
      <path id="Path_432" data-name="Path 432" d="M319.422,650.075l38.423-16.395s2.147.463.758,2.038-38.44,15.932-38.44,15.932L250.6,635.162Z" transform="translate(-5601.524 5223.291)" opacity="0.1"/>
      <path id="Path_433" data-name="Path 433" d="M597.858,646.68s-3.705,4.446,0,11.115" transform="translate(-5883.109 5212.699)" opacity="0.1"/>
      <rect id="Rectangle_112" data-name="Rectangle 112" width="17.519" height="0.185" transform="translate(-5283.931 5864.85) rotate(-18.45)" opacity="0.1"/>
      <rect id="Rectangle_113" data-name="Rectangle 113" width="21.347" height="0.185" transform="translate(-5283.935 5866.341) rotate(-20.82)" opacity="0.1"/>
      <rect id="Rectangle_114" data-name="Rectangle 114" width="24.742" height="0.185" transform="translate(-5283.826 5868.096) rotate(-22.26)" opacity="0.1"/>
      <rect id="Rectangle_115" data-name="Rectangle 115" width="28.481" height="0.185" transform="translate(-5283.557 5869.646) rotate(-24.31)" opacity="0.1"/>
      <rect id="Rectangle_116" data-name="Rectangle 116" width="31.15" height="0.185" transform="matrix(0.916, -0.401, 0.401, 0.916, -5283.354, 5870.398)" opacity="0.1"/>
      <rect id="Rectangle_117" data-name="Rectangle 117" width="37.277" height="0.185" transform="translate(-5282.921 5871.666) rotate(-23.36)" opacity="0.1"/>
      <path id="Path_434" data-name="Path 434" d="M251.53,487.614l32.6-6.854,19.863,3.8-26.717,8.614Z" transform="translate(-5585.872 5355.926)" fill="#fff" opacity="0.45"/>
      <path id="Path_435" data-name="Path 435" d="M661.525,563.51s1.684.68.7,1.728-38.892,12.021-38.892,12.021Z" transform="translate(-5905.205 5280.461)" fill="#3a3768"/>
      <path id="Path_436" data-name="Path 436" d="M656.088,464.15s-4.2,9.2-.865,16.951l-33.531,10.467-3.21.68L617,485.763l.991-8.183V473.1Z" transform="translate(-5900.047 5361.415)" fill="#d5d6db"/>
      <path id="Path_437" data-name="Path 437" d="M167.89,365.64l46.41-8.461,61.5,9.8-38.2,13.751Z" transform="translate(-5517.726 5456.612)" fill="#79cfcd"/>
      <path id="Path_438" data-name="Path 438" d="M248.763,446.26s-4.348,8.223.654,15.819l68.821,14.913s-4.272-6.556.226-15.643Z" transform="translate(-5598.6 5375.991)" fill="#79cfcd"/>
      <path id="Path_439" data-name="Path 439" d="M248.763,446.26s-4.348,8.223.654,15.819l68.821,14.913s-4.272-6.556.226-15.643Z" transform="translate(-5598.6 5375.991)" opacity="0.1"/>
      <path id="Path_440" data-name="Path 440" d="M262.691,461.65s-2.48,6.017,0,9.911" transform="translate(-5610.477 5363.452)" opacity="0.1"/>
      <path id="Path_441" data-name="Path 441" d="M328.861,546.563l38.421-12.319s2.149.463.76,2.038-38.44,11.856-38.44,11.856L260.04,531.65Z" transform="translate(-5609.215 5306.419)" fill="#79cfcd"/>
      <path id="Path_442" data-name="Path 442" d="M328.861,546.563l38.421-12.319s2.149.463.76,2.038-38.44,11.856-38.44,11.856L260.04,531.65Z" transform="translate(-5609.215 5306.419)" opacity="0.1"/>
      <path id="Path_443" data-name="Path 443" d="M607.3,536.65s-3.705,4.446,0,11.115" transform="translate(-5890.8 5302.346)" opacity="0.1"/>
      <rect id="Rectangle_118" data-name="Rectangle 118" width="17.519" height="0.185" transform="translate(-5282.182 5844.466) rotate(-18.45)" opacity="0.1"/>
      <rect id="Rectangle_119" data-name="Rectangle 119" width="21.347" height="0.185" transform="translate(-5282.187 5845.958) rotate(-20.82)" opacity="0.1"/>
      <rect id="Rectangle_120" data-name="Rectangle 120" width="24.742" height="0.185" transform="translate(-5282.08 5847.714) rotate(-22.26)" opacity="0.1"/>
      <rect id="Rectangle_121" data-name="Rectangle 121" width="28.481" height="0.185" transform="translate(-5281.808 5849.263) rotate(-24.31)" opacity="0.1"/>
      <rect id="Rectangle_122" data-name="Rectangle 122" width="31.15" height="0.185" transform="matrix(0.916, -0.401, 0.401, 0.916, -5281.604, 5850.017)" opacity="0.1"/>
      <rect id="Rectangle_123" data-name="Rectangle 123" width="37.277" height="0.185" transform="translate(-5281.172 5851.286) rotate(-23.36)" opacity="0.1"/>
      <path id="Path_444" data-name="Path 444" d="M260.96,377.584l32.6-6.854,19.863,3.8-26.717,8.614Z" transform="translate(-5593.555 5445.572)" fill="#fff" opacity="0.3"/>
      <path id="Path_445" data-name="Path 445" d="M670.956,453.48s1.686.68.7,1.73-38.892,12.021-38.892,12.021Z" transform="translate(-5912.888 5370.108)" fill="#79cfcd"/>
      <path id="Path_505" data-name="Path 505" d="M650.52,447.856a14.179,14.179,0,0,1,2.127-1.321,34.7,34.7,0,0,0,3.149-1.925" transform="translate(-5927.357 5377.335)" opacity="0.1"/>
    </g>
    <g id="Group_103" data-name="Group 103" transform="translate(5272 -5811)">
      <path id="Path_554" data-name="Path 554" d="M862.155,584.626H856.44v-5.715h5.715Zm-5.275-.44h4.836v-4.836H856.88Z" transform="translate(-5234.741 5858.096)" fill="#3f3d56"/>
      <path id="Path_555" data-name="Path 555" d="M330.253,557.2l-3.9-4.179,4.179-3.9,3.9,4.179Zm-3.277-4.157,3.3,3.536,3.536-3.3-3.3-3.536Z" transform="translate(-4839 5880.335)" fill="#3f3d56"/>
      <path id="Path_558" data-name="Path 558" d="M380.3,85.873,353.51,118.38l39.652,46.8L419.6,134.1Z" transform="translate(-4838.49 6268)" fill="#fa3d7f"/>
      <path id="Path_559" data-name="Path 559" d="M380.3,85.873,353.51,118.38l39.652,46.8L419.6,134.1Z" transform="translate(-4838.49 6268)" opacity="0.1"/>
      <path id="Path_560" data-name="Path 560" d="M439.739,297.81h0a13.466,13.466,0,0,1,2.185-2.917l24.607-24.947s8.573-1.429,10.359,2.858l-31.436,25.72Z" transform="translate(-4923.647 6088.928)" fill="#f2f2f2"/>
      <path id="Path_561" data-name="Path 561" d="M434.805,294.791l36.437,55.727s3.572,2.5,7.144,1.072l37.33-25.184-39.652-60.014-35.722,27.863Z" transform="translate(-4919.965 6091.411)" fill="#fa3d7f"/>
      <rect id="Rectangle_128" data-name="Rectangle 128" width="28.155" height="0.579" transform="matrix(0.812, -0.584, 0.584, 0.812, -4471.218, 6382.929)" fill="#3f3d56"/>
      <rect id="Rectangle_129" data-name="Rectangle 129" width="0.579" height="54.393" transform="matrix(0.834, -0.552, 0.552, 0.834, -4472.003, 6389.397)" fill="#3f3d56"/>
      <rect id="Rectangle_130" data-name="Rectangle 130" width="30.151" height="0.579" transform="translate(-4438.354 6435.805) rotate(-36.344)" fill="#3f3d56"/>
      <rect id="Rectangle_131" data-name="Rectangle 131" width="0.579" height="54.404" transform="translate(-4444.494 6367.612) rotate(-34.838)" fill="#3f3d56"/>
      <rect id="Rectangle_132" data-name="Rectangle 132" width="38.367" height="0.357" transform="translate(-4481.886 6384.462) rotate(-42.545)" fill="#3f3d56"/>
      <rect id="Rectangle_133" data-name="Rectangle 133" width="39.408" height="0.357" transform="translate(-4480.806 6384.823) rotate(-41.439)" fill="#3f3d56"/>
      <rect id="Rectangle_134" data-name="Rectangle 134" width="39.925" height="0.357" transform="matrix(0.768, -0.64, 0.64, 0.768, -4480.084, 6384.825)" fill="#3f3d56"/>
    </g>
    <g id="undraw_Graduation_ktn0" transform="translate(911.995 338)">
      <ellipse id="Ellipse_88" data-name="Ellipse 88" cx="14.712" cy="2.207" rx="14.712" ry="2.207" transform="translate(3.961 132.545) rotate(-63.611)" fill="#e0e0e0"/>
      <ellipse id="Ellipse_89" data-name="Ellipse 89" cx="14.712" cy="1.499" rx="14.712" ry="1.499" transform="translate(188.423 224.155) rotate(-63.611)" fill="#e0e0e0"/>
      <rect id="Rectangle_838" data-name="Rectangle 838" width="8.827" height="29.423" transform="translate(92.396 169.896) rotate(39.547)" fill="#f55f44"/>
      <rect id="Rectangle_839" data-name="Rectangle 839" width="9.932" height="29.423" transform="translate(93.22 202.287) rotate(-166.769)" opacity="0.05"/>
      <rect id="Rectangle_840" data-name="Rectangle 840" width="8.827" height="29.423" transform="translate(93.22 202.287) rotate(-166.769)" fill="#f55f44"/>
      <rect id="Rectangle_841" data-name="Rectangle 841" width="30.895" height="205.228" transform="translate(5.611 134.184) rotate(-63.611)" fill="url(#linear-gradient)"/>
      <path id="Path_1806" data-name="Path 1806" d="M400.263,536.206c-3.6-1.726-186.478-92.525-183.842-91.217,10.15-15.492,13.078-26.357,13.078-26.357L413.34,509.848S406.884,521.179,400.263,536.206Z" transform="translate(-210.483 -311.463)" fill="#f5f5f5"/>
      <rect id="Rectangle_842" data-name="Rectangle 842" width="16.918" height="29.423" transform="translate(99.405 147.057) rotate(26.389)" opacity="0.05"/>
      <rect id="Rectangle_843" data-name="Rectangle 843" width="15.447" height="29.423" transform="translate(100.064 147.384) rotate(26.389)" fill="#f55f44"/>
      <rect id="Rectangle_844" data-name="Rectangle 844" width="10.298" height="29.423" transform="translate(102.04 148.365) rotate(26.389)" opacity="0.05"/>
      <rect id="Rectangle_845" data-name="Rectangle 845" width="8.827" height="29.423" transform="translate(102.699 148.692) rotate(26.389)" fill="#f55f44"/>
      <circle id="Ellipse_90" data-name="Ellipse 90" cx="1.226" cy="1.226" r="1.226" transform="translate(108.315 235.17)" fill="#dbdbdb"/>
      <g id="Group_570" data-name="Group 570" transform="translate(9.39 202.054)" opacity="0.5">
        <rect id="Rectangle_846" data-name="Rectangle 846" width="1.258" height="7.126" transform="translate(2.934)" fill="#47e6b1"/>
        <rect id="Rectangle_847" data-name="Rectangle 847" width="1.258" height="7.126" transform="translate(7.126 2.934) rotate(90)" fill="#47e6b1"/>
      </g>
      <g id="Group_571" data-name="Group 571" transform="translate(326.305 113.184)" opacity="0.5">
        <rect id="Rectangle_848" data-name="Rectangle 848" width="1.258" height="7.126" transform="translate(2.934)" fill="#47e6b1"/>
        <rect id="Rectangle_849" data-name="Rectangle 849" width="1.258" height="7.126" transform="translate(7.126 2.934) rotate(90)" fill="#47e6b1"/>
      </g>
      <g id="Group_572" data-name="Group 572" transform="translate(16.936 24.733)" opacity="0.5">
        <rect id="Rectangle_850" data-name="Rectangle 850" width="1.258" height="7.126" transform="translate(2.934)" fill="#47e6b1"/>
        <rect id="Rectangle_851" data-name="Rectangle 851" width="1.258" height="7.126" transform="translate(7.126 2.934) rotate(90)" fill="#47e6b1"/>
      </g>
      <g id="Group_573" data-name="Group 573" transform="translate(288.577 13.834)" opacity="0.5">
        <rect id="Rectangle_852" data-name="Rectangle 852" width="1.258" height="7.126" transform="translate(2.934)" fill="#47e6b1"/>
        <rect id="Rectangle_853" data-name="Rectangle 853" width="1.258" height="7.126" transform="translate(7.126 2.934) rotate(90)" fill="#47e6b1"/>
      </g>
      <path id="Path_1807" data-name="Path 1807" d="M207.457,412.486a1.54,1.54,0,0,1-.858-1.862.741.741,0,0,0,.033-.171h0a.772.772,0,0,0-1.388-.512h0a.741.741,0,0,0-.085.152,1.54,1.54,0,0,1-1.862.858.739.739,0,0,0-.171-.034h0a.772.772,0,0,0-.512,1.388h0a.741.741,0,0,0,.152.085,1.54,1.54,0,0,1,.858,1.862.74.74,0,0,0-.033.171h0a.772.772,0,0,0,1.388.512h0a.74.74,0,0,0,.085-.152,1.54,1.54,0,0,1,1.862-.858.739.739,0,0,0,.171.034h0a.772.772,0,0,0,.512-1.388h0A.742.742,0,0,0,207.457,412.486Z" transform="translate(-202.303 -306.237)" fill="#4d8af0" opacity="0.5"/>
      <path id="Path_1808" data-name="Path 1808" d="M379.457,215.486a1.54,1.54,0,0,1-.858-1.862.741.741,0,0,0,.033-.171h0a.772.772,0,0,0-1.388-.512h0a.742.742,0,0,0-.085.152,1.54,1.54,0,0,1-1.862.858.741.741,0,0,0-.171-.034h0a.772.772,0,0,0-.512,1.388h0a.741.741,0,0,0,.152.085,1.54,1.54,0,0,1,.858,1.862.741.741,0,0,0-.034.171h0a.772.772,0,0,0,1.388.512h0a.74.74,0,0,0,.085-.152,1.54,1.54,0,0,1,1.862-.858.74.74,0,0,0,.171.033h0a.772.772,0,0,0,.512-1.388h0A.741.741,0,0,0,379.457,215.486Z" transform="translate(-302.201 -191.82)" fill="#4d8af0" opacity="0.5"/>
      <path id="Path_1809" data-name="Path 1809" d="M589.457,726.486a1.54,1.54,0,0,1-.858-1.862.738.738,0,0,0,.033-.171h0a.772.772,0,0,0-1.388-.512h0a.745.745,0,0,0-.085.152,1.541,1.541,0,0,1-1.862.858.735.735,0,0,0-.171-.034h0a.772.772,0,0,0-.512,1.388h0a.74.74,0,0,0,.152.086,1.54,1.54,0,0,1,.858,1.862.744.744,0,0,0-.034.171h0a.772.772,0,0,0,1.388.512h0a.735.735,0,0,0,.086-.152,1.541,1.541,0,0,1,1.862-.858.741.741,0,0,0,.171.034h0a.772.772,0,0,0,.512-1.388h0A.745.745,0,0,0,589.457,726.486Z" transform="translate(-424.169 -488.609)" fill="#4d8af0" opacity="0.5"/>
      <circle id="Ellipse_91" data-name="Ellipse 91" cx="2.515" cy="2.515" r="2.515" transform="translate(315.825 183.609)" fill="#f55f44" opacity="0.5"/>
      <circle id="Ellipse_92" data-name="Ellipse 92" cx="2.515" cy="2.515" r="2.515" transform="translate(260.49 199.539)" fill="#4d8af0" opacity="0.5"/>
      <circle id="Ellipse_93" data-name="Ellipse 93" cx="2.515" cy="2.515" r="2.515" transform="translate(40.83 224.271)" fill="#47e6b1" opacity="0.5"/>
      <circle id="Ellipse_94" data-name="Ellipse 94" cx="2.515" cy="2.515" r="2.515" transform="translate(169.943)" fill="#f55f44" opacity="0.5"/>
      <path id="Path_1810" data-name="Path 1810" d="M393.258,473.436,383.2,488.527s3.354,15.51,77.552,15.091,80.067-15.091,80.067-15.091l-13.834-20.122-42.339-28.925Z" transform="translate(-307.364 -323.573)" fill="#4e6ae6"/>
      <path id="Path_1811" data-name="Path 1811" d="M393.258,473.436,383.2,488.527s3.354,15.51,77.552,15.091,80.067-15.091,80.067-15.091l-13.834-20.122-42.339-28.925Z" transform="translate(-307.364 -323.573)" opacity="0.15"/>
      <path id="Path_1812" data-name="Path 1812" d="M309.414,131.072,177.366,189.34,16.394,131.072,163.952,64l72.433,33.4,2.595,1.2Z" transform="translate(-9.519 -37.171)" fill="#4e6ae6"/>
      <path id="Path_1813" data-name="Path 1813" d="M309.414,131.072,177.366,189.34,16.394,131.072,163.952,64l72.433,33.4,2.595,1.2Z" transform="translate(-9.519 -37.171)" opacity="0.15"/>
      <path id="Path_1814" data-name="Path 1814" d="M546.512,191.312l-2.515.151-2.813-47.793,2.595,1.2Z" transform="translate(-314.318 -83.444)" fill="#f5f5f5"/>
      <path id="Path_1815" data-name="Path 1815" d="M394.935,374.651,383.2,445.915s84.259-27.248,157.619,0l-10.9-75.456S431.405,358.3,394.935,374.651Z" transform="translate(-307.364 -280.96)" fill="#4e6ae6"/>
      <ellipse id="Ellipse_95" data-name="Ellipse 95" cx="12.157" cy="8.384" rx="12.157" ry="8.384" transform="translate(219.828 105.638)" fill="#f5f5f5"/>
    </g>
    <g id="Group_102" data-name="Group 102" transform="matrix(0.643, -0.766, 0.766, 0.643, -992.286, -7173.529)">
      <path id="Path_508" data-name="Path 508" d="M121.822,168.681C110.568,165.5,98.8,162.313,89.2,155.347a38.689,38.689,0,0,1-11.547-13.1,40.151,40.151,0,0,1-4.651-16.74,61.738,61.738,0,0,1,1.436-15.522,91.243,91.243,0,0,1,4.751-15.559A70.677,70.677,0,0,1,85.874,81.5c1.937-2.886,4.272-5.961,7.373-7.678,2.27-1.257,4.728-1.183,6.557.784,1.455,1.564,2.176,3.679,3.21,5.513a50.281,50.281,0,0,0,5.5,7.824c8.268,9.735,19.485,16.639,30.849,22.194,2.5,1.224,5.04,2.387,7.593,3.507,2.587,1.135,5.2,2.207,7.7,3.527a46.156,46.156,0,0,1,12.43,9.28c5.461,5.9,8.863,13.845,7.586,21.965-1.219,7.75-6.426,14.144-13.125,17.983-9.1,5.218-20.176,5.883-30.356,4.333a78.061,78.061,0,0,1-9.366-2.048.209.209,0,0,0-.111.4,69.72,69.72,0,0,0,18.863,2.793,46.279,46.279,0,0,0,15.282-2.441,32.93,32.93,0,0,0,11.069-6.392,25.707,25.707,0,0,0,6.641-9.215,23.307,23.307,0,0,0,1.715-10.806,26.314,26.314,0,0,0-3.641-11.184,36.659,36.659,0,0,0-9.346-10.3,51.49,51.49,0,0,0-7.043-4.527c-2.575-1.384-5.266-2.5-7.94-3.67a169.411,169.411,0,0,1-16.019-7.933,95.26,95.26,0,0,1-16.318-11.484A54.4,54.4,0,0,1,102.5,78.28c-1.283-2.515-2.764-5.629-6.013-5.765-2.84-.119-5.374,2.066-7.206,3.986A46.1,46.1,0,0,0,82,87.282a88.526,88.526,0,0,0-5.988,14.889,80.266,80.266,0,0,0-3.241,16.043,43.976,43.976,0,0,0,1.067,15.3,39.549,39.549,0,0,0,8.641,16.362,46.782,46.782,0,0,0,13.85,10.264,104.578,104.578,0,0,0,16.832,6.459c2.837.866,5.692,1.674,8.547,2.48a.209.209,0,0,0,.111-.4Z" transform="translate(-4438.547 6456.588)" fill="#f2f2f2"/>
      <path id="Path_511" data-name="Path 511" d="M365.838,180.147h-59.3v85.33h59.3a2.956,2.956,0,0,0,2.956-2.957V183.1a2.956,2.956,0,0,0-2.957-2.956Zm-56.108,83.8a1.528,1.528,0,1,1,1.081-.448A1.529,1.529,0,0,1,309.73,263.949Zm0-5.281a1.528,1.528,0,1,1,1.081-.448A1.529,1.529,0,0,1,309.73,258.668Zm0-5.281a1.528,1.528,0,1,1,1.081-.447A1.529,1.529,0,0,1,309.73,253.387Zm0-5.281a1.528,1.528,0,1,1,1.081-.447A1.529,1.529,0,0,1,309.73,248.106Zm0-5.281a1.528,1.528,0,1,1,1.081-.448A1.529,1.529,0,0,1,309.73,242.825Zm0-5.281a1.528,1.528,0,1,1,1.081-.447A1.529,1.529,0,0,1,309.73,237.544Zm0-5.281a1.528,1.528,0,1,1,1.081-.447A1.529,1.529,0,0,1,309.73,232.263Zm0-5.281a1.528,1.528,0,1,1,1.081-.448A1.529,1.529,0,0,1,309.73,226.982Zm0-5.281a1.528,1.528,0,1,1,1.081-.447A1.529,1.529,0,0,1,309.73,221.7Zm0-5.281a1.528,1.528,0,1,1,1.081-.447A1.529,1.529,0,0,1,309.73,216.419Zm0-5.281a1.528,1.528,0,1,1,1.081-.447A1.529,1.529,0,0,1,309.73,211.138Zm0-5.281a1.528,1.528,0,1,1,1.081-.447A1.529,1.529,0,0,1,309.73,205.857Zm0-5.281a1.528,1.528,0,1,1,1.081-.448,1.529,1.529,0,0,1-1.081.448Zm0-5.281a1.528,1.528,0,1,1,1.081-.447A1.529,1.529,0,0,1,309.73,195.3Zm0-5.281a1.528,1.528,0,1,1,1.081-.448A1.529,1.529,0,0,1,309.73,190.014Zm0-5.281a1.528,1.528,0,1,1,1.081-.447A1.529,1.529,0,0,1,309.73,184.733Z" transform="translate(-4640.016 6363.911)" fill="#3f3d56"/>
      <path id="Path_512" data-name="Path 512" d="M286.147,573.407c-.6,0-3.613-.03-3.613-.625,0-.544,2.552-.615,3.334-.624l0,.278a9.486,9.486,0,0,0-3.028.346,10.3,10.3,0,0,0,3.3.347,11.109,11.109,0,0,0,3.268-.329,8.1,8.1,0,0,0-1.44-.25l.033-.276c1.626.2,1.752.334,1.752.507C289.76,573.377,286.75,573.407,286.147,573.407Z" transform="translate(-4619.351 6026.379)"/>
      <path id="Path_513" data-name="Path 513" d="M286.147,582.407c-.6,0-3.613-.03-3.613-.625,0-.545,2.552-.615,3.334-.624l0,.278a9.481,9.481,0,0,0-3.028.346,10.306,10.306,0,0,0,3.3.347,11.577,11.577,0,0,0,3.243-.318c-.317-.084-1.095-.175-1.546-.228l-.285-.034.033-.276.284.033c1.7.2,1.885.271,1.885.474C289.76,582.377,286.75,582.407,286.147,582.407Z" transform="translate(-4619.351 6018.63)"/>
      <path id="Path_514" data-name="Path 514" d="M286.147,536.407c-.6,0-3.613-.03-3.613-.625,0-.545,2.552-.615,3.334-.624l0,.278a9.482,9.482,0,0,0-3.028.346,10.3,10.3,0,0,0,3.3.347,11.109,11.109,0,0,0,3.268-.329,8.1,8.1,0,0,0-1.44-.25l.033-.276c1.626.2,1.752.334,1.752.507C289.76,536.377,286.75,536.407,286.147,536.407Z" transform="translate(-4619.351 6058.237)"/>
      <path id="Path_515" data-name="Path 515" d="M286.147,545.407c-.6,0-3.613-.03-3.613-.625,0-.545,2.552-.615,3.334-.624l0,.278a9.484,9.484,0,0,0-3.028.346,10.3,10.3,0,0,0,3.3.347,11.577,11.577,0,0,0,3.243-.318c-.317-.084-1.095-.175-1.546-.228l-.285-.033.033-.276.284.034c1.7.2,1.885.271,1.885.474C289.76,545.377,286.75,545.407,286.147,545.407Z" transform="translate(-4619.351 6050.488)"/>
      <path id="Path_516" data-name="Path 516" d="M286.147,497.407c-.6,0-3.613-.03-3.613-.625,0-.545,2.552-.615,3.334-.624l0,.278a9.483,9.483,0,0,0-3.028.346,10.3,10.3,0,0,0,3.3.347,11.11,11.11,0,0,0,3.268-.329,8.106,8.106,0,0,0-1.44-.25l.033-.276c1.626.2,1.752.334,1.752.507C289.76,497.377,286.75,497.407,286.147,497.407Z" transform="translate(-4619.351 6091.817)"/>
      <path id="Path_517" data-name="Path 517" d="M286.147,506.407c-.6,0-3.613-.03-3.613-.625,0-.545,2.552-.615,3.334-.624l0,.278a9.482,9.482,0,0,0-3.028.346,10.3,10.3,0,0,0,3.3.347,11.581,11.581,0,0,0,3.243-.318c-.317-.084-1.095-.175-1.546-.228l-.285-.034.033-.276.284.034c1.7.2,1.885.271,1.885.474C289.76,506.377,286.75,506.407,286.147,506.407Z" transform="translate(-4619.351 6084.067)"/>
      <path id="Path_518" data-name="Path 518" d="M286.147,459.407c-.6,0-3.613-.03-3.613-.625,0-.545,2.552-.615,3.334-.624l0,.278a9.483,9.483,0,0,0-3.028.346,10.3,10.3,0,0,0,3.3.347,11.109,11.109,0,0,0,3.268-.329,8.1,8.1,0,0,0-1.44-.25l.033-.276c1.626.2,1.752.334,1.752.507C289.76,459.377,286.75,459.407,286.147,459.407Z" transform="translate(-4619.351 6124.536)"/>
      <path id="Path_519" data-name="Path 519" d="M286.147,468.407c-.6,0-3.613-.03-3.613-.625,0-.545,2.552-.615,3.334-.624l0,.278a9.485,9.485,0,0,0-3.028.346,10.3,10.3,0,0,0,3.3.347,11.578,11.578,0,0,0,3.243-.318c-.317-.084-1.095-.175-1.546-.228l-.285-.034.033-.276.284.034c1.7.2,1.885.271,1.885.474C289.76,468.377,286.75,468.407,286.147,468.407Z" transform="translate(-4619.351 6116.787)"/>
      <path id="Path_520" data-name="Path 520" d="M286.147,421.408c-.6,0-3.613-.03-3.613-.625,0-.545,2.552-.615,3.334-.624l0,.278a9.482,9.482,0,0,0-3.028.346,10.3,10.3,0,0,0,3.3.347,11.113,11.113,0,0,0,3.268-.329,8.087,8.087,0,0,0-1.44-.25l.033-.276c1.626.2,1.752.333,1.752.507C289.76,421.378,286.75,421.408,286.147,421.408Z" transform="translate(-4619.351 6157.254)"/>
      <path id="Path_521" data-name="Path 521" d="M286.147,430.408c-.6,0-3.613-.03-3.613-.625,0-.545,2.552-.615,3.334-.624l0,.278a9.484,9.484,0,0,0-3.028.346,10.3,10.3,0,0,0,3.3.347,11.585,11.585,0,0,0,3.243-.318c-.317-.084-1.1-.175-1.549-.228l-.283-.033.033-.276.282.033c1.7.2,1.887.271,1.887.474C289.76,430.378,286.75,430.408,286.147,430.408Z" transform="translate(-4619.351 6149.505)"/>
      <path id="Path_522" data-name="Path 522" d="M286.147,383.408c-.6,0-3.613-.03-3.613-.625,0-.545,2.552-.615,3.334-.624l0,.278a9.486,9.486,0,0,0-3.028.346,10.3,10.3,0,0,0,3.3.347,11.113,11.113,0,0,0,3.268-.329,8.085,8.085,0,0,0-1.44-.25l.033-.276c1.626.2,1.752.333,1.752.507C289.76,383.377,286.75,383.408,286.147,383.408Z" transform="translate(-4619.351 6189.974)"/>
      <path id="Path_523" data-name="Path 523" d="M286.147,392.408c-.6,0-3.613-.03-3.613-.625,0-.545,2.552-.615,3.334-.624l0,.278a9.485,9.485,0,0,0-3.028.346,10.3,10.3,0,0,0,3.3.347,11.579,11.579,0,0,0,3.243-.318c-.317-.084-1.1-.175-1.549-.228l-.283-.033.033-.276.282.033c1.7.2,1.887.271,1.887.474C289.76,392.378,286.75,392.408,286.147,392.408Z" transform="translate(-4619.351 6182.224)"/>
      <path id="Path_524" data-name="Path 524" d="M286.147,345.408c-.6,0-3.613-.03-3.613-.625,0-.545,2.552-.615,3.334-.624l0,.278a9.482,9.482,0,0,0-3.028.346,10.3,10.3,0,0,0,3.3.347,11.116,11.116,0,0,0,3.268-.329,8.087,8.087,0,0,0-1.44-.25l.033-.276c1.626.2,1.752.333,1.752.507C289.76,345.378,286.75,345.408,286.147,345.408Z" transform="translate(-4619.351 6222.692)"/>
      <path id="Path_525" data-name="Path 525" d="M286.147,354.408c-.6,0-3.613-.03-3.613-.625,0-.545,2.552-.615,3.334-.624l0,.278a9.487,9.487,0,0,0-3.028.346,10.3,10.3,0,0,0,3.3.348,11.581,11.581,0,0,0,3.243-.318c-.317-.084-1.1-.175-1.549-.228l-.283-.033.033-.276.282.033c1.7.2,1.887.271,1.887.474C289.76,354.377,286.75,354.408,286.147,354.408Z" transform="translate(-4619.351 6214.943)"/>
      <path id="Path_526" data-name="Path 526" d="M286.147,307.408c-.6,0-3.613-.03-3.613-.625,0-.545,2.552-.615,3.334-.624l0,.278a9.486,9.486,0,0,0-3.028.346,10.3,10.3,0,0,0,3.3.347,11.113,11.113,0,0,0,3.268-.329,8.087,8.087,0,0,0-1.44-.25l.033-.276c1.626.2,1.752.333,1.752.507C289.76,307.377,286.75,307.408,286.147,307.408Z" transform="translate(-4619.351 6255.412)"/>
      <path id="Path_527" data-name="Path 527" d="M286.147,316.408c-.6,0-3.613-.03-3.613-.625,0-.545,2.552-.615,3.334-.624l0,.278a9.484,9.484,0,0,0-3.028.346,10.3,10.3,0,0,0,3.3.347,11.581,11.581,0,0,0,3.243-.318c-.317-.084-1.1-.175-1.549-.228l-.283-.033.033-.276.282.033c1.7.2,1.887.271,1.887.474C289.76,316.378,286.75,316.408,286.147,316.408Z" transform="translate(-4619.351 6247.663)"/>
      <path id="Path_528" data-name="Path 528" d="M286.147,269.408c-.6,0-3.613-.03-3.613-.625,0-.545,2.552-.615,3.334-.624l0,.278a9.485,9.485,0,0,0-3.028.346,10.3,10.3,0,0,0,3.3.347,11.113,11.113,0,0,0,3.268-.329,8.087,8.087,0,0,0-1.44-.25l.033-.276c1.626.2,1.752.333,1.752.507C289.76,269.377,286.75,269.408,286.147,269.408Z" transform="translate(-4619.351 6288.13)"/>
      <path id="Path_529" data-name="Path 529" d="M286.147,278.408c-.6,0-3.613-.03-3.613-.625,0-.545,2.552-.615,3.334-.624l0,.278a9.485,9.485,0,0,0-3.028.346,10.3,10.3,0,0,0,3.3.347,11.582,11.582,0,0,0,3.243-.318c-.317-.084-1.1-.175-1.549-.228l-.283-.033.033-.276.282.033c1.7.2,1.887.271,1.887.474C289.76,278.378,286.75,278.408,286.147,278.408Z" transform="translate(-4619.351 6280.381)"/>
      <path id="Path_530" data-name="Path 530" d="M286.147,231.408c-.6,0-3.613-.03-3.613-.625,0-.545,2.552-.615,3.334-.624l0,.278a9.485,9.485,0,0,0-3.028.346,10.3,10.3,0,0,0,3.3.347,11.113,11.113,0,0,0,3.268-.329,8.09,8.09,0,0,0-1.44-.25l.033-.276c1.626.2,1.752.333,1.752.507C289.76,231.378,286.75,231.408,286.147,231.408Z" transform="translate(-4619.351 6320.849)"/>
      <path id="Path_531" data-name="Path 531" d="M286.147,240.408c-.6,0-3.613-.03-3.613-.625,0-.545,2.552-.615,3.334-.624l0,.278a9.485,9.485,0,0,0-3.028.346,10.3,10.3,0,0,0,3.3.347,11.581,11.581,0,0,0,3.243-.318c-.317-.084-1.1-.175-1.549-.228l-.283-.033.033-.276.282.033c1.7.2,1.887.271,1.887.474C289.76,240.378,286.75,240.408,286.147,240.408Z" transform="translate(-4619.351 6313.1)"/>
      <path id="Path_532" data-name="Path 532" d="M286.147,193.408c-.6,0-3.613-.03-3.613-.625,0-.545,2.552-.615,3.334-.624l0,.278a9.485,9.485,0,0,0-3.028.346,10.3,10.3,0,0,0,3.3.347,11.113,11.113,0,0,0,3.268-.329,8.085,8.085,0,0,0-1.44-.25l.033-.276c1.626.2,1.752.333,1.752.507C289.76,193.377,286.75,193.408,286.147,193.408Z" transform="translate(-4619.351 6353.568)"/>
      <path id="Path_533" data-name="Path 533" d="M286.147,202.408c-.6,0-3.613-.03-3.613-.625,0-.545,2.552-.615,3.334-.624l0,.278a9.484,9.484,0,0,0-3.028.346,10.3,10.3,0,0,0,3.3.347,11.582,11.582,0,0,0,3.243-.318c-.317-.084-1.1-.175-1.549-.228l-.283-.033.033-.276.282.033c1.7.2,1.887.271,1.887.474C289.76,202.377,286.75,202.408,286.147,202.408Z" transform="translate(-4619.351 6345.819)"/>
      <path id="Path_534" data-name="Path 534" d="M286.147,612.407c-.6,0-3.613-.03-3.613-.625,0-.544,2.552-.615,3.334-.624l0,.278a9.486,9.486,0,0,0-3.028.346,10.3,10.3,0,0,0,3.3.347,11.109,11.109,0,0,0,3.268-.329,8.11,8.11,0,0,0-1.44-.25l.033-.276c1.626.2,1.752.334,1.752.507C289.76,612.377,286.75,612.407,286.147,612.407Z" transform="translate(-4619.351 5992.799)"/>
      <path id="Path_535" data-name="Path 535" d="M286.147,621.407c-.6,0-3.613-.03-3.613-.625,0-.545,2.552-.615,3.334-.624l0,.278a9.481,9.481,0,0,0-3.028.346,10.306,10.306,0,0,0,3.3.347,11.577,11.577,0,0,0,3.243-.318c-.317-.084-1.095-.175-1.546-.228l-.285-.034.033-.276.284.033c1.7.2,1.885.271,1.885.474C289.76,621.377,286.75,621.407,286.147,621.407Z" transform="translate(-4619.351 5985.05)"/>
      <path id="Path_536" data-name="Path 536" d="M286.147,649.407c-.6,0-3.613-.03-3.613-.625,0-.545,2.552-.615,3.334-.624l0,.278a9.484,9.484,0,0,0-3.028.346,10.3,10.3,0,0,0,3.3.347,11.109,11.109,0,0,0,3.268-.329,8.1,8.1,0,0,0-1.44-.25l.033-.276c1.626.2,1.752.334,1.752.507C289.76,649.377,286.75,649.407,286.147,649.407Z" transform="translate(-4619.351 5960.941)"/>
      <path id="Path_537" data-name="Path 537" d="M286.147,658.407c-.6,0-3.613-.03-3.613-.625,0-.545,2.552-.615,3.334-.624l0,.278a9.482,9.482,0,0,0-3.028.346,10.3,10.3,0,0,0,3.3.347,11.581,11.581,0,0,0,3.243-.318c-.317-.084-1.095-.175-1.546-.228l-.285-.034.033-.276.284.033c1.7.2,1.885.271,1.885.474C289.76,658.377,286.75,658.407,286.147,658.407Z" transform="translate(-4619.351 5953.191)"/>
      <path id="Path_538" data-name="Path 538" d="M286.147,688.407c-.6,0-3.613-.03-3.613-.625,0-.545,2.552-.615,3.334-.624l0,.278a9.484,9.484,0,0,0-3.028.346,10.3,10.3,0,0,0,3.3.347,11.109,11.109,0,0,0,3.268-.329,8.1,8.1,0,0,0-1.44-.25l.033-.276c1.626.2,1.752.334,1.752.507C289.76,688.377,286.75,688.407,286.147,688.407Z" transform="translate(-4619.351 5927.361)"/>
      <path id="Path_539" data-name="Path 539" d="M286.147,697.407c-.6,0-3.613-.03-3.613-.625,0-.545,2.552-.615,3.334-.624l0,.278a9.481,9.481,0,0,0-3.028.346,10.3,10.3,0,0,0,3.3.347,11.581,11.581,0,0,0,3.243-.318c-.317-.084-1.095-.175-1.546-.228l-.285-.034.033-.276.284.033c1.7.2,1.885.271,1.885.474C289.76,697.377,286.75,697.407,286.147,697.407Z" transform="translate(-4619.351 5919.611)"/>
      <path id="Path_540" data-name="Path 540" d="M286.147,725.407c-.6,0-3.613-.03-3.613-.625,0-.545,2.552-.615,3.334-.624l0,.278a9.481,9.481,0,0,0-3.028.346,10.306,10.306,0,0,0,3.3.347,11.108,11.108,0,0,0,3.268-.329,8.11,8.11,0,0,0-1.44-.25l.033-.276c1.626.2,1.752.334,1.752.507C289.76,725.377,286.75,725.407,286.147,725.407Z" transform="translate(-4619.351 5895.502)"/>
      <path id="Path_541" data-name="Path 541" d="M286.147,734.407c-.6,0-3.613-.03-3.613-.625,0-.545,2.552-.615,3.334-.624l0,.278a9.48,9.48,0,0,0-3.028.346,10.3,10.3,0,0,0,3.3.347,11.577,11.577,0,0,0,3.243-.318c-.317-.084-1.095-.175-1.546-.228l-.285-.034.033-.276.284.033c1.7.2,1.885.271,1.885.474C289.76,734.377,286.75,734.407,286.147,734.407Z" transform="translate(-4619.351 5887.754)"/>
      <path id="Path_542" data-name="Path 542" d="M286.147,763.407c-.6,0-3.613-.03-3.613-.625,0-.545,2.552-.615,3.334-.624l0,.278a9.48,9.48,0,0,0-3.028.346,10.3,10.3,0,0,0,3.3.347,11.109,11.109,0,0,0,3.268-.329,8.106,8.106,0,0,0-1.44-.25l.033-.276c1.626.2,1.752.334,1.752.507C289.76,763.377,286.75,763.407,286.147,763.407Z" transform="translate(-4619.351 5862.784)"/>
      <path id="Path_543" data-name="Path 543" d="M286.147,772.407c-.6,0-3.613-.03-3.613-.625,0-.545,2.552-.615,3.334-.624l0,.278a9.48,9.48,0,0,0-3.028.346,10.3,10.3,0,0,0,3.3.347,11.577,11.577,0,0,0,3.243-.318c-.317-.084-1.095-.175-1.546-.228l-.285-.034.033-.276.284.033c1.7.2,1.885.271,1.885.474C289.76,772.377,286.75,772.407,286.147,772.407Z" transform="translate(-4619.351 5855.035)"/>
      <path id="Path_544" data-name="Path 544" d="M158.564,180.47a1.668,1.668,0,1,1,1.668-1.668A1.668,1.668,0,0,1,158.564,180.47Zm0-3.057a1.39,1.39,0,1,0,1.39,1.39A1.39,1.39,0,0,0,158.564,177.412Z" transform="translate(-4511.174 6366.504)" fill="#3f3d56"/>
      <path id="Path_545" data-name="Path 545" d="M189.647,491.261h-3.613v-3.613h3.613Zm-3.335-.278h3.057v-3.057h-3.057Z" transform="translate(-4536.262 6099.145)" fill="#3f3d56"/>
      <path id="Path_546" data-name="Path 546" d="M445.086,116.393l-2.409-2.693,2.693-2.409,2.409,2.693Zm-2.017-2.671L445.108,116l2.279-2.038-2.038-2.279Z" transform="translate(-4757.238 6423.197)" fill="#3f3d56"/>
      <rect id="Rectangle_126" data-name="Rectangle 126" width="34.883" height="15.843" transform="translate(-4317.292 6566.779)" fill="#fff"/>
      <path id="Path_547" data-name="Path 547" d="M447.276,412.733a19.244,19.244,0,0,1,6.953-.7c2.423.207,4.766.933,7.159,1.331a42.338,42.338,0,0,0,6.658.575c1.928.013,4.287.166,5.994-.888.228-.141.019-.5-.21-.36a6.686,6.686,0,0,1-3.263.773q-1.722.093-3.448.042a41.7,41.7,0,0,1-6.924-.783,47.007,47.007,0,0,0-6.488-1.145,19.655,19.655,0,0,0-6.54.752.209.209,0,0,0,.111.4Z" transform="translate(-4760.977 6164.666)" fill="#f2f2f2"/>
      <path id="Path_548" data-name="Path 548" d="M447.276,381.733a19.246,19.246,0,0,1,6.953-.7c2.423.207,4.766.933,7.159,1.331a42.338,42.338,0,0,0,6.658.575c1.928.013,4.287.166,5.994-.888.228-.141.019-.5-.21-.36a6.686,6.686,0,0,1-3.263.773q-1.722.093-3.448.042a41.705,41.705,0,0,1-6.924-.783,47.011,47.011,0,0,0-6.488-1.145,19.655,19.655,0,0,0-6.54.752.209.209,0,0,0,.111.4Z" transform="translate(-4760.977 6191.357)" fill="#f2f2f2"/>
      <path id="Path_549" data-name="Path 549" d="M597.732,653.757v16.555a2.956,2.956,0,0,1-2.956,2.956H572.423Z" transform="translate(-4868.953 5956.12)" opacity="0.2"/>
      <path id="Path_550" data-name="Path 550" d="M571.712,183.1V198.92L542.2,180.147h26.552a2.956,2.956,0,0,1,2.956,2.957Z" transform="translate(-4842.933 6363.911)" opacity="0.2"/>
      <circle id="Ellipse_8" data-name="Ellipse 8" cx="3.474" cy="3.474" r="3.474" transform="translate(-4276.085 6558.542)" fill="#fff"/>
      <circle id="Ellipse_9" data-name="Ellipse 9" cx="1.064" cy="1.064" r="1.064" transform="translate(-4273.707 6560.852)" fill="#d0cde1"/>
    </g>
    <g id="Group_574" data-name="Group 574" transform="translate(131 133)">
      <path id="Path_1830" data-name="Path 1830" d="M924.964,352.325a83.37,83.37,0,0,0,83.368,83.368V268.957A83.37,83.37,0,0,0,924.964,352.325Z" transform="translate(547 -10.014)" fill="#3f3d56"/>
      <path id="Path_1829" data-name="Path 1829" d="M1035.733,454.708a29.967,29.967,0,0,1-8.483-4.719l1.528,4.223h-27.285v.992h27.285l-1.528,4.224A29.991,29.991,0,0,1,1035.733,454.708Z" transform="translate(503.719 -112.398)" fill="#fff"/>
    </g>
    <path id="Path_2007" data-name="Path 2007" d="M293.187,331.09s3.1,21.677,13.761,26.838-13.761,14.792-13.761,14.792L259.81,360.336s18.923-6.192,15.138-24.431Z" transform="translate(359.086 71.723)" fill="#ffbdc6"/>
    <path id="Path_2008" data-name="Path 2008" d="M249.6,485.45l-.76,4.131-.583,3.159-1.064,5.778-10.323,7.223s-.929-.794-2.467-2.053c-4.224-3.48-13.119-10.543-19.649-14.361a21.962,21.962,0,0,0-5.4-2.492Z" transform="translate(366.918 47.76)" fill="#ffbdc6"/>
    <path id="Path_2009" data-name="Path 2009" d="M249.6,485.45l-.76,4.131a32.1,32.1,0,0,1-6.809-.346l-24.084.346c-1.14-.068-2.2-.161-3.2-.262a21.961,21.961,0,0,0-5.4-2.492Z" transform="translate(366.92 47.76)" opacity="0.1"/>
    <path id="Path_2010" data-name="Path 2010" d="M240.457,487.028s12.046,2.061,12.731-3.1-6.192-7.915-12.046-8.253-40.946,2.061-40.946,2.061-6.192,8.253,16.169,9.63Z" transform="translate(368.463 49.283)" fill="#7679b4"/>
    <path id="Path_2011" data-name="Path 2011" d="M252.824,494.045l-1.064,5.778-10.323,7.223s-.929-.794-2.467-2.053L252.621,493.8Z" transform="translate(362.321 46.464)" opacity="0.1"/>
    <path id="Path_2012" data-name="Path 2012" d="M320.692,570q-.71-.346-1.436-.735L318,567.658l-16.625-21.119v.372c-.11,3.506-1.309,31.467-10.652,34.044-9.977,2.754-22.023,3.438-27.522-15.138s-15.484-59.176-25.807-61.583L252.7,491.671s10.137,11.827,14.276,23.214c-.152-.727-7.155-33.427-1.377-39.205h50.229s7.738,22.082,13.077,33.03c4.139,8.5,10.348,28.587,14.361,42.179A16.157,16.157,0,0,1,320.692,570Z" transform="translate(362.567 49.277)" fill="#7679b4"/>
    <path id="Path_2013" data-name="Path 2013" d="M324.039,474.151c-7.747,4.587-41.807,2.72-52.907,1.977l-3.016-.22c-.329,0,.051-.186.051-.186l.313-3.126,8.253-20.984L320.947,426c-.9,2.695-1.2,6.826-1.124,11.565C320.043,452.754,324.039,474.151,324.039,474.151Z" transform="translate(357.818 56.989)" opacity="0.1"/>
    <path id="Path_2014" data-name="Path 2014" d="M323.972,472.945c-7.746,4.587-41.807,2.72-52.907,1.977l-3.016-.22h-.5l.549-.144,2.72-.718,5.846-23.4,44.215-25.63c-.9,2.695-1.2,6.826-1.124,11.565C319.976,451.538,323.972,472.945,323.972,472.945Z" transform="translate(357.885 57.174)" fill="#f2f1f2"/>
    <path id="Path_2015" data-name="Path 2015" d="M319.849,436.327c-8.988,2.07-28.773,8.16-36.375,22.809-5.069,9.782-9.292,13.981-12.308,15.738l-3.016-.22.051-.186,2.72-.718,5.846-23.4,44.215-25.63C320.069,427.491,319.773,431.588,319.849,436.327Z" transform="translate(357.792 57.188)" opacity="0.1"/>
    <path id="Path_2017" data-name="Path 2017" d="M265.867,484.323a.617.617,0,0,1-.726-.093A2.484,2.484,0,0,0,265.867,484.323Z" transform="translate(358.259 47.949)" opacity="0.1"/>
    <path id="Path_2018" data-name="Path 2018" d="M270.594,351.565s-9.292,1.031-15.831-5.846c0,0-27.522,7.915-36.815,25.807s-72.6,52.983-72.6,52.983,10.982,6.192,9.977,9.292l41.63-24.084s14.792-10.669,18.923-13.077,26.838-17.2,31.653,23.054,0,35.48,0,35.48,6.885,2.408,16.9-16.9,40.946-23.738,40.946-23.738l1.69-20.274s6.141-13.449,1.436-19.058a11.911,11.911,0,0,1-2.754-5.82c-.786-5.153,0-13.744,10.982-20.883,16.9-10.982,23.4-19.953,23.4-19.953s.346-6.538-9.977-9.63-52.3-19.953-52.3-19.953l-1.377,5.846,33.03,23.4s-16.515,13.415-29.567,13.077C279.887,341.233,282.294,351.218,270.594,351.565Z" transform="translate(376.855 76.709)" fill="#565388"/>
    <path id="Path_2019" data-name="Path 2019" d="M297.383,340.708a67.594,67.594,0,0,1-1.9-8.448l-18.238,4.849a20.105,20.105,0,0,1-.414,10.517,19.615,19.615,0,0,0,20.553-6.927Z" transform="translate(356.444 71.541)" opacity="0.1"/>
    <ellipse id="Ellipse_107" data-name="Ellipse 107" cx="19.615" cy="19.615" rx="19.615" ry="19.615" transform="translate(619.065 379.582)" fill="#ffbdc6"/>
    <path id="Path_2020" data-name="Path 2020" d="M285.76,273.968c5.44.617,10.619,2.957,15.974,4.224a7.89,7.89,0,0,0,4.131.161c2.078-.642,3.768-2.822,5.913-2.754,1.326,0,2.534.946,3.6,1.816a43.179,43.179,0,0,1,4.959,4.4c3.692,4.013,5.989,9.419,9.36,13.778s8.684,7.755,13.474,5.753c-3.252,12.671-13.93,22.361-25.47,23.146-4.6.313-9.292-.642-13.778.71a12.062,12.062,0,0,1-3.48.845c-2.534,0-4.629-2.357-6.234-4.646-3.751-5.39-6.758-11.506-10.982-16.414-1.394-1.622-3.041-3.168-5.009-3.464s-3.785.642-5.542,1.554c-2.9,1.5-5.863,3.058-8.11,5.626s-3.666,6.412-2.737,9.892c.5,1.875,1.647,3.565,1.69,5.533,0,3.126-2.72,5.415-3.269,8.448a32.594,32.594,0,0,0-.135,3.852c-.245,4.173-2.965,7.6-5.82,10.213-1.107,1.022-2.34,2.112-2.661,3.692-.22,1.073,0,2.213-.144,3.3-.414,2.712-3.117,4.08-5.508,4.435a15.966,15.966,0,0,1-8.262-.98c3.379-1.58,5.4-6.082,4.621-10.137-1.064-5.584-6.674-9.588-6.2-15.282a17.68,17.68,0,0,1,1.554-5.026,46,46,0,0,0,2.653-9.529,16.144,16.144,0,0,0-.16-7.6c-.718-2.188-2.18-3.928-3.43-5.778a32.794,32.794,0,0,1-3.97-8.135,5.7,5.7,0,0,1-.38-2.686,5.568,5.568,0,0,1,1.69-2.788c3.075-3.219,6.37-6.572,10.458-7.5a23.45,23.45,0,0,1,5.913-.228,69.482,69.482,0,0,0,10.315-.439c2.821-.329,7.6-.287,9.985-2.129,2.222-1.689,3.48-3.844,6.226-4.925A18.222,18.222,0,0,1,285.76,273.968Z" transform="translate(363.345 80.617)" opacity="0.1"/>
    <path id="Path_2021" data-name="Path 2021" d="M308.48,513.76s11.354,22.361,7.915,29.246" transform="translate(351.531 43.365)" opacity="0.1"/>
    <path id="Path_2022" data-name="Path 2022" d="M329.77,579.828l-16.625-21.119v.372s-.963-6.826,2.2-4.528c6.935,5.018,18.036,13.246,18.272,14.665S331.375,576.331,329.77,579.828Z" transform="translate(350.828 37.106)" opacity="0.1"/>
    <g id="Group_581" data-name="Group 581" transform="translate(522.551 375.62)" opacity="0.1">
      <path id="Path_1904" data-name="Path 1904" d="M304.424,348.949s1.4,5.812-3.134,8.718c6.986-1.2,7.29-6.631,7.079-9A22.011,22.011,0,0,1,304.424,348.949Z" transform="translate(-169.904 -306.626)"/>
      <path id="Path_1905" data-name="Path 1905" d="M149.553,431.828s63.306-35.091,72.6-52.983c6.665-12.84,22.724-20.536,31.256-23.864-6.226,2.087-27.176,10.086-35.049,25.241-9.292,17.892-72.6,52.983-72.6,52.983Z" transform="translate(-145.76 -307.606)"/>
      <path id="Path_1906" data-name="Path 1906" d="M316.686,338.494c10.771-3.379,21.068-11.717,21.068-11.717l-33.03-23.4.752-3.21-3.159-1.267-1.377,5.846,33.03,23.4A79.706,79.706,0,0,1,316.686,338.494Z" transform="translate(-169.85 -298.9)"/>
      <path id="Path_1907" data-name="Path 1907" d="M319.83,438.907a81.846,81.846,0,0,1,12.95-3.269l.059-.667a87.643,87.643,0,0,0-13.009,3.937Z" transform="translate(-172.782 -320.023)"/>
      <path id="Path_1908" data-name="Path 1908" d="M267.309,470.683h-.3a.616.616,0,0,1-.726-.093,2.534,2.534,0,0,0,.727.093c1.132-.659,2.83-5.8-.727-35.531-3.8-31.746-18.72-29.254-26.889-25.6,8.346-2.3,19.835-.313,23.1,26.982,3.556,29.736,1.858,34.88.727,35.531A7.6,7.6,0,0,0,267.309,470.683Z" transform="translate(-160.295 -315.754)"/>
      <path id="Path_1909" data-name="Path 1909" d="M267.467,483.923a2.533,2.533,0,0,1-.726-.093A.617.617,0,0,0,267.467,483.923Z" transform="translate(-164.541 -327.608)"/>
    </g>
    <path id="Path_2023" data-name="Path 2023" d="M285.76,273.178c5.44.617,10.619,2.957,15.974,4.224a7.89,7.89,0,0,0,4.131.16c2.078-.642,3.768-2.821,5.913-2.754,1.326,0,2.534.946,3.6,1.816a43.179,43.179,0,0,1,4.959,4.4c3.692,4.013,5.989,9.419,9.36,13.778s8.684,7.755,13.474,5.753c-3.252,12.671-13.93,22.361-25.47,23.146-4.6.313-9.292-.642-13.778.71a12.062,12.062,0,0,1-3.48.845c-2.534,0-4.629-2.357-6.234-4.646-3.751-5.39-6.758-11.506-10.982-16.414-1.394-1.622-3.041-3.168-5.009-3.464s-3.785.642-5.542,1.554c-2.9,1.5-5.863,3.058-8.11,5.626s-3.666,6.412-2.737,9.892c.5,1.875,1.647,3.565,1.69,5.533,0,3.126-2.72,5.415-3.269,8.448a32.613,32.613,0,0,0-.135,3.852c-.245,4.173-2.965,7.6-5.82,10.213-1.107,1.022-2.34,2.112-2.661,3.692-.22,1.073,0,2.213-.144,3.3-.414,2.712-3.117,4.08-5.508,4.435a15.966,15.966,0,0,1-8.262-.98c3.379-1.58,5.4-6.082,4.621-10.137-1.064-5.584-6.674-9.588-6.2-15.282a17.681,17.681,0,0,1,1.554-5.026,46,46,0,0,0,2.653-9.529,16.144,16.144,0,0,0-.16-7.6c-.718-2.188-2.179-3.928-3.43-5.778a32.8,32.8,0,0,1-3.97-8.135,5.7,5.7,0,0,1-.38-2.686,5.567,5.567,0,0,1,1.69-2.788c3.075-3.219,6.37-6.572,10.458-7.5a23.451,23.451,0,0,1,5.913-.228,69.473,69.473,0,0,0,10.315-.439c2.822-.329,7.6-.287,9.985-2.129,2.222-1.689,3.48-3.844,6.226-4.925A18.221,18.221,0,0,1,285.76,273.178Z" transform="translate(363.345 80.74)" fill="#a66477"/>
    <path id="Path_2024" data-name="Path 2024" d="M929.042,217.451h0v-.318a.726.726,0,0,0-.052-.327h-.138v-.714c-.344-7.977-11.376-24.956-15.8-20-3.872,4.354,1.971,15.369,4.948,20.326l.267.447-.146-.095s-12.314,36.728-13.769,38.156-11.591,30.308-24.956,33.561c-2.642.628-4.836,1.2-6.678,1.721l.146-.491a53.238,53.238,0,0,0,2.349-8.605c.43-3.132,0-6.927-1.583-8.451-.775-.757-1.721-.861-2.358-2.065a9.533,9.533,0,0,1-.654-3.313l-1.136-13.923.792-.241c4.785-1.532,9.423-5.163,9.965-10.051a5.155,5.155,0,0,1-.508.164,8.713,8.713,0,0,0,.146-.861c-4.019,1.583-7.745-2.582-11.617-4.449-6.377-3.124-13.665-.181-20.249.534-7.461.818-14.543-2.28-22.168-1.721-4.148.318-8.76,3.132-8.536,7.22.129,2.246,1.721,4.148,2.375,6.3,1.652,5.206-2.022,10.43-5.241,14.87-2.117,2.917-4.148,6.471-4.509,9.9-7.409-7.745-15.421-16.694-16.35-20.059l-21.436-36.728s-.508.542-1.325,1.342c-.129-.4-.284-.861-.456-1.325-2.737-7.667-10.481-26.246-20.3-22.839s4.07,22.451,10.111,30.041l.861,1.05a2.719,2.719,0,0,1-1.532-.069l23.906,41s4.346,7.848,8.33,9.982c0,0,29.7,37.442,30.059,44.929s13.356,27.46,13.356,27.46,4.346,32.451-3.261,38.156h1.256q-.542.529-1.11,1.162c-5.637,6.248-12.839,19.638-2.995,42.407,14.483,33.561,16.66,46.71,16.66,46.71s-27.537,1.428-32.959,2.5c-4.8.947-23.467,1.609-27.735,1.721-1.523-1.773-6.024-5.7-12.1,0-7.607,7.134-13.037,30.979-13.037,30.979s-2.9,19.259,6.884,14.259c0,0,11.591-16.049,14.844-16.763,1.618-.353,3.33-2.737,4.638-5.034l.069.043h0c.078,0,.4-.172.912-.379h0c2.409-.955,9.044-3.253,14.276-2.108,2.866.628,15.154.775,28.036.74-2.909,6.97-8.124,24.956-8.124,24.956s-2.177,16.772,5.051,16.083c5.163-.508,13.08-13.7,17.211-21.229,2.995-2.194,11.574-10.06,17.916-9.466l42.734-16.4s10.137-5.705,4.707-24.6c-4.3-15.025-16.548-45.781-21.384-57.768h0l-.146-.31c-1.17-2.9-1.876-4.621-1.876-4.621h0a70.723,70.723,0,0,1-3.881-16.961c-.043-.456-.077-.921-.112-1.377a7.605,7.605,0,0,0,1.678-.972s-3.984-40.29,0-44.576h0l.069-.077h0v-.052h0l.069-.086h0l.155-.2h0l.189-.241h0c.215-.284.473-.637.766-1.067h0c2.28-3.339,6.531-10.963,5.31-19.965h0q-.077-.585-.189-1.179h0A24.584,24.584,0,0,0,887.2,317.1a19.383,19.383,0,0,1-.318-2.762V311.9a8.278,8.278,0,0,1,.129-1.239V310.5a1.541,1.541,0,0,1,.077-.473v-.2a2.255,2.255,0,0,1,.1-.465V309.2c.052-.207.1-.413.172-.62v-.1q.077-.258.172-.508l.077-.2.172-.413.086-.207c.069-.155.146-.31.224-.465l.06-.129q.155-.284.327-.559l.095-.146.284-.4.138-.181.3-.361.138-.155c.155-.164.31-.327.482-.482,4.707-4.3,25.713-36.014,25.713-36.014s5.069-7.134,5.069-11.764C920.987,256.391,929.946,226.53,929.042,217.451ZM872.651,484c-.516-4.888-1.033-10.946-1.506-17.211l8.192,12.77S878.563,483.453,872.651,484Z" transform="translate(648.921 119.74)" fill="url(#linear-gradient-2)"/>
    <path id="Path_2025" data-name="Path 2025" d="M789.714,527.107s-4.905-7.745-12.271-.7S764.827,556.9,764.827,556.9s-2.805,18.932,6.661,14.018c0,0,11.187-15.774,14.371-16.471s6.661-9.466,6.661-9.466Z" transform="translate(646.44 73.934)" fill="#493545"/>
    <path id="Path_2026" data-name="Path 2026" d="M851.956,549.425s-6.661-3.158-8.76-.7-9.113,26.987-9.113,26.987-2.1,16.126,4.905,15.421,19.276-25.954,19.276-25.954Z" transform="translate(636.769 70.54)" fill="#493545"/>
    <path id="Path_2027" data-name="Path 2027" d="M851.956,549.425s-6.661-3.158-8.76-.7-9.113,26.987-9.113,26.987-2.1,16.126,4.905,15.421,19.276-25.954,19.276-25.954Z" transform="translate(636.769 70.54)" opacity="0.05"/>
    <path id="Path_2028" data-name="Path 2028" d="M877.454,487.38l15.068,23.484s-1.05,5.258-10.163,4.208L851.165,534.7s-2.711,23.9,5.955,21.729c1.4-.353,11.187-10.516,18.226-9.81l41.366-16.126s9.81-5.611,4.552-24.181-22.641-61.632-22.641-61.632l-27.477,15.369Z" transform="translate(634.402 84.919)" fill="#3e3d77"/>
    <path id="Path_2029" data-name="Path 2029" d="M877.454,487.38l15.068,23.484s-1.05,5.258-10.163,4.208L851.165,534.7s-2.711,23.9,5.955,21.729c1.4-.353,11.187-10.516,18.226-9.81l41.366-16.126s9.81-5.611,4.552-24.181-22.641-61.632-22.641-61.632l-27.477,15.369Z" transform="translate(634.402 84.919)" opacity="0.05"/>
    <path id="Path_2030" data-name="Path 2030" d="M878.209,517.98c2.1,13.321-9.81,14.371-9.81,14.371S814.77,533.4,808.462,532s-14.724,2.453-14.724,2.453c-10.869-6.661-2.1-23.131-2.1-23.131s22.434-.7,27.692-1.721,31.892-2.478,31.892-2.478-2.1-12.968-16.126-45.91c-9.526-22.374-2.582-35.54,2.9-41.676a23.077,23.077,0,0,1,4.81-4.234l43.113,2.1a55.917,55.917,0,0,0,.241,6.514,69.376,69.376,0,0,0,5.723,21.514c-2.453,0-18.226,14.724-18.226,14.724S876.1,504.667,878.209,517.98Z" transform="translate(643.113 89.017)" fill="#3e3d77"/>
    <path id="Path_2031" data-name="Path 2031" d="M794.789,512.726s22.434-.7,27.692-1.721,31.892-2.453,31.892-2.453-2.1-12.968-16.126-45.91c-9.526-22.374-2.582-35.54,2.9-41.676a23.079,23.079,0,0,1,4.81-4.234l39.946,1.945V417.43l-43.113-2.1a23.08,23.08,0,0,0-4.81,4.234c-5.456,6.144-12.426,19.3-2.9,41.676,14.061,32.916,16.144,45.884,16.144,45.884s-26.677,1.4-31.892,2.453-27.692,1.721-27.692,1.721-8.76,16.479,2.1,23.166c0,0,.327-.155.861-.379C787.379,526.658,794.789,512.726,794.789,512.726Z" transform="translate(643.113 89.012)" opacity="0.1"/>
    <rect id="Rectangle_873" data-name="Rectangle 873" width="21.729" height="55.023" transform="translate(1480.309 375.675)" fill="#493545"/>
    <rect id="Rectangle_874" data-name="Rectangle 874" width="21.729" height="55.023" transform="translate(1480.309 375.675)" opacity="0.1"/>
    <path id="Path_2032" data-name="Path 2032" d="M883.211,254.922c.749.207,1.592.232,2.1,1.265a7.745,7.745,0,0,1,.508,2.582l1.368,17a9.465,9.465,0,0,0,.637,3.253c.577,1.153,1.532,1.291,2.28,2.031,1.506,1.5,1.945,5.249,1.532,8.3a54.563,54.563,0,0,1-2.272,8.433c-1.17,3.958-1.945,8.407-3.588,11.746s-4.63,5.163-6.557,2.358-1.669-8.468-2.031-13.106c-.6-7.745-3.623-14.423-3.829-22.219-.172-6.308,1.523-12.194,2.582-18.175.757-4.1.8-9.087,1.9-12.779C878.762,250.009,880.518,254.182,883.211,254.922Z" transform="translate(631.252 112.68)" fill="#493545"/>
    <path id="Path_2033" data-name="Path 2033" d="M883.211,254.922c.749.207,1.592.232,2.1,1.265a7.745,7.745,0,0,1,.508,2.582l1.368,17a9.465,9.465,0,0,0,.637,3.253c.577,1.153,1.532,1.291,2.28,2.031,1.506,1.5,1.945,5.249,1.532,8.3a54.563,54.563,0,0,1-2.272,8.433c-1.17,3.958-1.945,8.407-3.588,11.746s-4.63,5.163-6.557,2.358-1.669-8.468-2.031-13.106c-.6-7.745-3.623-14.423-3.829-22.219-.172-6.308,1.523-12.194,2.582-18.175.757-4.1.8-9.087,1.9-12.779C878.762,250.009,880.518,254.182,883.211,254.922Z" transform="translate(631.252 112.68)" opacity="0.1"/>
    <path id="Path_2034" data-name="Path 2034" d="M774.034,224.129l-8.407,7.013s-1-1.17-2.487-3.064c-5.843-7.461-19.276-26.178-9.784-29.525s17,14.9,19.646,22.443C773.673,222.908,774.034,224.129,774.034,224.129Z" transform="translate(648.446 119.301)" fill="#c77485"/>
    <path id="Path_2035" data-name="Path 2035" d="M951.694,221.711c-3.5,5.258-8.407,0-8.407,0s-.628-.938-1.515-2.453c-2.883-4.879-8.537-15.7-4.793-19.982,4.3-4.9,14.965,11.815,15.292,19.655A4.663,4.663,0,0,1,951.694,221.711Z" transform="translate(622.551 119.266)" fill="#c77485"/>
    <path id="Path_2036" data-name="Path 2036" d="M854.08,290.508s7.013,22.434,4.905,29.086,15.077,14.4,15.077,14.4h19.629s7.013-14.371,5.258-18.579-16.824-7.358-16.824-7.358-8.76,0-8.407-23.484Z" transform="translate(633.939 107.248)" fill="#c77485"/>
    <path id="Path_2037" data-name="Path 2037" d="M776.154,227.832l-8.407,7.013s-1-1.17-2.487-3.064c3.055-.542,7.8-5,9.87-7.082C775.793,226.61,776.154,227.832,776.154,227.832Z" transform="translate(646.326 115.598)" opacity="0.1"/>
    <path id="Path_2038" data-name="Path 2038" d="M952.672,225.035c-3.5,5.258-8.407,0-8.407,0s-.628-.938-1.515-2.453l.112-.353c2.272,1.626,9.337.241,10.387,0a4.664,4.664,0,0,1-.577,2.805Z" transform="translate(621.573 115.942)" opacity="0.1"/>
    <path id="Path_2039" data-name="Path 2039" d="M894.19,423.9c-10.843,4.948-46.073-3.864-48.19-4.389a23.078,23.078,0,0,1,4.81-4.234l43.113,2.1a55.952,55.952,0,0,0,.267,6.523Z" transform="translate(635.066 89.019)" opacity="0.1"/>
    <path id="Path_2040" data-name="Path 2040" d="M846.148,301.208s-8.407,2.805-20.326-8.063c0,0-26.677-26.289-28.4-32.6l-20.653-36.143s-8.76,9.466-12.271,8.063l23.131,40.308s4.208,7.745,8.063,9.81c0,0,28.742,36.805,29.086,44.163s12.951,27.064,12.951,27.064,4.208,31.892-3.158,37.5c0,0,41,10.516,49.765,3.5,0,0-3.855-39.585,0-43.81,0,0,11.918-14.018,3.855-29.439,0,0-1.721-8.407,2.805-12.616s24.887-35.4,24.887-35.4,4.905-7.013,4.905-11.566c0,0,9.113-30.842,7.745-38.9,0,0-8.063,1.721-10.516,0,0,0-11.918,36.143-13.321,37.5s-11.187,29.792-24.181,32.95-15.068,4.552-15.068,4.552,25.231,15.774,12.968,22.778S846.148,301.208,846.148,301.208Z" transform="translate(646.432 115.824)" fill="#ffaac4"/>
    <path id="Path_2041" data-name="Path 2041" d="M874.627,296.126a66.984,66.984,0,0,1-.508-9.956l-19.629,5.955a26.474,26.474,0,0,1,1.231,4.027c2.246.99,5.275,3.33,7.883,3.33a17.873,17.873,0,0,0,11.024-3.356Z" transform="translate(633.882 107.025)" opacity="0.1"/>
    <ellipse id="Ellipse_108" data-name="Ellipse 108" cx="18.226" cy="18.226" rx="18.226" ry="18.226" transform="translate(1478.906 369.014)" fill="#c77485"/>
    <path id="Path_2042" data-name="Path 2042" d="M836.968,246.58c-4.01.31-8.485,3.081-8.261,7.1.12,2.212,1.635,4.079,2.3,6.2,1.592,5.12-1.953,10.258-5.069,14.629s-6.024,10.163-3.356,14.793a36.486,36.486,0,0,0,2.461,3.21c3.3,4.449,3.253,10.456,4.716,15.8A27.718,27.718,0,0,0,862.32,328.1a17.331,17.331,0,0,1-3.657-11.721c.2-3.064,1.188-6.265,0-9.1-1.532-3.64-6.024-5.077-8.339-8.261s-2.16-7.6-1.041-11.394,3.055-7.315,3.984-11.187a33.687,33.687,0,0,1,.861-3.348c1.618-4.6,6.454-7.263,11.187-8.407s9.707-1.213,14.328-2.719,9.113-5.034,9.647-9.879c-3.89,1.558-7.5-2.5-11.247-4.372-6.179-3.064-13.227-.181-19.594.525C851.193,249.05,844.309,246.047,836.968,246.58Z" transform="translate(638.478 112.581)" opacity="0.1"/>
    <path id="Path_2043" data-name="Path 2043" d="M836.558,245.77c-4.01.31-8.485,3.081-8.261,7.1.12,2.212,1.635,4.079,2.3,6.2,1.592,5.12-1.953,10.258-5.069,14.629s-6.024,10.163-3.356,14.793a36.469,36.469,0,0,0,2.461,3.21c3.3,4.449,3.253,10.456,4.716,15.8a27.718,27.718,0,0,0,32.563,19.792,17.331,17.331,0,0,1-3.657-11.72c.2-3.064,1.188-6.265,0-9.1-1.532-3.64-6.024-5.077-8.339-8.261s-2.16-7.6-1.041-11.394,3.055-7.315,3.984-11.187a33.687,33.687,0,0,1,.861-3.348c1.618-4.6,6.454-7.263,11.187-8.407s9.707-1.213,14.328-2.719,9.113-5.034,9.647-9.879c-3.89,1.558-7.5-2.5-11.247-4.372-6.179-3.064-13.227-.181-19.595.525C850.8,248.231,843.942,245.194,836.558,245.77Z" transform="translate(638.535 112.694)" fill="#493545"/>
    <path id="Path_2044" data-name="Path 2044" d="M885.65,326.3s7.3,6.514,8.734,9.388" transform="translate(629.536 101.428)" opacity="0.1"/>
    <path id="Path_2045" data-name="Path 2045" d="M899.512,371.51s-9.113,0-13.321,1.05-14.371,0-14.371,0" transform="translate(631.465 95.124)" opacity="0.1"/>
    <g id="Group_582" data-name="Group 582" transform="translate(1410.923 338.878)" opacity="0.1">
      <path id="Path_1933" data-name="Path 1933" d="M894.748,332.988a8.762,8.762,0,0,1-2.521.964,9.638,9.638,0,0,0,6.73-.964c12.271-7.013-12.968-22.778-12.968-22.778H881.78S907.02,325.984,894.748,332.988Z" transform="translate(-780.847 -235.205)"/>
      <path id="Path_1934" data-name="Path 1934" d="M954.469,223.687a3.669,3.669,0,0,0-.086-.637,41.172,41.172,0,0,1-4.363.663,19.327,19.327,0,0,0,4.449-.026Z" transform="translate(-790.364 -223.05)"/>
      <path id="Path_1935" data-name="Path 1935" d="M838.789,392.819c7.358-5.611,3.158-37.5,3.158-37.5s-12.615-19.629-12.968-26.987-29.086-44.163-29.086-44.163c-3.855-2.1-8.063-9.81-8.063-9.81s-23.837-38.9-27.339-40.308l23.131,40.308s4.208,7.745,8.063,9.81c0,0,28.742,36.805,29.086,44.163s12.96,27.012,12.96,27.012,4.208,31.892-3.158,37.5c0,0,25.205,6.463,40.316,5.877C859.743,398.189,838.789,392.819,838.789,392.819Z" transform="translate(-764.49 -224.584)"/>
      <path id="Path_1936" data-name="Path 1936" d="M859.468,314.147l-.207-.267a5.531,5.531,0,0,1-.731.164C858.857,314.087,859.167,314.121,859.468,314.147Z" transform="translate(-777.605 -235.717)"/>
    </g>
    <g id="Group_583" data-name="Group 583" transform="translate(1530.435 338.835)" opacity="0.1">
      <path id="Path_1937" data-name="Path 1937" d="M948.448,223l-.215.043c-.37,10.765-7.839,36.057-7.839,36.057,0,4.552-4.905,11.566-4.905,11.566s-20.326,31.195-24.887,35.4-2.805,12.616-2.805,12.616l.043.086c-.138-2.831.207-7.22,3.107-9.9,4.552-4.208,24.887-35.4,24.887-35.4s4.905-7.013,4.905-11.566C940.738,261.948,949.851,231.106,948.448,223Z" transform="translate(-903.941 -223)"/>
      <path id="Path_1938" data-name="Path 1938" d="M903.37,365.247c.525,2.977.172-.172.353,2.805,0,0,8.605-10.094,6.256-22.572C910.685,356.633,903.37,365.247,903.37,365.247Z" transform="translate(-903.37 -240.081)"/>
    </g>
  </g>
</svg>
