<svg width="376" height="259" viewBox="0 0 376 259" fill="none" xmlns="http://www.w3.org/2000/svg">
<g clip-path="url(#clip0)">
<path opacity="0.1" d="M212.677 35.2614C188.575 35.2935 165.377 28.4766 143.188 20.9037C120.999 13.3308 98.9806 4.85075 75.3276 1.25732C60.1157 -1.0525 42.8177 -0.84018 30.9268 7.54662C19.4808 15.6149 16.1663 28.9688 14.567 41.3062C13.3644 50.5873 12.8098 60.3285 17.3141 68.8182C20.4416 74.7118 25.7938 79.5695 29.5662 85.1865C42.7339 104.727 34.8152 129.688 22.0182 149.682C16.0179 159.062 8.98912 168.054 4.45263 177.972C-0.0838592 187.89 -1.94424 199.137 2.68253 208.926C7.26738 218.629 17.6236 225.671 28.7375 230.48C51.3071 240.267 77.5846 242.364 103.156 243.172C159.761 244.964 216.475 241.309 273.037 237.654C293.969 236.303 314.994 234.942 335.494 231.027C346.875 228.856 358.596 225.632 366.666 218.568C376.909 209.599 379.005 194.955 371.551 184.429C359.05 166.774 326.089 163.444 317.126 144.341C312.183 133.825 316.445 121.764 322.723 111.627C336.187 89.8769 359.363 70.3946 359.753 46.0674C360.021 29.3613 347.969 13.0638 329.968 5.80299C311.099 -1.80207 285.373 0.153883 272.154 14.3281C258.561 28.9302 233.957 35.2388 212.677 35.2614Z" fill="#F2C94C"/>
<path d="M320.015 207.614C320.015 207.614 316.052 205.005 312.125 206.862C312.125 206.862 313.334 209.184 318.306 208.965L320.015 207.614Z" fill="#F2C94C"/>
<path d="M320.517 207.752C320.517 207.752 321.723 212.333 318.699 215.451C318.699 215.451 316.88 213.562 318.699 208.936L320.517 207.752Z" fill="#F2C94C"/>
<path d="M325.444 203.355C325.444 203.355 325.15 199.459 316.332 200.752C316.332 200.752 316.29 203.265 319.385 204.455C322.481 205.645 323.899 204.642 325.444 203.355Z" fill="#F2C94C"/>
<path d="M325.999 203.329C325.999 203.329 329.726 204.523 326.402 212.774C326.402 212.774 323.942 212.227 323.5 208.943C323.058 205.658 324.367 204.526 325.999 203.329Z" fill="#F2C94C"/>
<path d="M330.977 197.802C330.977 197.802 331.483 191.391 322.472 192.047C322.472 192.047 321.827 197.838 329.388 199.343L330.977 197.802Z" fill="#F2C94C"/>
<path d="M336.932 190.564C336.932 190.564 335.697 183.297 326.688 185.462C326.688 185.462 326.656 191.745 335.462 192.295L336.932 190.564Z" fill="#F2C94C"/>
<path d="M341.285 183.081C341.285 183.081 339.215 176.004 330.29 178.121C330.29 178.121 332.415 184.487 340.691 184.388L341.285 183.081Z" fill="#F2C94C"/>
<path d="M345.418 175.772C345.418 175.772 343.397 168.428 334.778 170.625C334.778 170.625 337.654 177.603 344.848 177.014L345.418 175.772Z" fill="#F2C94C"/>
<path d="M348.081 168.83C348.081 168.83 346.527 159.848 338.492 161.836C338.492 161.836 340.827 170.007 347.491 170.139L348.081 168.83Z" fill="#F2C94C"/>
<path d="M350.58 160.443C350.58 160.443 348.713 151.39 340.585 154.009C340.585 154.009 343.77 162.566 350.003 161.682L350.58 160.443Z" fill="#F2C94C"/>
<path d="M352.114 152.639C352.114 152.639 349.151 143.583 342.867 143.827C342.867 143.827 345.895 153.391 351.589 154.443L352.114 152.639Z" fill="#F2C94C"/>
<path d="M353.108 145.021C353.108 145.021 349.884 134.122 344.771 134.961C344.771 134.961 347.002 143.293 352.928 146.719L353.108 145.021Z" fill="#F2C94C"/>
<path d="M353.669 135.933C353.669 135.933 350.645 126.851 345.608 126.487C345.608 126.487 347.665 135.424 353.569 138.294L353.669 135.933Z" fill="#F2C94C"/>
<path d="M354.278 127.453C354.278 127.453 350.509 118.361 347.185 118.155C347.185 118.155 348.822 127.108 353.955 128.945L354.278 127.453Z" fill="#F2C94C"/>
<path d="M354.694 119.565C354.694 119.565 352.376 109.691 349.045 108.871C349.045 108.871 349.5 116.949 354.358 120.304L354.694 119.565Z" fill="#F2C94C"/>
<path d="M355.952 109.231C355.952 109.231 353.514 101.359 350.815 100.159C350.815 100.159 351.347 109.44 355.329 111.155L355.952 109.231Z" fill="#F2C94C"/>
<path d="M356.993 102.475L357.483 88.5972C357.483 88.5972 352.437 99.059 356.628 104.911L356.993 102.475Z" fill="#F2C94C"/>
<path d="M360.888 88.6711C360.888 88.6711 364.522 78.5374 365.402 77.9712C365.402 77.9712 358.276 84.5468 358.973 93.0044L360.888 88.6711Z" fill="#F2C94C"/>
<path d="M331.222 197.754C331.222 197.754 337.613 196.921 337.422 205.932C337.422 205.932 331.648 206.871 329.762 199.417L331.222 197.754Z" fill="#F2C94C"/>
<path d="M337.235 190.319C337.235 190.319 344.619 190.297 344.006 199.52C344.006 199.52 337.806 200.627 335.762 192.063L337.235 190.319Z" fill="#F2C94C"/>
<path d="M341.356 183.676C341.356 183.676 348.059 180.54 352.347 188.637C352.347 188.637 346.157 191.249 340.763 184.986L341.356 183.676Z" fill="#F2C94C"/>
<path d="M345.566 175.84C345.566 175.84 352.431 172.504 356.461 180.411C356.461 180.411 349.31 182.869 344.999 177.091L345.566 175.84Z" fill="#F2C94C"/>
<path d="M347.994 169.026C347.994 169.026 354.601 162.731 359.873 169.097C359.873 169.097 353.124 174.28 347.691 170.429L347.994 169.026Z" fill="#F2C94C"/>
<path d="M350.206 160.227C350.206 160.227 356.852 153.793 362.081 160.523C362.081 160.523 354.624 165.809 349.968 161.579L350.206 160.227Z" fill="#F2C94C"/>
<path d="M351.447 152.381C351.447 152.381 356.567 144.338 362.597 146.133C362.597 146.133 357.283 154.649 351.505 154.269L351.447 152.381Z" fill="#F2C94C"/>
<path d="M352.956 144.969C352.956 144.969 358.115 134.842 362.997 136.605C362.997 136.605 359.276 144.39 352.824 146.678L352.956 144.969Z" fill="#F2C94C"/>
<path d="M353.315 135.405C353.315 135.405 358.619 127.433 363.587 128.408C363.587 128.408 359.251 136.492 352.799 137.711L353.315 135.405Z" fill="#F2C94C"/>
<path d="M353.727 127.276C353.727 127.276 357.837 118.329 361.178 118.268C361.178 118.268 359.205 127.15 354.004 128.794L353.727 127.276Z" fill="#F2C94C"/>
<path d="M354.533 119.371C354.533 119.371 359.102 110.312 362.536 110.293C362.536 110.293 360.198 118.04 354.685 120.166L354.533 119.371Z" fill="#F2C94C"/>
<path d="M355.22 109.798C355.22 109.798 358.637 102.302 361.468 101.453C361.468 101.453 359.759 110.589 355.597 111.786L355.22 109.798Z" fill="#F2C94C"/>
<path d="M357.4 102.202L365.038 90.5918C365.038 90.5918 363.081 102.044 356.284 104.425L357.4 102.202Z" fill="#F2C94C"/>
<path d="M362.643 89.6073C362.643 89.6073 371.519 83.495 371.841 82.5073C371.841 82.5073 367.327 91.0678 358.944 92.5798L362.643 89.6073Z" fill="#F2C94C"/>
<path d="M363.174 86.8568C363.174 86.8568 373.366 77.0802 375.967 77.0899C375.967 77.0899 367.562 77.4727 362.929 86.3356L363.174 86.8568Z" fill="#F2C94C"/>
<path d="M355.319 111.248L355.69 111.296C357.605 96.3403 360.397 87.4903 363.551 86.4061L363.428 86.0522C360.085 87.2104 357.273 95.9253 355.319 111.248Z" fill="#444053"/>
<path d="M352.502 147.015L353.063 147.06C353.182 145.664 353.273 144.236 353.334 142.81C353.869 130.431 354.698 119.062 355.787 110.54L355.465 110.138C354.372 118.679 353.308 130.389 352.773 142.788C352.712 144.203 352.621 145.625 352.502 147.015Z" fill="#444053"/>
<path d="M309.555 214.75C309.652 214.708 319.528 210.307 329.777 199.813C335.783 193.667 340.772 186.609 344.56 178.903C349.3 169.274 352.189 157.442 353.156 145.947L352.573 146.221C350.396 172.021 338.625 189.651 329.265 199.253C319.115 209.654 309.349 214.01 309.252 214.052L309.555 214.75Z" fill="#444053"/>
<path d="M335.126 27.4189H25.3166C24.5846 27.4189 23.8826 27.7091 23.365 28.2255C22.8474 28.7419 22.5566 29.4424 22.5566 30.1727V38.196H337.886V30.1727C337.886 29.4424 337.595 28.7419 337.078 28.2255C336.56 27.7091 335.858 27.4189 335.126 27.4189Z" fill="#3F3D56"/>
<path d="M22.5566 38.1958V218.749C22.5566 220.221 23.143 221.633 24.1866 222.675C25.2302 223.716 26.6457 224.301 28.1217 224.301H332.321C333.797 224.301 335.213 223.716 336.256 222.675C337.3 221.633 337.886 220.221 337.886 218.749V38.1958H22.5566Z" fill="white"/>
<path opacity="0.8" d="M27.5514 34.0136C28.2637 34.0136 28.8411 33.4374 28.8411 32.7268C28.8411 32.0161 28.2637 31.4399 27.5514 31.4399C26.8391 31.4399 26.2617 32.0161 26.2617 32.7268C26.2617 33.4374 26.8391 34.0136 27.5514 34.0136Z" fill="#FA5959"/>
<path opacity="0.8" d="M31.0973 34.0136C31.8096 34.0136 32.387 33.4374 32.387 32.7268C32.387 32.0161 31.8096 31.4399 31.0973 31.4399C30.385 31.4399 29.8076 32.0161 29.8076 32.7268C29.8076 33.4374 30.385 34.0136 31.0973 34.0136Z" fill="#F2C94C"/>
<path opacity="0.8" d="M34.6442 34.0136C35.3565 34.0136 35.9339 33.4374 35.9339 32.7268C35.9339 32.0161 35.3565 31.4399 34.6442 31.4399C33.9319 31.4399 33.3545 32.0161 33.3545 32.7268C33.3545 33.4374 33.9319 34.0136 34.6442 34.0136Z" fill="#8CCF4D"/>
<path opacity="0.05" d="M305.293 68.3008H51.8682V179.488H305.293V68.3008Z" fill="black"/>
<path d="M303.358 69.1436H53.8027V177.879H303.358V69.1436Z" fill="#3F3D56"/>
<path d="M121.833 97.1284C116.923 97.1284 112.123 98.5812 108.041 101.303C103.958 104.025 100.776 107.894 98.8967 112.42C97.0176 116.946 96.5259 121.927 97.4839 126.732C98.4418 131.537 100.806 135.951 104.278 139.415C107.75 142.88 112.174 145.239 116.99 146.195C121.806 147.151 126.798 146.66 131.334 144.785C135.871 142.91 139.748 139.735 142.476 135.662C145.204 131.588 146.66 126.799 146.66 121.9C146.66 118.647 146.018 115.425 144.77 112.42C143.523 109.415 141.694 106.684 139.388 104.384C137.083 102.084 134.346 100.259 131.334 99.014C128.322 97.7691 125.094 97.1284 121.833 97.1284ZM126.286 122.495V134.224H117.51V122.495C116.295 121.577 115.4 120.303 114.951 118.851C114.501 117.398 114.521 115.842 115.005 114.401C115.49 112.96 116.417 111.708 117.653 110.821C118.89 109.934 120.375 109.456 121.898 109.456C123.421 109.456 124.906 109.934 126.143 110.821C127.379 111.708 128.305 112.96 128.79 114.401C129.275 115.842 129.294 117.398 128.845 118.851C128.396 120.303 127.501 121.577 126.286 122.495Z" fill="#F2C94C"/>
<path opacity="0.05" d="M121.833 97.1284C116.923 97.1284 112.123 98.5812 108.041 101.303C103.958 104.025 100.776 107.894 98.8967 112.42C97.0176 116.946 96.5259 121.927 97.4839 126.732C98.4418 131.537 100.806 135.951 104.278 139.415C107.75 142.88 112.174 145.239 116.99 146.195C121.806 147.151 126.798 146.66 131.334 144.785C135.871 142.91 139.748 139.735 142.476 135.662C145.204 131.588 146.66 126.799 146.66 121.9C146.66 118.647 146.018 115.425 144.77 112.42C143.523 109.415 141.694 106.684 139.388 104.384C137.083 102.084 134.346 100.259 131.334 99.014C128.322 97.7691 125.094 97.1284 121.833 97.1284ZM126.286 122.495V134.224H117.51V122.495C116.295 121.577 115.4 120.303 114.951 118.851C114.501 117.398 114.521 115.842 115.005 114.401C115.49 112.96 116.417 111.708 117.653 110.821C118.89 109.934 120.375 109.456 121.898 109.456C123.421 109.456 124.906 109.934 126.143 110.821C127.379 111.708 128.305 112.96 128.79 114.401C129.275 115.842 129.294 117.398 128.845 118.851C128.396 120.303 127.501 121.577 126.286 122.495Z" fill="black"/>
<path d="M121.834 90.0513C115.521 90.0513 109.349 91.9192 104.1 95.4187C98.851 98.9183 94.7598 103.892 92.3438 109.712C89.9279 115.532 89.2958 121.935 90.5274 128.113C91.759 134.291 94.7991 139.966 99.2632 144.42C103.727 148.874 109.415 151.908 115.607 153.137C121.799 154.365 128.217 153.735 134.049 151.324C139.882 148.914 144.867 144.831 148.374 139.594C151.882 134.357 153.754 128.199 153.754 121.9C153.754 113.453 150.391 105.352 144.405 99.3795C138.419 93.4067 130.3 90.0513 121.834 90.0513ZM127.557 122.666V137.744H116.272V122.666C114.71 121.486 113.559 119.847 112.981 117.979C112.403 116.112 112.427 114.11 113.051 112.257C113.674 110.404 114.865 108.793 116.456 107.652C118.046 106.511 119.956 105.897 121.915 105.897C123.874 105.897 125.783 106.511 127.374 107.652C128.964 108.793 130.155 110.404 130.779 112.257C131.402 114.11 131.427 116.112 130.848 117.979C130.27 119.847 129.119 121.486 127.557 122.666Z" fill="#F2C94C"/>
<path d="M270.149 117.721H166.974V128.659H270.149V117.721Z" fill="white"/>
<path d="M270.149 137.667H247.901V148.604H270.149V137.667Z" fill="#F2C94C"/>
<path d="M177.129 123.026H175.262L176.923 121.372C176.953 121.342 176.969 121.301 176.969 121.258C176.969 121.215 176.953 121.174 176.923 121.144C176.908 121.129 176.89 121.117 176.87 121.109C176.851 121.101 176.83 121.096 176.808 121.096C176.787 121.096 176.766 121.101 176.746 121.109C176.727 121.117 176.709 121.129 176.694 121.144L175.033 122.801V120.935C175.033 120.892 175.016 120.851 174.986 120.821C174.956 120.791 174.915 120.774 174.872 120.774C174.83 120.775 174.789 120.792 174.759 120.822C174.729 120.852 174.712 120.892 174.711 120.935V122.801L173.054 121.134C173.039 121.119 173.021 121.107 173.001 121.099C172.982 121.091 172.961 121.087 172.939 121.087C172.918 121.087 172.897 121.091 172.877 121.099C172.858 121.107 172.84 121.119 172.825 121.134C172.795 121.165 172.778 121.206 172.778 121.248C172.778 121.291 172.795 121.332 172.825 121.363L174.485 123.016H172.615C172.573 123.017 172.532 123.034 172.502 123.064C172.472 123.094 172.455 123.135 172.454 123.177C172.454 123.22 172.471 123.261 172.501 123.291C172.532 123.321 172.573 123.338 172.615 123.338H174.485L172.825 124.995C172.795 125.025 172.778 125.066 172.778 125.109C172.778 125.152 172.795 125.192 172.825 125.223C172.856 125.252 172.897 125.268 172.939 125.268C172.982 125.268 173.023 125.252 173.054 125.223L174.711 123.566V125.429C174.711 125.472 174.728 125.513 174.758 125.543C174.789 125.573 174.83 125.59 174.872 125.59C174.915 125.59 174.956 125.573 174.986 125.543C175.016 125.513 175.033 125.472 175.033 125.429V123.566L176.694 125.223C176.725 125.252 176.766 125.268 176.808 125.268C176.851 125.268 176.892 125.252 176.923 125.223C176.953 125.192 176.969 125.152 176.969 125.109C176.969 125.066 176.953 125.025 176.923 124.995L175.262 123.338H177.129C177.172 123.338 177.213 123.321 177.243 123.291C177.273 123.261 177.29 123.22 177.29 123.177C177.288 123.136 177.27 123.098 177.24 123.069C177.21 123.041 177.17 123.026 177.129 123.026Z" fill="#F2C94C"/>
<path d="M183.901 123.026H182.034L183.694 121.372C183.724 121.342 183.741 121.301 183.741 121.258C183.741 121.215 183.724 121.174 183.694 121.144C183.679 121.129 183.662 121.117 183.642 121.109C183.622 121.101 183.601 121.096 183.58 121.096C183.559 121.096 183.538 121.101 183.518 121.109C183.498 121.117 183.48 121.129 183.465 121.144L181.805 122.801V120.935C181.805 120.892 181.788 120.851 181.758 120.821C181.728 120.791 181.687 120.774 181.644 120.774C181.601 120.775 181.561 120.792 181.531 120.822C181.501 120.852 181.483 120.892 181.483 120.935V122.801L179.825 121.134C179.81 121.119 179.792 121.107 179.773 121.099C179.753 121.091 179.732 121.087 179.711 121.087C179.69 121.087 179.668 121.091 179.649 121.099C179.629 121.107 179.611 121.119 179.596 121.134C179.567 121.165 179.55 121.206 179.55 121.248C179.55 121.291 179.567 121.332 179.596 121.363L181.257 123.016H179.387C179.344 123.017 179.304 123.034 179.274 123.064C179.244 123.094 179.226 123.135 179.226 123.177C179.226 123.22 179.243 123.261 179.273 123.291C179.303 123.321 179.344 123.338 179.387 123.338H181.257L179.596 124.995C179.567 125.025 179.55 125.066 179.55 125.109C179.55 125.152 179.567 125.192 179.596 125.223C179.627 125.252 179.668 125.268 179.711 125.268C179.753 125.268 179.794 125.252 179.825 125.223L181.483 123.566V125.429C181.483 125.472 181.5 125.513 181.53 125.543C181.56 125.573 181.601 125.59 181.644 125.59C181.687 125.59 181.728 125.573 181.758 125.543C181.788 125.513 181.805 125.472 181.805 125.429V123.566L183.465 125.223C183.496 125.252 183.537 125.268 183.58 125.268C183.622 125.268 183.663 125.252 183.694 125.223C183.724 125.192 183.741 125.152 183.741 125.109C183.741 125.066 183.724 125.025 183.694 124.995L182.034 123.338H183.901C183.943 123.338 183.984 123.321 184.015 123.291C184.045 123.261 184.062 123.22 184.062 123.177C184.059 123.136 184.041 123.098 184.011 123.069C183.981 123.041 183.942 123.026 183.901 123.026Z" fill="#F2C94C"/>
<path d="M190.671 123.026H188.804L190.465 121.372C190.495 121.342 190.511 121.301 190.511 121.258C190.511 121.215 190.495 121.174 190.465 121.144C190.45 121.129 190.432 121.117 190.412 121.109C190.393 121.101 190.372 121.096 190.35 121.096C190.329 121.096 190.308 121.101 190.288 121.109C190.269 121.117 190.251 121.129 190.236 121.144L188.575 122.801V120.935C188.575 120.892 188.558 120.851 188.528 120.821C188.498 120.791 188.457 120.774 188.414 120.774C188.372 120.775 188.331 120.792 188.301 120.822C188.271 120.852 188.254 120.892 188.253 120.935V122.801L186.596 121.134C186.581 121.119 186.563 121.107 186.543 121.099C186.524 121.091 186.503 121.087 186.481 121.087C186.46 121.087 186.439 121.091 186.419 121.099C186.4 121.107 186.382 121.119 186.367 121.134C186.337 121.165 186.32 121.206 186.32 121.248C186.32 121.291 186.337 121.332 186.367 121.363L188.027 123.016H186.157C186.115 123.017 186.074 123.034 186.044 123.064C186.014 123.094 185.997 123.135 185.996 123.177C185.996 123.22 186.013 123.261 186.043 123.291C186.074 123.321 186.115 123.338 186.157 123.338H188.027L186.367 124.995C186.337 125.025 186.32 125.066 186.32 125.109C186.32 125.152 186.337 125.192 186.367 125.223C186.398 125.252 186.439 125.268 186.481 125.268C186.524 125.268 186.565 125.252 186.596 125.223L188.253 123.566V125.429C188.253 125.472 188.27 125.513 188.3 125.543C188.33 125.573 188.372 125.59 188.414 125.59C188.457 125.59 188.498 125.573 188.528 125.543C188.558 125.513 188.575 125.472 188.575 125.429V123.566L190.236 125.223C190.267 125.252 190.308 125.268 190.35 125.268C190.393 125.268 190.434 125.252 190.465 125.223C190.495 125.192 190.511 125.152 190.511 125.109C190.511 125.066 190.495 125.025 190.465 124.995L188.804 123.338H190.671C190.714 123.338 190.755 123.321 190.785 123.291C190.815 123.261 190.832 123.22 190.832 123.177C190.83 123.136 190.812 123.098 190.782 123.069C190.752 123.041 190.712 123.026 190.671 123.026Z" fill="#F2C94C"/>
<path d="M197.442 123.026H195.575L197.235 121.372C197.265 121.342 197.282 121.301 197.282 121.258C197.282 121.215 197.265 121.174 197.235 121.144C197.22 121.129 197.203 121.117 197.183 121.109C197.163 121.101 197.142 121.096 197.121 121.096C197.1 121.096 197.079 121.101 197.059 121.109C197.039 121.117 197.021 121.129 197.006 121.144L195.346 122.801V120.935C195.346 120.892 195.329 120.851 195.299 120.821C195.269 120.791 195.228 120.774 195.185 120.774C195.142 120.775 195.102 120.792 195.072 120.822C195.042 120.852 195.024 120.892 195.024 120.935V122.801L193.366 121.134C193.351 121.119 193.333 121.107 193.314 121.099C193.294 121.091 193.273 121.087 193.252 121.087C193.231 121.087 193.209 121.091 193.19 121.099C193.17 121.107 193.152 121.119 193.137 121.134C193.108 121.165 193.091 121.206 193.091 121.248C193.091 121.291 193.108 121.332 193.137 121.363L194.798 123.016H192.928C192.885 123.017 192.845 123.034 192.815 123.064C192.785 123.094 192.767 123.135 192.767 123.177C192.767 123.22 192.784 123.261 192.814 123.291C192.844 123.321 192.885 123.338 192.928 123.338H194.798L193.137 124.995C193.108 125.025 193.091 125.066 193.091 125.109C193.091 125.152 193.108 125.192 193.137 125.223C193.168 125.252 193.209 125.268 193.252 125.268C193.294 125.268 193.335 125.252 193.366 125.223L195.024 123.566V125.429C195.024 125.472 195.041 125.513 195.071 125.543C195.101 125.573 195.142 125.59 195.185 125.59C195.228 125.59 195.269 125.573 195.299 125.543C195.329 125.513 195.346 125.472 195.346 125.429V123.566L197.006 125.223C197.038 125.252 197.078 125.268 197.121 125.268C197.163 125.268 197.204 125.252 197.235 125.223C197.265 125.192 197.282 125.152 197.282 125.109C197.282 125.066 197.265 125.025 197.235 124.995L195.575 123.338H197.442C197.484 123.338 197.525 123.321 197.556 123.291C197.586 123.261 197.603 123.22 197.603 123.177C197.6 123.136 197.582 123.098 197.552 123.069C197.522 123.041 197.483 123.026 197.442 123.026Z" fill="#F2C94C"/>
<path d="M204.213 123.026H202.346L204.007 121.372C204.037 121.342 204.053 121.301 204.053 121.258C204.053 121.215 204.037 121.174 204.007 121.144C203.992 121.129 203.974 121.117 203.954 121.109C203.935 121.101 203.914 121.096 203.892 121.096C203.871 121.096 203.85 121.101 203.83 121.109C203.811 121.117 203.793 121.129 203.778 121.144L202.117 122.801V120.935C202.117 120.892 202.1 120.851 202.07 120.821C202.04 120.791 201.999 120.774 201.956 120.774C201.914 120.775 201.873 120.792 201.843 120.822C201.813 120.852 201.796 120.892 201.795 120.935V122.801L200.138 121.134C200.123 121.119 200.105 121.107 200.085 121.099C200.066 121.091 200.045 121.087 200.023 121.087C200.002 121.087 199.981 121.091 199.961 121.099C199.942 121.107 199.924 121.119 199.909 121.134C199.879 121.165 199.862 121.206 199.862 121.248C199.862 121.291 199.879 121.332 199.909 121.363L201.569 123.016H199.699C199.657 123.017 199.616 123.034 199.586 123.064C199.556 123.094 199.539 123.135 199.538 123.177C199.538 123.22 199.555 123.261 199.585 123.291C199.616 123.321 199.657 123.338 199.699 123.338H201.569L199.909 124.995C199.879 125.025 199.862 125.066 199.862 125.109C199.862 125.152 199.879 125.192 199.909 125.223C199.94 125.252 199.981 125.268 200.023 125.268C200.066 125.268 200.107 125.252 200.138 125.223L201.795 123.566V125.429C201.795 125.472 201.812 125.513 201.842 125.543C201.872 125.573 201.913 125.59 201.956 125.59C201.999 125.59 202.04 125.573 202.07 125.543C202.1 125.513 202.117 125.472 202.117 125.429V123.566L203.778 125.223C203.809 125.252 203.85 125.268 203.892 125.268C203.935 125.268 203.976 125.252 204.007 125.223C204.037 125.192 204.053 125.152 204.053 125.109C204.053 125.066 204.037 125.025 204.007 124.995L202.346 123.338H204.213C204.256 123.338 204.297 123.321 204.327 123.291C204.357 123.261 204.374 123.22 204.374 123.177C204.372 123.136 204.354 123.098 204.324 123.069C204.294 123.041 204.254 123.026 204.213 123.026Z" fill="#F2C94C"/>
<path d="M210.984 123.026H209.117L210.777 121.372C210.807 121.342 210.824 121.301 210.824 121.258C210.824 121.215 210.807 121.174 210.777 121.144C210.762 121.129 210.745 121.117 210.725 121.109C210.705 121.101 210.684 121.096 210.663 121.096C210.642 121.096 210.621 121.101 210.601 121.109C210.581 121.117 210.563 121.129 210.548 121.144L208.888 122.801V120.935C208.888 120.892 208.871 120.851 208.841 120.821C208.811 120.791 208.77 120.774 208.727 120.774C208.684 120.775 208.644 120.792 208.614 120.822C208.584 120.852 208.566 120.892 208.566 120.935V122.801L206.908 121.134C206.893 121.119 206.875 121.107 206.856 121.099C206.836 121.091 206.815 121.087 206.794 121.087C206.773 121.087 206.751 121.091 206.732 121.099C206.712 121.107 206.694 121.119 206.679 121.134C206.65 121.165 206.633 121.206 206.633 121.248C206.633 121.291 206.65 121.332 206.679 121.363L208.34 123.016H206.47C206.427 123.017 206.387 123.034 206.357 123.064C206.327 123.094 206.309 123.135 206.309 123.177C206.309 123.22 206.326 123.261 206.356 123.291C206.386 123.321 206.427 123.338 206.47 123.338H208.34L206.679 124.995C206.65 125.025 206.633 125.066 206.633 125.109C206.633 125.152 206.65 125.192 206.679 125.223C206.71 125.252 206.751 125.268 206.794 125.268C206.836 125.268 206.877 125.252 206.908 125.223L208.566 123.566V125.429C208.566 125.472 208.583 125.513 208.613 125.543C208.643 125.573 208.684 125.59 208.727 125.59C208.77 125.59 208.811 125.573 208.841 125.543C208.871 125.513 208.888 125.472 208.888 125.429V123.566L210.548 125.223C210.58 125.252 210.62 125.268 210.663 125.268C210.705 125.268 210.746 125.252 210.777 125.223C210.807 125.192 210.824 125.152 210.824 125.109C210.824 125.066 210.807 125.025 210.777 124.995L209.117 123.338H210.984C211.026 123.338 211.067 123.321 211.098 123.291C211.128 123.261 211.145 123.22 211.145 123.177C211.142 123.136 211.124 123.098 211.094 123.069C211.064 123.041 211.025 123.026 210.984 123.026Z" fill="#F2C94C"/>
<path d="M217.755 123.026H215.888L217.549 121.372C217.579 121.342 217.595 121.301 217.595 121.258C217.595 121.215 217.579 121.174 217.549 121.144C217.534 121.129 217.516 121.117 217.496 121.109C217.477 121.101 217.456 121.096 217.434 121.096C217.413 121.096 217.392 121.101 217.372 121.109C217.353 121.117 217.335 121.129 217.32 121.144L215.659 122.801V120.935C215.659 120.892 215.642 120.851 215.612 120.821C215.582 120.791 215.541 120.774 215.498 120.774C215.456 120.775 215.415 120.792 215.385 120.822C215.355 120.852 215.338 120.892 215.337 120.935V122.801L213.68 121.134C213.665 121.119 213.647 121.107 213.627 121.099C213.608 121.091 213.587 121.087 213.565 121.087C213.544 121.087 213.523 121.091 213.503 121.099C213.484 121.107 213.466 121.119 213.451 121.134C213.421 121.165 213.404 121.206 213.404 121.248C213.404 121.291 213.421 121.332 213.451 121.363L215.111 123.016H213.241C213.199 123.017 213.158 123.034 213.128 123.064C213.098 123.094 213.081 123.135 213.08 123.177C213.08 123.22 213.097 123.261 213.127 123.291C213.158 123.321 213.199 123.338 213.241 123.338H215.111L213.451 124.995C213.421 125.025 213.404 125.066 213.404 125.109C213.404 125.152 213.421 125.192 213.451 125.223C213.482 125.252 213.523 125.268 213.565 125.268C213.608 125.268 213.649 125.252 213.68 125.223L215.337 123.566V125.429C215.337 125.472 215.354 125.513 215.384 125.543C215.414 125.573 215.455 125.59 215.498 125.59C215.541 125.59 215.582 125.573 215.612 125.543C215.642 125.513 215.659 125.472 215.659 125.429V123.566L217.32 125.223C217.351 125.252 217.392 125.268 217.434 125.268C217.477 125.268 217.518 125.252 217.549 125.223C217.579 125.192 217.595 125.152 217.595 125.109C217.595 125.066 217.579 125.025 217.549 124.995L215.888 123.338H217.755C217.798 123.338 217.839 123.321 217.869 123.291C217.899 123.261 217.916 123.22 217.916 123.177C217.914 123.136 217.896 123.098 217.866 123.069C217.836 123.041 217.796 123.026 217.755 123.026Z" fill="#F2C94C"/>
<path d="M224.526 123.026H222.659L224.319 121.372C224.349 121.342 224.366 121.301 224.366 121.258C224.366 121.215 224.349 121.174 224.319 121.144C224.304 121.129 224.287 121.117 224.267 121.109C224.247 121.101 224.226 121.096 224.205 121.096C224.184 121.096 224.163 121.101 224.143 121.109C224.123 121.117 224.105 121.129 224.09 121.144L222.43 122.801V120.935C222.43 120.892 222.413 120.851 222.383 120.821C222.352 120.791 222.312 120.774 222.269 120.774C222.226 120.775 222.186 120.792 222.156 120.822C222.126 120.852 222.108 120.892 222.108 120.935V122.801L220.45 121.134C220.435 121.119 220.417 121.107 220.398 121.099C220.378 121.091 220.357 121.087 220.336 121.087C220.315 121.087 220.293 121.091 220.274 121.099C220.254 121.107 220.236 121.119 220.221 121.134C220.192 121.165 220.175 121.206 220.175 121.248C220.175 121.291 220.192 121.332 220.221 121.363L221.882 123.016H220.012C219.969 123.017 219.929 123.034 219.899 123.064C219.869 123.094 219.851 123.135 219.851 123.177C219.851 123.22 219.868 123.261 219.898 123.291C219.928 123.321 219.969 123.338 220.012 123.338H221.882L220.221 124.995C220.192 125.025 220.175 125.066 220.175 125.109C220.175 125.152 220.192 125.192 220.221 125.223C220.252 125.252 220.293 125.268 220.336 125.268C220.378 125.268 220.419 125.252 220.45 125.223L222.108 123.566V125.429C222.108 125.472 222.125 125.513 222.155 125.543C222.185 125.573 222.226 125.59 222.269 125.59C222.312 125.59 222.352 125.573 222.383 125.543C222.413 125.513 222.43 125.472 222.43 125.429V123.566L224.09 125.223C224.121 125.252 224.162 125.268 224.205 125.268C224.247 125.268 224.288 125.252 224.319 125.223C224.349 125.192 224.366 125.152 224.366 125.109C224.366 125.066 224.349 125.025 224.319 124.995L222.659 123.338H224.526C224.568 123.338 224.609 123.321 224.64 123.291C224.67 123.261 224.687 123.22 224.687 123.177C224.684 123.136 224.666 123.098 224.636 123.069C224.606 123.041 224.567 123.026 224.526 123.026Z" fill="#F2C94C"/>
<path d="M231.296 123.026H229.429L231.09 121.372C231.12 121.342 231.136 121.301 231.136 121.258C231.136 121.215 231.12 121.174 231.09 121.144C231.075 121.129 231.057 121.117 231.037 121.109C231.018 121.101 230.997 121.096 230.975 121.096C230.954 121.096 230.933 121.101 230.913 121.109C230.894 121.117 230.876 121.129 230.861 121.144L229.2 122.801V120.935C229.2 120.892 229.183 120.851 229.153 120.821C229.123 120.791 229.082 120.774 229.039 120.774C228.997 120.775 228.956 120.792 228.926 120.822C228.896 120.852 228.879 120.892 228.878 120.935V122.801L227.221 121.134C227.206 121.119 227.188 121.107 227.168 121.099C227.149 121.091 227.128 121.087 227.106 121.087C227.085 121.087 227.064 121.091 227.044 121.099C227.025 121.107 227.007 121.119 226.992 121.134C226.962 121.165 226.945 121.206 226.945 121.248C226.945 121.291 226.962 121.332 226.992 121.363L228.652 123.016H226.782C226.74 123.017 226.699 123.034 226.669 123.064C226.639 123.094 226.622 123.135 226.621 123.177C226.621 123.22 226.638 123.261 226.668 123.291C226.699 123.321 226.74 123.338 226.782 123.338H228.652L226.992 124.995C226.962 125.025 226.945 125.066 226.945 125.109C226.945 125.152 226.962 125.192 226.992 125.223C227.023 125.252 227.064 125.268 227.106 125.268C227.149 125.268 227.19 125.252 227.221 125.223L228.878 123.566V125.429C228.878 125.472 228.895 125.513 228.925 125.543C228.956 125.573 228.997 125.59 229.039 125.59C229.082 125.59 229.123 125.573 229.153 125.543C229.183 125.513 229.2 125.472 229.2 125.429V123.566L230.861 125.223C230.892 125.252 230.933 125.268 230.975 125.268C231.018 125.268 231.059 125.252 231.09 125.223C231.12 125.192 231.136 125.152 231.136 125.109C231.136 125.066 231.12 125.025 231.09 124.995L229.429 123.338H231.296C231.339 123.338 231.38 123.321 231.41 123.291C231.44 123.261 231.457 123.22 231.457 123.177C231.455 123.136 231.437 123.098 231.407 123.069C231.377 123.041 231.337 123.026 231.296 123.026Z" fill="#F2C94C"/>
<path d="M238.068 123.026H236.201L237.861 121.372C237.891 121.342 237.908 121.301 237.908 121.258C237.908 121.215 237.891 121.174 237.861 121.144C237.846 121.129 237.829 121.117 237.809 121.109C237.789 121.101 237.768 121.096 237.747 121.096C237.726 121.096 237.705 121.101 237.685 121.109C237.665 121.117 237.647 121.129 237.632 121.144L235.972 122.801V120.935C235.972 120.892 235.955 120.851 235.925 120.821C235.895 120.791 235.854 120.774 235.811 120.774C235.768 120.775 235.728 120.792 235.698 120.822C235.668 120.852 235.65 120.892 235.65 120.935V122.801L233.992 121.134C233.977 121.119 233.959 121.107 233.94 121.099C233.92 121.091 233.899 121.087 233.878 121.087C233.857 121.087 233.835 121.091 233.816 121.099C233.796 121.107 233.778 121.119 233.763 121.134C233.734 121.165 233.717 121.206 233.717 121.248C233.717 121.291 233.734 121.332 233.763 121.363L235.424 123.016H233.554C233.511 123.017 233.471 123.034 233.441 123.064C233.411 123.094 233.393 123.135 233.393 123.177C233.393 123.22 233.41 123.261 233.44 123.291C233.47 123.321 233.511 123.338 233.554 123.338H235.424L233.763 124.995C233.734 125.025 233.717 125.066 233.717 125.109C233.717 125.152 233.734 125.192 233.763 125.223C233.794 125.252 233.835 125.268 233.878 125.268C233.92 125.268 233.961 125.252 233.992 125.223L235.65 123.566V125.429C235.65 125.472 235.667 125.513 235.697 125.543C235.727 125.573 235.768 125.59 235.811 125.59C235.854 125.59 235.895 125.573 235.925 125.543C235.955 125.513 235.972 125.472 235.972 125.429V123.566L237.632 125.223C237.663 125.252 237.704 125.268 237.747 125.268C237.789 125.268 237.83 125.252 237.861 125.223C237.891 125.192 237.908 125.152 237.908 125.109C237.908 125.066 237.891 125.025 237.861 124.995L236.201 123.338H238.068C238.11 123.338 238.151 123.321 238.182 123.291C238.212 123.261 238.229 123.22 238.229 123.177C238.226 123.136 238.208 123.098 238.178 123.069C238.148 123.041 238.109 123.026 238.068 123.026Z" fill="#F2C94C"/>
<path d="M244.838 123.026H242.971L244.632 121.372C244.662 121.342 244.678 121.301 244.678 121.258C244.678 121.215 244.662 121.174 244.632 121.144C244.617 121.129 244.599 121.117 244.579 121.109C244.56 121.101 244.539 121.096 244.517 121.096C244.496 121.096 244.475 121.101 244.455 121.109C244.436 121.117 244.418 121.129 244.403 121.144L242.742 122.801V120.935C242.742 120.892 242.725 120.851 242.695 120.821C242.665 120.791 242.624 120.774 242.581 120.774C242.539 120.775 242.498 120.792 242.468 120.822C242.438 120.852 242.421 120.892 242.42 120.935V122.801L240.763 121.134C240.748 121.119 240.73 121.107 240.71 121.099C240.691 121.091 240.67 121.087 240.648 121.087C240.627 121.087 240.606 121.091 240.586 121.099C240.567 121.107 240.549 121.119 240.534 121.134C240.504 121.165 240.487 121.206 240.487 121.248C240.487 121.291 240.504 121.332 240.534 121.363L242.194 123.016H240.324C240.282 123.017 240.241 123.034 240.211 123.064C240.181 123.094 240.164 123.135 240.163 123.177C240.163 123.22 240.18 123.261 240.21 123.291C240.241 123.321 240.282 123.338 240.324 123.338H242.194L240.534 124.995C240.504 125.025 240.487 125.066 240.487 125.109C240.487 125.152 240.504 125.192 240.534 125.223C240.565 125.252 240.606 125.268 240.648 125.268C240.691 125.268 240.732 125.252 240.763 125.223L242.42 123.566V125.429C242.42 125.472 242.437 125.513 242.467 125.543C242.497 125.573 242.538 125.59 242.581 125.59C242.624 125.59 242.665 125.573 242.695 125.543C242.725 125.513 242.742 125.472 242.742 125.429V123.566L244.403 125.223C244.434 125.252 244.475 125.268 244.517 125.268C244.56 125.268 244.601 125.252 244.632 125.223C244.662 125.192 244.678 125.152 244.678 125.109C244.678 125.066 244.662 125.025 244.632 124.995L242.971 123.338H244.838C244.881 123.338 244.922 123.321 244.952 123.291C244.982 123.261 244.999 123.22 244.999 123.177C244.997 123.136 244.979 123.098 244.949 123.069C244.919 123.041 244.879 123.026 244.838 123.026Z" fill="#F2C94C"/>
<path d="M296.745 162.161C296.736 161.772 296.687 161.385 296.6 161.006C296.31 159.918 295.655 158.603 294.578 158.275C293.466 157.935 292.392 157.482 291.373 156.923C291.18 153.475 291.973 149.946 291.109 146.603C290.786 145.381 290.254 144.21 290.113 142.958C289.935 141.401 290.361 139.741 289.739 138.306C289.248 137.174 288.172 136.376 287.014 135.958C285.857 135.54 284.609 135.427 283.38 135.315C281.833 135.189 276.822 134.597 275.075 135.977C274.954 136.071 274.846 136.179 274.752 136.299C274.714 136.352 274.679 136.408 274.649 136.466L274.633 136.492C274.598 136.559 274.569 136.629 274.546 136.701C274.522 136.78 274.503 136.861 274.491 136.942C274.491 136.968 274.491 136.994 274.491 137.02C274.491 137.045 274.491 137.132 274.491 137.19V137.277C274.491 137.335 274.491 137.393 274.491 137.454C274.491 137.515 274.491 137.499 274.491 137.521C274.514 137.811 274.556 138.101 274.556 138.387C274.559 138.529 274.546 138.672 274.517 138.812C274.41 139.191 274.228 139.545 273.982 139.854L273.924 139.937C273.888 139.989 273.853 140.037 273.821 140.089C273.788 140.14 273.762 140.179 273.737 140.224C273.711 140.269 273.685 140.298 273.663 140.34C273.631 140.393 273.603 140.447 273.579 140.504C273.579 140.536 273.543 140.565 273.53 140.597C273.49 140.684 273.458 140.774 273.434 140.867C273.358 141.147 273.351 141.44 273.414 141.723C273.501 142.084 273.651 142.427 273.856 142.736C273.937 142.868 274.024 142.997 274.114 143.126L274.34 143.431C274.297 143.73 274.275 144.031 274.272 144.332C274.272 145.339 274.501 146.334 274.943 147.24C275.384 148.146 276.025 148.94 276.819 149.563C276.947 150.921 276.933 152.29 276.777 153.645C276.748 153.928 276.713 154.215 276.674 154.498C276.635 154.781 276.606 154.967 276.568 155.202C276.096 155.27 275.615 155.233 275.159 155.096C274.948 155.002 274.733 154.92 274.514 154.848C273.575 154.614 272.618 155.547 271.689 155.263C271.689 155.308 271.664 155.35 271.647 155.392C271.454 155.272 271.231 155.206 271.003 155.202C270.451 155.177 270.003 154.778 269.603 154.401L268.375 153.246C268.295 153.176 268.223 153.096 268.162 153.008C268.096 152.883 268.046 152.75 268.014 152.613C267.807 151.947 267.308 151.416 266.824 150.911C266.732 150.796 266.611 150.708 266.472 150.657C266.419 150.649 266.365 150.649 266.311 150.657C266.278 150.612 266.243 150.569 266.205 150.528C266.121 150.432 266.032 150.342 265.937 150.258C265.35 149.717 265.292 149.254 264.783 148.649C264.339 148.072 263.936 147.465 263.577 146.832C263.535 146.494 263.477 146.146 263.406 145.796C263.244 144.993 263.007 144.207 262.7 143.447L262.055 142.022L261.981 142.096C261.514 141.401 261.014 141.022 260.566 141.112C259.814 141.266 259.444 142.72 259.563 144.621L259.821 146.552C259.821 146.6 259.843 146.648 259.856 146.696C259.81 146.925 259.786 147.158 259.785 147.391C259.785 147.662 260.037 147.861 260.169 148.102C260.381 148.429 260.493 148.81 260.492 149.199C260.475 149.338 260.434 149.47 260.427 149.605C260.445 149.907 260.55 150.198 260.73 150.441L262.342 153.143L262.665 153.71L262.684 153.735C262.786 153.933 262.934 154.103 263.116 154.231C263.179 154.907 263.359 155.568 263.648 156.183C263.703 156.306 263.764 156.422 263.829 156.537C264.262 157.248 264.772 157.91 265.35 158.509L266.118 159.368C266.876 160.211 267.633 161.057 268.455 161.836C268.75 162.148 269.105 162.397 269.5 162.566C269.693 162.643 269.904 162.668 270.11 162.638C270.316 162.608 270.51 162.525 270.674 162.396C270.674 162.794 270.674 163.193 270.674 163.592C270.793 163.6 270.909 163.639 271.008 163.706C271.108 163.772 271.188 163.864 271.24 163.972C271.292 164.08 271.314 164.2 271.304 164.319C271.294 164.438 271.252 164.553 271.183 164.651C270.506 166.385 269.822 168.135 268.797 169.689C269.521 170.116 270.192 170.627 270.796 171.21C271.188 171.644 271.537 172.115 271.838 172.616C271.867 172.854 271.889 173.089 271.902 173.324C272.141 177.159 270.654 180.964 269.323 184.619C268.939 185.655 268.52 186.739 268.552 187.817C268.299 187.972 268.058 188.145 267.83 188.335C268.094 189.023 267.991 189.637 267.962 190.374C267.952 190.816 267.862 191.252 267.694 191.661C267.554 191.944 267.399 192.22 267.23 192.488C266.395 193.958 266.211 195.705 266.044 197.384C265.944 198.397 266.337 199.636 265.876 200.543C265.08 202.1 264.374 203.76 264.264 205.491C264.26 205.88 264.21 206.268 264.116 206.646C264.016 206.968 263.838 207.241 263.748 207.556C263.655 207.979 263.633 208.414 263.684 208.843C263.745 210.385 263.515 211.925 263.006 213.382C262.603 214.531 262.158 215.76 262.474 216.94C261.697 217.756 261.216 218.808 261.111 219.929C261.102 220.216 261.068 220.501 261.007 220.781C260.909 221.068 260.779 221.343 260.621 221.602C259.971 222.781 259.668 224.119 259.744 225.462C258.776 226.772 258.293 228.387 258.006 229.992C257.719 231.597 257.593 233.231 257.225 234.817C256.735 236.915 255.849 239.035 255.675 241.184C254.63 241.85 254.179 243.14 253.979 244.359C253.779 245.578 253.746 246.859 253.234 247.985C252.969 248.57 252.589 249.095 252.337 249.693C252.161 250.169 252.032 250.662 251.951 251.163C251.796 251.948 251.66 252.823 251.851 253.576C251.577 253.865 251.258 254.107 250.906 254.293C250.957 254.094 250.999 253.894 251.035 253.692C250.203 254.445 248.694 254.181 248.03 255.085C247.83 255.376 247.753 255.734 247.813 256.081C247.873 256.429 248.067 256.74 248.352 256.947C248.56 257.074 248.785 257.17 249.02 257.234C250.632 257.748 252.289 258.266 253.946 257.993C254.142 257.972 254.332 257.912 254.504 257.816C254.72 257.658 254.897 257.453 255.023 257.218C255.272 256.825 255.52 256.433 255.765 256.04C256.359 256.217 256.963 256.358 257.574 256.462C257.635 256.976 257.68 257.491 257.703 258.006C258.025 258.07 258.457 258.089 258.609 257.79C258.655 257.677 258.673 257.555 258.663 257.433C258.663 257.205 258.696 256.902 258.715 256.593H258.779C259.763 256.633 260.742 256.436 261.633 256.018C261.288 253.167 262.426 250.381 263.413 247.686C264.454 244.848 265.347 241.959 266.247 239.07C266.892 237.037 267.604 235.068 268.236 233.032C269.031 230.458 269.83 227.885 270.632 225.311C270.98 224.179 271.331 223.059 271.731 221.933C272.573 219.655 273.572 217.437 274.72 215.296C275.043 214.688 275.365 214.087 275.629 213.456C275.952 212.687 276.181 211.883 276.439 211.089C277.001 209.458 277.677 207.869 278.463 206.334C278.486 206.292 278.502 206.253 278.525 206.215C278.786 207.28 279.047 208.361 279.221 209.432C279.457 210.745 279.475 212.089 279.276 213.408C279.121 214.306 278.828 215.194 278.863 216.104C278.912 217.362 279.585 218.504 279.918 219.717C280.132 220.624 280.253 221.551 280.279 222.483C280.369 223.931 281.156 225.556 280.601 226.897C278.876 231.147 279.711 235.947 278.728 240.409C278.222 242.699 276.671 244.851 276.793 247.193C276.879 248.855 277.025 250.513 277.232 252.167C277.281 252.689 277.418 253.198 277.635 253.676C277.763 253.927 277.911 254.168 278.077 254.396C277.935 254.451 277.815 254.596 277.712 254.901C277.448 255.706 277.712 256.703 278.428 257.153C278.72 257.309 279.034 257.417 279.36 257.475C279.798 257.599 280.252 257.662 280.707 257.662C280.849 257.654 280.99 257.637 281.13 257.61C281.628 257.819 282.137 258.002 282.655 258.157C282.655 258.289 282.681 258.421 282.697 258.553C282.698 258.622 282.713 258.69 282.742 258.752C282.771 258.815 282.813 258.871 282.864 258.916C282.945 258.954 283.034 258.969 283.122 258.961H284.873C284.873 258.816 284.873 258.668 284.873 258.524C285.074 258.545 285.276 258.523 285.468 258.461C285.659 258.399 285.836 258.298 285.986 258.163C286.141 257.966 286.251 257.738 286.308 257.494C286.785 255.879 287.259 254.263 287.73 252.646C288.294 250.859 288.529 248.984 288.423 247.113C287.801 241.184 289.168 235.236 288.723 229.291C288.455 225.717 288.639 222.125 289.271 218.597C289.416 217.799 289.593 216.989 289.658 216.194C289.8 214.695 289.626 213.18 289.732 211.69C289.768 211.169 289.839 210.651 289.903 210.133C290.345 206.918 290.576 203.678 290.596 200.434C290.586 199.359 290.52 198.285 290.396 197.217C290.732 197.131 291.038 196.953 291.277 196.702C291.563 196.329 291.489 195.804 291.486 195.328C291.486 194.19 291.967 193.115 292.353 192.041C292.85 190.558 293.257 189.048 293.572 187.517C293.905 186.284 294.087 185.015 294.114 183.737C294.114 183.609 294.107 183.48 294.094 183.351C294.216 183.267 294.317 183.157 294.391 183.03C294.475 182.841 294.528 182.64 294.546 182.434C294.662 181.614 294.781 180.791 294.897 179.967C294.983 179.377 295.068 178.789 295.152 178.201L296.177 171.062C296.264 170.441 296.355 169.824 296.442 169.206L296.709 167.359C296.738 167.141 296.771 166.922 296.793 166.716C297.58 165.404 296.829 163.653 296.745 162.161ZM288.191 188.888C287.81 187.987 287.456 187.064 287.546 186.092H287.511C287.595 185.793 287.581 185.475 287.469 185.185C287.369 184.95 287.195 184.751 287.088 184.516C286.974 184.229 286.915 183.924 286.914 183.615C286.834 181.658 286.989 179.699 287.375 177.779C287.417 177.554 287.462 177.326 287.504 177.101C287.639 177.023 287.763 176.926 287.872 176.814C288.041 176.621 288.181 176.405 288.288 176.171C288.652 175.441 288.984 174.698 289.29 173.942C289.39 173.697 289.535 173.414 289.784 173.353C289.732 175.235 289.926 177.155 289.158 178.854C289.012 179.128 288.904 179.42 288.836 179.723C288.765 180.202 288.965 180.688 288.894 181.164C288.858 181.411 288.752 181.64 288.71 181.884C288.678 182.004 288.679 182.131 288.712 182.25C288.744 182.37 288.808 182.479 288.897 182.566C288.94 182.596 288.986 182.62 289.036 182.637C289.016 182.766 289 182.898 288.987 183.023C288.962 183.287 288.949 183.535 288.932 183.689C288.858 184.476 288.829 185.267 288.845 186.057C288.845 186.909 288.878 187.762 288.865 188.63C288.877 188.88 288.835 189.129 288.742 189.361C288.678 189.48 288.596 189.589 288.497 189.682C288.404 189.393 288.301 189.139 288.191 188.888Z" fill="url(#paint0_linear)"/>
<path d="M262.74 151.561C263.724 151.36 264.059 148.943 263.488 146.163C262.917 143.384 261.657 141.294 260.673 141.495C259.689 141.696 259.354 144.112 259.925 146.892C260.496 149.672 261.756 151.762 262.74 151.561Z" fill="#FBBEBE"/>
<path d="M277.764 254.963C277.5 255.76 277.764 256.758 278.48 257.192C278.77 257.346 279.082 257.455 279.406 257.514C279.843 257.637 280.296 257.699 280.75 257.697C281.308 257.671 281.843 257.453 282.401 257.375C282.465 257.359 282.533 257.368 282.591 257.401C282.619 257.431 282.64 257.467 282.652 257.506C282.664 257.545 282.668 257.586 282.662 257.626C282.668 257.943 282.692 258.258 282.733 258.572C282.733 258.641 282.749 258.709 282.778 258.772C282.806 258.835 282.848 258.89 282.901 258.936C282.981 258.973 283.07 258.989 283.159 258.981H284.906C284.946 257.449 284.778 255.919 284.406 254.432C284.382 254.318 284.339 254.209 284.277 254.11C284.129 253.948 283.934 253.836 283.72 253.788C283.292 253.611 282.831 253.531 282.369 253.554C281.804 253.628 281.334 253.991 280.853 254.293C280.373 254.596 279.718 254.863 279.135 254.708C278.551 254.554 278.064 254.068 277.764 254.963Z" fill="#3F3D56"/>
<path d="M252.106 253.55C251.615 254.075 251.012 254.484 250.342 254.747L250.046 254.889C250.005 254.904 249.97 254.932 249.946 254.969C249.94 254.994 249.94 255.02 249.946 255.045C249.951 255.07 249.962 255.094 249.978 255.114C250.225 255.495 250.589 255.785 251.017 255.94C251.444 256.095 251.91 256.106 252.345 255.973C252.536 255.925 252.714 255.832 252.864 255.703C253.109 255.412 253.25 255.047 253.263 254.667C253.361 254.274 253.344 253.863 253.215 253.48C252.767 252.473 252.602 252.929 252.106 253.55Z" fill="#FBBEBE"/>
<path d="M258.806 257.514C258.815 257.636 258.797 257.758 258.751 257.871C258.599 258.167 258.177 258.151 257.848 258.086C257.798 256.995 257.666 255.909 257.451 254.837C256.826 254.808 256.374 255.4 256.039 255.931L255.175 257.298C255.05 257.534 254.874 257.738 254.659 257.897C254.486 257.991 254.297 258.051 254.101 258.074C252.451 258.347 250.784 257.829 249.191 257.314C248.956 257.252 248.732 257.156 248.523 257.031C248.239 256.823 248.047 256.513 247.987 256.166C247.927 255.82 248.003 255.463 248.201 255.172C248.868 254.271 250.368 254.528 251.2 253.782C251.113 254.307 250.97 254.822 250.774 255.317C251.886 255.149 252.634 254.133 253.531 253.454C253.756 253.263 254.027 253.135 254.317 253.081C254.535 253.063 254.753 253.085 254.962 253.148C255.996 253.408 256.963 253.883 257.8 254.541C258.138 254.808 258.667 255.185 258.815 255.596C258.973 256.089 258.806 256.989 258.806 257.514Z" fill="#3F3D56"/>
<path d="M280.984 151.371C284.663 151.371 287.646 148.395 287.646 144.725C287.646 141.054 284.663 138.078 280.984 138.078C277.306 138.078 274.323 141.054 274.323 144.725C274.323 148.395 277.306 151.371 280.984 151.371Z" fill="#FBBEBE"/>
<path d="M294.107 183.966C294.08 185.237 293.9 186.5 293.569 187.727C293.254 189.251 292.847 190.755 292.35 192.231C291.966 193.302 291.486 194.377 291.489 195.512C291.489 195.985 291.567 196.509 291.276 196.883C291.018 197.145 290.692 197.33 290.335 197.42C290.157 197.467 289.992 197.555 289.854 197.678C289.716 197.8 289.609 197.953 289.542 198.124C289.239 197.673 289.013 197.175 288.871 196.651C288.293 194.884 287.756 193.107 287.259 191.32C287.214 191.217 287.194 191.105 287.202 190.993C287.21 190.881 287.245 190.772 287.304 190.677C287.386 190.606 287.481 190.552 287.585 190.519C287.915 190.385 288.218 190.191 288.478 189.947C288.6 189.839 288.7 189.709 288.774 189.564C288.868 189.333 288.911 189.085 288.9 188.837C288.9 187.984 288.9 187.135 288.878 186.282C288.864 185.495 288.894 184.708 288.968 183.924C288.968 183.77 288.997 183.522 289.023 183.258C289.071 182.753 289.168 182.168 289.442 181.972C289.851 181.698 291.077 182.065 291.541 182.129C292.34 182.239 293.153 182.367 293.933 182.519C294.047 182.993 294.105 183.479 294.107 183.966Z" fill="#3F3D56"/>
<path d="M267.212 152.166C266.954 152.68 266.335 152.928 265.858 153.253L264.223 154.372C264.114 154.471 263.986 154.546 263.847 154.593C263.708 154.641 263.56 154.66 263.414 154.649C263.281 154.6 263.159 154.525 263.055 154.428C262.952 154.332 262.869 154.215 262.811 154.086C262.812 154.078 262.812 154.069 262.811 154.06L262.472 153.494L260.86 150.798C260.681 150.557 260.577 150.268 260.56 149.968C260.56 149.83 260.609 149.701 260.621 149.563C260.626 149.174 260.513 148.794 260.299 148.469C260.17 148.228 259.912 148.028 259.919 147.758C259.906 147.403 259.968 147.049 260.099 146.719C260.268 146.414 260.511 146.155 260.805 145.966C260.957 145.857 261.112 145.754 261.273 145.645C261.358 145.586 261.453 145.543 261.553 145.516C261.821 145.461 262.085 145.683 262.356 145.693C263.52 146.471 263.968 147.945 264.884 149.006C265.4 149.611 265.451 150.075 266.035 150.615C266.128 150.699 266.219 150.789 266.306 150.882C266.421 151.008 266.519 151.148 266.596 151.3C266.702 151.577 267.344 151.902 267.212 152.166Z" fill="#3F3D56"/>
<path d="M278.644 151.374C279.125 152.387 279.499 153.501 279.36 154.614C279.332 154.915 279.236 155.207 279.08 155.466C278.615 156.177 277.642 156.306 276.794 156.348C276.615 156.333 276.435 156.353 276.265 156.409C276.094 156.464 275.936 156.553 275.801 156.669C275.687 156.834 275.632 157.031 275.643 157.23C275.654 157.429 275.731 157.619 275.862 157.77C276.134 158.06 276.473 158.28 276.849 158.413C278.19 159.002 279.637 159.487 281.095 159.352C281.772 159.288 282.43 159.092 283.104 158.992C283.838 158.913 284.576 158.872 285.315 158.87C286.192 158.838 287.066 158.751 287.94 158.664L290.255 158.435C290.381 158.437 290.504 158.393 290.6 158.31C290.771 158.111 290.551 157.818 290.339 157.667C289.11 156.759 287.546 156.135 286.847 154.771C286.524 154.128 286.424 153.362 286.186 152.667C285.947 151.972 285.567 151.345 285.419 150.637C285.339 150.017 285.304 149.391 285.312 148.765C285.32 148.134 285.09 147.523 284.667 147.054C284.206 146.626 283.539 146.516 282.913 146.491C281.372 146.423 279.731 146.79 278.638 147.874C278.345 148.167 278.093 148.517 277.79 148.781C277.487 149.045 277.074 149.122 277.274 149.47C277.474 149.817 277.867 150.033 278.08 150.338C278.296 150.668 278.484 151.014 278.644 151.374Z" fill="#FBBEBE"/>
<path d="M291.777 160.733C291.37 163.21 290.709 165.639 289.804 167.981C289.348 169.038 288.961 170.123 288.643 171.23C288.395 172.227 288.443 173.295 288.214 174.296C287.93 175.541 287.647 176.789 287.418 178.044C287.034 179.959 286.88 181.914 286.96 183.866C286.961 184.174 287.02 184.478 287.134 184.764C287.24 184.996 287.411 185.195 287.511 185.433C287.586 185.642 287.617 185.864 287.601 186.086C287.585 186.307 287.524 186.523 287.421 186.72C287.255 187.088 287.031 187.427 286.757 187.724C283.752 188.618 280.537 188.325 277.406 188.515C274.521 188.689 271.603 189.281 268.759 188.788C268.437 187.502 268.975 186.154 269.436 184.899C270.774 181.254 272.254 177.458 272.016 173.639C271.991 173.194 271.94 172.75 271.864 172.311C271.396 169.605 271.906 166.803 272.722 164.181C273.228 162.547 273.205 160.807 273.089 159.105C273.032 158.552 273.024 157.996 273.067 157.442C273.113 156.876 273.324 156.336 273.673 155.888C273.673 155.865 273.702 155.843 273.718 155.82C273.734 155.798 273.86 155.801 273.96 155.82C273.985 155.831 274.013 155.837 274.04 155.837C274.068 155.837 274.095 155.831 274.121 155.82L274.156 155.798C274.17 155.788 274.186 155.783 274.203 155.783C274.22 155.783 274.236 155.788 274.25 155.798C274.324 155.843 274.366 155.997 274.527 156.026C274.765 156.062 275.005 156.085 275.246 156.094C275.536 156.102 275.823 156.143 276.104 156.216H276.143C276.562 156.287 276.992 156.25 277.394 156.11C277.661 156.043 277.918 155.944 278.161 155.814C278.232 155.737 278.677 155.666 278.767 155.611C279.06 155.434 278.996 154.604 279.057 154.263C279.091 153.921 279.172 153.586 279.299 153.266C279.446 153.03 279.649 152.834 279.889 152.694C280.13 152.554 280.401 152.476 280.679 152.465C281.234 152.452 281.789 152.501 282.333 152.613C283.536 152.783 284.767 152.755 285.947 153.031C286.541 153.17 287.189 153.379 287.734 153.108C287.882 153.144 287.905 153.272 287.905 153.43C287.891 153.58 287.86 153.728 287.814 153.871C287.608 154.759 288.308 155.576 288.952 156.219C289.225 156.523 289.546 156.778 289.904 156.975C290.226 157.123 290.548 157.184 290.871 157.345C291.132 157.484 291.354 157.687 291.516 157.934C291.702 158.217 291.827 158.536 291.883 158.87C291.952 159.493 291.916 160.122 291.777 160.733Z" fill="#3F3D56"/>
<path opacity="0.1" d="M291.777 160.732C291.37 163.209 290.709 165.638 289.804 167.98C289.348 169.038 288.961 170.123 288.643 171.229C288.395 172.227 288.443 173.295 288.214 174.295C287.93 175.54 287.647 176.788 287.418 178.043C287.35 178.082 287.279 178.117 287.208 178.149C286.807 178.34 286.382 178.477 285.944 178.555C285.158 178.65 284.362 178.623 283.584 178.477L278.983 177.863C277.145 177.615 275.188 177.316 273.824 176.074C273.067 175.392 272.57 174.492 272.025 173.623C272 173.177 271.95 172.734 271.874 172.294C271.406 169.589 271.916 166.787 272.731 164.165C273.238 162.531 273.215 160.79 273.099 159.088C273.041 158.536 273.034 157.979 273.076 157.425C273.123 156.859 273.334 156.32 273.682 155.871C273.777 155.844 273.872 155.822 273.969 155.807C274.034 155.794 274.1 155.785 274.166 155.781H274.26C274.368 155.782 274.476 155.795 274.582 155.82C274.802 155.89 275.017 155.972 275.227 156.068H275.266C275.542 156.158 275.832 156.2 276.123 156.19C276.549 156.19 276.987 156.122 277.413 156.093C277.939 156.011 278.477 156.108 278.941 156.367C279.241 156.607 279.525 156.866 279.792 157.142C280.115 157.395 280.478 157.592 280.866 157.724C283.641 158.781 286.721 158.717 289.449 157.544C289.711 157.396 290.008 157.32 290.31 157.325C290.532 157.369 290.743 157.459 290.929 157.589C291.122 157.702 291.313 157.811 291.509 157.911C291.695 158.194 291.82 158.513 291.877 158.847C291.951 159.477 291.917 160.114 291.777 160.732Z" fill="black"/>
<path d="M294.585 158.603C293.301 158.211 292.067 157.672 290.909 156.994C290.723 156.865 290.512 156.775 290.29 156.73C289.988 156.727 289.69 156.802 289.426 156.949C286.699 158.122 283.621 158.186 280.846 157.129C280.459 156.995 280.096 156.799 279.773 156.547C279.505 156.272 279.22 156.013 278.921 155.772C277.861 155.087 276.394 155.891 275.207 155.45C274.997 155.356 274.781 155.274 274.562 155.202C273.624 154.968 272.67 155.9 271.747 155.617C271.404 156.548 271.151 157.509 270.99 158.487C270.859 159.61 270.789 160.74 270.78 161.871C270.78 162.55 270.748 163.229 270.78 163.908C270.894 163.926 271.002 163.968 271.099 164.031C271.196 164.093 271.278 164.175 271.341 164.271C271.384 164.383 271.401 164.503 271.392 164.623C271.383 164.742 271.348 164.858 271.29 164.963C270.616 166.69 269.932 168.437 268.91 169.985C269.63 170.413 270.299 170.922 270.903 171.503C272.031 172.693 272.586 174.363 273.805 175.463C275.178 176.702 277.135 177.004 278.963 177.249L283.564 177.863C284.344 178.009 285.14 178.036 285.928 177.944C286.364 177.864 286.788 177.727 287.188 177.535C287.45 177.426 287.688 177.269 287.891 177.072C288.061 176.879 288.201 176.662 288.307 176.428C288.671 175.701 289.004 174.958 289.31 174.205C289.416 173.938 289.577 173.626 289.868 173.604C291.576 172.066 293.189 170.49 294.897 168.952C295.584 168.384 296.2 167.736 296.732 167.022C297.58 165.77 296.809 163.998 296.732 162.486C296.723 162.099 296.674 161.714 296.587 161.337C296.31 160.24 295.658 158.928 294.585 158.603Z" fill="#F2C94C"/>
<path opacity="0.1" d="M267.211 152.166C266.953 152.68 266.334 152.928 265.857 153.253L264.222 154.373C264.113 154.471 263.985 154.546 263.846 154.594C263.707 154.641 263.56 154.66 263.413 154.649C263.28 154.6 263.158 154.525 263.055 154.429C262.951 154.332 262.868 154.216 262.81 154.086C262.81 154.012 262.81 153.932 262.81 153.855C262.798 153.594 262.833 153.334 262.913 153.086C263.073 152.722 263.321 152.404 263.635 152.159C264.242 151.586 264.964 151.147 265.754 150.872C265.877 150.825 266.011 150.811 266.141 150.834C266.191 150.847 266.239 150.868 266.283 150.895C266.398 151.021 266.496 151.161 266.573 151.313C266.702 151.577 267.343 151.902 267.211 152.166Z" fill="black"/>
<path d="M271.062 155.556C270.513 155.531 270.065 155.135 269.666 154.759L268.444 153.626C268.362 153.557 268.29 153.477 268.231 153.388C268.165 153.263 268.115 153.13 268.082 152.992C267.823 152.343 267.417 151.761 266.896 151.294C266.805 151.179 266.683 151.092 266.544 151.043C266.413 151.019 266.278 151.032 266.154 151.082C265.365 151.356 264.643 151.794 264.036 152.368C263.722 152.613 263.474 152.931 263.314 153.295C263.233 153.543 263.198 153.803 263.211 154.064C263.218 154.914 263.41 155.752 263.772 156.522C263.826 156.641 263.888 156.76 263.952 156.875C264.382 157.585 264.891 158.244 265.468 158.841L266.235 159.697C266.989 160.54 267.744 161.382 268.563 162.158C268.856 162.47 269.212 162.718 269.607 162.885C269.806 162.966 270.023 162.99 270.234 162.956C270.446 162.922 270.644 162.831 270.807 162.692C270.961 162.513 271.078 162.305 271.149 162.081C271.645 160.794 272.116 159.455 272.145 158.069C272.152 157.514 272.128 156.958 272.074 156.406C272.026 155.82 271.61 155.592 271.062 155.556Z" fill="#F2C94C"/>
<path d="M290.599 200.595C290.581 203.831 290.35 207.062 289.909 210.268C289.845 210.786 289.774 211.304 289.738 211.822C289.632 213.324 289.806 214.833 289.664 216.326C289.59 217.133 289.422 217.934 289.281 218.722C288.65 222.24 288.466 225.823 288.732 229.387C289.177 235.316 287.814 241.248 288.433 247.161C288.508 248.311 288.444 249.465 288.242 250.6C288.127 251.304 287.96 251.999 287.743 252.678C287.272 254.289 286.799 255.897 286.324 257.504C286.268 257.748 286.158 257.977 286.002 258.173C285.837 258.315 285.644 258.42 285.436 258.482C285.227 258.543 285.008 258.56 284.792 258.53C282.932 258.472 281.181 257.671 279.492 256.889C279.298 256.813 279.118 256.704 278.96 256.568C278.608 256.204 278.637 255.632 278.483 255.152C278.328 254.673 277.909 254.222 277.67 253.73C277.474 253.265 277.355 252.77 277.319 252.266C277.104 250.619 276.958 248.966 276.88 247.306C276.758 244.97 278.305 242.821 278.815 240.55C279.782 236.085 278.963 231.298 280.682 227.061C281.223 225.723 280.437 224.101 280.359 222.66C280.331 221.73 280.21 220.806 279.998 219.9C279.676 218.69 278.995 217.551 278.947 216.297C278.911 215.39 279.205 214.505 279.356 213.611C279.557 212.294 279.539 210.954 279.302 209.644C279.131 208.563 278.87 207.482 278.608 206.427L278.55 206.546C277.765 208.078 277.089 209.664 276.529 211.291C276.271 212.079 276.045 212.884 275.723 213.649C275.458 214.293 275.133 214.881 274.813 215.486C273.669 217.619 272.672 219.828 271.831 222.097C271.431 223.21 271.08 224.349 270.732 225.465L268.342 233.186C267.698 235.216 266.992 237.179 266.36 239.205C265.466 242.101 264.573 244.97 263.535 247.801C262.568 250.487 261.417 253.27 261.762 256.108C260.873 256.525 259.896 256.722 258.915 256.683C257.253 256.537 255.623 256.142 254.078 255.512C253.463 255.284 252.824 255.027 252.408 254.522C251.693 253.65 251.87 252.373 252.086 251.263C252.167 250.762 252.297 250.271 252.473 249.796C252.718 249.204 253.118 248.679 253.369 248.094C253.875 246.971 253.908 245.701 254.107 244.481C254.307 243.262 254.752 241.975 255.797 241.312C255.974 239.17 256.858 237.056 257.345 234.962C257.712 233.376 257.835 231.745 258.125 230.137C258.415 228.528 258.883 226.919 259.856 225.617C259.779 224.273 260.083 222.935 260.733 221.756C260.89 221.497 261.019 221.222 261.117 220.936C261.177 220.656 261.212 220.372 261.22 220.087C261.327 218.969 261.806 217.919 262.581 217.104C262.258 215.93 262.706 214.704 263.11 213.566C263.617 212.112 263.847 210.577 263.787 209.039C263.737 208.61 263.757 208.175 263.848 207.752C263.938 207.431 264.115 207.157 264.219 206.848C264.311 206.47 264.359 206.083 264.364 205.693C264.49 203.953 265.196 202.312 265.976 200.759C266.44 199.851 266.047 198.619 266.144 197.609C266.311 195.93 266.495 194.193 267.33 192.729C267.485 192.452 267.652 192.188 267.791 191.902C267.959 191.493 268.05 191.057 268.059 190.615C268.088 189.879 268.191 189.267 267.927 188.582C269.651 187.151 272.005 186.748 274.249 186.652C276.493 186.555 278.763 186.758 280.959 186.282C281.604 186.137 282.249 185.938 282.929 185.841C284.473 185.616 286.04 185.967 287.565 186.314C287.459 187.279 287.814 188.206 288.21 189.103C289.758 192.739 290.57 196.644 290.599 200.595Z" fill="#33313F"/>
<path opacity="0.1" d="M283.007 201.332L279.302 209.644C279.131 208.563 278.87 207.483 278.609 206.427L278.551 206.546V206.373L280.569 201.943L283.007 201.332Z" fill="black"/>
<path opacity="0.1" d="M294.108 183.966C293.894 184.126 293.639 184.221 293.373 184.24C292.965 184.254 292.557 184.199 292.167 184.076L289.265 183.352C289.174 183.329 289.086 183.298 289.001 183.258C289.049 182.753 289.146 182.168 289.42 181.972C289.83 181.698 291.055 182.065 291.519 182.129C292.319 182.239 293.131 182.367 293.911 182.519C294.032 182.992 294.098 183.478 294.108 183.966Z" fill="black"/>
<path d="M296.562 164.824C296.623 165.091 296.71 165.355 296.762 165.625C296.848 166.288 296.826 166.961 296.694 167.617L296.43 169.457L296.165 171.307L295.143 178.426L294.892 180.189L294.537 182.65C294.52 182.855 294.468 183.055 294.382 183.242C294.277 183.417 294.129 183.563 293.953 183.667C293.777 183.77 293.578 183.829 293.373 183.837C292.965 183.85 292.557 183.794 292.167 183.673L289.265 182.946C289.138 182.923 289.017 182.874 288.911 182.801C288.822 182.715 288.758 182.606 288.725 182.487C288.692 182.368 288.692 182.242 288.724 182.122C288.766 181.878 288.872 181.649 288.908 181.405C288.978 180.929 288.779 180.44 288.85 179.967C288.919 179.666 289.027 179.375 289.172 179.102C290.139 176.969 289.578 174.479 289.907 172.162C290.203 170.339 290.975 168.626 292.145 167.195C292.867 166.292 293.696 165.48 294.614 164.776C294.975 164.496 295.549 163.92 296.004 163.811C296.588 163.689 296.465 164.419 296.562 164.824Z" fill="#F2C94C"/>
<path d="M274.601 137.113C274.388 137.789 274.72 138.532 274.569 139.22C274.404 139.979 273.689 140.507 273.485 141.269C273.163 142.431 274.15 143.489 274.872 144.454C277.548 148.038 277.196 152.999 276.281 157.371C275.544 160.878 274.525 164.321 273.234 167.665C272.831 168.704 272.386 169.76 271.593 170.538C273.076 170.113 274.653 169.686 276.139 170.097C278.022 170.618 279.647 172.443 281.556 172.028C282.703 171.773 283.51 170.757 284.541 170.194C286.476 169.155 288.807 169.808 290.964 170.142C291.429 170.252 291.915 170.227 292.366 170.072C292.712 169.886 293.004 169.618 293.218 169.29C294.18 168.058 294.757 166.569 294.875 165.011C294.926 164.235 294.811 163.458 294.538 162.729C294.265 162.001 293.841 161.339 293.292 160.787C292.834 160.356 292.286 160.009 291.934 159.5C291.593 158.907 291.409 158.235 291.402 157.551C291.148 154.012 292.012 150.399 291.122 146.976C290.8 145.757 290.274 144.589 290.132 143.341C289.955 141.787 290.377 140.124 289.758 138.702C289.271 137.573 288.198 136.772 287.04 136.36C285.883 135.948 284.644 135.833 283.416 135.717C281.649 135.569 275.339 134.813 274.601 137.113Z" fill="#33313F"/>
<g opacity="0.1">
<path opacity="0.1" d="M276.281 157.371C275.548 160.864 274.534 164.293 273.25 167.624C273.472 167.183 273.659 166.72 273.837 166.26C275.129 162.916 276.148 159.473 276.884 155.965C277.803 151.59 278.154 146.636 275.478 143.049C274.833 142.193 274.004 141.266 274.033 140.263C273.795 140.566 273.61 140.908 273.485 141.273C273.163 142.434 274.15 143.493 274.872 144.458C277.548 148.038 277.196 152.999 276.281 157.371Z" fill="black"/>
<path opacity="0.1" d="M274.607 138.895C274.866 138.575 275.059 138.206 275.175 137.811C275.224 137.333 275.211 136.851 275.136 136.376C274.888 136.563 274.701 136.82 274.601 137.113C274.411 137.683 274.63 138.3 274.607 138.895Z" fill="black"/>
<path opacity="0.1" d="M293.824 167.874C293.61 168.201 293.318 168.469 292.973 168.653C292.522 168.812 292.035 168.836 291.57 168.724C289.413 168.402 287.056 167.739 285.147 168.778C284.112 169.338 283.31 170.355 282.159 170.612C280.253 171.037 278.628 169.213 276.745 168.682C275.41 168.312 274.004 168.617 272.66 169.003C272.393 169.572 272.032 170.092 271.593 170.541C273.076 170.117 274.653 169.689 276.139 170.1C278.022 170.622 279.647 172.446 281.556 172.031C282.703 171.777 283.51 170.76 284.541 170.197C286.476 169.158 288.807 169.811 290.964 170.146C291.429 170.255 291.915 170.23 292.367 170.075C292.712 169.89 293.004 169.621 293.218 169.293C293.802 168.524 294.253 167.663 294.553 166.745C294.337 167.138 294.094 167.516 293.824 167.874Z" fill="black"/>
</g>
</g>
<defs>
<linearGradient id="paint0_linear" x1="247.814" y1="197.017" x2="297.145" y2="197.017" gradientUnits="userSpaceOnUse">
<stop stop-color="#808080" stop-opacity="0.25"/>
<stop offset="0.54" stop-color="#808080" stop-opacity="0.12"/>
<stop offset="1" stop-color="#808080" stop-opacity="0.1"/>
</linearGradient>
<clipPath id="clip0">
<rect width="376" height="259" fill="white"/>
</clipPath>
</defs>
</svg>
