<svg width="499" height="300" viewBox="0 0 499 300" fill="none" xmlns="http://www.w3.org/2000/svg">
<g clip-path="url(#clip0)">
<path d="M338.927 171.262L343.199 170.524C343.609 170.452 344.016 170.365 344.425 170.29C337.664 166.093 332.531 159.721 329.87 152.221C327.209 144.721 327.179 136.539 329.783 129.019C332.388 121.499 337.473 115.089 344.203 110.842C350.933 106.594 358.907 104.762 366.816 105.646L361.217 118.97L374.482 107.387C374.513 107.394 374.543 107.405 374.573 107.417C378.917 108.947 382.917 111.317 386.345 114.393C389.772 117.469 392.561 121.19 394.55 125.344C396.54 129.497 397.692 134.002 397.941 138.601C398.189 143.199 397.53 147.802 396 152.146C395.778 152.778 395.514 153.381 395.26 153.991C399.005 152.11 402.598 149.919 405.527 147.114C411.458 141.431 414.708 133.588 418.34 123.925C425.535 104.777 432.461 85.3517 439.112 65.8841C431.777 61.9148 426.097 55.4602 423.094 47.6796C420.09 39.899 419.959 31.3024 422.724 23.4338C423.08 22.4215 423.493 21.4467 423.93 20.4893C424.04 20.2497 424.15 20.0116 424.264 19.7755C424.709 18.8576 425.178 17.9583 425.694 17.0952C425.778 16.9537 425.872 16.8213 425.958 16.6814C426.407 15.9537 426.879 15.2475 427.377 14.5629C427.562 14.3059 427.747 14.0495 427.938 13.7986C428.502 13.0614 429.086 12.3441 429.702 11.6593C429.907 11.4302 430.126 11.2161 430.337 10.9929C430.81 10.4939 431.296 10.0099 431.795 9.541C432.058 9.29414 432.318 9.0455 432.588 8.80738C432.657 8.7463 432.722 8.67962 432.791 8.61903C432.795 8.6235 432.798 8.6283 432.801 8.63271C438.978 3.24963 446.846 0.201166 455.038 0.0171467C463.229 -0.166873 471.226 2.52518 477.639 7.62544L470.353 24.9634L483.468 13.5181C488.058 19.3656 490.659 26.5266 490.892 33.9566C491.125 41.3865 488.978 48.6966 484.764 54.8204C484.776 54.8246 484.789 54.8279 484.801 54.8322C484.658 55.0426 484.495 55.2352 484.348 55.4419C484.071 55.8299 483.788 56.2109 483.498 56.585C483.126 57.0648 482.739 57.5285 482.344 57.9859C482.046 58.3311 481.751 58.6792 481.441 59.0113C480.987 59.4971 480.511 59.957 480.032 60.4145C479.753 60.6813 479.485 60.9616 479.198 61.2186C478.444 61.892 477.664 62.5309 476.858 63.1355C476.575 63.3472 476.277 63.534 475.989 63.7367C475.423 64.1348 474.854 64.527 474.266 64.8902C473.902 65.1155 473.528 65.3215 473.155 65.5332C472.617 65.8401 472.074 66.1374 471.52 66.4151C471.128 66.612 470.732 66.7988 470.332 66.9809C469.764 67.2401 469.188 67.4805 468.606 67.7093C468.215 67.8626 467.827 68.018 467.431 68.1574C466.778 68.3875 466.115 68.5873 465.448 68.7787C465.112 68.8754 464.781 68.986 464.441 69.0726C463.441 69.3277 462.43 69.5448 461.407 69.7112C461.214 69.7426 461.019 69.7545 460.825 69.7825C459.977 69.9059 459.125 70.0055 458.266 70.0664C457.896 70.0924 457.525 70.0961 457.154 70.1106C456.459 70.1376 455.764 70.1514 455.065 70.1364C454.657 70.1278 454.25 70.1067 453.841 70.0836C453.16 70.0451 452.479 69.9858 451.797 69.9058C451.394 69.8591 450.992 69.8127 450.588 69.7516C449.857 69.6408 449.128 69.4958 448.398 69.3371C448.35 69.3267 448.302 69.3204 448.254 69.3098C445.447 77.5229 442.588 85.7184 439.677 93.8964C443.227 90.7038 447.393 88.2704 451.917 86.7455C456.442 85.2206 461.23 84.6363 465.989 85.0286C470.747 85.4208 475.376 86.7813 479.589 89.0265C483.803 91.2718 487.514 94.3544 490.493 98.0852L478.369 111.494L494.785 104.941C498.772 113.302 499.277 122.904 496.188 131.638C495.118 134.706 493.618 137.608 491.733 140.256C487.677 145.993 481.991 150.379 475.412 152.845C468.833 155.31 461.665 155.742 454.838 154.085C448.01 152.427 441.838 148.756 437.123 143.548C432.407 138.339 429.366 131.834 428.392 124.876C428.084 125.7 427.786 126.534 427.477 127.358C424.272 135.882 420.285 146.491 412.278 154.161C406.851 159.36 400.173 162.658 393.767 165.447C389.595 167.262 385.367 168.941 381.085 170.482C376.323 173.369 370.944 175.083 365.39 175.484C358.632 177.361 351.789 178.928 344.882 180.138L340.576 180.881C336.705 181.544 332.736 182.226 328.798 183.013C329.365 183.181 329.933 183.342 330.497 183.54C337.515 186.01 343.566 190.648 347.776 196.783C351.986 202.918 354.136 210.232 353.915 217.669L326.915 225.957L351.347 229.837C349.112 235.329 345.521 240.166 340.91 243.895C336.299 247.623 330.819 250.122 324.98 251.159C319.141 252.195 313.135 251.734 307.523 249.82C301.91 247.906 296.874 244.6 292.886 240.212C293.134 241.043 293.383 241.872 293.633 242.701C294.129 244.347 294.621 245.983 295.094 247.605C301.522 269.695 298.756 287.072 287.301 296.532L281.086 289.009C292.234 279.8 288.775 260.824 285.723 250.33C285.26 248.738 284.775 247.131 284.288 245.514C280.101 231.603 275.354 215.836 281.502 201.347C290.767 179.509 317.471 174.936 338.927 171.262Z" fill="#F2F2F2"/>
<path d="M331.013 299.366H141.838C135.634 299.366 129.685 296.902 125.298 292.515C120.912 288.128 118.447 282.179 118.447 275.975V189.304C118.447 188.046 118.704 186.8 119.201 185.644C119.698 184.488 120.425 183.445 121.339 182.579L221.583 87.556C225.591 83.7568 230.903 81.6392 236.426 81.6392C241.948 81.6392 247.26 83.7568 251.268 87.556L346.846 178.155C349.233 180.419 351.135 183.145 352.434 186.167C353.734 189.189 354.404 192.445 354.404 195.735V275.975C354.404 279.047 353.799 282.088 352.624 284.926C351.448 287.764 349.725 290.343 347.553 292.515C345.381 294.687 342.802 296.41 339.965 297.585C337.127 298.761 334.085 299.366 331.013 299.366Z" fill="#3F3D56"/>
<path opacity="0.1" d="M118.447 190.728H352.438V285.242C352.438 288.988 350.95 292.58 348.301 295.229C345.652 297.878 342.06 299.366 338.314 299.366H132.571C128.825 299.366 125.233 297.878 122.584 295.229C119.935 292.58 118.447 288.988 118.447 285.242V190.728Z" fill="black"/>
<path d="M310.319 116.254H162.041C154.933 116.254 149.171 122.016 149.171 129.124V277.402C149.171 284.51 154.933 290.272 162.041 290.272H310.319C317.427 290.272 323.189 284.51 323.189 277.402V129.124C323.189 122.016 317.427 116.254 310.319 116.254Z" fill="#F9A826"/>
<path opacity="0.1" d="M323.189 194.636V290.272H149.171V194.636L236.18 236.69L323.189 194.636Z" fill="black"/>
<path d="M236.181 242.097L124.694 188.212C124.004 187.879 123.242 187.726 122.477 187.768C121.712 187.81 120.97 188.046 120.322 188.453C119.673 188.86 119.138 189.425 118.767 190.095C118.397 190.765 118.202 191.519 118.202 192.285V284.996C118.202 286.851 118.567 288.687 119.277 290.401C119.987 292.115 121.027 293.672 122.339 294.983C123.651 296.295 125.208 297.335 126.921 298.045C128.635 298.755 130.471 299.12 132.326 299.12H340.035C341.89 299.12 343.726 298.755 345.44 298.045C347.153 297.335 348.71 296.295 350.022 294.983C351.334 293.672 352.374 292.115 353.084 290.401C353.794 288.687 354.159 286.851 354.159 284.996V193.873C354.159 192.938 353.922 192.019 353.469 191.201C353.017 190.383 352.364 189.694 351.572 189.197C350.781 188.7 349.876 188.413 348.943 188.361C348.01 188.31 347.079 188.496 346.237 188.903L236.181 242.097Z" fill="#3F3D56"/>
<path d="M212.83 132.23H164.164V139.112H212.83V132.23Z" fill="#F2F2F2"/>
<path d="M304.755 157.3H160.231V161.233H304.755V157.3Z" fill="#F2F2F2"/>
<path d="M304.755 170.573H160.231V174.505H304.755V170.573Z" fill="#F2F2F2"/>
<path d="M304.755 183.846H160.231V187.778H304.755V183.846Z" fill="#F2F2F2"/>
<path d="M29.9639 299.12H435.023" stroke="#3F3D56" stroke-miterlimit="10"/>
<path d="M0 238.588C0 267.572 18.1827 291.025 40.6531 291.025L0 238.588Z" fill="#46455B"/>
<path d="M40.6533 291.025C40.6533 261.716 60.9442 237.999 86.0198 237.999L40.6533 291.025Z" fill="#F9A826"/>
<path d="M14.7295 241.215C14.7295 268.747 26.3243 291.024 40.6532 291.024L14.7295 241.215Z" fill="#F9A826"/>
<path d="M40.6533 291.025C40.6533 253.574 64.1064 223.27 93.0899 223.27L40.6533 291.025Z" fill="#46455B"/>
<path d="M32.1006 291.395C32.1006 291.395 37.8659 291.217 39.6034 289.98C41.3409 288.742 48.4718 287.265 48.9028 289.249C49.3339 291.234 57.567 299.118 51.058 299.171C44.549 299.223 35.9341 298.157 34.1999 297.101C32.4657 296.044 32.1006 291.395 32.1006 291.395Z" fill="#A8A8A8"/>
<path opacity="0.2" d="M51.1742 298.48C44.6652 298.532 36.0502 297.466 34.3161 296.41C32.9954 295.605 32.4691 292.718 32.2931 291.387C32.1711 291.392 32.1006 291.394 32.1006 291.394C32.1006 291.394 32.4657 296.044 34.1999 297.1C35.9341 298.157 44.5491 299.223 51.058 299.171C52.9369 299.155 53.5859 298.487 53.5503 297.497C53.2892 298.095 52.5726 298.469 51.1742 298.48Z" fill="black"/>
<path d="M353.795 80.0142C353.499 82.6463 351.492 84.7666 350.748 87.3087C349.628 91.1349 351.564 95.2408 354.212 98.2206C356.349 100.6 358.937 102.531 361.826 103.903C364.714 105.274 367.847 106.059 371.041 106.211C371.979 106.293 372.925 106.19 373.823 105.908C374.626 105.585 375.348 105.091 375.94 104.461C377.935 102.458 379.005 99.6837 379.432 96.8897C379.859 94.0957 379.693 91.2493 379.526 88.4278C379.527 87.8446 379.421 87.2662 379.213 86.7211C378.941 86.2019 378.568 85.7426 378.115 85.3706C376.679 84.0534 375.097 82.9044 373.401 81.9461C372.634 81.6024 371.957 81.0849 371.425 80.4345C371.105 79.8774 370.897 79.2624 370.815 78.6249L370.294 75.9709C370.201 75.2061 369.94 74.4714 369.529 73.8196C368.609 72.5784 366.849 72.4095 365.305 72.349L359.65 72.1271C357.89 72.0581 355.572 71.5536 353.855 71.8991C352.251 72.2218 352.784 73.6996 353.075 75.0452C353.498 76.6699 353.739 78.3364 353.795 80.0142Z" fill="#A0616A"/>
<path opacity="0.1" d="M353.795 80.0142C353.499 82.6463 351.492 84.7666 350.748 87.3087C349.628 91.1349 351.564 95.2408 354.212 98.2206C356.349 100.6 358.937 102.531 361.826 103.903C364.714 105.274 367.847 106.059 371.041 106.211C371.979 106.293 372.925 106.19 373.823 105.908C374.626 105.585 375.348 105.091 375.94 104.461C377.935 102.458 379.005 99.6837 379.432 96.8897C379.859 94.0957 379.693 91.2493 379.526 88.4278C379.527 87.8446 379.421 87.2662 379.213 86.7211C378.941 86.2019 378.568 85.7426 378.115 85.3706C376.679 84.0534 375.097 82.9044 373.401 81.9461C372.634 81.6024 371.957 81.0849 371.425 80.4345C371.105 79.8774 370.897 79.2624 370.815 78.6249L370.294 75.9709C370.201 75.2061 369.94 74.4714 369.529 73.8196C368.609 72.5784 366.849 72.4095 365.305 72.349L359.65 72.1271C357.89 72.0581 355.572 71.5536 353.855 71.8991C352.251 72.2218 352.784 73.6996 353.075 75.0452C353.498 76.6699 353.739 78.3364 353.795 80.0142Z" fill="black"/>
<path d="M389.772 198.49C388.971 207.275 388.169 216.059 387.368 224.842C386.741 231.754 386.101 238.694 384.871 245.517C384.446 247.868 383.949 250.207 383.358 252.526C381.715 258.965 379.331 265.257 378.562 271.858C378.538 272.048 378.518 272.242 378.498 272.436C378.412 273.896 378.135 275.338 377.676 276.726C377.292 277.734 376.701 278.652 376.284 279.648C375.454 281.639 375.345 283.84 375.244 285.997C372.326 284.356 369.131 283.264 365.819 282.776C364.221 282.537 362.44 282.367 361.351 281.173C360.145 279.854 360.279 277.835 360.481 276.062C361.117 270.559 361.751 265.058 362.383 259.56C362.59 257.194 362.992 254.85 363.585 252.551C363.804 251.786 364.067 251.033 364.334 250.28C364.702 249.244 365.074 248.208 365.354 247.144C365.756 245.424 366.037 243.679 366.195 241.92C366.847 236.384 367.632 230.86 368.32 225.328L368.356 225.037C369.388 216.652 370.173 208.226 369.947 199.781C369.914 198.53 369.862 197.28 369.781 196.025C369.667 194.208 369.502 193.245 371.007 192.108C372.67 190.853 374.859 189.975 376.761 189.154C377.785 188.709 389.06 184.706 389.323 185.584C389.852 187.458 390.129 189.393 390.148 191.339C390.156 193.728 390.031 196.115 389.772 198.49Z" fill="#605D82"/>
<path opacity="0.1" d="M384.871 245.517C384.446 247.868 383.949 250.207 383.358 252.526C381.715 258.964 379.331 265.257 378.562 271.857C378.538 272.048 378.518 272.242 378.498 272.436C373.472 265.257 369.239 257.536 364.334 250.28C364.702 249.244 365.075 248.208 365.354 247.144C365.756 245.424 366.037 243.678 366.195 241.919C366.847 236.383 367.632 230.859 368.32 225.327L368.356 225.036C368.644 226.211 369.055 227.351 369.583 228.439C372.877 235.133 380.703 238.516 384.531 244.922C384.649 245.12 384.762 245.319 384.871 245.517Z" fill="black"/>
<path d="M344.087 186.661C344.253 192.029 345.113 197.349 345.97 202.651L347.739 213.591C348.708 219.578 349.716 225.687 352.549 231.05C354.669 235.061 357.723 238.484 360.485 242.083C367.276 250.931 372.378 260.953 378.818 270.06C380.69 272.707 383.365 275.569 386.56 275.017C388.656 274.654 390.179 272.908 391.827 271.563C393.77 269.976 396.112 268.815 397.641 266.826C399.169 264.837 399.469 261.531 397.398 260.116C396.648 259.701 395.853 259.375 395.027 259.146C391.816 257.925 389.738 254.789 388.416 251.619C387.094 248.449 386.292 245.04 384.53 242.091C380.703 235.685 372.875 232.302 369.58 225.606C367.735 221.856 367.559 217.534 367.418 213.356L367.058 202.708C367.019 201.543 366.988 200.332 367.461 199.267C368.722 196.433 372.527 196.169 375.608 195.81C379.105 195.4 382.493 194.331 385.592 192.66C387.367 191.701 389.101 190.48 390.05 188.7C390.916 187.077 391.036 185.172 391.138 183.335L392.204 164.037C392.296 162.377 392.38 160.66 391.795 159.103C390.325 155.195 385.39 153.918 381.219 154.104C373.457 154.451 366.291 157.79 358.973 160.045C357.16 160.617 355.32 161.097 353.459 161.484C351.816 161.813 349.828 161.676 348.262 162.204C345.476 163.144 345.547 169.236 345.152 171.763C344.336 176.685 343.979 181.673 344.087 186.661Z" fill="#605D82"/>
<path d="M385.506 275.826C386.19 276.516 386.414 277.527 386.592 278.483C387.581 283.784 388.095 289.162 388.129 294.554C388.083 295.057 388.184 295.562 388.418 296.01C388.611 296.277 388.872 296.487 389.174 296.617C391.153 297.56 393.449 296.246 395.097 294.802C398.153 292.125 400.739 288.532 400.912 284.474C400.88 283.428 400.917 282.382 401.022 281.341C401.29 279.813 402.182 278.482 402.969 277.145C404.307 274.868 405.386 272.449 406.186 269.932C406.487 268.987 406.686 267.796 405.946 267.136C405.683 266.931 405.384 266.775 405.065 266.679L396.129 263.361C395.354 263.073 393.427 268.023 393.122 268.564C392.374 269.888 391.63 270.639 390.129 270.945C388.597 271.257 386.773 270.809 385.343 271.573C382.925 272.866 384.137 274.445 385.506 275.826Z" fill="#535070"/>
<path d="M371.717 278.88C371.551 278.55 371.319 278.257 371.037 278.018C370.623 277.756 370.153 277.596 369.665 277.552C367.963 277.263 365.947 277.073 364.773 278.337C363.672 279.523 363.861 281.454 362.941 282.785C362.65 283.206 362.255 283.553 362.002 283.998C361.689 284.679 361.547 285.427 361.59 286.176C361.543 288.238 361.496 290.304 361.638 292.362C361.757 294.086 362.048 295.893 363.126 297.244C364.857 299.412 367.979 299.724 370.75 299.865L372.994 299.979C373.612 300.054 374.239 299.997 374.833 299.81C375.201 299.64 375.531 299.398 375.803 299.098C376.076 298.799 376.285 298.447 376.42 298.065C377.588 295.161 375.738 292.033 374.598 289.118C373.288 285.768 373.524 282.048 371.717 278.88Z" fill="#535070"/>
<path d="M353.144 65.1832C353.117 64.8888 353.16 64.5922 353.27 64.3179C353.599 63.7367 354.457 63.8949 355.105 64.0581C357.709 64.7146 360.452 64.1204 363.133 64.2737C365.814 64.4271 368.834 65.7673 369.373 68.3979C371.319 67.0184 372.996 65.2949 374.322 63.3124C375.066 62.1989 375.715 60.9236 375.614 59.5883C375.467 57.6623 373.852 56.2219 372.355 55.0005L367.895 51.3594C367.31 50.8214 366.634 50.3915 365.898 50.0897C364.868 49.7377 363.745 49.9054 362.656 49.9061C359.41 49.9082 355.948 48.4306 353.061 49.9149C351.854 50.535 350.946 51.5975 350.071 52.6335L346.091 57.3457C345.791 57.646 345.572 58.0172 345.454 58.4248C345.341 59 345.636 59.5676 345.739 60.1447C345.927 61.1974 345.474 62.3209 345.823 63.3319C346.401 65.0102 348.439 65.2478 349.685 66.2099C350.149 66.5685 350.877 67.7838 351.43 67.769C352.428 67.7422 353.118 65.9587 353.144 65.1832Z" fill="#3F3D56"/>
<path d="M359.899 79.0733C366.939 79.0733 372.646 73.3661 372.646 66.326C372.646 59.2858 366.939 53.5786 359.899 53.5786C352.859 53.5786 347.151 59.2858 347.151 66.326C347.151 73.3661 352.859 79.0733 359.899 79.0733Z" fill="#A0616A"/>
<path d="M362.884 94.2235C362.451 92.9847 361.636 91.9158 360.555 91.172C359.474 90.4281 358.184 90.0479 356.872 90.0865C356.497 90.1564 356.109 90.1073 355.763 89.9463C355.568 89.7959 355.411 89.6004 355.308 89.3765C354.533 87.9826 353.909 86.5095 353.449 84.9825C353.246 84.3078 352.968 83.5124 352.285 83.337C352.002 83.3 351.715 83.3405 351.454 83.4542C351.192 83.5679 350.967 83.7505 350.801 83.9824C350.477 84.4493 350.123 84.8945 349.741 85.3153C348.138 86.7488 345.296 85.4422 343.594 86.7574C343.316 86.9722 343.087 87.2474 342.795 87.4428C342.502 87.6187 342.188 87.7537 341.859 87.8441C338.573 88.9168 335.351 90.1785 332.211 91.6227C333.343 98.4393 334.503 105.375 337.156 111.755C338.418 114.791 339.849 117.765 340.86 120.894C343.101 127.827 343.2 135.245 343.225 142.531C343.242 147.518 343.217 152.611 341.604 157.329C341.17 158.372 340.864 159.463 340.693 160.58C340.596 161.704 340.923 162.944 341.834 163.61C342.362 163.955 342.966 164.168 343.594 164.228C346.39 164.639 349.208 163.895 351.961 163.257C359.338 161.549 366.863 160.571 374.373 159.596L386.957 157.962C387.859 157.9 388.742 157.672 389.561 157.289C391.863 156.028 392.082 152.564 390.652 150.362C389.966 149.307 388.999 148.441 388.423 147.322C387.847 146.203 387.798 144.638 388.79 143.863C390.807 142.286 390.205 139.361 390.301 136.803C390.57 129.649 390.534 122.493 390.192 115.333C390.091 113.851 390.067 112.365 390.121 110.881C390.345 108.365 390.809 105.877 391.509 103.451L395.333 88.3945C394.334 86.816 392.421 85.8145 390.609 85.3598C388.797 84.9051 386.91 84.7713 385.126 84.2184C381.471 83.0856 378.216 80.211 374.399 80.479C374.11 80.4841 373.826 80.5535 373.567 80.682C372.706 81.1697 372.842 82.4105 372.787 83.3986C372.666 85.5845 371.058 87.4115 369.282 88.6925C367.507 89.9734 365.479 90.9074 363.848 92.3682C363.559 92.586 363.323 92.8656 363.156 93.1866C362.989 93.5076 362.896 93.8619 362.884 94.2235Z" fill="#3F3D56"/>
<path d="M312.374 108.504C311.529 109.053 310.631 109.515 309.693 109.884C308.775 110.157 307.907 110.578 307.125 111.131C306.764 111.443 306.461 111.816 306.231 112.234C305.8 112.999 305.582 113.866 305.6 114.745C305.618 115.623 305.871 116.48 306.333 117.227C306.795 117.974 307.45 118.584 308.228 118.991C309.006 119.399 309.879 119.591 310.757 119.546C311.923 119.415 313.056 119.077 314.103 118.548L323.094 114.652C324.616 113.993 326.26 113.22 326.979 111.725C327.063 111.586 327.094 111.421 327.066 111.261C326.994 111.091 326.863 110.954 326.697 110.873C324.669 109.556 322.896 107.883 321.462 105.936C321.093 105.435 320.642 104.253 320.12 103.952C318.217 102.856 313.898 107.516 312.374 108.504Z" fill="#A0616A"/>
<path d="M408.491 105.308L411.806 109.094C412.518 109.907 413.23 110.721 413.879 111.585C415.472 113.78 416.75 116.188 417.675 118.737C418.396 120.628 418.994 122.642 418.742 124.649C418.575 125.678 418.297 126.687 417.913 127.656C417.305 129.521 416.552 131.334 415.661 133.081C414.911 134.408 414.063 135.677 413.126 136.879C410.559 140.281 407.751 143.493 404.723 146.491C403.59 147.612 403.115 149.426 402.621 150.943C401.711 153.74 399.546 155.918 397.453 157.984C396.78 158.694 396.036 159.334 395.233 159.894C394.031 160.668 392.625 161.069 391.195 161.044C390.568 161.048 389.948 160.92 389.375 160.667C387.943 159.987 387.214 158.33 387.065 156.751C386.932 155.318 387.172 153.875 387.762 152.562C389.664 148.349 394.549 146.523 398.001 143.449C400.026 141.646 401.574 139.381 403.101 137.141C404.138 135.743 405.004 134.225 405.68 132.621C406.451 130.563 406.151 128.128 406.825 126.036C407.11 125.152 407.616 124.354 407.922 123.477C408.228 122.6 408.305 121.56 407.77 120.801C407.366 120.319 406.851 119.942 406.269 119.702C404.063 118.583 401.593 117.142 401.171 114.705C401.003 113.353 401.356 111.988 402.159 110.888C402.958 109.802 403.893 108.823 404.94 107.973C405.904 107.12 407.527 106.161 408.491 105.308Z" fill="#A0616A"/>
<path d="M310.247 113.79C309.662 112.608 308.93 111.402 307.749 110.814C307.176 110.565 306.559 110.436 305.935 110.433C305.311 110.431 304.692 110.555 304.118 110.799C302.972 111.292 301.9 111.941 300.931 112.726L298.074 114.832C297.426 115.257 296.853 115.786 296.378 116.398C295.927 117.14 295.626 117.963 295.494 118.822C294.996 120.779 294.844 122.808 295.045 124.817C295.498 128.039 297.441 130.852 299.579 133.305C300.915 134.837 302.564 136.384 304.597 136.449C305.474 136.477 306.449 136.131 306.814 135.333C306.94 135.017 307.008 134.68 307.012 134.339C307.232 130.745 305.946 127.235 304.447 123.961C303.969 123.104 303.687 122.152 303.62 121.173C303.609 121.008 303.652 120.844 303.742 120.706C303.871 120.571 304.044 120.487 304.23 120.468C306.282 120.062 309.816 121.656 311.255 119.377C312.188 117.9 310.91 115.13 310.247 113.79Z" fill="#A0616A"/>
<path d="M352.475 61.1719C352.448 60.8776 352.491 60.5809 352.602 60.3067C352.93 59.7255 353.789 59.8837 354.436 60.0469C357.04 60.7034 359.783 60.1092 362.464 60.2625C365.145 60.4159 368.165 61.7561 368.704 64.3867C370.65 63.0072 372.327 61.2837 373.653 59.3011C374.397 58.1877 375.046 56.9124 374.945 55.5771C374.798 53.6511 373.182 52.2107 371.686 50.9892L367.226 47.3481C366.641 46.8101 365.965 46.3803 365.229 46.0785C364.199 45.7265 363.076 45.8942 361.988 45.8949C358.741 45.897 355.279 44.4194 352.392 45.9037C351.185 46.5237 350.278 47.5863 349.402 48.6223L345.422 53.3345C345.122 53.6348 344.903 54.006 344.785 54.4136C344.672 54.9887 344.967 55.5564 345.07 56.1335C345.258 57.1862 344.805 58.3097 345.154 59.3207C345.732 60.999 347.77 61.2365 349.016 62.1987C349.48 62.5573 350.208 63.7726 350.761 63.7578C351.759 63.731 352.449 61.9474 352.475 61.1719Z" fill="#3F3D56"/>
<path d="M325.401 96.1054C324.887 96.4373 324.435 96.8578 324.067 97.3474C323.6 98.0541 323.505 98.9462 323.103 99.6922C322.244 101.289 320.235 101.857 318.981 103.166C318.782 103.346 318.644 103.584 318.585 103.846C318.579 104.201 318.698 104.547 318.922 104.824L324.967 114.327C326.979 114.504 328.91 113.243 330.924 113.41C331.675 113.473 332.445 113.733 333.166 113.51C333.682 113.282 334.165 112.986 334.604 112.631C335.806 111.871 337.405 111.783 338.413 110.78C339.38 109.819 339.504 108.314 339.492 106.95C339.508 105.766 339.388 104.583 339.133 103.427C338.243 99.779 335.453 96.9799 333.704 93.7488C332.853 92.1757 332.39 91.2548 330.588 92.3349C328.776 93.4206 327.106 94.8587 325.401 96.1054Z" fill="#3F3D56"/>
<path d="M398.814 91.2998C399.95 92.0374 400.974 92.9345 401.855 93.9634C402.776 95.1508 403.297 96.604 404.182 97.8186C405.039 98.996 406.207 99.9078 407.179 100.992C408.654 102.636 409.653 104.642 410.634 106.621C408.238 109.746 405.625 112.699 402.815 115.458C402.502 115.827 402.09 116.098 401.628 116.239C401.313 116.272 400.995 116.227 400.703 116.108C400.41 115.988 400.151 115.798 399.949 115.554C399.514 115.098 399.206 114.535 398.789 114.06C397.807 113.047 396.498 112.414 395.094 112.273C393.702 112.138 392.301 112.119 390.907 112.215C390.6 112.249 390.291 112.197 390.012 112.065C389.805 111.922 389.638 111.73 389.524 111.505C387.888 108.72 388.414 105.224 388.992 102.046L390.317 94.753C390.508 93.3602 390.879 91.9979 391.419 90.6998C391.921 89.6273 393.043 87.8087 394.423 88.1297C395.814 88.4534 397.644 90.458 398.814 91.2998Z" fill="#3F3D56"/>
<path d="M156.299 139.185C167.43 139.185 176.454 130.145 176.454 118.994C176.454 107.843 167.43 98.8027 156.299 98.8027C145.168 98.8027 136.145 107.843 136.145 118.994C136.145 130.145 145.168 139.185 156.299 139.185Z" fill="white"/>
<path d="M156.299 95.3618C151.535 95.3618 146.878 96.7745 142.917 99.4213C138.956 102.068 135.869 105.83 134.045 110.231C132.222 114.633 131.745 119.476 132.675 124.148C133.604 128.821 135.898 133.113 139.267 136.481C142.636 139.85 146.928 142.144 151.6 143.073C156.272 144.003 161.116 143.526 165.517 141.703C169.918 139.88 173.68 136.792 176.327 132.831C178.974 128.87 180.386 124.213 180.386 119.449C180.368 113.066 177.824 106.951 173.311 102.437C168.798 97.9243 162.682 95.3805 156.299 95.3618ZM151.354 132.292L139.01 119.947L142.472 116.484L151.366 125.378L170.138 106.606L173.6 110.069L151.354 132.292L151.354 132.292Z" fill="#57B894"/>
</g>
<defs>
<clipPath id="clip0">
<rect width="498.188" height="300" fill="white"/>
</clipPath>
</defs>
</svg>
