<svg width="314" height="226" viewBox="0 0 314 226" fill="none" xmlns="http://www.w3.org/2000/svg">
<g clip-path="url(#clip0)">
<path d="M59.5701 48.5166C69.4744 48.5166 77.5035 40.1921 77.5035 29.9234C77.5035 19.6546 69.4744 11.3301 59.5701 11.3301C49.6658 11.3301 41.6367 19.6546 41.6367 29.9234C41.6367 40.1921 49.6658 48.5166 59.5701 48.5166Z" fill="#FF6584"/>
<path d="M146.823 99.6837C146.823 143.555 121.667 158.874 90.6364 158.874C59.6056 158.874 34.4502 143.555 34.4502 99.6837C34.4502 55.8119 90.6364 0 90.6364 0C90.6364 0 146.823 55.8119 146.823 99.6837Z" fill="#F2F2F2"/>
<path d="M88.5892 152.163L89.1647 115.446L113.112 70.0223L89.2549 109.686L89.5136 93.177L106.018 60.3134L89.5819 88.8081L90.0471 59.1153L107.721 32.9516L90.1205 54.446L90.4111 0L88.5841 72.0768L88.7343 69.1033L70.7653 40.5868L88.4462 74.8112L86.772 107.973L86.7221 107.093L66.0068 77.0833L86.6594 110.202L86.45 114.349L86.4125 114.412L86.4296 114.752L82.1819 198.887H87.8572L88.5382 155.43L109.14 122.392L88.5892 152.163Z" fill="#3F3D56"/>
<path d="M314 117.652C314 153.564 293.409 166.102 268.009 166.102C242.609 166.102 222.018 153.564 222.018 117.652C222.018 81.7413 268.009 36.0566 268.009 36.0566C268.009 36.0566 314 81.7413 314 117.652Z" fill="#F2F2F2"/>
<path d="M266.333 160.609L266.804 130.555L286.407 93.3733L266.878 125.84L267.09 112.327L280.6 85.4259L267.146 108.75L267.527 84.4454L281.994 63.0291L267.587 80.6236L267.825 36.0566L266.329 95.0548L266.452 92.6212L251.744 69.2788L266.216 97.2933L264.846 124.438L264.805 123.717L247.849 99.1529L264.754 126.262L264.582 129.657L264.552 129.708L264.566 129.987L261.089 198.855H265.734L266.291 163.283L283.155 136.24L266.333 160.609Z" fill="#3F3D56"/>
<path d="M155.402 205.837C241.228 205.837 310.803 202.19 310.803 197.692C310.803 193.194 241.228 189.548 155.402 189.548C69.5757 189.548 0 193.194 0 197.692C0 202.19 69.5757 205.837 155.402 205.837Z" fill="#3F3D56"/>
<path d="M250.071 212.544C264.771 212.544 276.687 211.919 276.687 211.149C276.687 210.378 264.771 209.754 250.071 209.754C235.371 209.754 223.454 210.378 223.454 211.149C223.454 211.919 235.371 212.544 250.071 212.544Z" fill="#3F3D56"/>
<path d="M153.756 226C168.456 226 180.373 225.375 180.373 224.605C180.373 223.834 168.456 223.21 153.756 223.21C139.056 223.21 127.14 223.834 127.14 224.605C127.14 225.375 139.056 226 153.756 226Z" fill="#3F3D56"/>
<path d="M80.6844 216.51C114.268 216.51 141.494 215.083 141.494 213.323C141.494 211.563 114.268 210.136 80.6844 210.136C47.1003 210.136 19.875 211.563 19.875 213.323C19.875 215.083 47.1003 216.51 80.6844 216.51Z" fill="#3F3D56"/>
<path d="M27.2039 187.464C39.4295 187.464 49.3404 177.188 49.3404 164.513C49.3404 151.837 39.4295 141.562 27.2039 141.562C14.9782 141.562 5.06738 151.837 5.06738 164.513C5.06738 177.188 14.9782 187.464 27.2039 187.464Z" fill="#2F2E41"/>
<path d="M23.6367 182.483L16.9121 182.4L16.7701 194.892L23.4947 194.974L23.6367 182.483Z" fill="#2F2E41"/>
<path d="M37.0859 182.647L30.3613 182.565L30.2194 195.056L36.9439 195.139L37.0859 182.647Z" fill="#2F2E41"/>
<path d="M27.9765 195.174C27.9902 193.971 25.4923 192.965 22.3975 192.927C19.3026 192.889 16.7826 193.834 16.7689 195.037C16.7552 196.24 19.253 197.246 22.3479 197.284C25.4428 197.322 27.9628 196.377 27.9765 195.174Z" fill="#2F2E41"/>
<path d="M41.4286 195.048C41.4423 193.845 38.9445 192.839 35.8496 192.801C32.7547 192.763 30.2347 193.708 30.2211 194.911C30.2074 196.114 32.7052 197.12 35.8001 197.158C38.895 197.196 41.415 196.251 41.4286 195.048Z" fill="#2F2E41"/>
<path d="M27.8303 166.553C32.0087 166.553 35.3959 163.041 35.3959 158.709C35.3959 154.377 32.0087 150.865 27.8303 150.865C23.6519 150.865 20.2646 154.377 20.2646 158.709C20.2646 163.041 23.6519 166.553 27.8303 166.553Z" fill="white"/>
<path d="M27.8305 161.324C29.2233 161.324 30.3524 160.153 30.3524 158.709C30.3524 157.265 29.2233 156.095 27.8305 156.095C26.4377 156.095 25.3086 157.265 25.3086 158.709C25.3086 160.153 26.4377 161.324 27.8305 161.324Z" fill="#3F3D56"/>
<path d="M5.97494 142.908C4.28196 134.588 10.0905 126.272 18.9488 124.334C27.807 122.397 36.3604 127.571 38.0534 135.892C39.7464 144.213 33.8563 147.202 24.9981 149.14C16.1399 151.077 7.66792 151.229 5.97494 142.908Z" fill="#F2C94C"/>
<path d="M60.9716 177.317C60.9716 193.317 51.7976 198.904 40.48 198.904C40.2178 198.904 39.956 198.901 39.6947 198.895C39.1703 198.883 38.6509 198.858 38.1378 198.821C27.9238 198.072 19.9883 192.198 19.9883 177.317C19.9883 161.917 38.9693 142.484 40.3951 141.046L40.3976 141.044C40.4525 140.988 40.48 140.961 40.48 140.961C40.48 140.961 60.9716 161.316 60.9716 177.317Z" fill="#F2C94C"/>
<path d="M39.7335 196.456L47.2282 185.599L39.7147 197.649L39.6948 198.895C39.1704 198.883 38.651 198.858 38.1379 198.821L38.9457 182.813L38.9394 182.689L38.9531 182.665L39.0293 181.153L31.4971 169.074L39.053 180.019L39.0705 180.34L39.681 168.245L33.2325 155.763L39.7597 166.122L40.3952 141.046L40.3977 140.961V141.044L40.2915 160.818L46.7113 152.979L40.2653 162.521L40.0955 173.351L46.0896 162.957L40.0706 174.944L39.9757 180.964L48.6777 166.499L39.9432 183.065L39.7335 196.456Z" fill="#3F3D56"/>
<path d="M199.644 187.215C211.87 187.215 221.781 176.94 221.781 164.264C221.781 151.589 211.87 141.313 199.644 141.313C187.419 141.313 177.508 151.589 177.508 164.264C177.508 176.94 187.419 187.215 199.644 187.215Z" fill="#2F2E41"/>
<path d="M201.534 182.506L195.105 184.554L198.645 196.495L205.073 194.447L201.534 182.506Z" fill="#2F2E41"/>
<path d="M214.39 178.411L207.962 180.459L211.501 192.4L217.93 190.352L214.39 178.411Z" fill="#2F2E41"/>
<path d="M204.661 197.01C207.62 196.067 209.741 194.371 209.401 193.22C209.06 192.07 206.385 191.902 203.426 192.844C200.468 193.787 198.346 195.484 198.687 196.634C199.028 197.784 201.702 197.953 204.661 197.01Z" fill="#2F2E41"/>
<path d="M217.435 192.636C220.394 191.693 222.516 189.997 222.175 188.846C221.834 187.696 219.159 187.528 216.201 188.47C213.242 189.413 211.12 191.11 211.461 192.26C211.802 193.41 214.477 193.579 217.435 192.636Z" fill="#2F2E41"/>
<path d="M198.534 166.384C202.713 166.384 206.1 162.872 206.1 158.54C206.1 154.208 202.713 150.696 198.534 150.696C194.356 150.696 190.969 154.208 190.969 158.54C190.969 162.872 194.356 166.384 198.534 166.384Z" fill="white"/>
<path d="M198.534 161.154C199.926 161.154 201.055 159.984 201.055 158.539C201.055 157.095 199.926 155.925 198.534 155.925C197.141 155.925 196.012 157.095 196.012 158.539C196.012 159.984 197.141 161.154 198.534 161.154Z" fill="#3F3D56"/>
<path d="M173.072 150.403C169.012 143.014 172.097 133.257 179.963 128.611C187.83 123.965 197.498 126.188 201.558 133.577C205.618 140.966 200.888 145.675 193.022 150.321C185.156 154.968 177.132 157.792 173.072 150.403Z" fill="#F2C94C"/>
<path d="M160.166 174.387C160.166 189.074 151.744 194.203 141.355 194.203C141.115 194.203 140.874 194.2 140.634 194.195C140.153 194.184 139.676 194.16 139.205 194.127C129.829 193.439 122.545 188.047 122.545 174.387C122.545 160.25 139.969 142.412 141.277 141.092L141.28 141.09C141.33 141.039 141.355 141.014 141.355 141.014C141.355 141.014 160.166 159.699 160.166 174.387Z" fill="#F2C94C"/>
<path d="M140.67 191.956L147.55 181.989L140.653 193.05L140.634 194.195C140.153 194.184 139.676 194.16 139.205 194.127L139.947 179.432L139.941 179.318L139.954 179.296L140.024 177.909L133.109 166.82L140.045 176.868L140.061 177.162L140.622 166.059L134.702 154.601L140.694 164.111L141.277 141.092L141.28 141.014V141.09L141.182 159.241L147.075 152.045L141.158 160.805L141.002 170.746L146.505 161.205L140.979 172.209L140.892 177.735L148.88 164.456L140.863 179.664L140.67 191.956Z" fill="#3F3D56"/>
<path d="M234.141 180.512C234.141 196.513 224.967 202.099 213.649 202.099C213.387 202.099 213.125 202.096 212.864 202.09C212.339 202.079 211.82 202.053 211.307 202.017C201.093 201.267 193.157 195.393 193.157 180.512C193.157 165.112 212.138 145.68 213.564 144.242L213.566 144.239C213.621 144.183 213.649 144.156 213.649 144.156C213.649 144.156 234.141 164.511 234.141 180.512Z" fill="#F2C94C"/>
<path d="M212.902 199.652L220.397 188.794L212.884 200.844L212.864 202.09C212.339 202.079 211.82 202.053 211.307 202.017L212.115 186.008L212.108 185.884L212.122 185.861L212.198 184.349L204.666 172.269L212.222 183.215L212.239 183.536L212.85 171.441L206.401 158.958L212.929 169.318L213.564 144.242L213.567 144.156V144.239L213.461 164.013L219.88 156.174L213.434 165.717L213.264 176.546L219.259 166.153L213.24 178.139L213.145 184.16L221.847 169.694L213.112 186.261L212.902 199.652Z" fill="#3F3D56"/>
<path d="M201.051 178.004C201.873 176.206 198.062 172.547 192.539 169.831C187.016 167.115 181.872 166.371 181.05 168.168C180.227 169.966 184.038 173.625 189.561 176.341C195.084 179.057 200.228 179.801 201.051 178.004Z" fill="#2F2E41"/>
<path d="M30.6761 175.903C31.3901 174.056 27.3691 170.647 21.6951 168.29C16.0211 165.932 10.8426 165.517 10.1287 167.364C9.41471 169.211 13.4356 172.619 19.1097 174.977C24.7837 177.335 29.9622 177.75 30.6761 175.903Z" fill="#2F2E41"/>
</g>
<defs>
<clipPath id="clip0">
<rect width="314" height="226" fill="white"/>
</clipPath>
</defs>
</svg>
