<svg xmlns="http://www.w3.org/2000/svg" xmlns:xlink="http://www.w3.org/1999/xlink" width="145.453" height="100" viewBox="0 0 145.453 100">
  <defs>
    <style>
      .cls-1 {
        fill: #fff;
      }

      .cls-2 {
        clip-path: url(#clip-path);
      }

      .cls-3 {
        fill: #ffb9b9;
      }

      .cls-4 {
        fill: #2f2e41;
      }

      .cls-5 {
        fill: #d0cde1;
      }

      .cls-6 {
        fill: #f2f2f2;
      }

      .cls-7 {
        fill: #3f3d56;
      }

      .cls-8 {
        fill: #f9a826;
      }

      .cls-9 {
        fill: #a0616a;
      }

      .cls-10 {
        fill: #fa3d7f;
      }
    </style>
    <clipPath id="clip-path">
      <rect id="Rectangle_17" data-name="Rectangle 17" class="cls-1" width="145.453" height="100" transform="translate(0.273)"/>
    </clipPath>
  </defs>
  <g id="undraw_group_hangout_5gmq_1" data-name="undraw_group_hangout_5gmq 1" class="cls-2" transform="translate(-0.273)">
    <path id="Path_57" data-name="Path 57" class="cls-3" d="M120.17,89.233l.141,3.383v2.96h3.665V89.233Z"/>
    <path id="Path_58" data-name="Path 58" class="cls-3" d="M140.329,86.132l.141,3.383v2.96h3.665l-.705-6.908Z"/>
    <path id="Path_59" data-name="Path 59" class="cls-3" d="M136.664,31.294l-1.128,8.881-3.665,10.573-1.692-6.062,2.114-3.806-.422-8.035Z"/>
    <path id="Path_60" data-name="Path 60" class="cls-4" d="M119.042,30.448s-3.1,5.5-2.678,6.062.705,3.665.705,3.665h1.173l1.928-4.793Z"/>
    <path id="Path_61" data-name="Path 61" class="cls-3" d="M126.725,15.857a4.934,4.934,0,1,0-4.934-4.934A4.934,4.934,0,0,0,126.725,15.857Z"/>
    <path id="Path_62" data-name="Path 62" class="cls-3" d="M124.892,14.871s2.679,3.665,1.833,5.5,8.176-.987,8.176-.987-4.511-5.075-4.652-6.767Z"/>
    <path id="Path_63" data-name="Path 63" class="cls-5" d="M134.9,31.223c-.317.476-.628,1.008-.93,1.569-.142.266-.282.54-.42.816a59.392,59.392,0,0,0-2.879,7.2l-13.11-.423.407-1.2,1.848-5.43c-3.242-1.974-.141-5.78,1.551-9.3a15.729,15.729,0,0,1,5.287-5.719l.07-.044.059-.01,2.353-.4,4.238-.713h0a5.857,5.857,0,0,1,2.1.789,4.244,4.244,0,0,1,1.326,1.328,5.749,5.749,0,0,1,.8,2.855A16.6,16.6,0,0,1,134.9,31.223Z"/>
    <path id="Path_64" data-name="Path 64" class="cls-5" d="M135.677,19.593s2.537,2.96,2.678,5.5-.423,7.33-1.691,7.33-3.525.846-3.384,0S135.677,19.593,135.677,19.593Z"/>
    <path id="Path_65" data-name="Path 65" class="cls-4" d="M133.28,24.95l-1.55.282a7.831,7.831,0,0,0-5.075-6.495l.07-.044.059-.01,2.353-.4C132.246,19.891,133.28,24.95,133.28,24.95Z"/>
    <path id="Path_66" data-name="Path 66" class="cls-4" d="M143.853,85.568c-.141.846-4.229,2.4-5.357,2.256s-12.264-27.349-12.264-27.349,0,30.309-.282,30.873-5.075,0-6.767-1.974-2.819-32.846-3.524-38.062,1.41-11.983,1.41-11.983l.9-.138,2.765-.426s0-.7,4.229-4.088,6.767-9.445,6.767-9.445l.423-.846,1.127.564a17.952,17.952,0,0,0,2.2-6.586,4.232,4.232,0,0,1,1.326,1.328c-.107.3-.214.616-.324.959-.95,2.959-2.027,7.542-3.1,12.055-.033.141-.066.282-.1.421a3.712,3.712,0,0,1,.271.482c.285.6.586,1.625-.271,2.2-1.268.846-1.691,5.075-1.691,5.075,2.4,2.115,2.96,12.124,2.678,12.828s-.282.564.423.987.705,3.947.705,3.947S143.994,84.722,143.853,85.568Z"/>
    <path id="Path_67" data-name="Path 67" class="cls-4" d="M122.285,93.885s-.846.846-1.41.423-.586-2.222-.586-2.222-6.463-.6-5.194,3.632,10.15,4.793,10.432,3.947-.987-6.2-.987-6.2Z"/>
    <path id="Path_68" data-name="Path 68" class="cls-4" d="M142.444,90.784s-.846.846-1.41.423-.586-2.222-.586-2.222-6.463-.6-5.194,3.632,10.15,4.793,10.432,3.947-.987-6.2-.987-6.2Z"/>
    <path id="Path_69" data-name="Path 69" class="cls-3" d="M122.707,28.052l-.563,7.471-7.19,8.035s-2.4,1.128-.987,3.1,1.974,2.114,1.974,2.114l.141-2.537,9.727-7.753.987-10.432Z"/>
    <path id="Path_70" data-name="Path 70" class="cls-5" d="M127.218,24.95s.564-6.344-2.255-5.78A3.609,3.609,0,0,0,122,22.413s-1.268,6.485-.141,6.767,4.934.846,5.357,0S127.218,24.95,127.218,24.95Z"/>
    <path id="Path_71" data-name="Path 71" class="cls-4" d="M139.431,15.076a27.788,27.788,0,0,1-2.795-1.482c.073-2.151-.192-4.1-.967-5.138A11.355,11.355,0,0,0,133.6,5.7c-1.757-1.913-5.644-2.981-6.333-2.025-5.213.1-5.762,4.189-5.762,4.189.027,1.709,1.8,1.763,3.36,1.7a2.749,2.749,0,0,0,1.307,2.917c2.057,1.028,2.674,2.365,1.645,3.29s-2.879,3.393-.411,4.01,2.776,1.851,2.056,2.365,1.646-.925,1.646-.925.411,2.468,2.57,1.851a1.292,1.292,0,0,0,.577-.409c.584.641,1.1,1.02,1.5,1.022,2.246.012,1.976-2.475,1.976-2.475s2.666.749,1.834.448-.867-1.572,1.343-2.832S140.67,15.69,139.431,15.076Z"/>
    <path id="Path_72" data-name="Path 72" class="cls-6" d="M103.888.141H.414V59.063H103.888Z"/>
    <path id="Path_73" data-name="Path 73" class="cls-7" d="M104.029,59.2H.273V0H72.361V.282H.555v58.64H103.747v-25.7h.282Z"/>
    <path id="Path_74" data-name="Path 74" class="cls-8" d="M5.2,6.3A1.756,1.756,0,1,0,3.448,4.547,1.756,1.756,0,0,0,5.2,6.3Z"/>
    <path id="Path_75" data-name="Path 75" class="cls-8" d="M9.857,6.3A1.756,1.756,0,1,0,8.1,4.547,1.756,1.756,0,0,0,9.857,6.3Z"/>
    <path id="Path_76" data-name="Path 76" class="cls-8" d="M14.509,6.3a1.756,1.756,0,1,0-1.757-1.757A1.757,1.757,0,0,0,14.509,6.3Z"/>
    <path id="Path_77" data-name="Path 77" class="cls-7" d="M93.033,9.232H14.512v.282H93.033Z"/>
    <path id="Path_78" data-name="Path 78" class="cls-1" d="M46.23,18.536H6.053V53.92H46.23Z"/>
    <path id="Path_79" data-name="Path 79" class="cls-1" d="M98.531,18.536H58.354V53.92H98.531Z"/>
    <path id="Path_80" data-name="Path 80" class="cls-4" d="M29.476,26.2a5.957,5.957,0,0,0-4.568-2.712s-2.957-.378-4.853,3.569c-1.768,3.679-4.208,7.23-.393,8.092L20.351,33l.427,2.3a14.913,14.913,0,0,0,1.632.028c4.085-.132,7.976.039,7.851-1.427C30.095,31.957,30.952,28.691,29.476,26.2Z"/>
    <path id="Path_81" data-name="Path 81" class="cls-9" d="M25.214,33.568a3.96,3.96,0,1,0-3.96-3.96A3.96,3.96,0,0,0,25.214,33.568Z"/>
    <path id="Path_82" data-name="Path 82" class="cls-9" d="M23.594,32.188s1.8,4.2-.6,5.04l2.4,7.92,4.08-.24,1.08-2.64-.24-3.96-.36-2.64s-2.52.6-2.28-3.84Z"/>
    <path id="Path_83" data-name="Path 83" class="cls-9" d="M22.634,37.107s-3.96-.36-3.6,2.52a11.525,11.525,0,0,0,.72,3.48l.36,4.32-2.16,1.32h-2.04s-6.24,1.44-3.12,3,4.2-1.2,4.2-1.2,5.76,0,6.12-.96S22.634,37.107,22.634,37.107Z"/>
    <path id="Path_84" data-name="Path 84" class="cls-9" d="M30.314,35.907s3.72-1.32,3.96,1.56.24,3.12.24,3.12l.72,4.08a24.6,24.6,0,0,1,1.44,4.68,26.507,26.507,0,0,0,1.08,4.44s1.44,4.68-.12,4.56-1.8-5.04-1.8-5.04l-3.24-6.48-.96-3.96Z"/>
    <path id="Path_85" data-name="Path 85" class="cls-10" d="M23.234,36.627h-.96l-.12,5.04a3.166,3.166,0,0,0,.36,4.08l.48,3.12,8.76-.36.6-3.24a5.426,5.426,0,0,0-.48-5.04l-1.56-4.92h-.84s1.945,7.173-2.16,7.32C23.954,42.747,23.234,36.627,23.234,36.627Z"/>
    <path id="Path_86" data-name="Path 86" class="cls-4" d="M34.216,53.92H21.623c.664-1.934,1.088-3.134,1.128-3.244l0-.009.292-.973.121-.4.131-.437.176-.588,7.8-.24.219.491.741,1.669a.66.66,0,0,1,.182.086C32.969,50.637,33.581,51.953,34.216,53.92Z"/>
    <path id="Path_87" data-name="Path 87" class="cls-7" d="M32.113,47.067l-9.48.36s-.433,3.24,0,3.24c.12,0,9.96.84,9.84-.6S32.113,47.067,32.113,47.067Z"/>
    <path id="Path_88" data-name="Path 88" class="cls-4" d="M25.28,25.693A2.194,2.194,0,1,0,23.086,23.5,2.194,2.194,0,0,0,25.28,25.693Z"/>
    <path id="Path_89" data-name="Path 89" class="cls-4" d="M22.855,22.922a2.194,2.194,0,0,1,1.963-2.182,2.227,2.227,0,0,0-.231-.012,2.194,2.194,0,1,0,.231,4.375,2.194,2.194,0,0,1-1.963-2.181Z"/>
    <path id="Path_90" data-name="Path 90" class="cls-4" d="M28.8,25.948l-3-1.57-4.14.642L20.8,28.8l2.132-.082.6-1.39V28.7l.984-.038.571-2.212.357,2.355,3.5-.071Z"/>
    <path id="Path_91" data-name="Path 91" class="cls-3" d="M76.541,31.179a3.993,3.993,0,1,0-3.993-3.993A3.993,3.993,0,0,0,76.541,31.179Z"/>
    <path id="Path_92" data-name="Path 92" class="cls-3" d="M74.982,30.243s.5,2.371.5,2.62,2.371,1.373,2.371,1.373l2.121-.374.749-2.246A8.521,8.521,0,0,1,79.474,29Z"/>
    <path id="Path_93" data-name="Path 93" class="cls-10" d="M85.74,53.92l.515-.942.082-.151-1-10.605.059-.479,1.063-8.629L80.307,30.95h0a2.582,2.582,0,0,1-1.83,2.413c-1.872.623-3.161-1.475-3.161-1.475l-5.2,3.97,2.526,7.325,1.218,3.53s.124,4.118.25,4.493-.125.5-.25.623.124.5.25.5a2.976,2.976,0,0,1,.3.936c.056.24.108.479.145.655Z"/>
    <path id="Path_94" data-name="Path 94" class="cls-3" d="M95.507,53.264s3.369,2.121,2.994,3.494-4.242-2.371-4.242-2.5A8.747,8.747,0,0,1,95.507,53.264Z"/>
    <path id="Path_95" data-name="Path 95" class="cls-4" d="M85.741,53.92h.939l-.281-1.03a1.644,1.644,0,0,1-.144.089,9.165,9.165,0,0,1-3.54.942,21.018,21.018,0,0,1-3.891,0,34.05,34.05,0,0,1-4.28-.655h-.25l-.14.655Z"/>
    <path id="Path_96" data-name="Path 96" class="cls-4" d="M73.079,23.97s1.268-2.747,3.7-2.113,3.8,1.585,3.909,2.535a13.567,13.567,0,0,1-.053,2.377s-.264-1.954-1.954-1.532a15.079,15.079,0,0,1-4.331.106l-.423,3.8s-.475-.687-1-.264S71.388,24.815,73.079,23.97Z"/>
    <path id="Path_97" data-name="Path 97" class="cls-10" d="M72.92,53.92H69.486l-.244-.468a14.588,14.588,0,0,1-1.5-6.239l.873-7.362a5.072,5.072,0,0,1,1.5-3.992h1.872l1.373,4.617-.719,2.708-.9,3.406-.25.374s.25.375.124.5a2.136,2.136,0,0,0-.249.625s.375,2.5.75,2.745-.125.25-.125.375a2.734,2.734,0,0,0,.375.623v.625Z"/>
    <path id="Path_98" data-name="Path 98" class="cls-10" d="M84.34,32.739l2.121.374a8.163,8.163,0,0,1,1.747,2.745l1,4.492,1.622,3.244a16.149,16.149,0,0,1,3.244,6.114l2,3.743L93.948,54.7s-5.864-6.862-6.613-9.233L84.09,39.227Z"/>
  </g>
</svg>
