<svg xmlns="http://www.w3.org/2000/svg" xmlns:xlink="http://www.w3.org/1999/xlink" width="133.055" height="100" viewBox="0 0 133.055 100">
  <defs>
    <style>
      .cls-1 {
        fill: #fff;
      }

      .cls-2 {
        clip-path: url(#clip-path);
      }

      .cls-3 {
        fill: #f2f2f2;
      }

      .cls-4 {
        fill: #fbbebe;
      }

      .cls-5 {
        fill: #2f2e41;
      }

      .cls-6 {
        fill: #3f3d56;
      }

      .cls-7 {
        opacity: 0.1;
      }

      .cls-8 {
        fill: #a0616a;
      }

      .cls-9 {
        fill: #f9a826;
      }

      .cls-10 {
        fill: #fa3d7f;
      }

      .cls-11 {
        fill: none;
        stroke: #3f3d56;
        stroke-miterlimit: 10;
      }

      .cls-12 {
        fill: #57b894;
      }
    </style>
    <clipPath id="clip-path">
      <rect id="Rectangle_18" data-name="Rectangle 18" class="cls-1" width="133.055" height="100" transform="translate(0.473)"/>
    </clipPath>
  </defs>
  <g id="undraw_synchronize_ccxk_1" data-name="undraw_synchronize_ccxk 1" class="cls-2" transform="translate(-0.473)">
    <path id="Path_99" data-name="Path 99" class="cls-3" d="M79.772,4.06H26.2V49H79.772Z"/>
    <path id="Path_100" data-name="Path 100" class="cls-4" d="M93.7,77.473s1.218,4.414,1.218,5.023,1.979.457,1.979.457l1.522-2.435A26.366,26.366,0,0,1,96.9,76.865C96.591,75.647,93.7,77.473,93.7,77.473Z"/>
    <path id="Path_101" data-name="Path 101" class="cls-5" d="M95.982,81.583s1.826.457,1.826-.913.761-.761.761-.761,1.826,1.065,1.065,2.131-2.131,2.283-2.588,3.349-1.826,3.957-3.349,3.349-.457-1.979-.457-1.979a5.419,5.419,0,0,0,.913-3.349c-.3-1.522-.457-2.283,0-2.283s1.218-.457,1.218.152S95.982,81.583,95.982,81.583Z"/>
    <path id="Path_102" data-name="Path 102" class="cls-5" d="M95.906,25.038a5.784,5.784,0,1,0-5.784-5.784A5.784,5.784,0,0,0,95.906,25.038Z"/>
    <path id="Path_103" data-name="Path 103" class="cls-5" d="M95.3,19.559a5.175,5.175,0,1,0-5.175-5.175A5.175,5.175,0,0,0,95.3,19.559Z"/>
    <path id="Path_104" data-name="Path 104" class="cls-6" d="M92.558,44.977l-3.044-.3-1.243-3.04.177-2.744h4.11Z"/>
    <path id="Path_105" data-name="Path 105" class="cls-7" d="M92.558,44.977l-3.044-.3-1.243-3.04.177-2.744h4.11Z"/>
    <path id="Path_106" data-name="Path 106" class="cls-4" d="M92.786,23.135s-.152,3.805-.761,4.262.913,2.283.913,2.283l2.435-.609L97.2,27.4l-.761-.152a7.167,7.167,0,0,1,.457-2.74C97.352,23.9,92.786,23.135,92.786,23.135Z"/>
    <path id="Path_107" data-name="Path 107" class="cls-7" d="M92.786,23.135s-.152,3.805-.761,4.262.913,2.283.913,2.283l2.435-.609L97.2,27.4l-.761-.152a7.167,7.167,0,0,1,.457-2.74C97.352,23.9,92.786,23.135,92.786,23.135Z"/>
    <path id="Path_108" data-name="Path 108" class="cls-4" d="M88.524,38.052a19.36,19.36,0,0,1,1.218,7.306c-.3,3.348,6.849.457,6.849.457l2.131-1.37s.609-4.11,0-5.023a35.21,35.21,0,0,1-1.826-4.11l-3.2-.457Z"/>
    <path id="Path_109" data-name="Path 109" class="cls-4" d="M114.117,55.524s2.6-2.869,3.03-3.145-.572-1.618-.572-1.618l-2.426.018a22.309,22.309,0,0,1-1.915,2.741C111.5,54.29,114.117,55.524,114.117,55.524Z"/>
    <path id="Path_110" data-name="Path 110" class="cls-5" d="M116.012,52.033s-.5-1.509-1.479-.889-.887-.2-.887-.2-.069-1.785,1.036-1.725a20.966,20.966,0,0,0,3.561.327c.966-.157,3.649-.491,3.905.87s-1.2,1.222-1.2,1.222a4.581,4.581,0,0,0-2.8.866c-.947.907-1.421,1.36-1.627,1.035s-.878-.661-.444-.937S116.012,52.033,116.012,52.033Z"/>
    <path id="Path_111" data-name="Path 111" class="cls-4" d="M91.112,25.875a5.689,5.689,0,0,1-2.283-4.11c-.457-3.044-3.653-13.7-3.653-13.7S83.045.761,82.284,3.2s.913,5.175.913,5.175l2.131,9.893s1.826,12.785,2.74,13.394S91.112,25.875,91.112,25.875Z"/>
    <path id="Path_112" data-name="Path 112" class="cls-4" d="M98.524,26.466a5.688,5.688,0,0,0,4.016-2.443c1.9-2.42,9.949-10.1,9.949-10.1s5.464-5.3,4.922-2.8-3.353,4.047-3.353,4.047l-6.744,7.546S99.4,32.921,98.31,33,98.524,26.466,98.524,26.466Z"/>
    <path id="Path_113" data-name="Path 113" class="cls-4" d="M95.374,25.571a3.805,3.805,0,1,0-3.805-3.805A3.805,3.805,0,0,0,95.374,25.571Z"/>
    <path id="Path_114" data-name="Path 114" class="cls-5" d="M98.993,42.049s-5.293,3.765-7.272,3.156-2.283-1.066-2.283-1.066-1.826,12.481-.457,17.352c0,0,.152,4.871,1.522,6.7l3.2,10.5s3.5-.152,3.5-1.37a31.675,31.675,0,0,1-.457-4.414c0-1.826-2.435-6.393-2.435-6.393l1.674-12.785s6.392,12.785,8.98,11.872,9.893-10.5,9.893-10.5l-2.283-2.131s-6.393,3.805-7.154,5.784C105.419,58.752,100.329,43.155,98.993,42.049Z"/>
    <path id="Path_115" data-name="Path 115" class="cls-6" d="M94.917,27.854A14.824,14.824,0,0,1,97.2,26.332h1.979s1.522,3.653.913,5.175c0,0-.761,3.957-.913,4.262a4.069,4.069,0,0,0,.3,2.131c.3.913,1.218,2.892.761,3.349s-.913,1.674-1.217,1.674a9.372,9.372,0,0,1-3.2-3.805c-.457-1.522-.457-1.979-1.522-1.37s-5.784.3-5.479,2.74a34.446,34.446,0,0,0,.609,3.653s-1.826.609-2.131-2.283-.609-3.044.3-4.11-.3-5.479-.3-5.479a20.15,20.15,0,0,0,1.826-3.957,7.444,7.444,0,0,1,1.522-2.74s.761-.457,1.218-.152.7.152.7.152-.853,2.131.06,2.131S94.917,27.854,94.917,27.854Z"/>
    <path id="Path_116" data-name="Path 116" class="cls-7" d="M92.634,44.368c.126,0,.228-.2.228-.457s-.1-.457-.228-.457-.228.2-.228.457S92.508,44.368,92.634,44.368Z"/>
    <path id="Path_117" data-name="Path 117" class="cls-5" d="M95.754,21.233c2.522,0,4.566-1.295,4.566-2.892s-2.044-2.892-4.566-2.892-4.566,1.295-4.566,2.892S93.232,21.233,95.754,21.233Z"/>
    <path id="Path_118" data-name="Path 118" class="cls-5" d="M17.672,37.976c3.531,0,6.393-3.884,6.393-8.676s-2.862-8.676-6.393-8.676-6.393,3.884-6.393,8.676S14.142,37.976,17.672,37.976Z"/>
    <path id="Path_119" data-name="Path 119" class="cls-8" d="M19.275,34.794s2.583-2.526,2.887-3.44S26.12,14.916,26.12,14.916s3.044-8.676,4.414-6.545-2.283,7.154-2.283,7.154-.913,9.589-1.522,11.872-2.74,10.807-4.11,11.72l-1.37,2.74-1.522.3-1.37-3.805.152-1.522Z"/>
    <path id="Path_120" data-name="Path 120" class="cls-8" d="M26.881,75.19s3.653,1.065,4.11.457,2.131,3.044,2.131,3.044v1.37l-1.522.3a40.316,40.316,0,0,0-5.327-1.979C25.511,78.387,26.881,75.19,26.881,75.19Z"/>
    <path id="Path_121" data-name="Path 121" class="cls-5" d="M31.6,77.473s-2.131-1.826-1.674-2.131,2.283-2.435,3.2-1.218,5.023,7.915,3.957,9.437-1.826.609-1.826.609-2.831-3.805-3.927-3.805C31.325,80.365,32.817,78.691,31.6,77.473Z"/>
    <path id="Path_122" data-name="Path 122" class="cls-8" d="M16.378,88.889s.152,5.023-1.218,6.545,1.827,1.218,1.827,1.218l3.348-2.283a11.279,11.279,0,0,1-.609-4.718Z"/>
    <path id="Path_123" data-name="Path 123" class="cls-5" d="M20.336,93.151s-.3-.3-1.066.609-2.283,1.979-3.2,1.065-.913-.152-.913-.152-1.979,3.2-3.653,3.653-.457,1.978,1.065,1.37,8.98-3.2,8.98-3.2A6.636,6.636,0,0,0,20.336,93.151Z"/>
    <path id="Path_124" data-name="Path 124" class="cls-8" d="M9.225,52.664l-2.283,3.5S1.31,60.578,4.2,61.035s4.566-4.11,4.566-4.11l1.979-2.435Z"/>
    <path id="Path_125" data-name="Path 125" class="cls-9" d="M8.464,52.055s2.587,3.805,3.805,4.11.761-2.892.761-2.892Z"/>
    <path id="Path_126" data-name="Path 126" class="cls-7" d="M8.464,52.055s2.587,3.805,3.805,4.11.761-2.892.761-2.892Z"/>
    <path id="Path_127" data-name="Path 127" class="cls-5" d="M11.812,51.75l.457,7.915s-1.674,11.72.913,14.46c0,0,1.522,4.11,1.522,5.632S15.77,90.411,15.77,90.411h4.414s.913-12.633-1.522-16.59V52.207Z"/>
    <path id="Path_128" data-name="Path 128" class="cls-7" d="M11.737,67.436c.022,2.792.356,5.536,1.445,6.689,0,0,1.522,4.11,1.522,5.632s1.065,10.654,1.065,10.654h4.414s.913-12.633-1.522-16.59V68.169"/>
    <path id="Path_129" data-name="Path 129" class="cls-5" d="M16.531,53.577,11.964,65.6s-2.74,10.35.609,11.416,12.024.761,13.394,1.826,2.131-3.2,1.674-3.653S19.879,72.3,16.835,72.3c0,0,8.067-10.959,6.088-13.394S18.2,53.425,16.531,53.577Z"/>
    <path id="Path_130" data-name="Path 130" class="cls-8" d="M15.465,30.441s.152,4.11-.609,4.262a11.7,11.7,0,0,0-1.826.609V37.6l1.218.761,3.044-1.826,1.218-1.066L19.727,34.4s-.761-2.131,0-3.5Z"/>
    <path id="Path_131" data-name="Path 131" class="cls-7" d="M15.465,30.441s.152,4.11-.609,4.262a11.7,11.7,0,0,0-1.826.609V37.6l1.218.761,3.044-1.826,1.218-1.066L19.727,34.4s-.761-2.131,0-3.5Z"/>
    <path id="Path_132" data-name="Path 132" class="cls-10" d="M14.856,36.986s2.587-2.435,3.2-2.283,2.359-.989,2.359-.989a19.638,19.638,0,0,0-.685,3.577,2.885,2.885,0,0,0,.29,1.822,4.794,4.794,0,0,1,.525,1.048c.252.736.719,1.626,1.315.632,0,0-.3,1.674-.609,6.545a17.469,17.469,0,0,0,1.37,8.219s1.37,3.653.761,4.414c0,0-4.718-3.044-4.414-4.414,0,0-10.959-1.522-10.959-3.5a3.475,3.475,0,0,1,1.522-2.892,12.788,12.788,0,0,1,.609-2.74s-1.674-3.5-.152-6.393c0,0-1.37-3.957.457-4.871a7.266,7.266,0,0,1,4.11-.457s-2.131,1.37-.761,2.131Z"/>
    <path id="Path_133" data-name="Path 133" class="cls-8" d="M17.748,32.268a3.805,3.805,0,1,0-3.805-3.805A3.805,3.805,0,0,0,17.748,32.268Z"/>
    <path id="Path_134" data-name="Path 134" class="cls-5" d="M18.053,28.387c2.312,0,4.186-.988,4.186-2.207s-1.874-2.207-4.186-2.207-4.186.988-4.186,2.207S15.741,28.387,18.053,28.387Z"/>
    <path id="Path_135" data-name="Path 135" class="cls-5" d="M13.106,23.364a1.218,1.218,0,1,0-1.218-1.218A1.218,1.218,0,0,0,13.106,23.364Z"/>
    <path id="Path_136" data-name="Path 136" class="cls-5" d="M22.238,23.364a1.218,1.218,0,1,0-1.218-1.218A1.218,1.218,0,0,0,22.238,23.364Z"/>
    <path id="Path_137" data-name="Path 137" class="cls-11" d="M.473,99.924H130.035"/>
    <path id="Path_138" data-name="Path 138" class="cls-11" d="M83.121.076H29.544V45.015H83.121Z"/>
    <path id="Path_139" data-name="Path 139" class="cls-10" d="M56.333,14.88V12.006l-3.764,3.833,3.764,3.833V16.8a5.715,5.715,0,0,1,5.646,5.749,5.79,5.79,0,0,1-.659,2.683l1.365,1.389A7.66,7.66,0,0,0,56.333,14.88Zm0,13.414a5.715,5.715,0,0,1-5.646-5.749,5.793,5.793,0,0,1,.659-2.683l-1.364-1.389A7.486,7.486,0,0,0,48.8,22.545a7.62,7.62,0,0,0,7.528,7.665v2.874L60.1,29.253,56.333,25.42Z"/>
    <path id="Path_140" data-name="Path 140" class="cls-12" d="M123.249,81.022a3.168,3.168,0,1,0,.422-6.075l.079,1.63-.771-1.4a3.167,3.167,0,0,0,.27,5.842Z"/>
    <path id="Path_141" data-name="Path 141" class="cls-11" d="M127.066,99.933c-.272-1.387.908-2.616,2.073-3.415s2.528-1.584,2.925-2.94c.572-1.949-1.131-3.734-2.456-5.273a19.088,19.088,0,0,1-2.515-3.738,5.147,5.147,0,0,1-.6-1.7,5.867,5.867,0,0,1,.452-2.548q1.4-4.117,2.988-8.166"/>
    <path id="Path_142" data-name="Path 142" class="cls-11" d="M123.379,80.6a3.168,3.168,0,1,0,.422-6.075l.08,1.63-.772-1.4a3.156,3.156,0,0,0-1.626,1.784,3.1,3.1,0,0,0-.182.857,3.168,3.168,0,0,0,2.078,3.2Z"/>
    <path id="Path_143" data-name="Path 143" class="cls-12" d="M126.679,71.591a3.163,3.163,0,0,1,2.28-2.009l.261,1.55L129.7,69.5a3.167,3.167,0,1,1-3.024,2.087Z"/>
    <path id="Path_144" data-name="Path 144" class="cls-11" d="M126.853,71.031a3.163,3.163,0,0,1,2.28-2.009l.261,1.55.483-1.628a3.168,3.168,0,1,1-3.024,2.087Z"/>
    <path id="Path_145" data-name="Path 145" class="cls-12" d="M129.052,88.336a3.168,3.168,0,0,0,2.8-5.635l-.372,1.251-.263-1.568-.009,0a3.168,3.168,0,0,0-2.16,5.955Z"/>
    <path id="Path_146" data-name="Path 146" class="cls-11" d="M129.2,87.769a3.167,3.167,0,0,0,2.8-5.635l-.371,1.251-.264-1.568-.008,0a3.168,3.168,0,0,0-2.16,5.955Z"/>
    <path id="Path_147" data-name="Path 147" class="cls-12" d="M125.754,93.6a3.167,3.167,0,1,0,.611-2.48l1.411,2.124-1.928-1.128a3.135,3.135,0,0,0-.094,1.484Z"/>
    <path id="Path_148" data-name="Path 148" class="cls-11" d="M125.885,93.177a3.165,3.165,0,1,0,.61-2.48l1.412,2.124-1.929-1.128A3.147,3.147,0,0,0,125.885,93.177Z"/>
  </g>
</svg>
