<svg xmlns="http://www.w3.org/2000/svg" xmlns:xlink="http://www.w3.org/1999/xlink" width="114.875" height="100" viewBox="0 0 114.875 100">
  <defs>
    <clipPath id="clip-path">
      <rect id="Rectangle_7" data-name="Rectangle 7" width="114.875" height="100" transform="translate(96.563 69)" fill="#fff"/>
    </clipPath>
  </defs>
  <g id="Group_12" data-name="Group 12" transform="translate(-96.563 -69)" clip-path="url(#clip-path)">
    <rect id="Rectangle_6" data-name="Rectangle 6" width="114.875" height="100" transform="translate(96.563 69)" fill="#fff"/>
    <path id="Path_25" data-name="Path 25" d="M148.273,169c17.486,0,31.662-.712,31.662-1.591s-14.176-1.591-31.662-1.591-31.663.712-31.663,1.591S130.786,169,148.273,169Z" fill="#e6e6e6"/>
    <path id="Path_26" data-name="Path 26" d="M112.275,100.425A15.713,15.713,0,1,0,96.563,84.712,15.712,15.712,0,0,0,112.275,100.425Z" fill="#e6e6e6"/>
    <path id="Path_27" data-name="Path 27" d="M112.275,97.806A13.094,13.094,0,1,0,99.182,84.712,13.094,13.094,0,0,0,112.275,97.806Z" fill="#fa3d7f"/>
    <path id="Path_28" data-name="Path 28" d="M154,100.425a15.713,15.713,0,1,0-15.713-15.713A15.713,15.713,0,0,0,154,100.425Z" fill="#e6e6e6"/>
    <path id="Path_29" data-name="Path 29" d="M154,97.806a13.094,13.094,0,1,0-13.094-13.094A13.094,13.094,0,0,0,154,97.806Z" fill="#fff"/>
    <path id="Path_30" data-name="Path 30" d="M195.725,100.425a15.713,15.713,0,1,0-15.712-15.713A15.713,15.713,0,0,0,195.725,100.425Z" fill="#e6e6e6"/>
    <path id="Path_31" data-name="Path 31" d="M195.726,97.806a13.094,13.094,0,1,0-13.094-13.094A13.093,13.093,0,0,0,195.726,97.806Z" fill="#fff"/>
    <path id="Path_32" data-name="Path 32" d="M111.061,90.092l-3.815-4.9,2.218-1.726,1.807,2.322,6.1-6.441,2.04,1.933Z" fill="#fff"/>
    <path id="Path_33" data-name="Path 33" d="M140.118,87.916c-1.032-2.492-1.2-4.844.255-6.934a5.246,5.246,0,0,1,5.6-5.042l.949.064a5.224,5.224,0,0,1,4.5,3.244c1.769,4.386,1.824,10.216,1.383,16.464H139.831C140.6,92.791,141,90.048,140.118,87.916Z" fill="#2f2e41"/>
    <path id="Path_34" data-name="Path 34" d="M123.366,95.563l-3.428-1.54a2.612,2.612,0,1,1,3.1-4.032l1.584,1.944L132,98.483l4.907-3.275,2.225,3.771-7.961,4.809Z" fill="#9f616a"/>
    <path id="Path_35" data-name="Path 35" d="M138.775,100.089l-2.707-5.179,10.538-4.694.092.991a5.251,5.251,0,0,1-2.167,4.747Z" fill="#fa3d7f"/>
    <path id="Path_36" data-name="Path 36" d="M152.431,89.907,141.683,98.8l-.618-.865,2.965-5.312,1.359-.618c.326-1.379-.505-3.229-1.606-5.188l5.189-.741C149.222,87.76,150.363,89.042,152.431,89.907Z" fill="#9f616a"/>
    <path id="Path_37" data-name="Path 37" d="M165.4,151.3l-1.792,2.656-14.268-8.091,1.976-9.76Z" fill="#2f2e41"/>
    <path id="Path_38" data-name="Path 38" d="M146.563,163.967l-2.9-1.3-.741-33.972-2.779-18.469,10.809-2.039,2.224,4.818C158.636,120.5,150.67,143.468,146.563,163.967Z" fill="#2f2e41"/>
    <path id="Path_39" data-name="Path 39" d="M146.8,163.506l.6,1.3a1.722,1.722,0,0,1-1.321,2.424l-7.876,1.125a1.618,1.618,0,0,1-1.042-3l6.616-3.312Z" fill="#2f2e41"/>
    <path id="Path_40" data-name="Path 40" d="M165.034,150.8l1.423-.1a1.722,1.722,0,0,1,1.808,2.086l-1.7,7.772a1.619,1.619,0,0,1-3.177-.074l-.787-7.357Z" fill="#2f2e41"/>
    <path id="Path_41" data-name="Path 41" d="M145.636,88.548a4.941,4.941,0,1,0-4.942-4.941A4.941,4.941,0,0,0,145.636,88.548Z" fill="#9f616a"/>
    <path id="Path_42" data-name="Path 42" d="M150.7,108.931l-10.748,2.224-.247-7.165c-1.556-1.648,2.074-8.247,3.336-11.365l1.606-.494-2.718,4.941,9.512-7.783,1.853.494.495,9.018Z" fill="#fa3d7f"/>
    <path id="Path_43" data-name="Path 43" d="M151.442,113.255l-2.331,2.948a2.612,2.612,0,1,1-3.153-3.988l2.272-1.06,8.154-5.559-1.977-5.559,4.2-1.236,2.718,8.895Z" fill="#9f616a"/>
    <path id="Path_44" data-name="Path 44" d="M151.875,94.725h-8.953a5.706,5.706,0,0,1,3.7-4.328c1.8-3.437,2.567-6.555,0-8.638-2.931-.675-4.067-1.9-3.7-3.588l5.248-.865C152.486,81.15,152.535,87.711,151.875,94.725Z" fill="#2f2e41"/>
    <path id="Path_45" data-name="Path 45" d="M159.6,99.419l-5.683,1.359-1.976-11.365.982.154a5.253,5.253,0,0,1,4.075,3.26Z" fill="#fa3d7f"/>
  </g>
</svg>
