<svg width="24" height="24" viewBox="0 0 24 24" fill="none" xmlns="http://www.w3.org/2000/svg" data-reactroot="">
<path fill="#ffffff" d="M6 7.12132V22L12 16L18 22V19.1213L6 7.12132ZM18 14.8787V3C18 2.45 17.55 2 17 2H7C6.48878 2 6.06396 2.38878 6.00659 2.88527L18 14.8787Z" clip-rule="evenodd" fill-rule="evenodd" undefined="1"></path>
<path fill="#ffffff" d="M2.46967 1.46967C2.76256 1.17678 3.23744 1.17678 3.53033 1.46967L21.5303 19.4697C21.8232 19.7626 21.8232 20.2374 21.5303 20.5303C21.2374 20.8232 20.7626 20.8232 20.4697 20.5303L2.46967 2.53033C2.17678 2.23744 2.17678 1.76256 2.46967 1.46967Z" clip-rule="evenodd" fill-rule="evenodd" undefined="1"></path>
</svg>
