<svg xmlns="http://www.w3.org/2000/svg" width="55" height="55" viewBox="0 0 55 55">
  <defs>
    <filter id="Ellipse_1" x="0" y="0" width="55" height="55">
      <feOffset/>
      <feGaussianBlur stdDeviation="10" result="blur"/>
      <feFlood flood-opacity="0.063"/>
      <feComposite operator="in" in2="blur"/>
      <feComposite in="SourceGraphic"/>
    </filter>
  </defs>
  <g id="Gruppe_82" transform="translate(-8 -190)">
    <g transform="matrix(1, 0, 0, 1, 8, 190)" filter="url(#Ellipse_1)">
      <circle id="Ellipse_1-2" cx="27.5" cy="27.5" r="27.5" fill="#1e2331"/>
    </g>
    <g id="Avatar_7" transform="translate(9.427 191.427)">
      <path id="Pfad_336" d="M470.81,434.361s-3.361-7.945-15.53-8.929l.3,2.171-.621.69-2.551.391-2.275-1.08-1.123-.988V425.5c-12.151,1.16-15.012,7.816-15.012,7.816s4.167,4.862,8.334,6.251c.506.169.955.322,1.363.461a18.287,18.287,0,0,0,8.013,1.275,27.812,27.812,0,0,0,12.5-2.431A30.187,30.187,0,0,0,470.81,434.361Z" transform="translate(-426.707 -389.564)" fill="#ffcc12" fill-rule="evenodd"/>
      <path id="Pfad_337" d="M429.4,176.045a25.35,25.35,0,1,1-25.35-25.35A25.35,25.35,0,0,1,429.4,176.045Zm.694,0A26.045,26.045,0,1,1,404.045,150,26.045,26.045,0,0,1,430.09,176.045ZM413.5,170.312l2.009-2.254c3.426-1.65.616-3.646-1.546-5.182-.334-.237-.653-.464-.931-.676-2.051-6.153-6.959-1.953-9.156.916-1.139-.506-3.77,1.045-5.371,1.989-.253.149-.481.283-.672.392-4.394,5.712-.821,11.9,2.047,14.714v7.1l.114.1a7.53,7.53,0,0,0,3.457,2.12,4.815,4.815,0,0,0,3.566-1.046l.176-.116-.667-6.334a4.858,4.858,0,0,0,3.874-.762,6.857,6.857,0,0,0,2.268-3.5A23.324,23.324,0,0,0,413.5,170.312Zm-6.568-1.212a18.183,18.183,0,0,1,3.368,1,10.921,10.921,0,0,0,2.516.732,21.87,21.87,0,0,1-.807,6.735,6.178,6.178,0,0,1-2.019,3.156,4.353,4.353,0,0,1-3.777.547l-.478-.115.724,6.875a3.967,3.967,0,0,1-2.882.828,6.662,6.662,0,0,1-3-1.848v-6.618l.7.174c-.443-.886-.4-3.136-.363-4.818.008-.4.016-.774.016-1.086,0-1.446,1.247-.84,1.988-.48.085.041.163.079.232.111-.977-.733-2.681-3.616.733-4.944a4.844,4.844,0,0,1,.844-.242Z" transform="translate(-378 -150)" fill="#fff" fill-rule="evenodd"/>
    </g>
  </g>
</svg>
