<svg xmlns="http://www.w3.org/2000/svg" xmlns:xlink="http://www.w3.org/1999/xlink" >
  <g id="Group_82" data-name="Group 82" transform="translate(-8 -190)">
    <g transform="matrix(1, 0, 0, 1, 8, 190)" filter="url(#Ellipse_1)">
      <circle id="Ellipse_1-2" data-name="Ellipse 1" cx="38.5" cy="38.5" r="38.5" transform="translate(30 30)" fill="#1e2331"/>
    </g>
    <g id="Avatar_7" data-name="Avatar 7" transform="translate(-338 72)">
      <path id="Path_336" data-name="Path 336" d="M485.587,437.946s-4.71-11.134-21.764-12.514l.423,3.043-.87.966-3.575.547-3.189-1.514-1.573-1.385v-1.558C438.01,427.159,434,436.486,434,436.486s5.84,6.813,11.68,8.76c.709.236,1.338.451,1.91.646,4.141,1.412,5.243,1.787,11.23,1.787,6.813,0,11.55-.758,17.52-3.407A42.305,42.305,0,0,0,485.587,437.946Z" transform="translate(-45.78 -225.166)" fill="#ffcc12" fill-rule="evenodd"/>
      <path id="Path_337" data-name="Path 337" d="M450.027,186.5A35.527,35.527,0,1,1,414.5,150.973,35.527,35.527,0,0,1,450.027,186.5Zm.973,0A36.5,36.5,0,1,1,414.5,150,36.5,36.5,0,0,1,451,186.5Zm-23.255-8.035,2.816-3.159c4.8-2.312.864-5.109-2.166-7.262-.468-.333-.915-.65-1.3-.948-2.874-8.623-9.752-2.738-12.832,1.283-1.6-.709-5.283,1.465-7.527,2.787-.355.209-.674.4-.942.549-6.158,8.005-1.151,16.684,2.869,20.62v9.952l.159.145c1.8,1.634,3.288,2.687,4.844,2.971,1.589.29,3.136-.237,5-1.465l.247-.163-.934-8.877a6.808,6.808,0,0,0,5.43-1.067,9.609,9.609,0,0,0,3.178-4.906A32.687,32.687,0,0,0,427.745,178.465Zm-9.205-1.7a25.481,25.481,0,0,1,4.72,1.395,15.307,15.307,0,0,0,3.526,1.025,30.65,30.65,0,0,1-1.131,9.438,8.658,8.658,0,0,1-2.829,4.423,6.1,6.1,0,0,1-5.294.766l-.67-.161,1.014,9.634c-1.648,1.045-2.869,1.374-4.039,1.16-1.224-.224-2.5-1.055-4.205-2.59v-9.274l.976.244c-.621-1.242-.557-4.394-.509-6.752.012-.565.022-1.085.022-1.521,0-2.027,1.747-1.177,2.786-.673.119.058.228.111.325.155-1.369-1.027-3.757-5.067,1.027-6.929a6.791,6.791,0,0,1,1.182-.339Z" fill="#fff" fill-rule="evenodd"/>
    </g>
  </g>
</svg>
