<svg width="24" height="24" viewBox="0 0 24 24" xmlns="http://www.w3.org/2000/svg"><path fill-rule="evenodd" clip-rule="evenodd" d="M12 3C11.4477 3 11 3.44772 11 4V14.2458L8.46132 11.7071C8.0708 11.3166 7.43763 11.3166 7.04711 11.7071C6.65658 12.0976 6.65658 12.7308 7.04711 13.1213L11.2968 17.371C11.5951 17.6693 12.0363 17.7375 12.4 17.5755C12.513 17.5268 12.619 17.4563 12.7113 17.364L16.954 13.1213C17.3445 12.7308 17.3445 12.0976 16.954 11.7071C16.5634 11.3166 15.9303 11.3166 15.5397 11.7071L13 14.2469V4C13 3.44772 12.5523 3 12 3ZM3.6 13C3.26863 13 3 13.2686 3 13.6V20C3 20.5523 3.44772 21 4 21H20C20.5523 21 21 20.5523 21 20V13.6C21 13.2686 20.7314 13 20.4 13C20.0686 13 19.8 13.2686 19.8 13.6V19.3C19.8 19.5761 19.5761 19.8 19.3 19.8H4.7C4.42386 19.8 4.2 19.5761 4.2 19.3V13.6C4.2 13.2686 3.93137 13 3.6 13Z"></path></svg>
