<svg width="24" height="24" viewBox="0 0 24 24" fill="none" xmlns="http://www.w3.org/2000/svg">
<path d="M6.25 17.7751C6.75 18.2751 6.75 19.0501 6.25 19.5501L4.125 20.2501L3.75 19.8751L4.45 17.7501C4.975 17.2751 5.75 17.2751 6.25 17.7751ZM16.075 4.7251L3.575 17.2501L2 22.0001L6.775 20.4251L19.275 7.9251" fill="#333333"/>
<path d="M16.075 4.7251L3.575 17.2501L2 22.0001L6.775 20.4251L19.275 7.9251M6.25 17.7751C6.75 18.2751 6.75 19.0501 6.25 19.5501L4.125 20.2501L3.75 19.8751L4.45 17.7501C4.975 17.2751 5.75 17.2751 6.25 17.7751Z" stroke="#404040"/>
<path d="M21.725 4.0501L19.95 2.2751C19.55 1.8751 18.925 1.8751 18.525 2.2751L16.775 4.0251L19.95 7.2001L21.7 5.4501C22.125 5.0751 22.125 4.4501 21.725 4.0501Z" fill="#333333" stroke="#404040"/>
</svg>
