<svg id="email-filled" xmlns="http://www.w3.org/2000/svg" width="32" height="32" viewBox="0 0 32 32">
  <rect id="Rectangle_103" data-name="Rectangle 103" width="32" height="32" fill="none"/>
  <path id="Path_362" data-name="Path 362" d="M5.985,4A3.985,3.985,0,0,0,2,7.985V21.27a3.985,3.985,0,0,0,3.985,3.985h18.6a3.985,3.985,0,0,0,3.985-3.985V7.985A3.985,3.985,0,0,0,24.584,4Zm18.6,6.642V8.876l-7.769,5.471a2.657,2.657,0,0,1-3.06,0L5.985,8.876v1.766l6.983,4.988a3.985,3.985,0,0,0,4.633,0Z" transform="translate(0.657 1.314)" fill="#fff" fill-rule="evenodd"/>
</svg>
