<svg width="25" height="25" viewBox="0 0 25 25" fill="none" xmlns="http://www.w3.org/2000/svg">
<path d="M7.55212 6.77084C7.99483 6.77084 8.33337 6.4323 8.33337 5.98959V4.42709C8.33337 3.98439 7.99483 3.64584 7.55212 3.64584C7.10942 3.64584 6.77087 3.98439 6.77087 4.42709V5.98959C6.77087 6.4323 7.10942 6.77084 7.55212 6.77084Z" fill="#828282"/>
<path d="M5.20837 11.4583H19.7917V19.7917H5.20837V11.4583ZM3.64587 21.3542H21.3542V9.89584H3.64587V21.3542Z" fill="#828282"/>
<path d="M17.448 6.77084C17.8907 6.77084 18.2292 6.4323 18.2292 5.98959V4.42709C18.2292 3.98439 17.8907 3.64584 17.448 3.64584C17.0053 3.64584 16.6667 3.98439 16.6667 4.42709V5.98959C16.6667 6.4323 17.0053 6.77084 17.448 6.77084Z" fill="#828282"/>
<path d="M19.2709 5.20834V5.98959C19.2709 7.00522 18.4636 7.81251 17.448 7.81251C16.4323 7.81251 15.625 7.00522 15.625 5.98959V5.20834H9.37504V5.98959C9.37504 7.00522 8.56775 7.81251 7.55212 7.81251C6.5365 7.81251 5.72921 7.00522 5.72921 5.98959V5.20834H3.64587V8.85418H21.3542V5.20834H19.2709Z" fill="#828282"/>
</svg>
