<svg xmlns="http://www.w3.org/2000/svg" width="36.885" height="29.505" viewBox="0 0 36.885 29.505">
  <path id="Icon_awesome-hands-helping" data-name="Icon awesome-hands-helping" d="M28.124,11.066h-8.76v3.227a4.15,4.15,0,1,1-8.3,0V7.285L7.325,9.533a3.681,3.681,0,0,0-1.792,3.158v2.726L.922,18.079A1.84,1.84,0,0,0,.248,20.6l4.611,7.988a1.845,1.845,0,0,0,2.519.674l5.959-3.441h7.873A3.692,3.692,0,0,0,24.9,22.131h.922a1.842,1.842,0,0,0,1.844-1.844V16.6h.461a1.38,1.38,0,0,0,1.383-1.383V12.449A1.38,1.38,0,0,0,28.124,11.066ZM36.636,8.91,32.026.922A1.845,1.845,0,0,0,29.507.248L23.548,3.689h-5.89a3.716,3.716,0,0,0-1.954.559l-1.931,1.2a1.832,1.832,0,0,0-.864,1.562v7.279a2.305,2.305,0,1,0,4.611,0V9.221h10.6a3.229,3.229,0,0,1,3.227,3.227v1.643l4.611-2.663A1.846,1.846,0,0,0,36.636,8.91Z" transform="translate(0.002 -0.002)" fill="#fff"/>
</svg>
