<svg width="24" height="24" viewBox="0 0 24 24" fill="none" xmlns="http://www.w3.org/2000/svg">
<path d="M13.5 1.75H10.5V12.75H13.5V1.75Z" fill="white"/>
<path d="M17.45 4.9751L15.725 7.4251C17.4 8.6001 18.5 10.5501 18.5 12.7501C18.5 16.3251 15.575 19.2501 12 19.2501C8.425 19.2501 5.5 16.3251 5.5 12.7501C5.5 10.5501 6.6 8.6001 8.275 7.4251L6.55 4.9751C4.1 6.6751 2.5 9.5251 2.5 12.7501C2.5 18.0001 6.75 22.2501 12 22.2501C17.25 22.2501 21.5 18.0001 21.5 12.7501C21.5 9.5251 19.9 6.6751 17.45 4.9751Z" fill="white"/>
</svg>
