<svg width="36" height="36" viewBox="0 0 36 36" fill="none" xmlns="http://www.w3.org/2000/svg">
<path d="M29.925 13.875C29.2875 11.925 27.7125 8.13751 25.0125 7.12501C21.9375 6.00001 19.2375 8.55001 18.4875 9.33751C18.975 8.32501 19.95 5.66251 17.5125 3.75001C15.9375 2.51251 12.5625 2.81251 10.65 3.11251C10.275 3.18751 10.2 3.67501 10.575 3.82501C11.925 4.35001 14.1 5.43751 16.125 7.31251C14.5875 6.15001 12.45 5.36251 10.0125 6.71251C8.36253 7.65001 6.90003 10.1625 6.11253 11.7375C5.92503 12.075 6.33753 12.4125 6.63753 12.225C7.87503 11.4 10.05 10.1625 12.7125 9.71251C11.85 10.125 11.025 10.8 10.3875 11.9625C9.48753 13.575 9.56253 16.05 9.75003 17.625C9.78753 18 10.3125 18.075 10.4625 17.7375C10.95 16.575 11.8875 14.85 13.4625 13.35C13.3875 13.5 13.35 13.6875 13.35 13.875C13.35 14.7 14.025 15.375 14.85 15.375C15.1875 15.375 15.525 15.2625 15.7875 15.0375C14.4 21.525 14.2875 30.45 14.2875 33C14.2875 33.4125 14.625 33.75 15.0375 33.75H17.5125C17.9625 33.75 18.3375 33.3375 18.2625 32.85C17.4375 28.35 16.725 21.6 18.1125 14.9625C18.375 15.4125 18.8625 15.7125 19.425 15.7125C20.25 15.7125 20.925 15.0375 20.925 14.2125C20.925 14.1 20.925 14.025 20.8875 13.9125C22.5 16.2375 22.725 18.375 23.2125 19.4625C23.3625 19.7625 23.775 19.7625 23.8875 19.4625C24.45 18.15 25.35 15.375 24.2625 12.7125C23.7375 11.4 22.65 10.6125 21.4875 10.125C24.8625 11.1375 27.9 13.1625 29.3625 14.25C29.625 14.5125 30.0375 14.2125 29.925 13.875Z" fill="white"/>
</svg>
