<svg width="36" height="36" viewBox="0 0 36 36" fill="none" xmlns="http://www.w3.org/2000/svg">
<path d="M14.25 24H21.75C22.3875 24 22.875 24.4875 22.875 25.125C22.875 25.7625 22.3875 26.25 21.75 26.25H14.25C13.6125 26.25 13.125 25.7625 13.125 25.125C13.125 24.4875 13.6125 24 14.25 24Z" fill="#4F4F4F"/>
<path d="M14.25 27.75H21.75C22.3875 27.75 22.875 28.2375 22.875 28.875C22.875 29.5125 22.3875 30 21.75 30H14.25C13.6125 30 13.125 29.5125 13.125 28.875C13.125 28.2375 13.6125 27.75 14.25 27.75Z" fill="#4F4F4F"/>
<path d="M15.5625 31.5C15.675 32.775 16.725 33.75 18 33.75C19.275 33.75 20.325 32.775 20.4375 31.5H15.5625Z" fill="#4F4F4F"/>
<path d="M18 2.25C12.675 2.2875 8.3625 6.5625 8.25 11.8875V12.225C8.2875 13.3875 8.5125 14.5125 8.925 15.6C9.3375 16.6125 9.9 17.55 10.6125 18.375C11.5125 19.35 12.4875 21.2625 12.9 22.0875C13.0125 22.35 13.275 22.5 13.575 22.5H22.425C22.725 22.5 22.9875 22.35 23.1 22.0875C23.5125 21.2625 24.4875 19.35 25.3875 18.375C26.1 17.55 26.7 16.6125 27.075 15.6C27.4875 14.5125 27.7125 13.3875 27.75 12.225V11.8875C27.6375 6.5625 23.325 2.2875 18 2.25ZM25.5 12.1875C25.4625 13.0875 25.275 13.9875 24.975 14.8125C24.675 15.5625 24.2625 16.275 23.7 16.875C22.8375 17.925 22.0875 19.05 21.525 20.25H18H14.5125C13.9125 19.05 13.1625 17.925 12.3375 16.875C11.8125 16.275 11.3625 15.5625 11.0625 14.8125C10.725 13.9875 10.575 13.0875 10.5375 12.1875V11.8875C10.6125 7.8 13.95 4.5 18.0375 4.4625C22.125 4.5 25.4625 7.7625 25.5375 11.8875V12.1875H25.5Z" fill="#4F4F4F"/>
</svg>
