<svg xmlns="http://www.w3.org/2000/svg" width="40.765" height="28.475" viewBox="0 0 40.765 28.475" fill="none">
  <path d="M10.877,8.571H3.758A1.19,1.19,0,0,0,2.571,9.758v26.1a1.19,1.19,0,0,0,1.186,1.186h7.119a1.19,1.19,0,0,0,1.186-1.186V9.758a1.19,1.19,0,0,0-1.186-1.186ZM9.69,15.69H4.944V13.317H9.69V15.69ZM22.742,8.571H15.623a1.19,1.19,0,0,0-1.186,1.186v26.1a1.19,1.19,0,0,0,1.186,1.186h7.119a1.19,1.19,0,0,0,1.186-1.186V9.758a1.19,1.19,0,0,0-1.186-1.186ZM21.555,15.69H16.809V13.317h4.746Zm9.384-5.284-6.357,3.2a1.19,1.19,0,0,0-.526,1.593L34.733,36.394a1.19,1.19,0,0,0,1.593.526l6.357-3.2a1.19,1.19,0,0,0,.526-1.593L32.532,10.932a1.19,1.19,0,0,0-1.593-.526Zm4.854,26.641Z" transform="translate(-2.571 -8.571)" fill="white"/>
</svg>
