<svg width="24" height="24" viewBox="0 0 24 24" fill="none" xmlns="http://www.w3.org/2000/svg">
<path d="M12 2C6.47368 2 2 6.47368 2 12C2 17.5263 6.47368 22 12 22C17.5263 22 22 17.5263 22 12C22 6.47368 17.5263 2 12 2ZM12 19.3684C11.2632 19.3684 10.6842 18.7895 10.6842 18.0526C10.6842 17.3158 11.2632 16.7368 12 16.7368C12.7368 16.7368 13.3158 17.3158 13.3158 18.0526C13.3158 18.7895 12.7368 19.3684 12 19.3684ZM12.7895 13.2632C12.7895 13.9474 12.7895 15.6842 12.7895 15.6842H11.2105V11.7368H12C13.7632 11.7368 14.8947 10.7105 14.8947 9.10526C14.8947 7.44737 13.6579 6.21053 12 6.21053C10.1842 6.21053 9.10526 7.28947 9.10526 9.10526H7.52632C7.52632 6.42105 9.31579 4.63158 12 4.63158C14.5 4.63158 16.4737 6.60526 16.4737 9.10526C16.4737 11.3421 15 12.9474 12.7895 13.2632Z" fill="white"/>
</svg>
