<svg width="24" height="24" viewBox="0 0 24 24" fill="none" xmlns="http://www.w3.org/2000/svg">
<path d="M6.28568 10.0477C7.46915 10.0477 8.42854 9.08829 8.42854 7.90482C8.42854 6.72135 7.46915 5.76196 6.28568 5.76196C5.10221 5.76196 4.14282 6.72135 4.14282 7.90482C4.14282 9.08829 5.10221 10.0477 6.28568 10.0477Z" fill="white"/>
<path d="M17.7143 10.0477C18.8977 10.0477 19.8571 9.08829 19.8571 7.90482C19.8571 6.72135 18.8977 5.76196 17.7143 5.76196C16.5308 5.76196 15.5714 6.72135 15.5714 7.90482C15.5714 9.08829 16.5308 10.0477 17.7143 10.0477Z" fill="white"/>
<path d="M16.2857 18.2384V16.0955C16.2857 15.7622 16.1429 15.4288 15.8571 15.2384C15.2857 14.7622 14.5238 14.4288 13.7619 14.2384C13.2381 14.0955 12.619 13.9526 12 13.9526C11.4286 13.9526 10.8095 14.0479 10.2381 14.2384C9.47617 14.4288 8.76188 14.8098 8.14284 15.2384C7.85712 15.4764 7.71426 15.7622 7.71426 16.0955V18.2384H16.2857Z" fill="white"/>
<path d="M12 13.3809C13.1834 13.3809 14.1428 12.4215 14.1428 11.2381C14.1428 10.0546 13.1834 9.09521 12 9.09521C10.8165 9.09521 9.85712 10.0546 9.85712 11.2381C9.85712 12.4215 10.8165 13.3809 12 13.3809Z" fill="white"/>
<path d="M21.5714 11.9049C21 11.4287 20.2381 11.0953 19.4762 10.9049C18.9524 10.762 18.3333 10.6191 17.7143 10.6191C17.1428 10.6191 16.5238 10.7144 15.9524 10.9049C15.6666 11.0001 15.3809 11.0953 15.0952 11.2382V11.2858C15.0952 12.0953 14.7619 12.8572 14.2381 13.3811C15.1428 13.6668 15.8571 14.0477 16.4285 14.4763C16.5714 14.6191 16.7143 14.7144 16.8095 14.9049H22V12.762C22 12.4287 21.8571 12.0953 21.5714 11.9049Z" fill="white"/>
<path d="M7.57141 14.4763C8.23808 14.0001 8.99999 13.6191 9.76189 13.3811C9.23808 12.8096 8.90475 12.0953 8.90475 11.2858C8.90475 11.2382 8.90475 11.2382 8.90475 11.1906C8.61903 11.0953 8.33332 10.9525 8.0476 10.9049C7.52379 10.762 6.90474 10.6191 6.2857 10.6191C5.71427 10.6191 5.09522 10.7144 4.52379 10.9049C3.76188 11.143 3.04759 11.4763 2.42854 11.9049C2.14283 12.0953 1.99997 12.4287 1.99997 12.762V14.9049H7.14284C7.2857 14.7144 7.38094 14.6191 7.57141 14.4763Z" fill="white"/>
</svg>
