<svg width="36" height="36" viewBox="0 0 36 36" fill="none" xmlns="http://www.w3.org/2000/svg">
<path d="M33.975 13.6125L32.025 12.9V8.81252L33.975 7.98752L20.775 3.11252L4.72502 8.73752C3.18752 9.48752 3.15002 11.55 3.15002 13.2375C3.15002 13.8 3.22502 14.3625 3.33752 14.8875C2.06252 15.7125 2.02502 17.625 2.02502 19.2375C2.02502 20.55 2.32502 21.75 3.15002 22.5C2.96252 23.1375 3.07502 23.925 3.07502 24.8625C3.07502 26.55 3.52502 28.0875 5.02502 28.6125L15.45 32.925L33.9 25.275L31.95 24.5625V20.4375L33.9 19.6125L30.9 18.4875V14.8875L33.975 13.6125ZM5.17502 11.3625L15.6 15.45L30.5625 9.41252V12.6375L15.6 18.8625L5.17502 14.7375V11.3625ZM30.4875 24.3L15.525 30.4875L5.06252 26.3625V23.4375L14.4 27.2625L30.525 20.8875L30.4875 24.3ZM29.4375 18.675L14.475 24.8625L4.05002 20.7375V17.3625L14.775 21.6375L29.475 15.4875V18.675H29.4375Z" fill="#4F4F4F"/>
</svg>
