<?xml version="1.0" encoding="UTF-8" standalone="no"?>
<svg
   xmlns="http://www.w3.org/2000/svg"
   width="36"
   height="36"
   viewBox="0 0 36 36"
   fill="none"
   version="1.1"
   id="svg38"
>
  <metadata
     id="metadata44">
    image/svg+xml
  </metadata>
  <defs
     id="defs42" />
  <path
     d="M 5.75635,17.60926 H 7.48017 V 15.88558 H 5.75635 Z"
     fill="#f4cc54"
     id="path10"
     style="stroke-width:0.0239999" />
  <path
     d="M 6.44128,23.88885 H 4.54046 v 1.90081 h 1.90082 z"
     fill="#f4cc54"
     id="path12"
     style="stroke-width:0.0239999" />
  <path
     d="m 15.35278,26.39014 h -3.1629 v -3.16296 h 3.1629 z"
     fill="#f4cc54"
     id="path14"
     style="stroke-width:0.0239999" />
  <path
     d="m 9.58101,28.67565 h 1.89314 V 26.78253 H 9.58101 Z"
     fill="#f4cc54"
     id="path16"
     style="stroke-width:0.0239999" />
  <path
     d="M 3.63235,13.33055 H 5.44852 V 11.51447 H 3.63235 v 1.81608"
     fill="#3d5572"
     id="path18"
     style="stroke-width:0.0239999" />
  <path
     d="M 2.64732,16.91662 H 4.54044 V 15.0235 H 2.64732 Z"
     fill="#3d5572"
     id="path20"
     style="stroke-width:0.0239999" />
  <path
     d="m 3.35532,21.82654 h 2.832 v -2.832 h -2.832 v 2.832"
     fill="#3d5572"
     id="path22"
     style="stroke-width:0.0239999" />
  <path
     d="m 0,24.29686 h 2.64729 v 2.6472 H 0 Z"
     fill="#3d5572"
     id="path24"
     style="stroke-width:0.0239999" />
  <path
     d="M 10.13509,19.94878 H 7.8726 v 2.26248 h 2.26249 z"
     fill="#3d5572"
     id="path26"
     style="stroke-width:0.0239999" />
  <path
     d="m 4.54046,27.3751 h 2.57035 v 2.57039 H 4.54046 Z"
     fill="#3d5572"
     id="path28"
     style="stroke-width:0.0239999" />
  <path
     d="M 10.04279,24.12742 H 8.38053 v 1.66224 h 1.66226 z"
     fill="#3d5572"
     id="path30"
     style="stroke-width:0.0239999" />
  <path
     d="m 35.33109,19.5247 v 0.006 c -0.006,0.005 -0.006,0.005 -0.0103,0.0103 -0.30072,1.18656 -1.0416,2.18664 -2.10912,2.82912 -1.7928,1.08312 -4.06248,0.91728 -4.76711,0.63744 -0.63745,-0.24864 -1.14001,-0.65809 -1.53384,-1.13472 -0.005,-0.006 -0.005,-0.006 -0.0103,-0.006 -0.31296,-0.41232 -0.57048,-0.86159 -0.75647,-1.34208 -0.0384,-0.1068 -0.0744,-0.21696 -0.1068,-0.32496 0.24864,0.44016 0.61223,0.80328 1.07039,1.0452 0.39384,0.20736 0.8136,0.31104 1.23864,0.31104 0.29016,0 0.57504,-0.0468 0.85488,-0.13992 l 0.0518,-0.0209 c 0.4248,-0.14496 0.79271,-0.38327 1.08287,-0.68904 l 0.75648,0.63216 0.84481,0.70464 0.2436,-1.07256 0.2124,-0.94824 c 0.12959,0.0259 0.26927,0.0362 0.40415,0.0362 0.28489,0 0.57001,-0.0465 0.84985,-0.13992 1.00007,-0.33336 1.66583,-1.20913 1.77551,-2.19744 0.0744,0.55151 0.0607,1.11528 -0.0605,1.66896 -0.0103,0.0465 -0.0206,0.0881 -0.031,0.13464 z m -9.43583,-1.97423 1.86,-0.62688 c 0.51815,-0.17113 1.07783,-0.1296 1.56503,0.12936 0.38329,0.20208 0.684,0.51311 0.87048,0.91728 0.0519,0.10895 0.0934,0.22271 0.1296,0.34199 0.0622,0.20737 0.0828,0.41977 0.0778,0.62185 -0.0106,0.27983 -0.0778,0.54407 -0.19704,0.78767 -0.0934,0.20209 -0.22272,0.38855 -0.38352,0.54912 -0.2124,0.21768 -0.47664,0.38352 -0.7824,0.4872 l -0.0465,0.0156 c -0.52344,0.17617 -1.07783,0.13464 -1.5648,-0.12456 -0.48719,-0.25392 -0.83951,-0.68903 -0.98976,-1.21752 z m 0.80304,-1.6632 c 0.20735,-0.19704 0.45072,-0.342 0.74615,-0.42504 1.31616,-0.36264 2.3628,0.33696 2.46121,0.40944 0.006,0 0.006,0.005 0.0103,0.005 0,0 0.44063,-1.25904 1.83431,-1.62696 0.17112,-0.0465 0.34224,-0.0778 0.5028,-0.0934 0.46968,-0.0425 0.90288,0.0413 1.29096,0.25079 l -1.57584,0.53184 c -0.912,0.30048 -1.55472,1.06224 -1.73592,1.94832 -0.1764,-0.17112 -0.37823,-0.31104 -0.60119,-0.43008 -0.65281,-0.34728 -1.39392,-0.40416 -2.09328,-0.17112 l -1.4172,0.47544 c 0.1404,-0.33672 0.32615,-0.64056 0.57768,-0.87431 z m 5.05199,3.94847 -0.22776,0.98449 -0.78768,-0.65809 c 0.13464,-0.24887 0.23328,-0.51816 0.28488,-0.80328 0.16584,0.15552 0.35233,0.29016 0.55969,0.39912 0.0569,0.031 0.11399,0.0569 0.17087,0.0778 z m -0.58536,-1.33176 c -0.10368,-0.16056 -0.18672,-0.342 -0.23832,-0.53375 -0.0259,-0.0934 -0.0468,-0.18649 -0.0571,-0.27984 -0.1296,-0.91704 0.40943,-1.81368 1.31111,-2.11417 l 1.94304,-0.65279 0.56495,1.96391 c 0.28993,1.01041 -0.26447,2.06233 -1.26455,2.39904 -0.29016,0.0984 -0.58536,0.12432 -0.88079,0.0828 -0.22273,-0.0257 -0.44041,-0.0984 -0.64249,-0.20208 0,-0.005 -0.006,-0.005 -0.006,-0.005 -0.30048,-0.16081 -0.54912,-0.38353 -0.73056,-0.65809 z m 3.92256,-3.14016 c -0.0725,-0.11927 -0.15024,-0.23327 -0.23304,-0.342 -0.21792,-0.30047 -0.46128,-0.57528 -0.73608,-0.80831 -0.13992,-0.12432 -0.28488,-0.23833 -0.44016,-0.342 -1.67375,-1.55976 -4.218,-2.25936 -4.218,-2.25936 0.33168,1.22808 -0.42504,1.7568 -0.42504,1.7568 -1.02072,-1.18152 -2.38343,-1.62721 -2.38343,-1.62721 0.13992,0.65305 0.10343,1.19185 -0.0156,1.63753 C 22.05023,9.28559 19.85327,0 19.85327,0 c 0,0 -0.51312,1.37328 -0.99504,3.43559 -0.13464,0.56472 -0.11376,1.15537 0.0778,1.70473 0.24863,0.72551 0.63744,1.55447 1.22807,2.37839 -0.0725,-0.0362 -0.92231,-0.50255 -1.76687,-1.78776 -0.083,0.52849 -0.19177,1.44576 -0.25392,2.04697 -0.0465,0.43511 0,0.87047 0.13463,1.29023 0.26425,0.82896 0.80833,2.1504 1.86025,3.51816 -0.10344,-0.0465 -1.17625,-0.57504 -2.10888,-1.83432 0.0571,1.7412 0.33168,3.49775 0.97416,5.08343 0.12432,0.31609 0.31079,0.59065 0.5388,0.83928 0.36288,0.38353 0.96911,0.96912 1.74119,1.4664 0.0984,0.0624 0.1968,0.1296 0.30577,0.19177 -1.34208,-0.29016 -2.6376,-1.00512 -3.18672,-1.31089 C 10.88363,12.86615 6.2512,4.43568 6.2512,4.43568 c 0,0 -1.05708,2.51832 -1.33692,5.7828 h 1.82928 v 4.37326 h 2.03119 v 4.06249 h 2.65816 v 3.28007 h 5.21285 v 2.394 c 0.26945,0.0465 1.13476,0.25368 1.82923,0.41448 -0.0156,0.031 -0.0312,0.0569 -0.0416,0.0881 -2.35776,6.0936 -10.07845,7.79328 -10.07845,7.79328 15.33252,3.11927 23.7426,-8.00063 23.7426,-8.00063 -2.75664,0.50783 -3.97943,-0.59593 -3.97943,-0.59593 0,0 2.95871,0.2592 5.36303,-1.18128 2.76191,-1.65815 3.18143,-5.15591 1.60632,-7.48247 z"
     fill="#3d5572"
     id="path32"
     style="stroke-width:0.0239999" />
  <path
     d="m 28.62069,19.58686 c -0.44039,0.11401 -0.88608,-0.14496 -1.00535,-0.58559 -0.11401,-0.44041 0.15024,-0.89112 0.59087,-1.00513 0.0778,-0.0206 0.16056,-0.0312 0.23833,-0.0259 -0.11929,0.0984 -0.17617,0.26423 -0.13464,0.42479 0.0569,0.21768 0.27984,0.34728 0.50256,0.29016 0.15551,-0.0413 0.26952,-0.1656 0.29543,-0.32112 0.0465,0.0675 0.0775,0.13992 0.0984,0.21768 0.11904,0.44041 -0.1452,0.89112 -0.5856,1.00512"
     fill="#3d5572"
     id="path34"
     style="stroke-width:0.0239999" />
  <path
     d="m 33.07701,18.21382 c -0.44064,0.11401 -0.89136,-0.15024 -1.00536,-0.5856 -0.11904,-0.44039 0.1452,-0.89136 0.5856,-1.00512 0.083,-0.0208 0.16583,-0.0312 0.24865,-0.0259 -0.12433,0.0931 -0.18649,0.25896 -0.14497,0.41951 0.0569,0.22296 0.28488,0.35256 0.50256,0.29544 0.15552,-0.0416 0.2748,-0.16583 0.30576,-0.32135 0.0415,0.0675 0.0724,0.13992 0.0931,0.21768 0.11424,0.44039 -0.15024,0.89135 -0.58536,1.00535"
     fill="#3d5572"
     id="path36"
     style="stroke-width:0.0239999" />
</svg>
