<svg width="36" height="36" viewBox="0 0 36 36" fill="none" xmlns="http://www.w3.org/2000/svg">
<g clip-path="url(#clip0)">
<path fill-rule="evenodd" clip-rule="evenodd" d="M8.74486 26.5818C7.46267 27.7968 6.204 32.5301 3.29165 29.8987C1.32918 28.145 2.53456 25.9744 5.32935 25.4231C8.41256 24.8266 6.52376 18.6082 6.15384 16.0112C5.56291 11.8511 0.275842 16.2705 -3.20617e-05 11.8058C-0.120727 9.66951 2.43111 7.35363 5.06915 10.9063C6.91563 13.4049 9.42358 9.64765 10.4879 8.14069C12.4253 5.36257 5.01586 4.68483 8.13668 0.954118C9.53643 -0.709006 12.6322 -0.451339 12.3594 3.76503C12.187 6.65403 16.5916 5.69832 18.0823 5.79514C22.0009 6.05437 24.5528 8.33589 25.0089 4.24289C25.6171 -1.28837 33.4466 4.67077 28.7551 6.72898C24.3913 8.64041 27.5012 9.19166 29.0592 13.3627C30.6878 17.7478 28.7661 21.0537 32.8211 20.2557C38.7775 19.097 35.3071 29.1164 31.1377 23.6398C29.1893 21.0818 26.8334 25.4231 25.1186 27.1721C21.4053 30.9513 28.8429 31.4791 25.824 35.0552C24.3255 36.8323 21.6765 36.1577 21.7407 32.4582C21.8066 28.9602 14.6182 29.602 10.0584 26.6662C9.42828 26.2555 9.35304 26.0977 8.74486 26.5818ZM21.5119 14.3669C21.3856 14.1718 21.338 13.9364 21.3786 13.7079C21.3942 13.5932 21.4326 13.4829 21.4917 13.3833C21.5508 13.2837 21.6293 13.197 21.7226 13.1282C21.8159 13.0594 21.9221 13.0099 22.035 12.9827C22.1478 12.9555 22.265 12.9511 22.3796 12.9698C22.4941 12.9885 22.6038 13.0299 22.702 13.0915C22.8002 13.1532 22.8851 13.2338 22.9515 13.3287C23.0179 13.4236 23.0645 13.5307 23.0886 13.6439C23.1128 13.757 23.1139 13.8738 23.0919 13.9874C23.0841 14.0553 23.0661 14.1216 23.0386 14.1842C23.4059 14.1771 23.7731 14.2027 24.1358 14.2607C24.1876 14.2716 24.2414 14.2677 24.291 14.2495C24.3407 14.2312 24.3841 14.1994 24.4164 14.1576C24.4507 14.1174 24.475 14.0698 24.4872 14.0185C24.4995 13.9672 24.4994 13.9137 24.4869 13.8625C24.3465 13.2926 24.0423 12.7759 23.6116 12.3757C23.1809 11.9755 22.6424 11.709 22.0621 11.609C20.4241 11.342 18.8566 12.5101 18.576 14.2076C18.522 14.5388 18.5188 14.8764 18.5666 15.2086C18.5744 15.2634 18.5963 15.3154 18.63 15.3594C18.6638 15.4034 18.7083 15.4381 18.7594 15.46C18.8061 15.4828 18.8583 15.4918 18.91 15.486C18.9616 15.4802 19.0105 15.4598 19.051 15.4272C19.7889 14.9082 20.6268 14.5471 21.5119 14.3669ZM12.6839 13.9608C12.6839 13.9156 12.6651 13.8718 12.662 13.8156C12.6486 13.6991 12.6589 13.5811 12.6924 13.4687C12.7259 13.3563 12.7818 13.2517 12.8567 13.1613C12.9317 13.071 13.0243 12.9966 13.1288 12.9427C13.2333 12.8887 13.3477 12.8564 13.465 12.8476C13.5824 12.8387 13.7004 12.8536 13.8118 12.8913C13.9233 12.9289 14.026 12.9886 14.1138 13.0667C14.2015 13.1449 14.2725 13.2399 14.3226 13.346C14.3726 13.4521 14.4007 13.5673 14.405 13.6844C14.4222 13.9208 14.3507 14.1551 14.2043 14.3419C14.9399 14.5986 15.6224 14.9865 16.2185 15.4865C16.2561 15.5225 16.3033 15.547 16.3544 15.557C16.4056 15.5669 16.4585 15.562 16.507 15.5428C16.558 15.5273 16.6042 15.4991 16.6412 15.4608C16.6783 15.4225 16.7049 15.3755 16.7186 15.3241C16.7948 14.9973 16.8207 14.6608 16.7954 14.3263C16.6637 12.5991 15.2044 11.3108 13.5476 11.4373C12.9614 11.4864 12.4023 11.7046 11.9386 12.0651C11.4748 12.4256 11.1265 12.9129 10.9362 13.4674C10.9195 13.5176 10.9149 13.5711 10.9228 13.6235C10.9307 13.6758 10.9508 13.7256 10.9816 13.7688C11.012 13.8114 11.053 13.8454 11.1005 13.8676C11.148 13.8897 11.2005 13.8993 11.2528 13.8953C11.7308 13.8636 12.2109 13.8856 12.6839 13.9608ZM14.753 18.9908C14.7861 19.5827 14.9861 20.1534 15.3299 20.6373C15.6736 21.1212 16.1473 21.4988 16.6966 21.7268C18.2531 22.3374 19.9977 21.5316 20.598 19.9106C20.7152 19.5969 20.7798 19.2661 20.7893 18.9315C20.7933 18.8789 20.7832 18.8261 20.7601 18.7787C20.7369 18.7312 20.7016 18.6907 20.6576 18.6613C20.6166 18.6292 20.5674 18.6092 20.5156 18.6037C20.4637 18.5982 20.4114 18.6073 20.3645 18.6301C19.5808 18.9924 18.5321 19.1766 17.4129 19.136C16.6463 19.1014 15.8904 18.9432 15.1746 18.6676C15.1257 18.6506 15.0733 18.6461 15.0221 18.6542C14.971 18.6624 14.9227 18.6831 14.8815 18.7144C14.839 18.7465 14.8051 18.7885 14.7827 18.8367C14.7603 18.8849 14.7501 18.9378 14.753 18.9908Z" fill="#B79210"/>
</g>
<defs>
<clipPath id="clip0">
<rect width="36" height="36" fill="white"/>
</clipPath>
</defs>
</svg>
