<svg width="24" height="25" viewBox="0 0 24 25" fill="none" xmlns="http://www.w3.org/2000/svg">
<path d="M20 4.5H4C2.89 4.5 2.01 5.39 2.01 6.5L2 18.5C2 19.61 2.89 20.5 4 20.5H20C21.11 20.5 22 19.61 22 18.5V6.5C22 5.39 21.11 4.5 20 4.5ZM8.5 15.5H7.3L4.75 12V15.5H3.5V9.5H4.75L7.25 13V9.5H8.5V15.5ZM13.5 10.76H11V11.88H13.5V13.14H11V14.25H13.5V15.5H9.5V9.5H13.5V10.76ZM20.5 14.5C20.5 15.05 20.05 15.5 19.5 15.5H15.5C14.95 15.5 14.5 15.05 14.5 14.5V9.5H15.75V14.01H16.88V10.49H18.13V14H19.25V9.5H20.5V14.5Z" fill="#333333"/>
</svg>
