<svg id="menu_1-editing" data-name="menu 1-editing" xmlns="http://www.w3.org/2000/svg" width="33" height="33" viewBox="0 0 33 33">
  <rect id="Rectangle_19" data-name="Rectangle 19" width="33" height="33" fill="none"/>
  <path id="Path_154" data-name="Path 154" d="M5.4,7.059h19.1a1.371,1.371,0,1,0,0-2.742H5.4a1.371,1.371,0,0,0,0,2.742Zm19.1,16.957H5.4a1.371,1.371,0,0,0,0,2.742h19.1a1.371,1.371,0,0,0,0-2.742Zm-4.851-7.108H5.4a1.371,1.371,0,1,1,0-2.742H19.657a1.371,1.371,0,1,1,0,2.742Z" transform="translate(1.497 1.602)" fill="#373e47" fill-rule="evenodd"/>
</svg>
