<svg width="24" height="24" viewBox="0 0 24 24" fill="none" xmlns="http://www.w3.org/2000/svg">
<path d="M19.0004 16.775L13.9504 11.7275L18.4004 10.125C18.6289 10.0465 18.7505 9.79758 18.672 9.56908C18.6282 9.44153 18.528 9.34133 18.4004 9.29751L5.57794 5.02251C5.53197 5.00736 5.48384 4.99976 5.43544 5.00001C5.19524 5.00516 5.00472 5.20403 5.00987 5.44423C5.01082 5.48876 5.01859 5.53286 5.03294 5.57501L9.29794 18.41C9.37844 18.6378 9.62839 18.7572 9.85622 18.6767C9.98087 18.6327 10.0789 18.5347 10.1229 18.41L11.7279 13.955L16.7729 19L19.0004 16.775Z" fill="#333333"/>
</svg>
