<svg xmlns="http://www.w3.org/2000/svg" width="138.717" height="137.457" viewBox="0 0 138.717 137.457">
  <defs>
    <style>
      .cls-1 {
        fill: #f2f2f2;
      }

      .cls-2 {
        fill: #3f3d56;
      }

      .cls-3 {
        fill: #fff;
      }

      .cls-4 {
        opacity: 0.2;
      }

      .cls-5 {
        fill: #d0cde1;
      }
    </style>
  </defs>
  <g id="Group_102" data-name="Group 102" transform="translate(516.518 -7785.961) rotate(-30)">
    <path id="Path_508" data-name="Path 508" class="cls-1" d="M121.822,168.681C110.568,165.5,98.8,162.313,89.2,155.347a38.689,38.689,0,0,1-11.547-13.1,40.151,40.151,0,0,1-4.651-16.74,61.738,61.738,0,0,1,1.436-15.522,91.243,91.243,0,0,1,4.751-15.559A70.677,70.677,0,0,1,85.874,81.5c1.937-2.886,4.272-5.961,7.373-7.678,2.27-1.257,4.728-1.183,6.557.784,1.455,1.564,2.176,3.679,3.21,5.513a50.281,50.281,0,0,0,5.5,7.824c8.268,9.735,19.485,16.639,30.849,22.194,2.5,1.224,5.04,2.387,7.593,3.507,2.587,1.135,5.2,2.207,7.7,3.527a46.156,46.156,0,0,1,12.43,9.28c5.461,5.9,8.863,13.845,7.586,21.965-1.219,7.75-6.426,14.144-13.125,17.983-9.1,5.218-20.176,5.883-30.356,4.333a78.061,78.061,0,0,1-9.366-2.048.209.209,0,0,0-.111.4,69.72,69.72,0,0,0,18.863,2.793,46.279,46.279,0,0,0,15.282-2.441,32.93,32.93,0,0,0,11.069-6.392,25.707,25.707,0,0,0,6.641-9.215,23.307,23.307,0,0,0,1.715-10.806,26.314,26.314,0,0,0-3.641-11.184,36.659,36.659,0,0,0-9.346-10.3,51.49,51.49,0,0,0-7.043-4.527c-2.575-1.384-5.266-2.5-7.94-3.67a169.411,169.411,0,0,1-16.019-7.933,95.26,95.26,0,0,1-16.318-11.484A54.4,54.4,0,0,1,102.5,78.28c-1.283-2.515-2.764-5.629-6.013-5.765-2.84-.119-5.374,2.066-7.206,3.986A46.1,46.1,0,0,0,82,87.282a88.526,88.526,0,0,0-5.988,14.889,80.266,80.266,0,0,0-3.241,16.043,43.976,43.976,0,0,0,1.067,15.3,39.549,39.549,0,0,0,8.641,16.362,46.782,46.782,0,0,0,13.85,10.264,104.578,104.578,0,0,0,16.832,6.459c2.837.866,5.692,1.674,8.547,2.48a.209.209,0,0,0,.111-.4Z" transform="translate(-4438.547 6456.588)"/>
    <path id="Path_511" data-name="Path 511" class="cls-2" d="M365.838,180.147h-59.3v85.33h59.3a2.956,2.956,0,0,0,2.956-2.957V183.1a2.956,2.956,0,0,0-2.957-2.956Zm-56.108,83.8a1.528,1.528,0,1,1,1.081-.448A1.529,1.529,0,0,1,309.73,263.949Zm0-5.281a1.528,1.528,0,1,1,1.081-.448A1.529,1.529,0,0,1,309.73,258.668Zm0-5.281a1.528,1.528,0,1,1,1.081-.447A1.529,1.529,0,0,1,309.73,253.387Zm0-5.281a1.528,1.528,0,1,1,1.081-.447A1.529,1.529,0,0,1,309.73,248.106Zm0-5.281a1.528,1.528,0,1,1,1.081-.448A1.529,1.529,0,0,1,309.73,242.825Zm0-5.281a1.528,1.528,0,1,1,1.081-.447A1.529,1.529,0,0,1,309.73,237.544Zm0-5.281a1.528,1.528,0,1,1,1.081-.447A1.529,1.529,0,0,1,309.73,232.263Zm0-5.281a1.528,1.528,0,1,1,1.081-.448A1.529,1.529,0,0,1,309.73,226.982Zm0-5.281a1.528,1.528,0,1,1,1.081-.447A1.529,1.529,0,0,1,309.73,221.7Zm0-5.281a1.528,1.528,0,1,1,1.081-.447A1.529,1.529,0,0,1,309.73,216.419Zm0-5.281a1.528,1.528,0,1,1,1.081-.447A1.529,1.529,0,0,1,309.73,211.138Zm0-5.281a1.528,1.528,0,1,1,1.081-.447A1.529,1.529,0,0,1,309.73,205.857Zm0-5.281a1.528,1.528,0,1,1,1.081-.448,1.529,1.529,0,0,1-1.081.448Zm0-5.281a1.528,1.528,0,1,1,1.081-.447A1.529,1.529,0,0,1,309.73,195.3Zm0-5.281a1.528,1.528,0,1,1,1.081-.448A1.529,1.529,0,0,1,309.73,190.014Zm0-5.281a1.528,1.528,0,1,1,1.081-.447A1.529,1.529,0,0,1,309.73,184.733Z" transform="translate(-4640.016 6363.911)"/>
    <path id="Path_512" data-name="Path 512" d="M286.147,573.407c-.6,0-3.613-.03-3.613-.625,0-.544,2.552-.615,3.334-.624l0,.278a9.486,9.486,0,0,0-3.028.346,10.3,10.3,0,0,0,3.3.347,11.109,11.109,0,0,0,3.268-.329,8.1,8.1,0,0,0-1.44-.25l.033-.276c1.626.2,1.752.334,1.752.507C289.76,573.377,286.75,573.407,286.147,573.407Z" transform="translate(-4619.351 6026.379)"/>
    <path id="Path_513" data-name="Path 513" d="M286.147,582.407c-.6,0-3.613-.03-3.613-.625,0-.545,2.552-.615,3.334-.624l0,.278a9.481,9.481,0,0,0-3.028.346,10.306,10.306,0,0,0,3.3.347,11.577,11.577,0,0,0,3.243-.318c-.317-.084-1.095-.175-1.546-.228l-.285-.034.033-.276.284.033c1.7.2,1.885.271,1.885.474C289.76,582.377,286.75,582.407,286.147,582.407Z" transform="translate(-4619.351 6018.63)"/>
    <path id="Path_514" data-name="Path 514" d="M286.147,536.407c-.6,0-3.613-.03-3.613-.625,0-.545,2.552-.615,3.334-.624l0,.278a9.482,9.482,0,0,0-3.028.346,10.3,10.3,0,0,0,3.3.347,11.109,11.109,0,0,0,3.268-.329,8.1,8.1,0,0,0-1.44-.25l.033-.276c1.626.2,1.752.334,1.752.507C289.76,536.377,286.75,536.407,286.147,536.407Z" transform="translate(-4619.351 6058.237)"/>
    <path id="Path_515" data-name="Path 515" d="M286.147,545.407c-.6,0-3.613-.03-3.613-.625,0-.545,2.552-.615,3.334-.624l0,.278a9.484,9.484,0,0,0-3.028.346,10.3,10.3,0,0,0,3.3.347,11.577,11.577,0,0,0,3.243-.318c-.317-.084-1.095-.175-1.546-.228l-.285-.033.033-.276.284.034c1.7.2,1.885.271,1.885.474C289.76,545.377,286.75,545.407,286.147,545.407Z" transform="translate(-4619.351 6050.488)"/>
    <path id="Path_516" data-name="Path 516" d="M286.147,497.407c-.6,0-3.613-.03-3.613-.625,0-.545,2.552-.615,3.334-.624l0,.278a9.483,9.483,0,0,0-3.028.346,10.3,10.3,0,0,0,3.3.347,11.11,11.11,0,0,0,3.268-.329,8.106,8.106,0,0,0-1.44-.25l.033-.276c1.626.2,1.752.334,1.752.507C289.76,497.377,286.75,497.407,286.147,497.407Z" transform="translate(-4619.351 6091.817)"/>
    <path id="Path_517" data-name="Path 517" d="M286.147,506.407c-.6,0-3.613-.03-3.613-.625,0-.545,2.552-.615,3.334-.624l0,.278a9.482,9.482,0,0,0-3.028.346,10.3,10.3,0,0,0,3.3.347,11.581,11.581,0,0,0,3.243-.318c-.317-.084-1.095-.175-1.546-.228l-.285-.034.033-.276.284.034c1.7.2,1.885.271,1.885.474C289.76,506.377,286.75,506.407,286.147,506.407Z" transform="translate(-4619.351 6084.067)"/>
    <path id="Path_518" data-name="Path 518" d="M286.147,459.407c-.6,0-3.613-.03-3.613-.625,0-.545,2.552-.615,3.334-.624l0,.278a9.483,9.483,0,0,0-3.028.346,10.3,10.3,0,0,0,3.3.347,11.109,11.109,0,0,0,3.268-.329,8.1,8.1,0,0,0-1.44-.25l.033-.276c1.626.2,1.752.334,1.752.507C289.76,459.377,286.75,459.407,286.147,459.407Z" transform="translate(-4619.351 6124.536)"/>
    <path id="Path_519" data-name="Path 519" d="M286.147,468.407c-.6,0-3.613-.03-3.613-.625,0-.545,2.552-.615,3.334-.624l0,.278a9.485,9.485,0,0,0-3.028.346,10.3,10.3,0,0,0,3.3.347,11.578,11.578,0,0,0,3.243-.318c-.317-.084-1.095-.175-1.546-.228l-.285-.034.033-.276.284.034c1.7.2,1.885.271,1.885.474C289.76,468.377,286.75,468.407,286.147,468.407Z" transform="translate(-4619.351 6116.787)"/>
    <path id="Path_520" data-name="Path 520" d="M286.147,421.408c-.6,0-3.613-.03-3.613-.625,0-.545,2.552-.615,3.334-.624l0,.278a9.482,9.482,0,0,0-3.028.346,10.3,10.3,0,0,0,3.3.347,11.113,11.113,0,0,0,3.268-.329,8.087,8.087,0,0,0-1.44-.25l.033-.276c1.626.2,1.752.333,1.752.507C289.76,421.378,286.75,421.408,286.147,421.408Z" transform="translate(-4619.351 6157.254)"/>
    <path id="Path_521" data-name="Path 521" d="M286.147,430.408c-.6,0-3.613-.03-3.613-.625,0-.545,2.552-.615,3.334-.624l0,.278a9.484,9.484,0,0,0-3.028.346,10.3,10.3,0,0,0,3.3.347,11.585,11.585,0,0,0,3.243-.318c-.317-.084-1.1-.175-1.549-.228l-.283-.033.033-.276.282.033c1.7.2,1.887.271,1.887.474C289.76,430.378,286.75,430.408,286.147,430.408Z" transform="translate(-4619.351 6149.505)"/>
    <path id="Path_522" data-name="Path 522" d="M286.147,383.408c-.6,0-3.613-.03-3.613-.625,0-.545,2.552-.615,3.334-.624l0,.278a9.486,9.486,0,0,0-3.028.346,10.3,10.3,0,0,0,3.3.347,11.113,11.113,0,0,0,3.268-.329,8.085,8.085,0,0,0-1.44-.25l.033-.276c1.626.2,1.752.333,1.752.507C289.76,383.377,286.75,383.408,286.147,383.408Z" transform="translate(-4619.351 6189.974)"/>
    <path id="Path_523" data-name="Path 523" d="M286.147,392.408c-.6,0-3.613-.03-3.613-.625,0-.545,2.552-.615,3.334-.624l0,.278a9.485,9.485,0,0,0-3.028.346,10.3,10.3,0,0,0,3.3.347,11.579,11.579,0,0,0,3.243-.318c-.317-.084-1.1-.175-1.549-.228l-.283-.033.033-.276.282.033c1.7.2,1.887.271,1.887.474C289.76,392.378,286.75,392.408,286.147,392.408Z" transform="translate(-4619.351 6182.224)"/>
    <path id="Path_524" data-name="Path 524" d="M286.147,345.408c-.6,0-3.613-.03-3.613-.625,0-.545,2.552-.615,3.334-.624l0,.278a9.482,9.482,0,0,0-3.028.346,10.3,10.3,0,0,0,3.3.347,11.116,11.116,0,0,0,3.268-.329,8.087,8.087,0,0,0-1.44-.25l.033-.276c1.626.2,1.752.333,1.752.507C289.76,345.378,286.75,345.408,286.147,345.408Z" transform="translate(-4619.351 6222.692)"/>
    <path id="Path_525" data-name="Path 525" d="M286.147,354.408c-.6,0-3.613-.03-3.613-.625,0-.545,2.552-.615,3.334-.624l0,.278a9.487,9.487,0,0,0-3.028.346,10.3,10.3,0,0,0,3.3.348,11.581,11.581,0,0,0,3.243-.318c-.317-.084-1.1-.175-1.549-.228l-.283-.033.033-.276.282.033c1.7.2,1.887.271,1.887.474C289.76,354.377,286.75,354.408,286.147,354.408Z" transform="translate(-4619.351 6214.943)"/>
    <path id="Path_526" data-name="Path 526" d="M286.147,307.408c-.6,0-3.613-.03-3.613-.625,0-.545,2.552-.615,3.334-.624l0,.278a9.486,9.486,0,0,0-3.028.346,10.3,10.3,0,0,0,3.3.347,11.113,11.113,0,0,0,3.268-.329,8.087,8.087,0,0,0-1.44-.25l.033-.276c1.626.2,1.752.333,1.752.507C289.76,307.377,286.75,307.408,286.147,307.408Z" transform="translate(-4619.351 6255.412)"/>
    <path id="Path_527" data-name="Path 527" d="M286.147,316.408c-.6,0-3.613-.03-3.613-.625,0-.545,2.552-.615,3.334-.624l0,.278a9.484,9.484,0,0,0-3.028.346,10.3,10.3,0,0,0,3.3.347,11.581,11.581,0,0,0,3.243-.318c-.317-.084-1.1-.175-1.549-.228l-.283-.033.033-.276.282.033c1.7.2,1.887.271,1.887.474C289.76,316.378,286.75,316.408,286.147,316.408Z" transform="translate(-4619.351 6247.663)"/>
    <path id="Path_528" data-name="Path 528" d="M286.147,269.408c-.6,0-3.613-.03-3.613-.625,0-.545,2.552-.615,3.334-.624l0,.278a9.485,9.485,0,0,0-3.028.346,10.3,10.3,0,0,0,3.3.347,11.113,11.113,0,0,0,3.268-.329,8.087,8.087,0,0,0-1.44-.25l.033-.276c1.626.2,1.752.333,1.752.507C289.76,269.377,286.75,269.408,286.147,269.408Z" transform="translate(-4619.351 6288.13)"/>
    <path id="Path_529" data-name="Path 529" d="M286.147,278.408c-.6,0-3.613-.03-3.613-.625,0-.545,2.552-.615,3.334-.624l0,.278a9.485,9.485,0,0,0-3.028.346,10.3,10.3,0,0,0,3.3.347,11.582,11.582,0,0,0,3.243-.318c-.317-.084-1.1-.175-1.549-.228l-.283-.033.033-.276.282.033c1.7.2,1.887.271,1.887.474C289.76,278.378,286.75,278.408,286.147,278.408Z" transform="translate(-4619.351 6280.381)"/>
    <path id="Path_530" data-name="Path 530" d="M286.147,231.408c-.6,0-3.613-.03-3.613-.625,0-.545,2.552-.615,3.334-.624l0,.278a9.485,9.485,0,0,0-3.028.346,10.3,10.3,0,0,0,3.3.347,11.113,11.113,0,0,0,3.268-.329,8.09,8.09,0,0,0-1.44-.25l.033-.276c1.626.2,1.752.333,1.752.507C289.76,231.378,286.75,231.408,286.147,231.408Z" transform="translate(-4619.351 6320.849)"/>
    <path id="Path_531" data-name="Path 531" d="M286.147,240.408c-.6,0-3.613-.03-3.613-.625,0-.545,2.552-.615,3.334-.624l0,.278a9.485,9.485,0,0,0-3.028.346,10.3,10.3,0,0,0,3.3.347,11.581,11.581,0,0,0,3.243-.318c-.317-.084-1.1-.175-1.549-.228l-.283-.033.033-.276.282.033c1.7.2,1.887.271,1.887.474C289.76,240.378,286.75,240.408,286.147,240.408Z" transform="translate(-4619.351 6313.1)"/>
    <path id="Path_532" data-name="Path 532" d="M286.147,193.408c-.6,0-3.613-.03-3.613-.625,0-.545,2.552-.615,3.334-.624l0,.278a9.485,9.485,0,0,0-3.028.346,10.3,10.3,0,0,0,3.3.347,11.113,11.113,0,0,0,3.268-.329,8.085,8.085,0,0,0-1.44-.25l.033-.276c1.626.2,1.752.333,1.752.507C289.76,193.377,286.75,193.408,286.147,193.408Z" transform="translate(-4619.351 6353.568)"/>
    <path id="Path_533" data-name="Path 533" d="M286.147,202.408c-.6,0-3.613-.03-3.613-.625,0-.545,2.552-.615,3.334-.624l0,.278a9.484,9.484,0,0,0-3.028.346,10.3,10.3,0,0,0,3.3.347,11.582,11.582,0,0,0,3.243-.318c-.317-.084-1.1-.175-1.549-.228l-.283-.033.033-.276.282.033c1.7.2,1.887.271,1.887.474C289.76,202.377,286.75,202.408,286.147,202.408Z" transform="translate(-4619.351 6345.819)"/>
    <path id="Path_534" data-name="Path 534" d="M286.147,612.407c-.6,0-3.613-.03-3.613-.625,0-.544,2.552-.615,3.334-.624l0,.278a9.486,9.486,0,0,0-3.028.346,10.3,10.3,0,0,0,3.3.347,11.109,11.109,0,0,0,3.268-.329,8.11,8.11,0,0,0-1.44-.25l.033-.276c1.626.2,1.752.334,1.752.507C289.76,612.377,286.75,612.407,286.147,612.407Z" transform="translate(-4619.351 5992.799)"/>
    <path id="Path_535" data-name="Path 535" d="M286.147,621.407c-.6,0-3.613-.03-3.613-.625,0-.545,2.552-.615,3.334-.624l0,.278a9.481,9.481,0,0,0-3.028.346,10.306,10.306,0,0,0,3.3.347,11.577,11.577,0,0,0,3.243-.318c-.317-.084-1.095-.175-1.546-.228l-.285-.034.033-.276.284.033c1.7.2,1.885.271,1.885.474C289.76,621.377,286.75,621.407,286.147,621.407Z" transform="translate(-4619.351 5985.05)"/>
    <path id="Path_536" data-name="Path 536" d="M286.147,649.407c-.6,0-3.613-.03-3.613-.625,0-.545,2.552-.615,3.334-.624l0,.278a9.484,9.484,0,0,0-3.028.346,10.3,10.3,0,0,0,3.3.347,11.109,11.109,0,0,0,3.268-.329,8.1,8.1,0,0,0-1.44-.25l.033-.276c1.626.2,1.752.334,1.752.507C289.76,649.377,286.75,649.407,286.147,649.407Z" transform="translate(-4619.351 5960.941)"/>
    <path id="Path_537" data-name="Path 537" d="M286.147,658.407c-.6,0-3.613-.03-3.613-.625,0-.545,2.552-.615,3.334-.624l0,.278a9.482,9.482,0,0,0-3.028.346,10.3,10.3,0,0,0,3.3.347,11.581,11.581,0,0,0,3.243-.318c-.317-.084-1.095-.175-1.546-.228l-.285-.034.033-.276.284.033c1.7.2,1.885.271,1.885.474C289.76,658.377,286.75,658.407,286.147,658.407Z" transform="translate(-4619.351 5953.191)"/>
    <path id="Path_538" data-name="Path 538" d="M286.147,688.407c-.6,0-3.613-.03-3.613-.625,0-.545,2.552-.615,3.334-.624l0,.278a9.484,9.484,0,0,0-3.028.346,10.3,10.3,0,0,0,3.3.347,11.109,11.109,0,0,0,3.268-.329,8.1,8.1,0,0,0-1.44-.25l.033-.276c1.626.2,1.752.334,1.752.507C289.76,688.377,286.75,688.407,286.147,688.407Z" transform="translate(-4619.351 5927.361)"/>
    <path id="Path_539" data-name="Path 539" d="M286.147,697.407c-.6,0-3.613-.03-3.613-.625,0-.545,2.552-.615,3.334-.624l0,.278a9.481,9.481,0,0,0-3.028.346,10.3,10.3,0,0,0,3.3.347,11.581,11.581,0,0,0,3.243-.318c-.317-.084-1.095-.175-1.546-.228l-.285-.034.033-.276.284.033c1.7.2,1.885.271,1.885.474C289.76,697.377,286.75,697.407,286.147,697.407Z" transform="translate(-4619.351 5919.611)"/>
    <path id="Path_540" data-name="Path 540" d="M286.147,725.407c-.6,0-3.613-.03-3.613-.625,0-.545,2.552-.615,3.334-.624l0,.278a9.481,9.481,0,0,0-3.028.346,10.306,10.306,0,0,0,3.3.347,11.108,11.108,0,0,0,3.268-.329,8.11,8.11,0,0,0-1.44-.25l.033-.276c1.626.2,1.752.334,1.752.507C289.76,725.377,286.75,725.407,286.147,725.407Z" transform="translate(-4619.351 5895.502)"/>
    <path id="Path_541" data-name="Path 541" d="M286.147,734.407c-.6,0-3.613-.03-3.613-.625,0-.545,2.552-.615,3.334-.624l0,.278a9.48,9.48,0,0,0-3.028.346,10.3,10.3,0,0,0,3.3.347,11.577,11.577,0,0,0,3.243-.318c-.317-.084-1.095-.175-1.546-.228l-.285-.034.033-.276.284.033c1.7.2,1.885.271,1.885.474C289.76,734.377,286.75,734.407,286.147,734.407Z" transform="translate(-4619.351 5887.754)"/>
    <path id="Path_542" data-name="Path 542" d="M286.147,763.407c-.6,0-3.613-.03-3.613-.625,0-.545,2.552-.615,3.334-.624l0,.278a9.48,9.48,0,0,0-3.028.346,10.3,10.3,0,0,0,3.3.347,11.109,11.109,0,0,0,3.268-.329,8.106,8.106,0,0,0-1.44-.25l.033-.276c1.626.2,1.752.334,1.752.507C289.76,763.377,286.75,763.407,286.147,763.407Z" transform="translate(-4619.351 5862.784)"/>
    <path id="Path_543" data-name="Path 543" d="M286.147,772.407c-.6,0-3.613-.03-3.613-.625,0-.545,2.552-.615,3.334-.624l0,.278a9.48,9.48,0,0,0-3.028.346,10.3,10.3,0,0,0,3.3.347,11.577,11.577,0,0,0,3.243-.318c-.317-.084-1.095-.175-1.546-.228l-.285-.034.033-.276.284.033c1.7.2,1.885.271,1.885.474C289.76,772.377,286.75,772.407,286.147,772.407Z" transform="translate(-4619.351 5855.035)"/>
    <path id="Path_544" data-name="Path 544" class="cls-2" d="M158.564,180.47a1.668,1.668,0,1,1,1.668-1.668A1.668,1.668,0,0,1,158.564,180.47Zm0-3.057a1.39,1.39,0,1,0,1.39,1.39A1.39,1.39,0,0,0,158.564,177.412Z" transform="translate(-4511.174 6366.504)"/>
    <path id="Path_545" data-name="Path 545" class="cls-2" d="M189.647,491.261h-3.613v-3.613h3.613Zm-3.335-.278h3.057v-3.057h-3.057Z" transform="translate(-4536.262 6099.145)"/>
    <path id="Path_546" data-name="Path 546" class="cls-2" d="M445.086,116.393l-2.409-2.693,2.693-2.409,2.409,2.693Zm-2.017-2.671L445.108,116l2.279-2.038-2.038-2.279Z" transform="translate(-4757.238 6423.197)"/>
    <rect id="Rectangle_126" data-name="Rectangle 126" class="cls-3" width="34.883" height="15.843" transform="translate(-4317.292 6566.779)"/>
    <path id="Path_547" data-name="Path 547" class="cls-1" d="M447.276,412.733a19.244,19.244,0,0,1,6.953-.7c2.423.207,4.766.933,7.159,1.331a42.338,42.338,0,0,0,6.658.575c1.928.013,4.287.166,5.994-.888.228-.141.019-.5-.21-.36a6.686,6.686,0,0,1-3.263.773q-1.722.093-3.448.042a41.7,41.7,0,0,1-6.924-.783,47.007,47.007,0,0,0-6.488-1.145,19.655,19.655,0,0,0-6.54.752.209.209,0,0,0,.111.4Z" transform="translate(-4760.977 6164.666)"/>
    <path id="Path_548" data-name="Path 548" class="cls-1" d="M447.276,381.733a19.246,19.246,0,0,1,6.953-.7c2.423.207,4.766.933,7.159,1.331a42.338,42.338,0,0,0,6.658.575c1.928.013,4.287.166,5.994-.888.228-.141.019-.5-.21-.36a6.686,6.686,0,0,1-3.263.773q-1.722.093-3.448.042a41.705,41.705,0,0,1-6.924-.783,47.011,47.011,0,0,0-6.488-1.145,19.655,19.655,0,0,0-6.54.752.209.209,0,0,0,.111.4Z" transform="translate(-4760.977 6191.357)"/>
    <path id="Path_549" data-name="Path 549" class="cls-4" d="M597.732,653.757v16.555a2.956,2.956,0,0,1-2.956,2.956H572.423Z" transform="translate(-4868.953 5956.12)"/>
    <path id="Path_550" data-name="Path 550" class="cls-4" d="M571.712,183.1V198.92L542.2,180.147h26.552a2.956,2.956,0,0,1,2.956,2.957Z" transform="translate(-4842.933 6363.911)"/>
    <circle id="Ellipse_8" data-name="Ellipse 8" class="cls-3" cx="3.474" cy="3.474" r="3.474" transform="translate(-4276.085 6558.542)"/>
    <circle id="Ellipse_9" data-name="Ellipse 9" class="cls-5" cx="1.064" cy="1.064" r="1.064" transform="translate(-4273.707 6560.852)"/>
  </g>
</svg>
