<svg id="noun_palm_2933756" xmlns="http://www.w3.org/2000/svg" width="408" height="675" viewBox="0 0 408 675">
  <g id="Group_210" data-name="Group 210">
    <path id="Path_1534" data-name="Path 1534" d="M220,675c50-130,39-300-4-492-9,16-14,34-17,53-4-8-10-15-18-18l18,41-26-26a114.3,114.3,0,0,0,22,41c-11-3-22-10-33-22,15,14,21,31,22,48l-22-25c22,31,0,50,4,66-24-30-38-68-21-131a154,154,0,0,1-35,22c2-10,3-18-1-25-2,18-8,32-15,41V210a101.722,101.722,0,0,0-8,46c-7-9-12-19-14-34-2,30-8,42-15,48l4-33c-13,28-28,44-45,51,15-67,45-128,137-166-17-1-32-3-48-9l15-22L82,113l22-30c-13,12-25,19-36,23,3-12,10-21,18-30C71,89,56,97,38,97L64,75C33,95,18,76,0,79,86,5,152,61,208,115,234,17,273,5,330,0L311,24l-26,6h19c-3,6-14,10-30,11,13,1,18,3,19,8-11-1-21,2-30,7h21c-7,7-17,10-27,11h18c-10,16-23,30-37,42,58-41,117-44,170,8-20,0-33,9-55-12a51.617,51.617,0,0,1,12,19c-11-1-21-8-31-18l8,18c-9,0-17-5-27-15l11,19c-9-1-18-6-26-15l8,18c-14-1-29,0-46,3,89,36,108,91,129,155-13-9-36-12-40-48l-2,30c-7-6-12-17-13-45a98.519,98.519,0,0,1-11,33l-9-41-2,33-13-36-2,21c-26-13-50-31-73-51,82,161,88,315,57,489Z" fill="#fff" fill-rule="evenodd"/>
  </g>
</svg>
