<svg width="142" height="109" viewBox="0 0 142 109" fill="none" xmlns="http://www.w3.org/2000/svg">
<g clip-path="url(#clip0)">
<path opacity="0.1" d="M112.628 89.5773C114.699 90.6204 117.232 89.986 119.585 90.0595C119.907 90.0698 120.248 90.1008 120.507 90.28C120.766 90.4592 120.895 90.7532 121.07 91.0033C121.729 91.9329 123.08 92.232 124.26 92.0747C125.441 91.9174 126.524 91.394 127.638 90.9956C129.564 90.3083 131.766 89.995 133.666 90.7454C133.834 90.8316 134.022 90.8729 134.211 90.8653C134.628 90.8047 134.751 90.3045 135.043 90.0195C135.569 89.5038 136.71 89.6456 136.942 88.9674C137.071 88.569 136.766 88.1616 136.424 87.8908C135.13 86.8516 133.269 86.6801 131.568 86.8413C129.867 87.0025 128.203 87.4421 126.49 87.4447C124.362 87.4447 122.306 86.7665 120.199 86.4893C118.739 86.2959 117.145 86.3204 115.776 86.8877C114.297 87.5066 113.972 88.8785 112.628 89.5773Z" fill="#00A2FF"/>
<path opacity="0.1" d="M1.53369 55.438C3.78063 65.0049 8.53726 73.2748 16.0534 77.2833C31.6771 85.6138 66.9099 81.3164 93.204 76.3808C106.491 73.8951 118.552 67.0273 127.444 56.8833L1.53369 55.438Z" fill="#00A2FF"/>
<path opacity="0.1" d="M139.424 10.4037H124.996C124.666 10.4037 124.349 10.2729 124.115 10.04C123.881 9.80718 123.75 9.49137 123.75 9.16206C123.75 8.83276 123.881 8.51694 124.115 8.28409C124.349 8.05124 124.666 7.92042 124.996 7.92042H127.491C127.167 7.91003 126.86 7.77459 126.634 7.54275C126.409 7.31092 126.283 7.00085 126.283 6.67814C126.283 6.35542 126.409 6.04536 126.634 5.81352C126.86 5.58168 127.167 5.44625 127.491 5.43585H125.71C125.386 5.42546 125.079 5.29002 124.853 5.05819C124.628 4.82635 124.502 4.51628 124.502 4.19357C124.502 3.87085 124.628 3.56079 124.853 3.32895C125.079 3.09711 125.386 2.96168 125.71 2.95129H133.24C131.569 2.17768 129.616 1.62713 127.365 1.3396C106.832 -1.28808 99.5008 0.449955 96.9148 2.24214C93.7243 4.44693 90.1649 6.06892 86.3609 6.85027C73.6921 9.45345 49.9995 12.5866 28.5254 5.84844C17.8525 2.49615 9.92086 8.15766 5.16553 17.6176H141.929C141.75 14.8674 141.216 12.3313 140.234 10.1072C140.009 10.2997 139.721 10.4049 139.424 10.4037Z" fill="#00A2FF"/>
<path opacity="0.1" d="M0.309351 35.4699C-0.244789 41.0336 -0.0567718 46.646 0.868498 52.1605L127.541 56.7763C131.067 52.7357 134.028 48.238 136.343 43.4058L0.309351 35.4699ZM50.4099 47.377H47.9158C48.2464 47.377 48.5634 47.5078 48.7971 47.7407C49.0309 47.9735 49.1622 48.2894 49.1622 48.6187C49.1622 48.948 49.0309 49.2638 48.7971 49.4966C48.5634 49.7295 48.2464 49.8603 47.9158 49.8603H33.488C33.1574 49.8603 32.8404 49.7295 32.6066 49.4966C32.3729 49.2638 32.2416 48.948 32.2416 48.6187C32.2416 48.2894 32.3729 47.9735 32.6066 47.7407C32.8404 47.5078 33.1574 47.377 33.488 47.377H35.9821C35.6584 47.3666 35.3513 47.2312 35.126 46.9993C34.9006 46.7675 34.7746 46.4574 34.7746 46.1347C34.7746 45.812 34.9006 45.502 35.126 45.2701C35.3513 45.0383 35.6584 44.9028 35.9821 44.8924H34.2012C33.8774 44.8821 33.5703 44.7466 33.345 44.5148C33.1196 44.2829 32.9936 43.9729 32.9936 43.6502C32.9936 43.3275 33.1196 43.0174 33.345 42.7855C33.5703 42.5537 33.8774 42.4183 34.2012 42.4079H48.629C48.9527 42.4183 49.2598 42.5537 49.4851 42.7855C49.7105 43.0174 49.8365 43.3275 49.8365 43.6502C49.8365 43.9729 49.7105 44.2829 49.4851 44.5148C49.2598 44.7466 48.9527 44.8821 48.629 44.8924H50.4099C50.7337 44.9028 51.0408 45.0383 51.2661 45.2701C51.4915 45.502 51.6175 45.812 51.6175 46.1347C51.6175 46.4574 51.4915 46.7675 51.2661 46.9993C51.0408 47.2312 50.7337 47.3666 50.4099 47.377Z" fill="#00A2FF"/>
<path opacity="0.1" d="M141.935 17.7014L3.63966 21.0537C1.95704 25.3601 0.847807 30.23 0.330078 35.2791H139.512C140.421 32.3133 141.093 29.2808 141.522 26.2098C141.937 23.243 142.102 20.3742 141.935 17.7014ZM28.4065 28.6815H25.9123C26.2429 28.6815 26.5599 28.8123 26.7937 29.0452C27.0275 29.278 27.1588 29.5938 27.1588 29.9231C27.1588 30.2524 27.0275 30.5682 26.7937 30.8011C26.5599 31.0339 26.2429 31.1648 25.9123 31.1648H11.4845C11.154 31.1648 10.8369 31.0339 10.6032 30.8011C10.3694 30.5682 10.2381 30.2524 10.2381 29.9231C10.2381 29.5938 10.3694 29.278 10.6032 29.0452C10.8369 28.8123 11.154 28.6815 11.4845 28.6815H13.9787C13.6549 28.6711 13.3479 28.5357 13.1225 28.3038C12.8972 28.072 12.7712 27.7619 12.7712 27.4392C12.7712 27.1165 12.8972 26.8064 13.1225 26.5746C13.3479 26.3427 13.6549 26.2073 13.9787 26.1969H12.1977C11.8739 26.1865 11.5669 26.0511 11.3415 25.8192C11.1162 25.5874 10.9902 25.2773 10.9902 24.9546C10.9902 24.6319 11.1162 24.3219 11.3415 24.09C11.5669 23.8582 11.8739 23.7227 12.1977 23.7123H26.6255C26.9493 23.7227 27.2563 23.8582 27.4817 24.09C27.7071 24.3219 27.8331 24.6319 27.8331 24.9546C27.8331 25.2773 27.7071 25.5874 27.4817 25.8192C27.2563 26.0511 26.9493 26.1865 26.6255 26.1969H28.4065C28.7303 26.2073 29.0373 26.3427 29.2627 26.5746C29.488 26.8064 29.614 27.1165 29.614 27.4392C29.614 27.7619 29.488 28.072 29.2627 28.3038C29.0373 28.5357 28.7303 28.6711 28.4065 28.6815Z" fill="#00A2FF"/>
<g opacity="0.1">
<path opacity="0.1" d="M75.499 76.5381C75.499 76.5381 79.149 67.5772 85.9649 64.2519C88.8325 62.8763 91.1747 60.6109 92.6397 57.7962C93.3247 56.4541 93.8849 55.0523 94.3133 53.6084" stroke="#535461" stroke-width="2" stroke-miterlimit="10"/>
<path opacity="0.1" d="M98.5963 51.4887C97.8857 52.3784 94.2085 53.6806 94.2085 53.6806C94.2085 53.6806 94.6512 49.819 95.3617 48.9294C95.5238 48.6988 95.7316 48.5038 95.9722 48.3562C96.2128 48.2086 96.4812 48.1116 96.7608 48.0712C97.0404 48.0308 97.3254 48.0479 97.5982 48.1213C97.871 48.1947 98.1258 48.323 98.347 48.4981C98.5681 48.6733 98.7509 48.8918 98.8842 49.14C99.0174 49.3882 99.0983 49.6609 99.1218 49.9414C99.1452 50.2219 99.1108 50.5043 99.0207 50.771C98.9305 51.0378 98.7865 51.2834 98.5975 51.4926L98.5963 51.4887Z" fill="#00A2FF"/>
<path opacity="0.1" d="M97.334 58.535C96.252 58.8973 92.457 57.9973 92.457 57.9973C92.457 57.9973 94.9357 54.9957 96.0177 54.6334C96.28 54.5249 96.562 54.4714 96.8459 54.4761C97.1299 54.4807 97.4099 54.5435 97.6685 54.6606C97.9271 54.7777 98.1587 54.9465 98.349 55.1565C98.5394 55.3665 98.6843 55.6133 98.7747 55.8815C98.8652 56.1497 98.8994 56.4336 98.875 56.7155C98.8507 56.9974 98.7684 57.2713 98.6333 57.5201C98.4982 57.769 98.3131 57.9875 98.0896 58.1621C97.8661 58.3367 97.6089 58.4636 97.334 58.535Z" fill="#00A2FF"/>
<path opacity="0.1" d="M90.4925 66.8655C89.3755 66.6347 86.5552 63.9477 86.5552 63.9477C86.5552 63.9477 90.2168 62.6029 91.3338 62.835C91.8398 62.9755 92.2733 63.3023 92.5466 63.7492C92.8198 64.1962 92.9123 64.7298 92.8053 65.2422C92.6984 65.7545 92.4 66.2072 91.9706 66.5086C91.5411 66.81 91.0128 66.9376 90.4925 66.8655Z" fill="#00A2FF"/>
<path opacity="0.1" d="M83.8915 72.0074C82.7512 71.9674 79.5154 69.7948 79.5154 69.7948C79.5154 69.7948 82.8961 67.8531 84.0364 67.8918C84.319 67.8843 84.6001 67.9346 84.8624 68.0395C85.1247 68.1444 85.3627 68.3017 85.5617 68.5016C85.7607 68.7016 85.9165 68.9401 86.0195 69.2023C86.1225 69.4645 86.1705 69.7449 86.1606 70.0263C86.1507 70.3077 86.0831 70.5841 85.9619 70.8385C85.8407 71.0929 85.6685 71.3199 85.4559 71.5055C85.2433 71.6911 84.9949 71.8313 84.7258 71.9176C84.4567 72.004 84.1728 72.0345 83.8915 72.0074Z" fill="#00A2FF"/>
<path opacity="0.1" d="M88.9239 55.4793C89.0688 56.6062 91.541 59.6142 91.541 59.6142C91.541 59.6142 93.1692 56.0814 93.023 54.9532C93.0052 54.6715 92.9296 54.3965 92.8008 54.145C92.672 53.8936 92.4928 53.6712 92.2743 53.4915C92.0557 53.3119 91.8025 53.1788 91.5303 53.1006C91.258 53.0223 90.9726 53.0006 90.6915 53.0366C90.4105 53.0727 90.1399 53.1658 89.8965 53.3102C89.653 53.4547 89.4419 53.6473 89.2763 53.8763C89.1106 54.1053 88.9938 54.3657 88.9332 54.6414C88.8726 54.9171 88.8694 55.2023 88.9239 55.4793Z" fill="#00A2FF"/>
<path opacity="0.1" d="M81.2794 61.5908C81.757 62.6223 85.02 64.7561 85.02 64.7561C85.02 64.7561 85.5106 60.8997 85.0329 59.8669C84.7824 59.4061 84.3651 59.0575 83.8658 58.892C83.3666 58.7265 82.8228 58.7566 82.345 58.976C81.8671 59.1955 81.4911 59.5879 81.2932 60.0735C81.0953 60.5592 81.0904 61.1017 81.2794 61.5908Z" fill="#00A2FF"/>
<path opacity="0.1" d="M74.6681 68.5442C74.9645 69.6414 77.8172 72.2936 77.8172 72.2936C77.8172 72.2936 78.9562 68.5751 78.6611 67.4779C78.4935 66.98 78.1416 66.5645 77.6771 66.3161C77.2126 66.0678 76.6706 66.0052 76.1614 66.1412C75.6522 66.2771 75.2143 66.6014 74.9368 67.0479C74.6593 67.4944 74.5632 68.0295 74.6681 68.5442Z" fill="#00A2FF"/>
<path opacity="0.25" d="M98.5963 51.4887C97.8857 52.3784 94.2085 53.6806 94.2085 53.6806C94.2085 53.6806 94.6512 49.819 95.3617 48.9294C95.5238 48.6988 95.7316 48.5038 95.9722 48.3562C96.2128 48.2086 96.4812 48.1116 96.7608 48.0712C97.0404 48.0308 97.3254 48.0479 97.5982 48.1213C97.871 48.1947 98.1258 48.323 98.347 48.4981C98.5681 48.6733 98.7509 48.8918 98.8842 49.14C99.0174 49.3882 99.0983 49.6609 99.1218 49.9414C99.1452 50.2219 99.1108 50.5043 99.0207 50.771C98.9305 51.0378 98.7865 51.2834 98.5975 51.4926L98.5963 51.4887Z" fill="black"/>
<path opacity="0.25" d="M97.334 58.535C96.252 58.8973 92.457 57.9973 92.457 57.9973C92.457 57.9973 94.9357 54.9957 96.0177 54.6334C96.28 54.5249 96.562 54.4714 96.8459 54.4761C97.1299 54.4807 97.4099 54.5435 97.6685 54.6606C97.9271 54.7777 98.1587 54.9465 98.349 55.1565C98.5394 55.3665 98.6843 55.6133 98.7747 55.8815C98.8652 56.1497 98.8994 56.4336 98.875 56.7155C98.8507 56.9974 98.7684 57.2713 98.6333 57.5201C98.4982 57.769 98.3131 57.9875 98.0896 58.1621C97.8661 58.3367 97.6089 58.4636 97.334 58.535Z" fill="black"/>
<path opacity="0.25" d="M90.4925 66.8655C89.3755 66.6347 86.5552 63.9477 86.5552 63.9477C86.5552 63.9477 90.2168 62.6029 91.3338 62.835C91.8398 62.9755 92.2733 63.3023 92.5466 63.7492C92.8198 64.1962 92.9123 64.7298 92.8053 65.2422C92.6984 65.7545 92.4 66.2072 91.9706 66.5086C91.5411 66.81 91.0128 66.9376 90.4925 66.8655Z" fill="black"/>
<path opacity="0.25" d="M83.8915 72.0074C82.7512 71.9674 79.5154 69.7948 79.5154 69.7948C79.5154 69.7948 82.8961 67.8531 84.0364 67.8918C84.319 67.8843 84.6001 67.9346 84.8624 68.0395C85.1247 68.1444 85.3627 68.3017 85.5617 68.5016C85.7607 68.7016 85.9165 68.9401 86.0195 69.2023C86.1225 69.4645 86.1705 69.7449 86.1606 70.0263C86.1507 70.3077 86.0831 70.5841 85.9619 70.8385C85.8407 71.0929 85.6685 71.3199 85.4559 71.5055C85.2433 71.6911 84.9949 71.8313 84.7258 71.9176C84.4567 72.004 84.1728 72.0345 83.8915 72.0074Z" fill="black"/>
<path opacity="0.25" d="M88.9239 55.4793C89.0688 56.6062 91.541 59.6142 91.541 59.6142C91.541 59.6142 93.1692 56.0814 93.023 54.9532C93.0052 54.6715 92.9296 54.3965 92.8008 54.145C92.672 53.8936 92.4928 53.6712 92.2743 53.4915C92.0557 53.3119 91.8025 53.1788 91.5303 53.1006C91.258 53.0223 90.9726 53.0006 90.6915 53.0366C90.4105 53.0727 90.1399 53.1658 89.8965 53.3102C89.653 53.4547 89.4419 53.6473 89.2763 53.8763C89.1106 54.1053 88.9938 54.3657 88.9332 54.6414C88.8726 54.9171 88.8694 55.2023 88.9239 55.4793Z" fill="black"/>
<path opacity="0.25" d="M81.2794 61.5908C81.757 62.6223 85.02 64.7561 85.02 64.7561C85.02 64.7561 85.5106 60.8997 85.0329 59.8669C84.7824 59.4061 84.3651 59.0575 83.8658 58.892C83.3666 58.7265 82.8228 58.7566 82.345 58.976C81.8671 59.1955 81.4911 59.5879 81.2932 60.0735C81.0953 60.5592 81.0904 61.1017 81.2794 61.5908Z" fill="black"/>
<path opacity="0.25" d="M74.6681 68.5442C74.9645 69.6414 77.8172 72.2936 77.8172 72.2936C77.8172 72.2936 78.9562 68.5751 78.6611 67.4779C78.4935 66.98 78.1416 66.5645 77.6771 66.3161C77.2126 66.0678 76.6706 66.0052 76.1614 66.1412C75.6522 66.2771 75.2143 66.6014 74.9368 67.0479C74.6593 67.4944 74.5632 68.0295 74.6681 68.5442Z" fill="black"/>
</g>
<g opacity="0.1">
<path opacity="0.1" d="M78.2302 62.9704C78.2302 62.9704 78.691 53.3106 84.0146 47.9237C86.2622 45.6781 87.7178 42.7667 88.1629 39.6268C88.3611 38.1346 88.4218 36.6276 88.3441 35.1244" stroke="#535461" stroke-width="2" stroke-miterlimit="10"/>
<path opacity="0.1" d="M91.6822 31.7089C91.3081 32.7829 88.2716 35.2224 88.2716 35.2224C88.2716 35.2224 87.4044 31.433 87.7772 30.3589C87.8528 30.0872 87.9835 29.8338 88.1612 29.6143C88.339 29.3949 88.56 29.2141 88.8107 29.0831C89.0613 28.9521 89.3363 28.8736 89.6185 28.8526C89.9008 28.8316 90.1844 28.8684 90.4518 28.9609C90.7193 29.0533 90.9648 29.1994 91.1733 29.3901C91.3819 29.5808 91.5489 29.812 91.6642 30.0695C91.7795 30.3271 91.8406 30.6054 91.8437 30.8874C91.8468 31.1693 91.7918 31.4489 91.6822 31.7089Z" fill="#00A2FF"/>
<path opacity="0.1" d="M92.8379 38.7694C91.9318 39.4695 88.0566 39.873 88.0566 39.873C88.0566 39.873 89.3963 36.2216 90.2958 35.5228C90.7307 35.2277 91.262 35.1085 91.7819 35.1895C92.3017 35.2705 92.7711 35.5456 93.0947 35.9589C93.4184 36.3722 93.5719 36.8927 93.5242 37.4147C93.4765 37.9367 93.2311 38.4211 92.8379 38.7694Z" fill="#00A2FF"/>
<path opacity="0.1" d="M89.1567 48.892C88.0255 49.0428 84.47 47.4402 84.47 47.4402C84.47 47.4402 87.4767 44.9582 88.6027 44.8112C89.1275 44.7754 89.6463 44.9399 90.0538 45.2713C90.4612 45.6027 90.7269 46.0761 90.7967 46.5954C90.8665 47.1148 90.7354 47.6411 90.4298 48.0677C90.1243 48.4942 89.6673 48.7889 89.1515 48.892H89.1567Z" fill="#00A2FF"/>
<path opacity="0.1" d="M84.6397 55.9241C83.5511 56.2632 79.7756 55.2794 79.7756 55.2794C79.7756 55.2794 82.3177 52.3307 83.4075 51.9916C83.6718 51.8901 83.9543 51.8437 84.2373 51.8553C84.5204 51.8669 84.7981 51.9362 85.0532 52.059C85.3083 52.1818 85.5354 52.3554 85.7204 52.5691C85.9054 52.7828 86.0445 53.0321 86.129 53.3015C86.2134 53.5709 86.2415 53.8547 86.2115 54.1353C86.1814 54.4159 86.0939 54.6874 85.9543 54.933C85.8147 55.1786 85.626 55.393 85.3999 55.5631C85.1738 55.7331 84.915 55.8551 84.6397 55.9215V55.9241Z" fill="#00A2FF"/>
<path opacity="0.1" d="M83.8849 38.6687C84.4026 39.6835 87.7317 41.7051 87.7317 41.7051C87.7317 41.7051 88.0902 37.8371 87.5776 36.8185C87.4667 36.5591 87.3037 36.3252 87.0984 36.131C86.8932 35.9368 86.6503 35.7866 86.3845 35.6897C86.1187 35.5927 85.8359 35.5511 85.5533 35.5672C85.2708 35.5834 84.9945 35.6572 84.7417 35.7838C84.4889 35.9105 84.2648 36.0875 84.0833 36.3038C83.9018 36.5201 83.7667 36.7712 83.6864 37.0415C83.6061 37.3119 83.5823 37.5958 83.6164 37.8756C83.6506 38.1555 83.7419 38.4254 83.8849 38.6687Z" fill="#00A2FF"/>
<path opacity="0.1" d="M78.7078 46.958C79.5025 47.7741 83.2897 48.7089 83.2897 48.7089C83.2897 48.7089 82.4704 44.9092 81.6757 44.0931C81.4923 43.8777 81.2665 43.7021 81.0122 43.5772C80.7579 43.4523 80.4806 43.3808 80.1974 43.367C79.9143 43.3532 79.6313 43.3974 79.366 43.497C79.1007 43.5966 78.8588 43.7494 78.6552 43.946C78.4516 44.1425 78.2906 44.3786 78.1824 44.6396C78.0741 44.9006 78.0208 45.181 78.0257 45.4633C78.0306 45.7457 78.0937 46.0241 78.211 46.2812C78.3284 46.5382 78.4974 46.7686 78.7078 46.958Z" fill="#00A2FF"/>
<path opacity="0.1" d="M74.786 55.7036C75.4331 56.6422 79.0055 58.1998 79.0055 58.1998C79.0055 58.1998 78.8411 54.3163 78.1978 53.3789C78.0545 53.1343 77.8622 52.9216 77.6328 52.7542C77.4034 52.5869 77.1419 52.4683 76.8646 52.4061C76.5872 52.3438 76.2999 52.339 76.0206 52.3921C75.7413 52.4453 75.476 52.5551 75.2412 52.7148C75.0064 52.8746 74.8071 53.0807 74.6558 53.3205C74.5045 53.5603 74.4043 53.8286 74.3616 54.1086C74.3189 54.3886 74.3346 54.6744 74.4076 54.9482C74.4806 55.2219 74.6094 55.4777 74.786 55.6997V55.7036Z" fill="#00A2FF"/>
</g>
<path d="M127.956 80.2863C127.956 80.2863 128.668 81.2133 127.629 82.6071C126.59 84.0009 125.733 85.1858 126.076 86.0586C126.076 86.0586 127.645 83.4619 128.923 83.4245C130.202 83.3871 129.361 81.8476 127.956 80.2863Z" fill="#00A2FF"/>
<path opacity="0.1" d="M127.957 80.2863C128.019 80.3761 128.068 80.4741 128.103 80.5776C129.348 82.0346 130.011 83.3949 128.813 83.4284C127.699 83.4606 126.362 85.4462 126.041 85.9478C126.052 85.9866 126.064 86.0249 126.079 86.0625C126.079 86.0625 127.647 83.4658 128.926 83.4284C130.205 83.391 129.361 81.8477 127.957 80.2863Z" fill="black"/>
<path d="M129.279 81.466C129.279 81.7922 129.242 82.0565 129.197 82.0565C129.151 82.0565 129.115 81.7922 129.115 81.466C129.115 81.1398 129.16 81.2932 129.206 81.2932C129.251 81.2932 129.279 81.1398 129.279 81.466Z" fill="#FFD037"/>
<path d="M129.732 81.8554C129.445 82.0114 129.194 82.1055 129.173 82.0655C129.153 82.0256 129.366 81.8683 129.653 81.7123C129.941 81.5563 129.828 81.6698 129.85 81.7123C129.872 81.7548 130.021 81.7046 129.732 81.8554Z" fill="#FFD037"/>
<path d="M124.197 80.2863C124.197 80.2863 123.485 81.2133 124.524 82.6071C125.564 84.0009 126.42 85.1858 126.077 86.0586C126.077 86.0586 124.51 83.4619 123.23 83.4245C121.95 83.3871 122.798 81.8476 124.197 80.2863Z" fill="#00A2FF"/>
<path opacity="0.1" d="M124.197 80.2863C124.134 80.3761 124.085 80.4741 124.05 80.5776C122.805 82.0346 122.143 83.3949 123.34 83.4284C124.454 83.4606 125.791 85.4462 126.112 85.9478C126.102 85.9868 126.089 86.0252 126.073 86.0625C126.073 86.0625 124.506 83.4658 123.226 83.4284C121.946 83.391 122.797 81.8477 124.197 80.2863Z" fill="black"/>
<path d="M122.879 81.466C122.879 81.7922 122.916 82.0565 122.962 82.0565C123.007 82.0565 123.043 81.7922 123.043 81.466C123.043 81.1398 122.998 81.2932 122.953 81.2932C122.907 81.2932 122.879 81.1398 122.879 81.466Z" fill="#FFD037"/>
<path d="M122.426 81.8554C122.713 82.0114 122.963 82.1055 122.985 82.0655C123.007 82.0256 122.792 81.8683 122.505 81.7123C122.218 81.5563 122.33 81.6698 122.308 81.7123C122.286 81.7548 122.139 81.7046 122.426 81.8554Z" fill="#FFD037"/>
<path d="M123.105 85.9401C123.105 85.9401 125.094 85.8795 125.694 85.454C126.295 85.0285 128.753 84.5218 128.901 85.1961C129.05 85.8705 131.889 88.5871 129.644 88.6052C127.4 88.6232 124.43 88.2557 123.832 87.8934C123.234 87.5311 123.105 85.9401 123.105 85.9401Z" fill="#A8A8A8"/>
<path opacity="0.2" d="M129.683 88.373C127.439 88.3911 124.468 88.0249 123.87 87.6626C123.415 87.3867 123.234 86.3952 123.173 85.9375H123.105C123.105 85.9375 123.235 87.535 123.83 87.8973C124.426 88.2596 127.399 88.6257 129.643 88.609C130.29 88.6025 130.514 88.373 130.502 88.0339C130.409 88.2415 130.165 88.3692 129.683 88.373Z" fill="black"/>
<path opacity="0.1" d="M0.108643 92.6421C2.7853 93.6065 6.05087 93.0198 9.08735 93.0882C9.50283 93.0972 9.94419 93.1256 10.2768 93.2919C10.6095 93.4582 10.7751 93.729 11.0029 93.9598C11.8546 94.8198 13.5916 95.097 15.1228 94.9513C16.654 94.8056 18.0441 94.3221 19.4859 93.9533C21.9723 93.3177 24.8147 93.0276 27.2674 93.7213C27.4924 93.8025 27.731 93.8401 27.9702 93.8321C28.5073 93.7754 28.6678 93.3164 29.0445 93.0508C29.7227 92.575 31.197 92.704 31.4959 92.0761C31.6707 91.7086 31.2681 91.3321 30.8307 91.0807C29.1545 90.1201 26.7561 89.9615 24.5636 90.1098C22.371 90.2581 20.2133 90.6668 18.0078 90.6681C15.2613 90.6681 12.6066 90.0415 9.88595 89.7849C8.00142 89.607 5.94603 89.6289 4.17928 90.1537C2.2611 90.721 1.83915 91.9948 0.108643 92.6421Z" fill="#00A2FF"/>
<path d="M30.37 90.1136C30.6079 89.9214 30.7813 89.6614 30.867 89.3684C30.9304 89.0719 30.8035 88.7173 30.5201 88.609C30.2017 88.4878 29.8613 88.707 29.6037 88.9287C29.3461 89.1505 29.0497 89.4045 28.7119 89.3581C28.8857 89.2011 29.0156 89.002 29.0891 88.7801C29.1626 88.5582 29.1771 88.3211 29.1313 88.092C29.1166 87.9971 29.0763 87.908 29.0148 87.8341C28.8388 87.6458 28.5178 87.7271 28.3055 87.8753C27.6325 88.3472 27.4448 89.2575 27.4422 90.0775C27.3736 89.781 27.4306 89.4741 27.4293 89.175C27.428 88.8759 27.3438 88.5303 27.0876 88.373C26.9293 88.2857 26.7508 88.2413 26.5698 88.2441C26.267 88.2338 25.9304 88.2634 25.7234 88.4839C25.4645 88.7573 25.5331 89.2175 25.757 89.5154C25.9809 89.8132 26.32 90.0053 26.632 90.2142C26.883 90.3629 27.0971 90.566 27.2584 90.8086C27.2775 90.8422 27.2931 90.8776 27.305 90.9143H29.1934C29.6204 90.7021 30.0162 90.4327 30.37 90.1136Z" fill="#00A2FF"/>
<path d="M15.3001 92.1483C15.3001 92.1483 13.4881 85.9968 15.6405 81.4686C16.5583 79.5755 16.8354 77.4371 16.4301 75.3739C16.2288 74.3959 15.9385 73.4383 15.5629 72.5128" stroke="#535461" stroke-width="2" stroke-miterlimit="10"/>
<path d="M16.9079 69.6517C16.9079 70.406 15.5372 72.5914 15.5372 72.5914C15.5372 72.5914 14.1665 70.3996 14.1665 69.6517C14.1665 69.2896 14.3109 68.9423 14.568 68.6862C14.825 68.4302 15.1737 68.2863 15.5372 68.2863C15.9007 68.2863 16.2494 68.4302 16.5064 68.6862C16.7635 68.9423 16.9079 69.2896 16.9079 69.6517Z" fill="#00A2FF"/>
<path d="M19.1728 73.8279C18.7612 74.4597 16.4185 75.553 16.4185 75.553C16.4185 75.553 16.4599 72.9744 16.8715 72.3439C17.069 72.0399 17.3797 71.8265 17.7352 71.7507C18.0907 71.6749 18.4618 71.7429 18.767 71.9397C19.0722 72.1365 19.2864 72.446 19.3625 72.8001C19.4386 73.1542 19.3703 73.5239 19.1728 73.8279Z" fill="#00A2FF"/>
<path d="M19.0732 80.9632C18.3976 81.3023 15.8206 81.0689 15.8206 81.0689C15.8206 81.0689 17.1641 78.8654 17.8397 78.5263C18.1641 78.3634 18.5402 78.3355 18.8852 78.4488C19.2303 78.562 19.516 78.8072 19.6796 79.1304C19.8432 79.4535 19.8712 79.8282 19.7574 80.1719C19.6437 80.5156 19.3976 80.8003 19.0732 80.9632Z" fill="#00A2FF"/>
<path d="M17.7775 86.3462C17.1692 86.7936 14.5896 86.9909 14.5896 86.9909C14.5896 86.9909 15.5396 84.5927 16.1428 84.144C16.2864 84.0268 16.4524 83.9398 16.6308 83.8884C16.8091 83.837 16.9961 83.8222 17.1804 83.845C17.3646 83.8677 17.5423 83.9275 17.7027 84.0208C17.863 84.114 18.0027 84.2387 18.1132 84.3874C18.2237 84.536 18.3028 84.7055 18.3455 84.8854C18.3883 85.0654 18.3939 85.2522 18.362 85.4344C18.3302 85.6166 18.2615 85.7905 18.1601 85.9454C18.0587 86.1004 17.9268 86.2332 17.7723 86.3359L17.7775 86.3462Z" fill="#00A2FF"/>
<path d="M13.5413 75.7001C14.0836 76.2249 16.6127 76.769 16.6127 76.769C16.6127 76.769 15.9927 74.2663 15.4478 73.7416C15.3199 73.6113 15.167 73.5079 14.9983 73.4374C14.8296 73.3669 14.6485 73.3307 14.4655 73.3311C14.2825 73.3314 14.1015 73.3682 13.9331 73.4394C13.7646 73.5105 13.6122 73.6145 13.4847 73.7453C13.3573 73.876 13.2574 74.0309 13.191 74.2007C13.1245 74.3705 13.0929 74.5518 13.0979 74.734C13.103 74.9162 13.1445 75.0955 13.2203 75.2615C13.296 75.4274 13.4042 75.5765 13.5387 75.7001H13.5413Z" fill="#00A2FF"/>
<path d="M12.1083 82.014C12.784 82.3531 15.361 82.1184 15.361 82.1184C15.361 82.1184 14.0188 79.9149 13.3418 79.5758C13.0183 79.4215 12.6469 79.3996 12.3074 79.515C11.9678 79.6303 11.6873 79.8737 11.5258 80.1928C11.3644 80.5119 11.3349 80.8814 11.4438 81.2219C11.5528 81.5623 11.7913 81.8467 12.1083 82.014Z" fill="#00A2FF"/>
<path d="M11.557 88.3408C12.1654 88.7895 14.745 88.9855 14.745 88.9855C14.745 88.9855 13.7949 86.5873 13.1918 86.1399C13.0482 86.0226 12.8822 85.9356 12.7038 85.8842C12.5254 85.8328 12.3384 85.8181 12.1542 85.8408C11.9699 85.8636 11.7922 85.9234 11.6319 86.0166C11.4715 86.1099 11.3318 86.2346 11.2213 86.3832C11.1108 86.5319 11.0318 86.7013 10.989 86.8813C10.9462 87.0613 10.9406 87.2481 10.9725 87.4303C11.0044 87.6125 11.0731 87.7864 11.1745 87.9413C11.2758 88.0963 11.4078 88.2291 11.5622 88.3318L11.557 88.3408Z" fill="#00A2FF"/>
<path d="M16.9079 69.6517C16.9079 70.406 15.5372 72.5914 15.5372 72.5914C15.5372 72.5914 14.1665 70.3996 14.1665 69.6517C14.1665 69.2896 14.3109 68.9423 14.568 68.6862C14.825 68.4302 15.1737 68.2863 15.5372 68.2863C15.9007 68.2863 16.2494 68.4302 16.5064 68.6862C16.7635 68.9423 16.9079 69.2896 16.9079 69.6517Z" fill="#00A2FF"/>
<path d="M19.1728 73.8279C18.7612 74.4597 16.4185 75.553 16.4185 75.553C16.4185 75.553 16.4599 72.9744 16.8715 72.3439C17.069 72.0399 17.3797 71.8265 17.7352 71.7507C18.0907 71.6749 18.4618 71.7429 18.767 71.9397C19.0722 72.1365 19.2864 72.446 19.3625 72.8001C19.4386 73.1542 19.3703 73.5239 19.1728 73.8279Z" fill="#00A2FF"/>
<path d="M19.0732 80.9632C18.3976 81.3023 15.8206 81.0689 15.8206 81.0689C15.8206 81.0689 17.1641 78.8654 17.8397 78.5263C18.1641 78.3634 18.5402 78.3355 18.8852 78.4488C19.2303 78.562 19.516 78.8072 19.6796 79.1304C19.8432 79.4535 19.8712 79.8282 19.7574 80.1719C19.6437 80.5156 19.3976 80.8003 19.0732 80.9632Z" fill="#00A2FF"/>
<path d="M17.7775 86.3462C17.1692 86.7936 14.5896 86.9909 14.5896 86.9909C14.5896 86.9909 15.5396 84.5927 16.1428 84.144C16.2864 84.0268 16.4524 83.9398 16.6308 83.8884C16.8091 83.837 16.9961 83.8222 17.1804 83.845C17.3646 83.8677 17.5423 83.9275 17.7027 84.0208C17.863 84.114 18.0027 84.2387 18.1132 84.3874C18.2237 84.536 18.3028 84.7055 18.3455 84.8854C18.3883 85.0654 18.3939 85.2522 18.362 85.4344C18.3302 85.6166 18.2615 85.7905 18.1601 85.9454C18.0587 86.1004 17.9268 86.2332 17.7723 86.3359L17.7775 86.3462Z" fill="#00A2FF"/>
<path d="M13.5413 75.7001C14.0836 76.2249 16.6127 76.769 16.6127 76.769C16.6127 76.769 15.9927 74.2663 15.4478 73.7416C15.3199 73.6113 15.167 73.5079 14.9983 73.4374C14.8296 73.3669 14.6485 73.3307 14.4655 73.3311C14.2825 73.3314 14.1015 73.3682 13.9331 73.4394C13.7646 73.5105 13.6122 73.6145 13.4847 73.7453C13.3573 73.876 13.2574 74.0309 13.191 74.2007C13.1245 74.3705 13.0929 74.5518 13.0979 74.734C13.103 74.9162 13.1445 75.0955 13.2203 75.2615C13.296 75.4274 13.4042 75.5765 13.5387 75.7001H13.5413Z" fill="#00A2FF"/>
<path d="M12.1083 82.014C12.784 82.3531 15.361 82.1184 15.361 82.1184C15.361 82.1184 14.0188 79.9149 13.3418 79.5758C13.0183 79.4215 12.6469 79.3996 12.3074 79.515C11.9678 79.6303 11.6873 79.8737 11.5258 80.1928C11.3644 80.5119 11.3349 80.8814 11.4438 81.2219C11.5528 81.5623 11.7913 81.8467 12.1083 82.014Z" fill="#00A2FF"/>
<path d="M11.557 88.3408C12.1654 88.7895 14.745 88.9855 14.745 88.9855C14.745 88.9855 13.7949 86.5873 13.1918 86.1399C13.0482 86.0226 12.8822 85.9356 12.7038 85.8842C12.5254 85.8328 12.3384 85.8181 12.1542 85.8408C11.9699 85.8636 11.7922 85.9234 11.6319 86.0166C11.4715 86.1099 11.3318 86.2346 11.2213 86.3832C11.1108 86.5319 11.0318 86.7013 10.989 86.8813C10.9462 87.0613 10.9406 87.2481 10.9725 87.4303C11.0044 87.6125 11.0731 87.7864 11.1745 87.9413C11.2758 88.0963 11.4078 88.2291 11.5622 88.3318L11.557 88.3408Z" fill="#00A2FF"/>
<path d="M11.0017 91.7615C11.0017 91.7615 13.2163 91.3231 13.8065 90.739C14.3967 90.1549 17.0553 89.1325 17.3504 89.8635C17.6455 90.5946 21.3369 93.0753 18.8272 93.5137C16.3175 93.9521 12.9212 94.0977 12.1821 93.8064C11.4431 93.515 11.0017 91.7615 11.0017 91.7615Z" fill="#A8A8A8"/>
<path opacity="0.2" d="M18.8272 93.2416C16.3162 93.68 12.9212 93.8257 12.1821 93.533C11.6204 93.3112 11.2295 92.2437 11.0755 91.7447L11.0017 91.7602C11.0017 91.7602 11.4444 93.5124 12.1821 93.805C12.9199 94.0977 16.3162 93.9507 18.8272 93.5124C19.5507 93.3834 19.7578 93.0895 19.6801 92.713C19.6154 92.9579 19.3656 93.1475 18.8272 93.2416Z" fill="black"/>
<path opacity="0.1" d="M44.5015 104.855C49.5907 106.558 55.7996 105.521 61.5736 105.643C62.3644 105.659 63.2018 105.708 63.836 106.002C64.4703 106.296 64.7809 106.776 65.2158 107.183C66.835 108.702 70.1497 109.192 73.0477 108.933C75.9457 108.674 78.603 107.822 81.3314 107.172C86.0582 106.047 91.462 105.537 96.1242 106.762C96.5526 106.874 97.003 107.003 97.4612 106.958C98.4837 106.858 98.7879 106.042 99.5036 105.577C100.798 104.736 103.596 104.964 104.163 103.857C104.496 103.212 103.731 102.54 102.899 102.098C99.7133 100.4 95.1547 100.12 90.9831 100.383C86.8115 100.646 82.7124 101.366 78.5201 101.368C73.2975 101.368 68.251 100.262 63.0789 99.8082C59.4962 99.4923 55.586 99.5323 52.2273 100.453C48.5941 101.462 47.7916 103.711 44.5015 104.855Z" fill="#00A2FF"/>
<path d="M91.8879 91.8685C91.9163 91.6222 91.9578 91.3772 92.0018 91.1322C92.1959 90.0711 91.8995 89.0603 91.7429 88.6438C91.6976 88.5149 91.664 88.4414 91.664 88.4414C90.8783 88.2286 87.781 90.6191 86.6575 91.5203C86.2692 91.5203 85.8421 91.5371 85.38 91.568C85.1781 91.5822 84.9749 91.5874 84.773 91.5835C84.5918 91.5835 84.3342 91.5835 84.0339 91.5835C82.9868 90.7441 79.7497 88.2183 78.942 88.4375C78.942 88.4375 78.9097 88.5097 78.8631 88.6399C78.7116 89.0564 78.4165 90.0672 78.6042 91.1284C78.6495 91.3733 78.6896 91.6183 78.7181 91.8646C78.7789 92.4048 79.0055 93.4376 79.8286 94.1377C80.0034 95.4142 80.6635 97.0916 81.1709 98.1102C81.2089 98.3029 81.2666 98.4913 81.343 98.6723C81.1333 99.4769 80.8926 100.528 80.9547 100.875C80.9547 100.875 79.861 100.61 79.7497 101.923C79.7497 101.936 79.7497 101.95 79.7497 101.963C79.3536 102.145 78.8605 102.557 79.4158 103.425C79.4827 103.531 79.5833 103.613 79.7018 103.656C79.8002 103.69 79.8959 103.69 79.8856 103.553L80.5703 104.326C80.5703 104.326 81.8103 104.468 81.8245 103.751L81.897 103.763C82.0639 103.787 82.2387 103.808 82.4147 103.826L82.5001 104.11C82.5001 104.11 81.5695 104.09 81.8232 104.66C81.8232 104.66 82.0575 104.877 82.1377 104.798C82.1377 104.798 82.0173 105.172 82.5001 105.172C82.5001 105.172 83.0179 105.448 83.2237 105.252C83.4295 105.056 83.8488 104.759 83.8889 104.641C83.9006 104.609 83.9058 104.317 83.9071 103.915H83.9873C85.0228 103.939 86.1281 103.906 87.1325 103.852H87.2128C87.2128 104.289 87.2192 104.609 87.2309 104.643C87.271 104.762 87.6943 105.057 87.8962 105.254C88.0981 105.452 88.6197 105.175 88.6197 105.175C89.1025 105.175 88.9821 104.801 88.9821 104.801C89.0624 104.879 89.2966 104.663 89.2966 104.663C89.5555 104.093 88.6197 104.112 88.6197 104.112L88.7297 103.749L89.2474 103.706L89.3277 103.698C89.2785 104.478 90.5819 104.329 90.5819 104.329L91.2666 103.555C91.2562 103.693 91.352 103.693 91.4504 103.658C91.5689 103.615 91.6695 103.534 91.7364 103.427C92.5752 102.12 91.0246 101.843 91.0246 101.843C90.9767 101.83 90.9277 101.822 90.8783 101.82C90.8783 101.796 90.8783 101.773 90.8783 101.751C90.897 101.58 90.9005 101.407 90.8886 101.236C90.8304 101 90.4473 100.626 89.9645 100.566C89.65 100.528 89.6422 99.0849 89.6759 98.0844C89.711 97.8961 89.7275 97.7048 89.725 97.5132C89.7284 97.205 89.6848 96.8981 89.5956 96.6029C90.213 95.5611 90.7074 94.4704 90.7605 94.1416C91.6018 93.4376 91.827 92.4061 91.8879 91.8685Z" fill="url(#paint0_linear)"/>
<path d="M90.6956 101.818C90.6464 102.498 90.5144 103.589 90.5144 103.589C90.5144 103.589 89.9656 103.656 89.1178 103.732L88.5432 103.781C88.1005 103.816 87.6061 103.85 87.0832 103.88C86.115 103.933 85.0524 103.965 84.0519 103.942C83.551 103.93 83.0656 103.904 82.6152 103.861C82.4146 103.841 82.2269 103.818 82.034 103.79C80.886 103.62 80.0693 103.293 79.9942 102.72C79.9581 102.478 79.949 102.233 79.967 101.99C80.0744 100.7 81.1319 100.958 81.1319 100.958C81.0633 100.602 81.3196 99.4962 81.5202 98.6955C81.6496 98.1914 81.7622 97.8085 81.7622 97.8085L89.1696 97.3134H89.1942C89.2434 97.3135 89.2921 97.3235 89.3373 97.3429C89.3825 97.3623 89.4233 97.3907 89.4572 97.4262C89.491 97.4618 89.5173 97.5038 89.5344 97.5498C89.5515 97.5958 89.5591 97.6447 89.5566 97.6937C89.5126 98.5782 89.4492 100.605 89.8155 100.65C90.2814 100.708 90.6503 101.076 90.706 101.308C90.7181 101.478 90.7147 101.649 90.6956 101.818Z" fill="#D3899B"/>
<path d="M84.4028 92.1032C84.4028 92.1032 81.6097 95.4555 80.261 94.5259C80.2286 94.504 80.1976 94.4807 80.1678 94.4575C79.2618 93.7742 79.0249 92.6756 78.9628 92.1174C78.9356 91.875 78.8968 91.6351 78.854 91.394C78.6664 90.3522 78.9524 89.3607 79.0974 88.9507C79.1414 88.8218 79.1725 88.7534 79.1725 88.7534C80.1095 88.4956 84.4028 92.1032 84.4028 92.1032Z" fill="#D3899B"/>
<path d="M82.9076 92.4126C82.9076 92.4126 82.0275 93.0315 80.7862 94.0359C80.5952 94.1931 80.3913 94.3342 80.1766 94.4575C79.2706 93.7741 79.0337 92.6756 78.9716 92.1173C78.9444 91.8749 78.9055 91.6351 78.8628 91.394C78.6752 90.3522 78.9612 89.3607 79.1062 88.9507C80.8367 89.0719 82.9076 92.4126 82.9076 92.4126Z" fill="#EEC5CD"/>
<path opacity="0.1" d="M81.946 92.0825C81.946 92.0825 81.4762 92.4125 80.8135 92.9489C80.7111 93.0343 80.602 93.1115 80.4873 93.1797C80.0045 92.8148 79.8777 92.2282 79.8401 91.9303C79.8259 91.8014 79.8052 91.6725 79.7819 91.5435C79.7163 91.105 79.7607 90.6572 79.9113 90.24C80.8432 90.2993 81.946 92.0825 81.946 92.0825Z" fill="black"/>
<path d="M86.2136 92.1032C86.2136 92.1032 89.0081 95.4555 90.3555 94.5259L90.4486 94.4575C91.3547 93.7742 91.5902 92.6756 91.6524 92.1174C91.6795 91.875 91.7197 91.6351 91.7624 91.394C91.9488 90.3522 91.664 89.3607 91.5178 88.9507C91.4738 88.8218 91.4414 88.7534 91.4414 88.7534C90.5082 88.4956 86.2136 92.1032 86.2136 92.1032Z" fill="#D3899B"/>
<path d="M87.7136 92.4126C87.7136 92.4126 88.5938 93.0315 89.835 94.0359C90.0267 94.1929 90.231 94.3339 90.446 94.4575C91.352 93.7741 91.5876 92.6756 91.6497 92.1173C91.6769 91.8749 91.717 91.6351 91.7597 91.394C91.9461 90.3522 91.6613 89.3607 91.5151 88.9507C89.7794 89.0719 87.7136 92.4126 87.7136 92.4126Z" fill="#EEC5CD"/>
<path opacity="0.1" d="M88.678 92.0799C88.678 92.0799 89.1452 92.4087 89.804 92.9412C89.9055 93.0246 90.0138 93.0997 90.1276 93.1655C90.6065 92.8032 90.7333 92.2191 90.767 91.9239C90.7812 91.7949 90.8019 91.666 90.8239 91.5371C90.8885 91.1007 90.8441 90.6552 90.6945 90.24C89.7742 90.307 88.678 92.0799 88.678 92.0799Z" fill="black"/>
<path opacity="0.1" d="M89.1722 97.316C88.8201 97.8717 88.4448 98.3733 88.1018 98.6737C86.99 99.6523 82.2049 99.2668 81.889 99.2152C81.8243 99.2049 81.6884 99.0115 81.5176 98.6995C81.647 98.1953 81.7596 97.8124 81.7596 97.8124L89.1722 97.316Z" fill="black"/>
<path d="M85.3811 91.822C85.1869 91.8362 84.9928 91.8401 84.7973 91.8375C83.7968 91.8207 80.4316 91.8646 80.0576 93.2171C79.6175 94.8081 81.5836 99.0862 81.8942 99.1378C82.2048 99.1893 86.9899 99.5761 88.1069 98.5962C89.2239 97.6163 90.6684 94.5516 90.5907 94.2679C90.5855 94.2679 91.9679 91.3669 85.3811 91.822Z" fill="#D3899B"/>
<path opacity="0.1" d="M85.2764 94.4097C85.2764 94.4097 82.8171 94.032 81.6522 96.4482C81.421 96.9172 81.3192 97.4391 81.3575 97.9603C81.3957 98.4815 81.5725 98.9831 81.8697 99.4137C82.258 99.9526 82.8184 100.354 83.6041 100.03C85.3527 99.3144 85.2764 94.4097 85.2764 94.4097Z" fill="black"/>
<path opacity="0.1" d="M85.1987 94.2551C85.1987 94.2551 82.7395 93.8773 81.5746 96.2935C81.3434 96.7626 81.2416 97.2845 81.2798 97.8056C81.318 98.3268 81.4948 98.8284 81.7921 99.259C82.1804 99.7979 82.7408 100.199 83.5265 99.8766C85.2751 99.1597 85.1987 94.2551 85.1987 94.2551Z" fill="black"/>
<path d="M85.1987 94.3324C85.1987 94.3324 82.7395 93.9546 81.5746 96.3709C81.3434 96.8399 81.2416 97.3618 81.2798 97.883C81.318 98.4041 81.4948 98.9058 81.7921 99.3363C82.1804 99.8753 82.7408 100.276 83.5265 99.9526C85.2751 99.2396 85.1987 94.3324 85.1987 94.3324Z" fill="#EEC5CD"/>
<path d="M82.5402 96.4443C82.5402 96.4443 82.2037 96.7538 82.3331 96.8312C82.4625 96.9085 82.5402 96.4443 82.5402 96.4443Z" fill="#3F2B3B"/>
<path d="M82.9078 96.8402C82.9078 96.8402 82.7253 97.2438 82.8547 97.2889C82.9841 97.334 83.0631 96.9988 83.0631 96.9988L82.9078 96.8402Z" fill="#3F2B3B"/>
<path d="M82.0896 97.4501C82.0896 97.4501 81.911 97.9271 82.0896 97.9271C82.2682 97.9271 82.0896 97.4501 82.0896 97.4501Z" fill="#3F2B3B"/>
<path d="M81.8723 98.7239C81.8723 98.7239 82.2308 99.6394 83.1666 99.5749" stroke="#3F2B3B" stroke-miterlimit="10"/>
<path d="M82.7085 98.996C82.7085 98.996 83.0838 99.357 83.4851 99.0991" stroke="#3F2B3B" stroke-miterlimit="10"/>
<path opacity="0.1" d="M85.5869 94.4097C85.5869 94.4097 88.0462 94.032 89.2111 96.4482C89.4429 96.9171 89.5449 97.4391 89.5067 97.9604C89.4685 98.4816 89.2914 98.9833 88.9936 99.4137C88.6053 99.9526 88.0449 100.354 87.2605 100.03C85.5093 99.3144 85.5869 94.4097 85.5869 94.4097Z" fill="black"/>
<path opacity="0.1" d="M85.6648 94.2551C85.6648 94.2551 88.124 93.8773 89.2889 96.2935C89.5207 96.7624 89.6228 97.2844 89.5846 97.8057C89.5463 98.3269 89.3692 98.8286 89.0715 99.259C88.6832 99.7979 88.1228 100.199 87.3384 99.8766C85.5872 99.1597 85.6648 94.2551 85.6648 94.2551Z" fill="black"/>
<path d="M85.6648 94.3324C85.6648 94.3324 88.124 93.9546 89.2889 96.3709C89.5207 96.8398 89.6228 97.3617 89.5846 97.883C89.5463 98.4043 89.3692 98.906 89.0715 99.3363C88.6832 99.8753 88.1228 100.276 87.3384 99.9526C85.5872 99.2396 85.6648 94.3324 85.6648 94.3324Z" fill="#EEC5CD"/>
<path d="M88.322 96.4443C88.322 96.4443 88.6586 96.7538 88.5292 96.8312C88.3997 96.9085 88.322 96.4443 88.322 96.4443Z" fill="#3F2B3B"/>
<path d="M87.9554 96.8402C87.9554 96.8402 88.1392 97.2438 88.0084 97.2889C87.8777 97.334 87.8 96.9988 87.8 96.9988L87.9554 96.8402Z" fill="#3F2B3B"/>
<path d="M88.7725 97.4501C88.7725 97.4501 88.9511 97.9271 88.7725 97.9271C88.5939 97.9271 88.7725 97.4501 88.7725 97.4501Z" fill="#3F2B3B"/>
<path d="M88.9911 98.7239C88.9911 98.7239 88.6313 99.6394 87.6968 99.5749" stroke="#3F2B3B" stroke-miterlimit="10"/>
<path d="M88.1536 98.996C88.1536 98.996 87.7782 99.357 87.377 99.0991" stroke="#3F2B3B" stroke-miterlimit="10"/>
<path d="M84.2603 101.328C84.325 101.315 85.5546 100.787 86.8218 101.328H84.2603Z" fill="#3F2B3B"/>
<path opacity="0.1" d="M82.034 103.79C80.886 103.62 80.0693 103.293 79.9942 102.72C79.9581 102.478 79.949 102.233 79.967 101.99C80.1052 101.917 80.2528 101.863 80.4058 101.83C80.6142 101.772 80.8717 101.811 81.4154 101.959C81.959 102.107 81.9202 102.752 82.0366 103.582C82.047 103.651 82.0462 103.721 82.034 103.79Z" fill="black"/>
<path d="M80.3294 101.907C80.3294 101.907 78.8344 102.181 79.6434 103.464C79.7072 103.568 79.8043 103.648 79.9191 103.69C80.0136 103.724 80.1055 103.724 80.0964 103.589L80.7552 104.343C80.7552 104.343 82.0754 104.498 81.9589 103.666C81.8425 102.834 81.8813 102.197 81.3377 102.043C80.794 101.888 80.5365 101.849 80.3294 101.907Z" fill="#D3899B"/>
<path d="M80.6841 102.771C80.6841 102.771 81.0012 103.493 81.4413 102.887" stroke="#3F2B3B" stroke-miterlimit="10"/>
<path d="M79.958 103.055C79.958 103.055 80.1224 103.736 80.7424 103.228" stroke="#3F2B3B" stroke-miterlimit="10"/>
<path opacity="0.1" d="M90.6959 101.818C90.6467 102.498 90.5147 103.589 90.5147 103.589C90.5147 103.589 89.9658 103.656 89.118 103.732C89.1136 103.684 89.1136 103.636 89.118 103.589C89.2345 102.758 89.1957 102.12 89.7393 101.965C90.239 101.825 90.4978 101.78 90.6959 101.818Z" fill="black"/>
<path d="M90.8317 101.907C90.8317 101.907 92.3253 102.181 91.5177 103.464C91.453 103.568 91.3556 103.647 91.2407 103.69C91.1462 103.724 91.0543 103.724 91.0647 103.589L90.4045 104.343C90.4045 104.343 89.0856 104.498 89.2021 103.666C89.3186 102.834 89.2798 102.197 89.8221 102.043C90.3644 101.888 90.6233 101.849 90.8317 101.907Z" fill="#D3899B"/>
<path d="M90.4757 102.771C90.4757 102.771 90.1586 103.493 89.7185 102.887" stroke="#3F2B3B" stroke-miterlimit="10"/>
<path d="M91.2031 103.055C91.2031 103.055 91.0388 103.736 90.4175 103.228" stroke="#3F2B3B" stroke-miterlimit="10"/>
<path opacity="0.1" d="M84.0519 103.942C83.551 103.93 83.0657 103.905 82.6153 103.861L82.1687 102.36C82.1295 102.229 82.1189 102.091 82.1377 101.956C82.1564 101.821 82.2041 101.691 82.2775 101.576C82.3508 101.461 82.4482 101.362 82.5629 101.288C82.6777 101.213 82.8072 101.164 82.9427 101.143C83.0782 101.123 83.2165 101.132 83.3483 101.169C83.4801 101.206 83.6023 101.271 83.7068 101.36C83.8112 101.448 83.8953 101.558 83.9535 101.682C84.0117 101.805 84.0426 101.94 84.0442 102.076C84.048 102.665 84.0532 103.406 84.0519 103.942Z" fill="black"/>
<path d="M82.0911 102.36L82.6178 104.13C82.6178 104.13 81.7209 104.111 81.9707 104.672C81.9707 104.672 82.1959 104.884 82.2736 104.801C82.2736 104.801 82.1584 105.168 82.623 105.168C82.623 105.168 83.1265 105.438 83.3206 105.245C83.5148 105.053 83.9238 104.762 83.9678 104.646C83.9924 104.57 83.9846 103.09 83.9769 102.067C83.9745 101.816 83.8725 101.575 83.6931 101.398C83.5138 101.221 83.2715 101.122 83.0191 101.122C82.8677 101.12 82.7179 101.153 82.582 101.22C82.4461 101.286 82.328 101.384 82.2374 101.505C82.1468 101.625 82.0863 101.766 82.0609 101.915C82.0354 102.063 82.0458 102.216 82.0911 102.36Z" fill="#D3899B"/>
<path d="M82.803 104.588C82.803 104.588 82.4147 104.962 82.6179 105.175" stroke="#3F2B3B" stroke-miterlimit="10"/>
<path d="M82.6307 104.354C82.6307 104.354 82.2683 104.472 82.2683 104.807" stroke="#3F2B3B" stroke-miterlimit="10"/>
<path opacity="0.1" d="M89.0066 102.088C89.0064 102.18 88.9929 102.272 88.9665 102.36L88.5432 103.778C88.1006 103.813 87.6062 103.848 87.0833 103.877C87.0833 103.347 87.0833 102.641 87.091 102.072C87.092 101.819 87.1939 101.577 87.3743 101.399C87.5546 101.221 87.7987 101.121 88.0527 101.122C88.3067 101.123 88.5499 101.225 88.7288 101.404C88.9077 101.584 89.0076 101.827 89.0066 102.08V102.088Z" fill="black"/>
<path d="M89.0429 102.36L88.5161 104.13C88.5161 104.13 89.413 104.111 89.1632 104.672C89.1632 104.672 88.938 104.884 88.8604 104.801C88.8604 104.801 88.9768 105.168 88.5109 105.168C88.5109 105.168 88.0087 105.438 87.8132 105.245C87.6178 105.053 87.2114 104.762 87.1661 104.646C87.1402 104.57 87.148 103.09 87.157 102.067C87.1591 101.816 87.2607 101.575 87.4399 101.398C87.6191 101.221 87.8612 101.122 88.1135 101.122C88.265 101.119 88.415 101.153 88.551 101.219C88.6871 101.286 88.8054 101.383 88.8961 101.504C88.9869 101.625 89.0475 101.766 89.073 101.914C89.0985 102.063 89.0882 102.216 89.0429 102.36Z" fill="#D3899B"/>
<path d="M88.3311 104.588C88.3311 104.588 88.7194 104.962 88.5161 105.175" stroke="#3F2B3B" stroke-miterlimit="10"/>
<path d="M88.5029 104.354C88.5029 104.354 88.8653 104.472 88.8653 104.807" stroke="#3F2B3B" stroke-miterlimit="10"/>
<path opacity="0.1" d="M85.1987 93.9456C85.1987 93.9456 83.375 93.8876 83.3168 95.2981C83.2585 96.7086 86.1643 96.1104 86.1643 96.1104C86.1643 96.1104 87.3874 95.9466 87.1739 95.0905C86.9603 94.2344 86.5189 94.0229 85.1987 93.9456Z" fill="black"/>
<path opacity="0.1" d="M85.1987 93.7909C85.1987 93.7909 83.375 93.7328 83.3168 95.1434C83.2585 96.554 86.1643 95.9557 86.1643 95.9557C86.1643 95.9557 87.3874 95.7919 87.1739 94.9358C86.9603 94.0797 86.5189 93.8682 85.1987 93.7909Z" fill="black"/>
<path d="M85.1987 93.8683C85.1987 93.8683 83.375 93.8102 83.3168 95.2208C83.2585 96.6314 86.1643 96.0331 86.1643 96.0331C86.1643 96.0331 87.3874 95.8693 87.1739 95.0132C86.9603 94.1571 86.5189 93.9456 85.1987 93.8683Z" fill="#3F2B3B"/>
<path opacity="0.1" d="M81.1279 100.961C81.1279 100.961 81.7389 101.18 81.8631 101.598L81.1279 100.961Z" fill="black"/>
<path opacity="0.1" d="M89.8154 100.658C89.8154 100.658 89.3779 100.841 89.4077 101.604L89.8154 100.658Z" fill="black"/>
<path d="M81.3639 104.138C81.5001 104.06 81.5051 103.814 81.375 103.59C81.2449 103.365 81.029 103.247 80.8928 103.325C80.7566 103.404 80.7517 103.649 80.8818 103.873C81.0119 104.098 81.2277 104.216 81.3639 104.138Z" fill="#EEC5CD"/>
<path d="M90.7339 103.491C90.864 103.265 90.8586 103.019 90.7218 102.941C90.585 102.862 90.3686 102.982 90.2385 103.207C90.1084 103.433 90.1138 103.679 90.2507 103.757C90.3875 103.836 90.6038 103.716 90.7339 103.491Z" fill="#EEC5CD"/>
<path d="M81.6535 52.3604C81.2329 52.2237 78.7568 50.3116 78.5704 49.4464C78.3841 48.5813 79.8777 40.5242 79.8777 40.5242C79.8777 40.5242 79.7405 40.5177 79.5205 40.4971V40.3682L79.8272 29.7813C79.8272 29.7813 81.0879 22.6809 78.7063 23.0896C76.3248 23.4983 77.8184 29.7813 77.8184 29.7813C77.8184 29.7813 77.5466 32.9686 77.3564 33.9253C77.1713 34.8459 76.3403 38.6005 76.9085 39.7673C76.9287 39.809 76.952 39.8491 76.9784 39.8872C76.9784 39.8872 77.0716 43.8919 76.0439 44.4386C75.0628 44.9544 74.6551 47.5795 74.6202 47.8154L74.5684 47.7922C74.2761 47.6143 74.0183 47.3854 73.8073 47.1166C73.7879 47.0895 73.7698 47.0599 73.7504 47.0315C74.4187 46.3023 74.7803 45.3452 74.7603 44.3579C74.7403 43.3707 74.3403 42.4289 73.643 41.7271L73.5459 41.633C73.6261 41.5537 73.6853 41.4558 73.718 41.3481C73.8992 40.804 73.2728 40.3669 72.9479 40.0265C72.1959 39.2297 71.5177 38.2536 70.4693 37.8024C70.7698 37.9721 71.048 38.1783 71.2977 38.4161C70.9812 38.1441 70.6187 37.9302 70.2273 37.7843C69.1297 37.3975 67.8664 37.7173 66.9086 38.3697C65.9508 39.0221 65.2428 39.962 64.5957 40.9097L64.2824 41.3738C64.0083 41.067 63.7096 40.7829 63.3894 40.5242C62.7823 40.069 61.5682 38.5669 61.5682 38.5669C61.5682 38.5669 57.7849 34.7427 57.5041 33.6958C57.2232 32.6488 53.4412 26.3659 52.5999 27.4592C51.7586 28.5526 55.4953 33.3309 55.4953 33.3309C55.4953 33.3309 56.1968 35.0612 56.7573 35.6517C57.3177 36.2422 61.4738 42.1616 61.4738 42.1616L61.8258 42.8708L61.8918 42.9997L61.8478 42.9752V43.8404L62.2361 43.8752C62.0637 44.0273 61.9059 44.1952 61.765 44.3767C61.5541 44.6818 61.3974 45.0207 61.3016 45.3786C60.6894 47.3938 60.9392 49.5999 61.7287 51.5558C61.8918 51.9581 62.0782 52.3591 62.1274 52.7884C62.1986 53.3893 61.998 53.9836 61.8763 54.578C61.708 55.4122 61.7145 56.3212 62.1352 57.0652C62.6982 58.0528 63.9602 58.5673 65.1043 58.3829C65.6265 58.295 66.1206 58.0856 66.5462 57.7717C67.0823 57.4011 67.5148 56.9006 67.803 56.3174C68.0166 55.8829 68.1499 55.4148 68.3621 54.979C68.4023 54.8952 68.4476 54.8153 68.4916 54.734C68.9756 55.2743 69.4105 55.7655 69.4105 55.7655C69.4105 55.7655 70.4382 60.6818 69.5503 62.0472C69.0782 62.7343 68.5063 63.3478 67.8535 63.8678C67.6887 64.0029 67.5374 64.1536 67.4018 64.3178C67.3137 64.3809 67.262 64.4145 67.262 64.4145C67.262 64.4145 67.2387 64.4802 67.205 64.5808C66.9966 64.8859 66.8458 65.2262 66.7598 65.5852C66.7276 65.677 66.7161 65.7747 66.7261 65.8714C66.7895 66.0004 66.2692 66.5161 66.4219 66.7366C65.1276 68.2193 64.8791 70.4679 64.8791 70.4679L62.5196 73.9737C61.3055 77.0913 59.4844 77.4111 59.4844 77.4111C59.4844 77.4111 55.2131 74.6106 55.0928 74.4739C54.9724 74.3373 53.3415 73.6552 53.3415 73.6552C53.1479 73.3229 52.8539 73.0598 52.5015 72.9035C51.9411 72.6766 51.8945 71.8346 51.8945 71.8346C51.8246 69.8542 50.6325 69.6943 50.6325 69.6943C49.6721 69.6157 48.937 69.782 48.3739 70.0876L48.2031 70.1005C47.376 70.1662 46.3794 70.2384 45.2844 70.3093C42.2466 70.5053 41.5244 72.4265 41.5244 72.4265C41.5244 72.4265 41.1503 72.8352 41.6409 73.2787C42.1314 73.7223 45.265 73.2865 45.3944 73.2684C45.1557 73.2946 44.9143 73.2785 44.6812 73.2207C45.1757 73.2026 45.8539 73.1859 46.4312 73.1846H46.5722C46.5359 73.484 46.5186 73.7855 46.5205 74.0871C46.5205 74.657 48.1319 75.0206 48.1319 75.0206L53.0361 79.2755C53.0361 79.2755 56.1192 80.619 58.0839 82.553C60.0487 84.487 61.774 82.8263 61.774 82.8263C63.845 82.3261 69.826 75.2772 69.8312 75.2708C69.8312 75.4874 69.9606 82.3325 70.1988 83.7082C70.208 83.7779 70.2254 83.8463 70.2506 83.912C70.5314 84.5051 70.1574 86.1206 69.9917 86.804C69.826 87.4873 69.8739 88.533 69.8739 88.533C69.8739 88.533 67.6347 96.9034 67.8276 97.6319C68.0204 98.3604 66.6122 101.775 66.6122 101.775V104.619C66.6122 104.619 66.7015 104.619 66.8568 104.607C66.8246 104.652 66.7952 104.699 66.7688 104.748C66.763 104.758 66.7578 104.768 66.7533 104.779C66.7533 104.779 68.2469 105.097 69.2513 105.006C70.2557 104.914 71.9836 105.763 71.9836 105.763C71.9836 105.763 72.5687 106.031 74.3665 106.149C76.1643 106.268 76.1643 105.376 76.1643 105.376C75.9572 104.165 73.1188 103.761 73.0295 103.75C72.8004 103.609 72.5855 103.456 72.4095 103.324L72.3719 103.295C72.3854 103.269 72.3962 103.242 72.4043 103.213C72.7085 102.007 71.0271 101.483 71.0271 101.483V101.188C72.1234 100.641 72.3344 96.8854 72.3344 96.8854C72.3344 96.8854 73.9691 92.2437 74.2021 91.4701C74.4351 90.6965 74.2021 89.5361 74.2021 89.5361L74.3665 88.5355C74.3665 88.5355 74.716 87.8522 74.716 87.7155C74.7623 87.3679 74.8993 87.0385 75.1133 86.7601C75.3722 86.4636 74.8337 85.7583 74.8337 85.7583L75.301 84.5747V83.2699L76.3973 78.5586C76.3973 78.5586 77.5428 73.0724 77.1454 71.2738C76.748 69.4751 77.6127 68.5662 77.6127 68.5662C77.5344 68.6062 77.454 68.6419 77.3719 68.6732C77.4821 68.427 77.5768 68.1742 77.6554 67.9163L80.1146 68.2142C80.1146 68.2348 80.1146 68.249 80.1146 68.249H81.0012C81.0012 68.249 80.7216 64.8799 80.7216 63.5145C80.7216 62.1491 81.6561 57.2779 81.6561 57.2779C81.6561 57.2779 82.0729 52.497 81.6535 52.3604ZM70.7476 48.3634C70.7476 48.3827 70.7476 48.4008 70.7476 48.4188C70.7476 48.5478 70.7346 48.6909 70.7256 48.8314L70.6764 48.9062L70.5871 48.8301L70.4745 48.999C70.4548 48.8921 70.462 48.782 70.4954 48.6785C70.5289 48.575 70.5875 48.4814 70.666 48.4059C70.6923 48.3904 70.7195 48.3767 70.7476 48.3647V48.3634ZM78.9173 64.136H78.9717L78.8837 64.3577C78.8953 64.2855 78.9057 64.212 78.9173 64.1372V64.136ZM69.9464 104.415L69.6112 104.334L69.7975 104.303L69.9658 104.413L69.9865 104.425L69.9464 104.415ZM73.3686 103.938C73.2573 103.88 73.1447 103.809 73.0359 103.747C73.0709 103.767 73.2145 103.84 73.3686 103.938Z" fill="url(#paint1_linear)"/>
<path d="M79.7341 60.7282L77.592 66.2878L77.2918 66.0429L76.0984 67.8879L79.7341 68.3392V60.7282Z" fill="#F1D2D7"/>
<path opacity="0.1" d="M79.7315 60.7282L77.5881 66.2878L77.0497 66.1434L76.0945 67.8879L79.7315 68.3392V60.7282Z" fill="black"/>
<path d="M76.3765 64.2855H79.7339L80.9661 54.1822H76.3765V64.2855Z" fill="#F1D2D7"/>
<path opacity="0.1" d="M76.3765 64.2855H79.7339L80.9661 54.1822H76.3765V64.2855Z" fill="black"/>
<path d="M69.8182 56.5752L70.5417 56.4462L72.2075 56.1755C72.2075 56.1755 77.2101 55.0537 78.2469 54.9635C78.894 54.9068 79.6098 54.6412 80.0589 54.4478C80.3294 54.333 80.5016 54.244 80.5016 54.244L78.6999 50.9652L75.9041 48.9023C75.9041 48.9023 74.1361 48.5271 73.3867 47.502C73.2202 47.2813 73.1118 47.0225 73.0713 46.7494C73.0308 46.4762 73.0596 46.1973 73.155 45.9381C73.6119 44.5275 70.4291 47.2854 70.4291 47.2854C70.4291 47.2854 70.4602 47.9456 70.4291 48.7875C70.4291 48.9539 70.4136 49.1266 70.402 49.3033C70.3942 49.4193 70.3838 49.5353 70.3735 49.654C70.2945 50.4895 70.1353 51.3507 69.8221 51.8652C69.0584 53.1171 69.8182 56.5752 69.8182 56.5752Z" fill="#FFBEC7"/>
<path opacity="0.1" d="M70.4265 48.8507H70.4964C70.6258 48.8507 70.7255 48.5825 70.8498 48.5696C71.8451 48.4742 72.7537 48.2666 73.3853 47.5652C73.2192 47.3443 73.111 47.0856 73.0705 46.8125C73.0301 46.5394 73.0586 46.2606 73.1537 46.0013C73.6106 44.5907 70.4356 47.3473 70.4356 47.3473C70.4356 47.3473 70.4602 48.0075 70.4265 48.8507Z" fill="black"/>
<path d="M66.5527 44.855C66.5544 45.8798 66.9643 46.862 67.6923 47.586C68.4203 48.31 69.407 48.7166 70.4357 48.7166C70.5619 48.7167 70.6881 48.7102 70.8136 48.6973C71.5607 48.6244 72.2704 48.337 72.8566 47.87C73.4429 47.403 73.8804 46.7766 74.1161 46.0666C74.3518 45.3567 74.3755 44.5939 74.1844 43.8708C73.9932 43.1477 73.5955 42.4954 73.0394 41.9932C72.4833 41.491 71.7927 41.1604 71.0517 41.0416C70.3106 40.9227 69.5508 41.0208 68.8646 41.3239C68.1784 41.6269 67.5953 42.1219 67.186 42.7488C66.7768 43.3756 66.559 44.1073 66.5592 44.855H66.5527Z" fill="#FFBEC7"/>
<path opacity="0.1" d="M66.5527 44.855C66.5544 45.8798 66.9643 46.862 67.6923 47.586C68.4203 48.31 69.407 48.7166 70.4357 48.7166C70.5619 48.7167 70.6881 48.7102 70.8136 48.6973C70.8826 48.669 70.9438 48.6248 70.9923 48.5684C71.0373 48.4996 71.0669 48.4219 71.079 48.3407C71.0911 48.2595 71.0853 48.1766 71.0622 48.0978C70.9094 47.3435 70.2221 46.802 69.9749 46.0722C69.7575 45.4275 69.9206 44.6965 70.2545 44.1008C70.5884 43.5051 71.0816 43.0139 71.5682 42.5316C71.6499 42.437 71.7528 42.3628 71.8685 42.315C72.2827 42.1861 72.904 42.5471 73.2327 42.1784C72.6959 41.6256 72.0057 41.2448 71.2505 41.0847C70.4954 40.9246 69.7094 40.9924 68.9931 41.2794C68.2767 41.5664 67.6626 42.0597 67.229 42.6961C66.7955 43.3326 66.5623 44.0833 66.5592 44.8525L66.5527 44.855Z" fill="black"/>
<path d="M71.7262 42.2506C71.6102 42.2979 71.5073 42.3722 71.4259 42.4672C70.9406 42.9494 70.4474 43.4394 70.1135 44.0363C69.7796 44.6333 69.6165 45.3592 69.8339 46.0065C70.0799 46.7375 70.7684 47.279 70.9199 48.0333C70.943 48.1119 70.9487 48.1946 70.9367 48.2756C70.9246 48.3566 70.895 48.4341 70.85 48.5026C70.7205 48.6638 70.4746 48.6728 70.3064 48.794C70.0915 48.95 70.0475 49.2595 70.1122 49.5161C70.1998 49.7658 70.3195 50.0033 70.4682 50.2226C70.8306 50.8608 70.9859 51.6912 70.5976 52.3114C70.4146 52.5644 70.1968 52.7906 69.9504 52.9831C69.5424 53.344 69.1649 53.7377 68.8218 54.1603C68.526 54.5118 68.2732 54.897 68.0685 55.3078C67.864 55.7371 67.7345 56.2 67.5287 56.6294C67.046 57.6338 66.0959 58.4345 64.9919 58.6163C63.8878 58.798 62.6699 58.29 62.1275 57.3166C61.7185 56.5817 61.7134 55.6856 61.8752 54.8668C61.9903 54.2815 62.1858 53.6948 62.1185 53.1017C62.0693 52.6788 61.8894 52.283 61.7302 51.8859C60.9691 49.9519 60.7271 47.7806 61.3173 45.7924C61.4099 45.4401 61.5613 45.1058 61.7651 44.8035C61.9794 44.5395 62.2159 44.294 62.4718 44.0699C63.2782 43.2846 63.8723 42.3138 64.4974 41.379C65.1226 40.4442 65.8034 39.5159 66.7289 38.8725C67.6543 38.2291 68.8723 37.9106 69.931 38.2962C71.0389 38.6997 71.7236 39.7286 72.4925 40.5564C72.8044 40.8942 73.4101 41.3235 73.2354 41.8612C72.9804 42.6193 72.2116 42.0984 71.7262 42.2506Z" fill="#493545"/>
<path opacity="0.1" d="M64.7872 58.4319C65.89 58.2501 66.84 57.4494 67.3228 56.4437C67.5299 56.0156 67.658 55.5528 67.8638 55.1234C68.0681 54.7127 68.3205 54.3275 68.6158 53.9759C68.9597 53.5532 69.3376 53.1591 69.7457 52.7974C69.9924 52.6053 70.2103 52.3791 70.3929 52.1257C70.7812 51.5055 70.6323 50.6752 70.2712 50.0382C70.1226 49.8182 70.0026 49.5804 69.914 49.3304C69.8467 49.0725 69.8933 48.7644 70.1081 48.6096C70.2777 48.4884 70.521 48.4807 70.6531 48.3182C70.6981 48.2497 70.7277 48.1723 70.7398 48.0912C70.7518 48.0102 70.7461 47.9275 70.723 47.8489C70.5702 47.0934 69.8816 46.5531 69.6357 45.8221C69.4183 45.1774 69.5801 44.4476 69.9153 43.8507C70.2505 43.2537 70.7411 42.7663 71.2226 42.2815C71.3047 42.1871 71.408 42.1134 71.5241 42.0662C72.0082 41.9141 72.7783 42.435 73.0268 41.6729C73.2016 41.1353 72.5958 40.7047 72.2839 40.3681C71.6225 39.6551 71.0219 38.7938 70.1599 38.3052C71.1708 38.7461 71.8257 39.7119 72.5544 40.4971C72.8663 40.8336 73.4721 41.2629 73.2974 41.8006C73.0488 42.5626 72.2787 42.0417 71.7947 42.1938C71.6784 42.2415 71.5751 42.3157 71.4931 42.4105C71.0077 42.8927 70.5159 43.3826 70.1806 43.9796C69.8454 44.5766 69.6836 45.3025 69.9011 45.951C70.147 46.6808 70.8356 47.2223 70.9883 47.9766C71.0114 48.0552 71.0172 48.1378 71.0051 48.2189C70.993 48.2999 70.9634 48.3774 70.9184 48.4459C70.789 48.6071 70.5417 48.6161 70.3735 48.7386C70.1586 48.8933 70.1146 49.2027 70.1793 49.4593C70.2669 49.7094 70.387 49.9469 70.5366 50.1659C70.8977 50.8041 71.0543 51.6344 70.6582 52.2546C70.4753 52.5078 70.2575 52.7339 70.0111 52.9264C69.6033 53.2879 69.2254 53.6815 68.8811 54.1035C68.5861 54.4553 68.3337 54.8405 68.1291 55.2511C67.9233 55.6817 67.7952 56.1433 67.5881 56.5726C67.1053 57.577 66.1553 58.3777 65.0525 58.5595C64.4006 58.6614 63.7332 58.5405 63.1589 58.2166C63.6698 58.4421 64.2349 58.5168 64.7872 58.4319Z" fill="black"/>
<path d="M68.894 103.494L69.571 103.939L69.6732 104.008L69.6939 104.022L70.4951 104.549L72.3641 104.864L74.0105 104.752C74.0105 104.752 74.4842 103.764 73.74 103.786C73.5011 103.774 73.2681 103.708 73.0592 103.592L72.9582 103.54C72.8508 103.483 72.7421 103.42 72.6372 103.353C72.4172 103.213 72.2088 103.063 72.0392 102.932C71.7933 102.743 71.6289 102.598 71.6289 102.598L68.894 103.494Z" fill="#FFBEC7"/>
<path opacity="0.1" d="M69.5762 103.942L69.6784 104.01L69.6991 104.024L70.5003 104.552L72.3693 104.866L74.0157 104.754C74.0157 104.754 74.4895 103.767 73.7452 103.788C73.5064 103.777 73.2734 103.711 73.0644 103.595C73.1836 103.664 73.2751 103.772 73.3233 103.901C73.353 104.159 72.1066 104.61 72.1066 104.61L70.3476 104.147C70.3476 104.147 70.0486 104.063 69.6383 103.957L69.5995 103.947L69.5762 103.942Z" fill="black"/>
<path d="M66.5735 104.373C66.5735 104.373 68.0154 104.686 68.9848 104.597C69.9543 104.508 71.6213 105.342 71.6213 105.342C71.6213 105.342 72.1857 105.6 73.9201 105.72C75.6544 105.84 75.6596 104.955 75.6596 104.955C75.4603 103.763 72.7202 103.363 72.6335 103.353C72.6684 103.371 72.8069 103.444 72.9545 103.54C73.1486 103.669 73.3596 103.832 73.3751 103.965C73.4049 104.223 72.1585 104.674 72.1585 104.674L70.4008 104.213C70.4008 104.213 70.1018 104.128 69.6902 104.022L69.6514 104.012C69.0456 103.845 68.4301 103.716 67.8083 103.625C67.0511 103.545 66.6628 104.187 66.5838 104.335C66.5774 104.362 66.5735 104.373 66.5735 104.373Z" fill="#BD577A"/>
<path d="M43.8555 72.6946L44.6217 73.2787C44.6217 73.2787 44.8443 73.2683 45.1757 73.2567H45.2818C45.7581 73.24 46.413 73.2232 46.9709 73.2219C47.4886 73.2219 47.9183 73.2374 48.0478 73.2825C48.4361 73.4115 49.1065 71.1048 49.1065 71.1048L48.3377 70.9243L48.0788 70.865L47.9002 70.8237L47.2764 70.678L45.3828 70.8908L44.0535 71.7443L43.8555 72.6946Z" fill="#FFBEC7"/>
<path opacity="0.1" d="M43.8555 72.6946L44.6217 73.2787C44.6217 73.2787 44.8443 73.2684 45.1757 73.2567C45.0241 73.1974 44.8994 73.0851 44.8249 72.9409C44.3292 71.5716 46.7858 70.9888 46.7858 70.9888L47.93 70.9385L48.1513 70.9295L48.3377 70.9205L48.0788 70.8612L47.9002 70.8199L47.2764 70.6742L45.3828 70.8869L44.0535 71.7405L43.8555 72.6946Z" fill="black"/>
<path d="M42.3449 73.3109C42.8083 73.739 45.8396 73.3186 45.969 73.3006C45.7385 73.3269 45.5051 73.3107 45.2804 73.2529C44.8572 73.1343 44.7549 72.8738 44.7549 72.8738C44.2605 71.5045 46.7158 70.9205 46.7158 70.9205L47.8613 70.8715L48.0826 70.8612L50.8628 70.7413L50.9987 69.978C50.9987 69.978 50.0927 70.0644 48.6767 70.1765C47.8781 70.241 46.9151 70.3132 45.8603 70.3815C42.9286 70.5749 42.2362 72.4703 42.2362 72.4703C42.2362 72.4703 41.8776 72.8738 42.3449 73.3109Z" fill="#BD577A"/>
<path d="M76.3778 40.247C76.397 40.288 76.419 40.3277 76.4439 40.3656L77.1208 41.3532L78.8784 41.5337L78.8979 40.8401L79.193 30.3964C79.193 30.3964 80.4109 23.3913 78.1122 23.7962C75.8135 24.201 77.2554 30.3964 77.2554 30.3964C77.2554 30.3964 76.9965 33.5398 76.8088 34.4823C76.6315 35.3926 75.8291 39.0956 76.3778 40.247Z" fill="#FFBEC7"/>
<path d="M72.4329 66.1834L72.9325 67.037L74.0521 68.9452C74.0521 68.9452 76.0842 69.6866 76.6019 69.1244C76.8879 68.815 77.1947 67.741 77.4108 66.8397C77.5882 66.1061 77.7059 65.4872 77.7059 65.4872L72.4329 66.1834Z" fill="#FFBEC7"/>
<path opacity="0.1" d="M72.4329 66.1834L72.9325 67.0369C72.9643 67.0098 72.9933 66.9795 73.0192 66.9467C73.5835 66.2273 76.0751 66.7946 77.4108 66.8397C77.5882 66.1061 77.7059 65.4872 77.7059 65.4872L72.4329 66.1834Z" fill="black"/>
<path opacity="0.1" d="M46.9709 73.2181C47.4887 73.2181 47.9184 73.2336 48.0478 73.2787C48.4361 73.4076 49.1066 71.101 49.1066 71.101L48.0905 70.8612L50.8707 70.7413L51.0066 69.978C51.0066 69.978 50.1006 70.0644 48.6846 70.1765C48.3895 70.3439 48.1266 70.5622 47.908 70.8212L47.8653 70.8728C47.2738 71.5961 47.0551 72.5296 46.9709 73.2181Z" fill="black"/>
<path opacity="0.1" d="M68.894 103.494L69.6706 104.01C70.8355 103.801 71.8982 103.473 72.0237 102.958C72.0242 102.95 72.0242 102.941 72.0237 102.932C71.7778 102.743 71.6134 102.598 71.6134 102.598L68.894 103.494Z" fill="black"/>
<path opacity="0.1" d="M66.5876 104.342C67.6157 104.292 68.6399 104.182 69.6552 104.014C69.0494 103.847 68.4339 103.718 67.8121 103.627C67.0549 103.551 66.6666 104.193 66.5876 104.342Z" fill="black"/>
<path d="M47.0552 74.109C47.0552 74.6699 48.6084 75.0296 48.6084 75.0296L53.3417 79.2277C53.3417 79.2277 56.3186 80.5519 58.2096 82.4601C60.1006 84.3684 61.7729 82.7361 61.7729 82.7361C63.7778 82.2422 69.5479 75.2823 69.5479 75.2823C69.5479 75.2823 69.6838 83.2299 69.9543 83.8139C70.2248 84.398 69.8637 85.9916 69.7058 86.666C69.5479 87.3403 69.5932 88.3718 69.5932 88.3718C69.5932 88.3718 67.4291 96.6107 67.6103 97.3289C67.7915 98.047 66.4376 101.415 66.4376 101.415V104.222C66.4376 104.222 71.734 104.019 72.0265 102.829C72.319 101.639 70.6973 101.123 70.6973 101.123V100.826C71.756 100.287 71.9592 96.5823 71.9592 96.5823C71.9592 96.5823 73.537 92.0013 73.7622 91.2457C73.9874 90.4902 73.7622 89.3362 73.7622 89.3362L73.9201 88.3486C73.9201 88.3486 74.2579 87.6755 74.2579 87.5414C74.3036 87.1988 74.4373 86.8737 74.6462 86.5976C74.8947 86.3063 74.3757 85.61 74.3757 85.61L74.8274 84.4496V83.1693L75.8862 78.5276C75.8862 78.5276 76.9903 73.1124 76.6071 71.3434C76.224 69.5744 77.0588 68.6706 77.0588 68.6706C75.2468 69.617 74.3408 67.5102 74.0392 66.6076C73.9615 66.3742 73.9253 66.2208 73.9253 66.2208C73.9253 66.2208 71.4415 65.308 69.1273 65.5246C68.6578 65.564 68.1951 65.6619 67.7501 65.816C65.1809 66.7366 64.7731 70.553 64.7731 70.553L62.4964 74.0111C61.3315 77.0861 59.5661 77.4007 59.5661 77.4007C59.5661 77.4007 55.4424 74.639 55.3298 74.5049C55.2172 74.3708 53.6394 73.6964 53.6394 73.6964C53.4539 73.3705 53.1699 73.111 52.8279 72.9551C52.2868 72.7307 52.2428 71.9004 52.2428 71.9004C52.1742 69.947 51.0249 69.7897 51.0249 69.7897C47.0332 69.439 47.0552 73.5482 47.0552 74.109Z" fill="#E7AEB8"/>
<path d="M69.9982 63.1302H72.4329V55.6095H69.9982V63.1302Z" fill="#F1D2D7"/>
<path opacity="0.1" d="M69.7729 62.8221H72.2075V55.3013H69.7729V62.8221Z" fill="black"/>
<path opacity="0.1" d="M76.3767 40.2302C76.3764 40.2357 76.3764 40.2413 76.3767 40.2469C76.3958 40.288 76.4179 40.3276 76.4427 40.3655L77.1196 41.3532L78.8773 41.5337L78.8967 40.84C78.348 40.7923 77.1002 40.6428 76.3767 40.2302Z" fill="black"/>
<path d="M76.4438 40.3655C76.4438 40.3655 76.5344 44.3161 75.5378 44.855C74.5412 45.394 74.1606 48.2073 74.1606 48.2073C74.1606 48.2073 77.1609 50.1775 77.8365 51.0439C78.5122 51.9103 80.0446 53.9746 79.7301 54.4684C79.4156 54.9622 80.5015 57.207 80.5015 57.207C80.5015 57.207 78.5173 61.2491 78.9691 62.7757C79.4208 64.3022 79.4648 68.3431 79.4648 68.3431H80.319C80.319 68.3431 80.0485 65.0204 80.0485 63.673C80.0485 62.3257 80.9545 57.5216 80.9545 57.5216C80.9545 57.5216 81.3597 52.8064 80.9545 52.6723C80.5494 52.5383 78.1601 50.6519 77.9776 49.7984C77.7951 48.9448 79.2396 40.9973 79.2396 40.9973C79.2396 40.9973 77.3913 40.9045 76.4438 40.3655Z" fill="#F1D2D7"/>
<path opacity="0.1" d="M69.9541 54.9132C70.0354 55.4628 70.236 55.9882 70.5417 56.4527L72.2075 56.1755C72.2075 56.1755 77.2101 55.0538 78.2468 54.9635C78.894 54.9068 79.6097 54.6412 80.0589 54.4478C79.663 53.0486 78.8888 51.7846 77.821 50.7938L77.1855 50.2071C76.2487 49.3438 75.1653 48.6531 73.9859 48.1674C74.0597 48.2305 79.3082 52.6943 78.1588 53.5697C77.0094 54.4452 73.9173 52.3075 73.9173 52.3075L70.3981 49.2955L70.2686 49.1859L70.0641 49.5005C70.1681 49.5435 70.2697 49.5921 70.3683 49.6462C71.5648 50.3034 72.452 51.405 72.8366 52.711C73.5627 55.135 69.9541 54.9132 69.9541 54.9132Z" fill="black"/>
<path opacity="0.1" d="M68.8721 66.1383C68.8721 66.1383 72.2075 67.9795 73.0139 66.9467C73.1925 66.7198 73.5627 66.6205 74.0287 66.5935C73.951 66.3601 73.9148 66.2067 73.9148 66.2067C73.9148 66.2067 71.4309 65.2938 69.1167 65.5104C68.9679 65.8934 68.8721 66.1383 68.8721 66.1383Z" fill="black"/>
<path d="M70.4061 49.1885L74.0522 52.3075C74.0522 52.3075 77.1353 54.4478 78.2924 53.5659C79.4495 52.684 74.1195 48.1622 74.1195 48.1622C75.2996 48.6473 76.3835 49.338 77.3204 50.202L77.9559 50.7886C79.6255 52.3294 80.0022 52.3294 80.0578 54.5961C80.0721 55.1531 79.8818 55.955 79.7356 56.1007C79.1945 56.6345 78.814 60.4665 78.8981 60.9152C78.9823 61.3638 77.8873 65.2396 78.251 66.3175C78.6147 67.3954 73.8347 65.7786 73.0232 66.8113C72.2116 67.8441 68.8813 66.0029 68.8813 66.0029C68.8813 66.0029 70.7296 61.2878 71.1801 60.9745C71.6305 60.6612 72.1715 58.2346 71.1801 57.1064C70.1886 55.9782 70.0941 54.9132 70.0941 54.9132C70.0941 54.9132 73.7027 55.1363 72.9792 52.7136C72.7757 52.0115 72.4227 51.3613 71.9443 50.8073C71.4659 50.2533 70.8733 49.8085 70.2067 49.5032L70.4061 49.1885Z" fill="#E8E8F0"/>
<path opacity="0.1" d="M75.2714 57.136C75.2714 57.136 73.8735 59.7637 72.0627 60.4458C72.0058 60.4664 71.9488 60.4858 71.8906 60.5038C69.9983 61.075 75.4073 57.9445 75.2714 57.136Z" fill="black"/>
<path d="M55.7103 33.8995C55.7103 33.8995 56.3859 35.6066 56.9269 36.1894C57.468 36.7721 61.4791 42.6103 61.4791 42.6103L61.8195 43.3104L62.1107 43.9125L64.6799 43.6431L64.8598 42.6116L64.7615 42.4917C64.5026 42.1835 63.7998 41.3558 63.3274 40.9948C62.7423 40.5461 61.5697 39.0607 61.5697 39.0607C61.5697 39.0607 57.9184 35.2881 57.6492 34.2566C57.38 33.2252 53.7274 27.0273 52.9158 28.1052C52.1043 29.1831 55.7103 33.8995 55.7103 33.8995Z" fill="#FFBEC7"/>
<path opacity="0.1" d="M61.8193 43.3104L62.1106 43.9126L64.6798 43.6431L64.8597 42.6116L64.7613 42.4917C64.4843 42.6271 62.4303 43.6083 61.8193 43.3104Z" fill="black"/>
<path opacity="0.1" d="M71.3053 50.064C71.3053 50.064 70.675 49.0764 70.3139 49.3458C69.9527 49.6153 69.813 48.5374 69.6123 48.7166C69.4117 48.8958 68.8034 49.3974 68.5562 48.696C68.3594 48.139 66.2264 44.6191 65.3566 43.2008L64.9955 42.6103C64.9955 42.6103 62.5609 43.8236 61.9758 43.4187V44.2723L62.4716 44.3174L65.1301 49.2556C65.1301 49.2556 65.9662 50.5772 65.9067 51.04C65.8472 51.5029 66.9758 53.522 67.1557 53.6561C67.3356 53.7902 69.2745 56.0362 69.2745 56.0362C69.2745 56.0362 70.266 60.8855 69.4039 62.2328C68.5419 63.5802 67.0599 64.5678 67.0599 64.5678C67.0599 64.5678 66.6134 65.8688 66.6716 66.0042C66.7299 66.1396 66.1539 66.7223 66.4218 66.9067C66.6898 67.0911 67.0535 68.3443 67.0535 68.3443C67.0535 68.3443 68.3154 66.3239 68.9949 66.0093C69.6745 65.6947 70.5481 61.5637 70.5481 61.5637C70.5481 61.5637 70.7966 59.1281 70.8174 57.5564C70.8381 55.9847 70.7643 50.064 71.3053 50.064Z" fill="black"/>
<path d="M71.1709 50.064C71.1709 50.064 70.5392 49.0764 70.1794 49.3458C69.8196 49.6153 69.6785 48.5374 69.4779 48.7166C69.2773 48.8958 68.6689 49.3974 68.4217 48.696C68.2237 48.139 66.0919 44.6191 65.2222 43.2008C64.9995 42.8359 64.8597 42.6103 64.8597 42.6103C64.8597 42.6103 62.4264 43.8236 61.8401 43.4187V44.2723L62.3358 44.3174L64.9956 49.2556C64.9956 49.2556 65.8305 50.5772 65.7722 51.04C65.714 51.5029 66.8426 53.522 67.0226 53.6561C67.2025 53.7902 69.1414 56.0362 69.1414 56.0362C69.1414 56.0362 70.1328 60.8855 69.2708 62.2328C68.8175 62.9083 68.2661 63.5132 67.6348 64.0276C67.1076 64.4639 66.737 65.0589 66.5786 65.7231C66.5482 65.8135 66.5376 65.9093 66.5475 66.0042C66.6135 66.1331 66.0298 66.7223 66.2977 66.9067C66.5657 67.0911 66.9281 68.3443 66.9281 68.3443C66.9281 68.3443 68.19 66.3239 68.8696 66.0093C69.5491 65.6947 70.4227 61.5637 70.4227 61.5637C70.4227 61.5637 70.67 59.1281 70.6907 57.5564C70.7114 55.9847 70.6298 50.064 71.1709 50.064Z" fill="#F1D2D7"/>
<path opacity="0.1" d="M64.9957 70.4937C64.9957 70.4937 66.8893 70.8534 67.6555 71.3962C68.4218 71.939 64.7705 70.5426 64.7705 70.5426L64.9957 70.4937Z" fill="black"/>
<path opacity="0.1" d="M69.5476 75.2759C69.5476 75.2759 71.5306 76.9146 71.1707 78.3974C70.8109 79.8801 69.9023 83.6063 69.9023 83.6063L69.5476 75.2759Z" fill="black"/>
<path opacity="0.1" d="M52.2737 72.1221C52.2737 72.1221 49.4896 72.4251 49.6695 72.7836C49.8494 73.142 52.2737 72.4535 52.2737 72.4535V72.1221Z" fill="black"/>
<path opacity="0.1" d="M73.6494 85.7608C73.6494 85.7608 73.8306 85.9852 72.7939 85.7608C71.7571 85.5365 72.5233 84.8454 72.5233 84.8454L73.6494 85.7608Z" fill="black"/>
<path opacity="0.1" d="M73.2895 88.8591C73.2895 88.8591 71.8657 89.0835 71.1137 88.8591C70.3617 88.6347 73.2895 88.8591 73.2895 88.8591Z" fill="black"/>
<path opacity="0.1" d="M70.3813 100.982C70.3813 100.982 70.1341 100.712 68.8941 101.207C67.6542 101.702 67.1584 101.723 66.7986 101.566C66.4388 101.408 70.3813 100.982 70.3813 100.982Z" fill="black"/>
<path opacity="0.1" d="M71.757 71.7405L69.998 74.1761C69.998 74.1761 70.9455 72.0435 71.757 71.7405Z" fill="black"/>
<path opacity="0.1" d="M68.3313 49.342C68.3313 49.342 68.2562 50.1504 67.1224 50.465C65.9885 50.7796 65.7737 51.0362 65.7737 51.0362" fill="black"/>
<path opacity="0.1" d="M65.3942 43.4832C65.3942 43.4832 63.8992 44.543 62.3357 44.3174L65.3942 43.4832Z" fill="black"/>
<path opacity="0.1" d="M66.5332 66.1164C66.5332 66.1164 66.9707 66.3897 68.0191 65.1945L66.5332 66.1164Z" fill="black"/>
<path opacity="0.1" d="M77.4251 53.4511C77.4678 53.2332 77.3151 53.0295 77.1663 52.8593L76.8725 52.5099C76.8153 52.4379 76.7512 52.3719 76.6809 52.3126C76.5075 52.1772 76.2771 52.136 76.0933 52.0148" fill="black"/>
<path d="M75.3724 6.26754H56.0934C55.7696 6.26568 55.4486 6.32736 55.1488 6.44907C54.8489 6.57078 54.576 6.75014 54.3458 6.97691C54.1155 7.20367 53.9323 7.4734 53.8067 7.77069C53.681 8.06798 53.6154 8.38701 53.6135 8.70956V27.7003C53.6154 28.0229 53.681 28.3419 53.8067 28.6392C53.9323 28.9365 54.1155 29.2062 54.3458 29.433C54.576 29.6598 54.8489 29.8391 55.1488 29.9608C55.4486 30.0825 55.7696 30.1442 56.0934 30.1424H75.3789C75.7027 30.1442 76.0237 30.0825 76.3235 29.9608C76.6234 29.8391 76.8963 29.6598 77.1266 29.433C77.3568 29.2062 77.54 28.9365 77.6657 28.6392C77.7913 28.3419 77.8569 28.0229 77.8588 27.7003V8.70956C77.8569 8.38646 77.7911 8.0669 77.6651 7.76919C77.539 7.47148 77.3552 7.20146 77.1243 6.97461C76.8933 6.74777 76.6197 6.56854 76.319 6.44721C76.0184 6.32588 75.6967 6.26482 75.3724 6.26754Z" fill="url(#paint2_linear)"/>
<path d="M75.3049 6.26752H56.2421C54.8874 6.26752 53.7893 7.36142 53.7893 8.71083V27.7003C53.7893 29.0497 54.8874 30.1436 56.2421 30.1436H75.3049C76.6595 30.1436 77.7576 29.0497 77.7576 27.7003V8.71083C77.7576 7.36142 76.6595 6.26752 75.3049 6.26752Z" fill="#00A2FF"/>
<path d="M61.6536 21.5191C61.3241 21.519 61.0048 21.6326 60.7501 21.8407C60.4953 22.0487 60.3209 22.3384 60.2565 22.6602C60.1921 22.9821 60.2417 23.3162 60.3969 23.6056C60.5522 23.8951 60.8033 24.122 61.1077 24.2476C61.412 24.3733 61.7507 24.3899 62.066 24.2947C62.3812 24.1994 62.6536 23.9982 62.8366 23.7253C63.0196 23.4525 63.102 23.1248 63.0697 22.7982C63.0373 22.4716 62.8923 22.1663 62.6593 21.9343C62.5286 21.8008 62.3721 21.6952 62.1992 21.6239C62.0264 21.5525 61.8407 21.5169 61.6536 21.5191Z" fill="#EAEAF3"/>
<path d="M61.3367 18.5266C61.3379 18.1598 61.2113 17.8039 60.9786 17.5197C60.7458 17.2354 60.4212 17.0405 60.0602 16.968C59.6992 16.8955 59.3242 16.9501 58.9991 17.1223C58.6739 17.2946 58.4189 17.5738 58.2774 17.9125C58.1359 18.2512 58.1167 18.6283 58.2232 18.9794C58.3296 19.3306 58.5551 19.6341 58.8611 19.8382C59.1671 20.0422 59.5347 20.1342 59.9012 20.0984C60.2677 20.0626 60.6103 19.9013 60.8707 19.6419C61.0209 19.4977 61.1397 19.3242 61.2198 19.1324C61.3 18.9406 61.3397 18.7344 61.3367 18.5266Z" fill="#EAEAF3"/>
<path d="M70.5275 14.8894C70.711 14.8888 70.8886 14.8248 71.0301 14.7084C71.1715 14.592 71.2681 14.4304 71.3034 14.251C71.3387 14.0716 71.3105 13.8856 71.2236 13.7246C71.1367 13.5637 70.9964 13.4377 70.8268 13.3681C70.6571 13.2986 70.4684 13.2897 70.293 13.3432C70.1175 13.3966 69.966 13.5089 69.8644 13.6611C69.7627 13.8133 69.7171 13.9958 69.7354 14.1777C69.7536 14.3596 69.8346 14.5295 69.9645 14.6586C70.0375 14.7334 70.1251 14.7925 70.222 14.8322C70.3188 14.8719 70.4228 14.8914 70.5275 14.8894Z" fill="#EAEAF3"/>
<path d="M61.6537 12.3648C61.2511 12.3654 60.8611 12.505 60.5501 12.7598C60.2392 13.0146 60.0265 13.369 59.9484 13.7624C59.8702 14.1559 59.9314 14.5642 60.1215 14.9178C60.3117 15.2714 60.6189 15.5484 60.991 15.7016C61.3631 15.8549 61.777 15.8749 62.1623 15.7583C62.5476 15.6416 62.8803 15.3956 63.1039 15.062C63.3275 14.7285 63.4281 14.328 63.3886 13.9288C63.3491 13.5297 63.1719 13.1565 62.8872 12.8728C62.7273 12.7088 62.5353 12.5791 62.3232 12.4918C62.1111 12.4044 61.8832 12.3612 61.6537 12.3648Z" fill="#EAEAF3"/>
<path d="M73.1034 17.8497C72.9474 17.6926 72.7415 17.5943 72.5208 17.5717C72.3001 17.549 72.0784 17.6034 71.8935 17.7255C71.7086 17.8475 71.572 18.0298 71.5069 18.241C71.4419 18.4523 71.4525 18.6795 71.5369 18.8839C71.6213 19.0882 71.7744 19.2571 71.9698 19.3615C72.1653 19.466 72.3911 19.4996 72.6087 19.4567C72.8263 19.4138 73.0222 19.2969 73.163 19.1261C73.3037 18.9553 73.3806 18.7411 73.3804 18.5201C73.3826 18.3955 73.3591 18.2717 73.3115 18.1564C73.2639 18.0411 73.1931 17.9367 73.1034 17.8497Z" fill="#EAEAF3"/>
<path d="M70.5275 21.835C70.2689 21.832 70.0172 21.9186 69.8156 22.08C69.614 22.2413 69.4749 22.4675 69.4221 22.7197C69.3694 22.9719 69.4062 23.2346 69.5264 23.4627C69.6466 23.6909 69.8426 23.8704 70.0809 23.9705C70.3192 24.0706 70.5851 24.0851 70.8329 24.0115C71.0808 23.938 71.2953 23.7809 71.4398 23.5672C71.5843 23.3535 71.6497 23.0964 71.625 22.84C71.6002 22.5835 71.4868 22.3436 71.3041 22.1612C71.2035 22.0574 71.0828 21.975 70.9493 21.9189C70.8158 21.8628 70.6723 21.8343 70.5275 21.835Z" fill="#EAEAF3"/>
<path d="M66.0906 23.5718C65.7971 23.5719 65.5128 23.6732 65.2859 23.8587C65.0591 24.0442 64.9039 24.3023 64.8466 24.589C64.7894 24.8757 64.8337 25.1733 64.9721 25.4311C65.1104 25.6889 65.3342 25.8909 65.6054 26.0028C65.8765 26.1147 66.1782 26.1294 66.459 26.0445C66.7398 25.9596 66.9824 25.7804 67.1454 25.5373C67.3084 25.2943 67.3818 25.0024 67.353 24.7115C67.3242 24.4206 67.1951 24.1486 66.9876 23.9419C66.8712 23.8227 66.7316 23.7284 66.5774 23.6647C66.4232 23.6011 66.2575 23.5695 66.0906 23.5718Z" fill="#EAEAF3"/>
<path d="M66.0906 10.3122C65.6536 10.3145 65.2308 10.4676 64.8943 10.7453C64.5577 11.0231 64.3282 11.4084 64.2446 11.8357C64.161 12.2631 64.2287 12.7061 64.436 13.0893C64.6433 13.4726 64.9774 13.7725 65.3817 13.9381C65.7859 14.1037 66.2352 14.1246 66.6532 13.9974C67.0712 13.8702 67.432 13.6027 67.6744 13.2404C67.9167 12.8781 68.0256 12.4434 67.9825 12.0101C67.9394 11.5769 67.747 11.1719 67.438 10.864C67.263 10.6854 67.0533 10.5443 66.8215 10.4494C66.5898 10.3545 66.3411 10.3078 66.0906 10.3122Z" fill="#EAEAF3"/>
</g>
<defs>
<linearGradient id="paint0_linear" x1="85.3088" y1="105.322" x2="85.3088" y2="88.4285" gradientUnits="userSpaceOnUse">
<stop stop-color="#808080" stop-opacity="0.25"/>
<stop offset="0.54" stop-color="#808080" stop-opacity="0.12"/>
<stop offset="1" stop-color="#808080" stop-opacity="0.1"/>
</linearGradient>
<linearGradient id="paint1_linear" x1="21380.2" y1="70699.8" x2="21380.2" y2="17159.9" gradientUnits="userSpaceOnUse">
<stop stop-color="#808080" stop-opacity="0.25"/>
<stop offset="0.54" stop-color="#808080" stop-opacity="0.12"/>
<stop offset="1" stop-color="#808080" stop-opacity="0.1"/>
</linearGradient>
<linearGradient id="paint2_linear" x1="11343.9" y1="4029.43" x2="15884.3" y2="4029.43" gradientUnits="userSpaceOnUse">
<stop stop-color="#808080" stop-opacity="0.25"/>
<stop offset="0.54" stop-color="#808080" stop-opacity="0.12"/>
<stop offset="1" stop-color="#808080" stop-opacity="0.1"/>
</linearGradient>
<clipPath id="clip0">
<rect width="142" height="109" fill="white"/>
</clipPath>
</defs>
</svg>
