
<svg width="24" height="24" viewBox="0 0 24 24" fill="none" xmlns="http://www.w3.org/2000/svg" data-reactroot="">
<path fill="#ffffff" d="M18 12.5C18 15.5376 15.3137 18 12 18C8.68629 18 6 15.5376 6 12.5C6 9.46243 8.68629 7 12 7C15.3137 7 18 9.46243 18 12.5Z" undefined="1"></path>
<path fill="#ffffff" d="M11 5V2H13V5H11Z" clip-rule="evenodd" fill-rule="evenodd" undefined="1"></path>
<path fill="#ffffff" d="M18.2071 4.20705L16.2071 6.20705L14.7929 4.79285L16.7929 2.79285L18.2071 4.20705Z" clip-rule="evenodd" fill-rule="evenodd" undefined="1"></path>
<path fill="#ffffff" d="M7.79291 6.20706L5.79291 4.20706L7.20712 2.79285L9.20712 4.79285L7.79291 6.20706Z" clip-rule="evenodd" fill-rule="evenodd" undefined="1"></path>
<path fill="#ffffff" d="M9 21.5C9 21.2239 9.22386 21 9.5 21H14.5C14.7761 21 15 21.2239 15 21.5V21.5C15 21.7761 14.7761 22 14.5 22H9.5C9.22386 22 9 21.7761 9 21.5V21.5Z" undefined="1"></path>
<path fill="#ffffff" d="M8.5 20C8.5 19.4477 8.94772 19 9.5 19H14.5C15.0523 19 15.5 19.4477 15.5 20V20C15.5 20.5523 15.0523 21 14.5 21H9.5C8.94772 21 8.5 20.5523 8.5 20V20Z" undefined="1"></path>
<rect fill="#ffffff" rx="1" height="2" width="8" y="17" x="8" undefined="1"></rect>
</svg>
