<svg id="Gruppe_135" data-name="Gruppe 135" xmlns="http://www.w3.org/2000/svg" xmlns:xlink="http://www.w3.org/1999/xlink" width="171.479" height="129.97" viewBox="0 0 171.479 129.97">
  <defs>
    <style>
      .cls-1, .cls-5 {
        fill: #3d44d9;
      }

      .cls-2 {
        clip-path: url(#clip-path);
      }

      .cls-24, .cls-3, .cls-4 {
        fill: #e27669;
      }

      .cls-3 {
        opacity: 0.17;
      }

      .cls-4 {
        opacity: 0.24;
      }

      .cls-10, .cls-13, .cls-21, .cls-5 {
        opacity: 0.1;
      }

      .cls-6 {
        fill: #65617d;
      }

      .cls-21, .cls-7 {
        fill: #fff;
      }

      .cls-8 {
        fill: #f2b999;
      }

      .cls-9 {
        fill: #dfe5ee;
      }

      .cls-10 {
        fill: #ffcc12;
      }

      .cls-11 {
        fill: #d48a9b;
      }

      .cls-12 {
        fill: #efc6cd;
      }

      .cls-14 {
        fill: #f9a826;
      }

      .cls-15 {
        fill: #ffd037;
      }

      .cls-16 {
        fill: #9d9cb5;
      }

      .cls-17 {
        fill: #ee8e9e;
      }

      .cls-18 {
        fill: #f8c853;
      }

      .cls-19 {
        fill: #603535;
      }

      .cls-20 {
        fill: #5c5c8e;
      }

      .cls-22 {
        fill: #efc8c4;
      }

      .cls-23 {
        fill: #727a9c;
      }

      .cls-25 {
        fill: #f26f63;
      }
    </style>
    <clipPath id="clip-path">
      <rect id="Rechteck_196" data-name="Rechteck 196" class="cls-1" width="171.479" height="129.97"/>
    </clipPath>
  </defs>
  <g id="undraw_studying_s3l7_1" data-name="undraw_studying_s3l7 1" class="cls-2" transform="translate(0)">
    <path id="Pfad_1227" data-name="Pfad 1227" class="cls-3" d="M169.586,55.64q-.046.276-.1.553a68.716,68.716,0,0,1-5.555,17.892q-.132.276-.267.553a51.3,51.3,0,0,1-6.26,9.816,20.17,20.17,0,0,1-4.5,4.291,21.782,21.782,0,0,1-8,2.72c-2.88.542-5.8.988-8.708,1.482q-1.549.257-3.076.538a84.655,84.655,0,0,0-8.329,1.907,42.9,42.9,0,0,0-9.714,4.063q-.369.214-.73.44c-.241.148-.486.3-.72.454s-.471.308-.7.464l-.359.247c-.118.079-.235.165-.351.244-.347.24-.688.494-1.03.738l-.013.01-.672.494c-1.261.95-2.495,1.944-3.724,2.942l-.776.631-1.2.966c-.235.189-.473.377-.709.565-.172.137-.342.273-.516.408-.876.687-1.763,1.358-2.668,2-.215.153-.434.306-.648.456a33.972,33.972,0,0,1-5.754,3.224l-.026.012a22.59,22.59,0,0,1-3.057,1.072,18.049,18.049,0,0,1-1.8.4,15.649,15.649,0,0,1-4.882.086c-3.188-.459-6.175-1.976-9.355-2.483-6.561-1.036-12.931,2.3-19.1,4.928q-2.267.965-4.584,1.811-1.535.563-3.084,1.072a95.718,95.718,0,0,1-19.353,4.21,43.981,43.981,0,0,1-8.217.225,27.323,27.323,0,0,1-3.076-.407,17.64,17.64,0,0,1-9.292-4.61,22.179,22.179,0,0,1-4.849-7.671q-.7-1.717-1.235-3.513a39.756,39.756,0,0,1-1.258-5.735c-.063-.438-.12-.878-.162-1.317q-.126-1.131-.188-2.272A39.988,39.988,0,0,1,2.132,87.523c1.1-4.345,2.942-8.505,3.751-12.891.034-.184.065-.369.1-.553q.162-.988.246-2.012C6.633,66.7,5.054,61.452,3.808,56.194c-.044-.184-.087-.369-.13-.553q-.2-.874-.384-1.75a45,45,0,0,1-.445-17.063c.032-.184.07-.37.107-.553a27.87,27.87,0,0,1,3.782-9.62,33.114,33.114,0,0,1,7.124-7.664q1.967-1.6,4.069-2.988,1.511-1,3.076-1.888A50.584,50.584,0,0,1,48.576,7.527q.756.04,1.509.105.79.069,1.575.165a92.474,92.474,0,0,1,18.009,4.453q2.978.988,5.945,1.976,1.321.438,2.641.864a135.153,135.153,0,0,0,13.127,3.576q1.54.329,3.076.6A71.548,71.548,0,0,0,105.24,20.4q2.1.053,4.21-.044,1.064-.049,2.129-.145c7.336-.639,14.41-2.781,21.513-4.793,1.026-.291,2.054-.581,3.075-.861,1.351-.369,2.7-.726,4.059-1.055,8.448-2.063,15.978-.878,23.831,3.377a11.706,11.706,0,0,1,4.663,3.937A14.394,14.394,0,0,1,170.292,27c.289,3.059.486,6.161.55,9.276,0,.184,0,.369.01.553A100.29,100.29,0,0,1,169.586,55.64Z" transform="translate(-0.916 2.234)"/>
    <path id="Pfad_1228" data-name="Pfad 1228" class="cls-4" d="M113.132,74.07h-.552v.553h.625Zm-6.258,0a.038.038,0,0,0,0,.013l-.049.458v.082h4.792V74.59l.342-.52Zm-12.815,0V56.179h5.5c-.058-.049-.118-.1-.18-.145l-.081-.062c-.034-.028-.068-.054-.1-.079s-.12-.087-.183-.13-.1-.071-.162-.105l-.037-.025H94.059v-.98l-.128.063-.136.077h-.01l-.029.018-.084.056c-.029.018-.058.036-.086.056-.084.058-.162.12-.251.184l-.081.066c-.055.043-.107.087-.162.132-.215.179-.428.367-.648.54l-.162.129a4.182,4.182,0,0,1-.366.244,1.743,1.743,0,0,1-.162.091l-.091.043-.083.036a3.4,3.4,0,0,1-.6.194V74.07H82.723a.255.255,0,0,0,.016.058c.045.165.091.329.134.494h8.108V93.8h.126l.144.01.262.02.424.043.191.023.211.026h.031c.121.016.244.036.369.056l.079.013.178.03.256.046.614-.033.084.018a.486.486,0,0,1,.1.021V74.623h12.76v-.082l.049-.458a.038.038,0,0,1,0-.013Zm19.073,0h-.552v.553h.625Zm-6.6,0-.055.553h5.332l.363-.553Zm-12.467,0V56.179h5.5c-.058-.049-.118-.1-.18-.145l-.081-.062c-.034-.028-.068-.054-.1-.079s-.12-.087-.183-.13-.1-.071-.162-.105l-.037-.025H94.059v-.98l-.128.063-.136.077h-.01l-.029.018-.084.056c-.029.018-.058.036-.086.056-.084.058-.162.12-.251.184l-.081.066c-.055.043-.107.087-.162.132-.215.179-.428.367-.648.54l-.162.129a4.182,4.182,0,0,1-.366.244,1.743,1.743,0,0,1-.162.091l-.091.043-.083.036a3.4,3.4,0,0,1-.6.194V74.07H82.723a.255.255,0,0,0,.016.058c.045.165.092.329.136.494h8.107V93.8l.126.008.144.01.262.02.424.043.191.023.211.026h.031c.121.016.244.036.369.056l.079.013.178.03.256.046.614-.033.084.018a.487.487,0,0,1,.1.021V74.623h12.42l.058-.553ZM135.78,36.812h34.685c0-.184,0-.369-.012-.553H135.78V14.536c-1.03.28-2.059.57-3.076.861V36.259H94.979l-.1-.105.144-.165L109.059,20.33q-2.1.1-4.21.044L94.059,32.409V19.25q-1.544-.272-3.076-.6V31.8l-15.775-17.6c-1.98-.659-3.96-1.329-5.945-1.976L90.7,36.153l-.1.105H51.255V7.776q-.787-.091-1.575-.165-.753-.068-1.509-.105V36.259H20.6V14.1q-1.569.889-3.076,1.888V36.259H2.531c-.037.183-.074.369-.107.553H17.512V55.625H3.259c.042.184.086.369.13.553h14.13V74.07H5.555c-.031.184-.062.369-.1.553H17.518V124.65a27.327,27.327,0,0,0,3.076.407V74.623H48.17v46q1.551-.512,3.084-1.072V74.623H90.977v40.189a22.563,22.563,0,0,0,3.057-1.072l.026-.012V74.623h38.634V93.47q1.538-.282,3.076-.538V74.623h27.47q.136-.277.267-.553H135.78V56.179h33.292c.034-.184.065-.369.1-.553H135.78Zm-115.177,0H48.17V55.625H20.6Zm0,37.258V56.179H48.17V74.07ZM51.256,36.812h39.72V55.625H51.255Zm0,37.258V56.179h39.72V74.07Zm81.438,0H94.059V56.179h38.634Zm0-18.44H94.059V37.316l.542-.5h38.092ZM106.876,74.07a.033.033,0,0,0,0,.013l-.049.458v.082h4.792V74.59l.342-.52Zm6.258,0h-.552v.553h.625Zm-19.073,0V56.179h5.5c-.058-.049-.118-.1-.18-.145l-.081-.062c-.034-.028-.068-.054-.1-.079s-.12-.087-.183-.13-.1-.071-.162-.105l-.037-.025h-4.76v-.98l-.128.063-.136.077h-.01l-.029.018-.084.056c-.029.018-.058.036-.086.056-.084.058-.162.12-.251.184l-.081.066c-.055.043-.107.087-.162.132-.215.179-.428.367-.648.54l-.162.129a4.182,4.182,0,0,1-.366.244,1.743,1.743,0,0,1-.162.091l-.091.043-.083.036a3.4,3.4,0,0,1-.6.194V74.07H82.723a.255.255,0,0,0,.016.058c.045.165.091.329.134.494h8.108V93.8h.126l.144.01.262.02.424.043.191.023.211.026h.031c.121.016.244.036.369.056l.079.013.178.03.256.046.614-.033.084.018a.486.486,0,0,1,.1.021V74.623h12.76v-.082l.049-.458a.038.038,0,0,1,0-.013Z" transform="translate(-0.497 2.249)"/>
    <path id="Pfad_1229" data-name="Pfad 1229" class="cls-5" d="M27.239,20.358h.246a.594.594,0,0,1-.206-.2.606.606,0,0,1-.087-.279c0-.382.46-.693,1.022-.693h7.148c.562,0,1.022.311,1.022.693s-.46.693-1.022.693h-.238a.6.6,0,0,1,.205.2.608.608,0,0,1,.086.278c0,.329-.334.6-.78.673h2.058c.56,0,1.02.311,1.02.693s-.46.691-1.02.691H29.536c-.56,0-1.02-.311-1.02-.691,0-.329.333-.6.78-.673H27.239c-.56,0-1.02-.311-1.02-.693S26.675,20.358,27.239,20.358Z" transform="translate(6.12 5.749)"/>
    <path id="Pfad_1230" data-name="Pfad 1230" class="cls-5" d="M87.856,25.434h.24a.6.6,0,0,1-.206-.2.608.608,0,0,1-.087-.279c0-.38.46-.692,1.022-.692h7.148c.562,0,1.022.311,1.022.692s-.46.693-1.022.693h-.238a.6.6,0,0,1,.205.2.609.609,0,0,1,.086.279c0,.329-.333.6-.78.672H97.3c.56,0,1.02.313,1.02.693s-.46.693-1.02.693H90.157c-.56,0-1.02-.311-1.02-.693,0-.329.334-.6.78-.672H87.856c-.56,0-1.02-.313-1.02-.693S87.3,25.434,87.856,25.434Z" transform="translate(22.978 7.27)"/>
    <path id="Pfad_1231" data-name="Pfad 1231" class="cls-5" d="M18.659,47.156h.24a.6.6,0,0,1-.205-.2.61.61,0,0,1-.086-.279c0-.38.458-.693,1.02-.693h7.148c.562,0,1.022.313,1.022.693s-.46.693-1.022.693h-.238a.6.6,0,0,1,.205.2.61.61,0,0,1,.086.279c0,.329-.333.6-.78.672h2.058c.562,0,1.02.311,1.02.693s-.458.693-1.02.693h-7.15c-.56,0-1.02-.313-1.02-.693,0-.329.335-.6.78-.673H18.659c-.56,0-1.02-.311-1.02-.691S18.1,47.156,18.659,47.156Z" transform="translate(3.734 13.78)"/>
    <path id="Pfad_1232" data-name="Pfad 1232" class="cls-6" d="M85.627,83.372l-1.2.966c-.235.189-.473.377-.709.565-.172.137-.342.273-.516.408-.876.687-1.763,1.358-2.668,2-.215.153-.434.306-.648.456a33.988,33.988,0,0,1-5.754,3.224L74.1,91V83.372Z" transform="translate(19.437 24.986)"/>
    <path id="Pfad_1233" data-name="Pfad 1233" class="cls-7" d="M113.3,69.548l.181-5.688c-.109-.086-.219-.165-.324-.244a30.841,30.841,0,0,0-.285-5.073c-.732-5.688-5.484-5.812-6.824-4.638a3.234,3.234,0,0,1-.578.405c.121-.812.272-1.625.38-2.428.586-4.333-.324-9.208-3.63-12.009a41.856,41.856,0,0,0-4.6-2.87c-2.723-1.747-4.875-4.327-7.629-6.027s-6.622-2.338-9.025-.152c-.931.846-1.532,2.02-2.487,2.837-1.781,1.521-4.558,1.622-6.112,3.321-.078.086-.152.173-.223.265-1.3,1.689-.941,4.085-.528,6.181.5,2.522.291,4.544,2.419,5.269.008.1.015.2.026.3a10.807,10.807,0,0,0,1.475,4.366,10.608,10.608,0,0,0,3.149,3.326l-.345.125c-.92.329-1.747.649-2.276.868a62.663,62.663,0,0,1-6.033,1.854s-.1,1.185-.079,2.934c-1.363,1.506-3.638,4.154-4.307,5.723-.971,2.288-6.46,8.843-7.922,9.832s-3.047,2.163-3.047,2.163a14.175,14.175,0,0,1-3.411,1.423,18.1,18.1,0,0,1-3.109-.372s-9.383-11.69-8.774-2.72,8.1,9.274,8.1,9.274l7.556-.123s4.083.556,5.911-.988c1.561-1.317,9.65-8.543,12.248-11.821.06.067.12.133.183.2,0,0,1.035-1.36,1.158,0s-.672,1.976-.245,2.47a9.461,9.461,0,0,1,1.766,2.906c.06.68-1.7,3.457,1.279,5.565.047.033.1.064.152.1a7.715,7.715,0,0,0,2.226,2.44l9.14-.123,17.245,1.36s.513-.459,1.208-1.21a3.735,3.735,0,0,0,3.665,1.152s2.072-2.534,2.134-4.2c0,0-1.34-3.525-1.943-4.575s.428-3.339.428-3.339.73-2.226,1.158-2.226.121-1.482.121-1.482a1.827,1.827,0,0,1-.183-1.669A16.208,16.208,0,0,0,113.3,69.548Z" transform="translate(9.776 8.819)"/>
    <path id="Pfad_1234" data-name="Pfad 1234" class="cls-8" d="M93.169,63.013l-.648.77-2.616,3.1-3.418.211-5.471.342S73.639,58.4,75.025,56.429a3.652,3.652,0,0,0,.486-2.531c-.013-.122-.031-.244-.052-.364a10.642,10.642,0,0,0-.861-2.7l.181-.084L74.9,50.7l6.45-2.993,1.6-.741a4.431,4.431,0,0,0,.437,1.281c.031.063.065.125.1.184,2.2,3.7,9.256,1.362,9.256,1.362Z" transform="translate(19.575 14.074)"/>
    <path id="Pfad_1235" data-name="Pfad 1235" class="cls-8" d="M99.034,58.041a10.984,10.984,0,0,1-.408,3.211L89.5,62.665l-.342-2.41L87.8,50.737l1.269-1.291a3.333,3.333,0,0,0,1.536-.025,3.369,3.369,0,0,0,1.367-.712c1.329-1.169,6.046-1.045,6.771,4.61A31.825,31.825,0,0,1,99.034,58.041Z" transform="translate(23.247 14.421)"/>
    <path id="Pfad_1236" data-name="Pfad 1236" class="cls-9" d="M96.017,78.19s2.055-2.521,2.116-4.18L96.077,70.5l-1.813-1.976-3.387,6.648S93.114,79.112,96.017,78.19Z" transform="translate(24.102 20.538)"/>
    <path id="Pfad_1237" data-name="Pfad 1237" class="cls-10" d="M96.017,78.19s2.055-2.521,2.116-4.18L96.077,70.5l-1.813-1.976-3.387,6.648S93.114,79.112,96.017,78.19Z" transform="translate(24.102 20.538)"/>
    <path id="Pfad_1238" data-name="Pfad 1238" class="cls-11" d="M104.015,85.9c-.172.137-.342.273-.516.408-.876.687-1.763,1.358-2.668,2-.215.153-.434.306-.648.456H48.535l-15.281-.557L20.965,88.1l-3.076-.165L2.54,87.113a39.75,39.75,0,0,1-1.264-5.739c-.063-.438-.12-.877-.162-1.317L17.882,81l3.076.176,27.569,1.564,3.084.175,39.722,2.256,3.057.175h.026Z" transform="translate(-0.861 23.992)"/>
    <path id="Pfad_1239" data-name="Pfad 1239" class="cls-12" d="M124.77,76.049a42.892,42.892,0,0,0-9.714,4.063c-.244.143-.486.29-.73.44s-.486.3-.721.454-.471.308-.7.464l-.359.247-.351.244c-.346.242-.688.494-1.03.738l-.013.01-.672.494c-1.261.95-2.495,1.944-3.724,2.942l-.779.63-1.2.966c-.235.189-.473.377-.709.565-.172.137-.342.273-.517.408l-9.067-.44h-.026L91.4,88.13,51.66,86.216l-3.084-.15L21.006,84.734l-3.076-.15-16.613-.8c-.063-.438-.12-.878-.162-1.317Q1.029,81.341.967,80.2l16.961-6.092L21,73,23.8,72l5.092.27,11.769.614,7.921.423,3.084.165,1.97.105.471.026,16.582.881.175.012,7.4.392H78.4l.74.038,2.523.135,3.154.165,1.039.056.2.012,1.47.077.419.021,1.4.076.559.031h.134l1.313.071,2.034.109h.01l.631.033h.068l.377.021.926.049.809.043h.008l.908.048h.015l.688.038.528.028,1.873.1.337.018h.117l.162.01.549.03.246.013,1.91.1h.175l2.82-.025h.019l10.723-.089h1.06l3.452-.028h.515Z" transform="translate(-0.902 21.577)"/>
    <path id="Pfad_1240" data-name="Pfad 1240" class="cls-1" d="M41.266,75.713l1,5.4,27.116-.415s2.04.6,1.995-1.06c0,0,4.127-3.966,25.031.645l-8.026-6.409-21.938,1.2L41,74.376Z" transform="translate(10.232 22.138)"/>
    <path id="Pfad_1241" data-name="Pfad 1241" class="cls-7" d="M41.6,74.363l.952,5.856s23.315-.691,26.98-.046l-2.77-5.349S52.663,73.487,41.6,74.363Z" transform="translate(10.398 22.197)"/>
    <path id="Pfad_1242" data-name="Pfad 1242" class="cls-13" d="M41.6,74.363l.952,5.856s23.315-.691,26.98-.046l-2.77-5.349S52.663,73.487,41.6,74.363Z" transform="translate(10.398 22.197)"/>
    <path id="Pfad_1243" data-name="Pfad 1243" class="cls-7" d="M41.871,74.342l.939,5.446s23.018-.642,26.645-.043l-2.731-4.974S52.8,73.527,41.871,74.342Z" transform="translate(10.473 22.197)"/>
    <path id="Pfad_1244" data-name="Pfad 1244" class="cls-13" d="M42.2,74.468l.915,5.094s22.513-.6,26.067-.04l-2.671-4.654A186.206,186.206,0,0,0,42.2,74.468Z" transform="translate(10.565 22.239)"/>
    <path id="Pfad_1245" data-name="Pfad 1245" class="cls-7" d="M42.343,74.324l.92,5.1s22.513-.6,26.067-.04l-2.678-4.659A187.047,187.047,0,0,0,42.343,74.324Z" transform="translate(10.605 22.197)"/>
    <path id="Pfad_1246" data-name="Pfad 1246" class="cls-14" d="M30.586,63.607s1.179,1.566-.542,3.932S26.9,71.9,27.476,73.375c0,0,2.59-4.393,4.711-4.445S32.913,66.248,30.586,63.607Z" transform="translate(6.434 19.063)"/>
    <path id="Pfad_1247" data-name="Pfad 1247" class="cls-13" d="M30.572,63.607a1.917,1.917,0,0,1,.241.494c2.063,2.47,3.162,4.775,1.179,4.824-1.847.053-4.062,3.411-4.593,4.261q.028.1.063.193s2.59-4.393,4.711-4.445S32.9,66.248,30.572,63.607Z" transform="translate(6.448 19.063)"/>
    <path id="Pfad_1248" data-name="Pfad 1248" class="cls-15" d="M31.654,65.225c0,.55-.061,1-.136,1s-.136-.448-.136-1,.076-.293.151-.293S31.654,64.674,31.654,65.225Z" transform="translate(7.556 19.442)"/>
    <path id="Pfad_1249" data-name="Pfad 1249" class="cls-15" d="M32.385,65.737c-.476.265-.89.425-.926.357s.324-.329.8-.6.288-.072.324,0S32.861,65.473,32.385,65.737Z" transform="translate(7.577 19.587)"/>
    <path id="Pfad_1250" data-name="Pfad 1250" class="cls-14" d="M25.588,63.607s-1.179,1.566.544,3.932S29.273,71.9,28.7,73.375c0,0-2.6-4.393-4.713-4.445S23.261,66.248,25.588,63.607Z" transform="translate(5.21 19.063)"/>
    <path id="Pfad_1251" data-name="Pfad 1251" class="cls-13" d="M25.588,63.607a1.993,1.993,0,0,0-.241.494c-2.063,2.47-3.162,4.775-1.179,4.824,1.847.053,4.064,3.411,4.595,4.261a1.967,1.967,0,0,1-.063.193s-2.6-4.393-4.713-4.445S23.261,66.248,25.588,63.607Z" transform="translate(5.21 19.063)"/>
    <path id="Pfad_1252" data-name="Pfad 1252" class="cls-15" d="M23.3,65.225c0,.55.062,1,.136,1s.136-.448.136-1-.076-.293-.151-.293S23.3,64.674,23.3,65.225Z" transform="translate(5.308 19.442)"/>
    <path id="Pfad_1253" data-name="Pfad 1253" class="cls-15" d="M22.774,65.737c.476.265.892.425.928.357s-.324-.329-.8-.6-.288-.072-.324,0S22.3,65.473,22.774,65.737Z" transform="translate(5.082 19.587)"/>
    <path id="Pfad_1254" data-name="Pfad 1254" class="cls-6" d="M35.161,69.666l-.058.494-.083.69-.034.288-.083.691-.036.288-.084.692-.942,7.857c-.084.7-1.211,1.248-2.571,1.248H26.378c-1.36,0-2.485-.547-2.57-1.248l-.944-7.857-.083-.692-.034-.288-.084-.691-.034-.288-.083-.69-.06-.494c-.047-.4.562-.731,1.332-.731H33.835C34.6,68.935,35.215,69.269,35.161,69.666Z" transform="translate(5.082 20.66)"/>
    <path id="Pfad_1255" data-name="Pfad 1255" class="cls-16" d="M35.094,69.874l-.083.692h-12.4l-.083-.692Z" transform="translate(5.096 20.941)"/>
    <path id="Pfad_1256" data-name="Pfad 1256" class="cls-16" d="M34.952,70.627l-.083.692H22.709l-.084-.692Z" transform="translate(5.121 21.167)"/>
    <path id="Pfad_1257" data-name="Pfad 1257" class="cls-16" d="M34.808,71.381l-.083.69H22.8l-.083-.69Z" transform="translate(5.147 21.393)"/>
    <path id="Pfad_1258" data-name="Pfad 1258" class="cls-17" d="M44.753,69.269s-3.144-3.074-3.023.922S44.753,69.269,44.753,69.269Z" transform="translate(10.433 20.421)"/>
    <path id="Pfad_1259" data-name="Pfad 1259" class="cls-8" d="M73.664,66.42a4.68,4.68,0,0,1-.936,1.467c-2.727,3.339-10.484,10.279-12,11.566-1.813,1.538-5.864.988-5.864.988l-7.5.123s-7.436-.308-8.042-9.22,8.706,2.705,8.706,2.705a17.9,17.9,0,0,0,3.084.369A14.024,14.024,0,0,0,54.5,73.006s1.572-1.169,3.023-2.152,6.892-7.5,7.861-9.776a26.677,26.677,0,0,1,3.955-5.336C70.12,54.86,70.7,54.26,70.7,54.26S74.087,64.513,73.664,66.42Z" transform="translate(9.757 16.261)"/>
    <path id="Pfad_1260" data-name="Pfad 1260" class="cls-13" d="M67.127,66.421a4.676,4.676,0,0,1-.936,1.467c-2.752-2.85-3.327-8.537-3.392-12.152.784-.881,1.365-1.482,1.365-1.482S67.55,64.515,67.127,66.421Z" transform="translate(16.294 16.26)"/>
    <path id="Pfad_1261" data-name="Pfad 1261" class="cls-13" d="M92.519,62.922l-2.615,3.1-3.418.211-5.471.342s-7.376-9.039-5.991-11.006a3.652,3.652,0,0,0,.486-2.531c-.013-.122-.031-.244-.052-.364a10.644,10.644,0,0,0-.861-2.7l.181-.084.117-.054a11.977,11.977,0,0,1,.593,2.521c.018.117.034.239.05.364.057.444.109.938.162,1.482.421,4.975,3.5,6.847,4.888,7.443a13.991,13.991,0,0,1,1.308.644,6.881,6.881,0,0,0,4.388.807A13.191,13.191,0,0,0,92.51,60.1l.015,2.494Z" transform="translate(19.575 14.935)"/>
    <path id="Pfad_1262" data-name="Pfad 1262" class="cls-18" d="M95.837,82.436s-22.49-.063-25.455-2.152-1.208-4.857-1.269-5.534a9.514,9.514,0,0,0-1.752-2.891c-.423-.494.363-1.106.241-2.458s-1.148,0-1.148,0c-4.234-4.366-3.327-15.432-3.327-15.432s4.048-1.044,5.991-1.846c.526-.217,1.345-.527,2.267-.861l.342-.125c2.375-.864,5.2-1.841,5.2-1.841s.542-.39,1.088.777a10.4,10.4,0,0,1,.7,2.782c.018.117.034.239.05.364.057.444.109.939.162,1.482.421,4.975,3.5,6.847,4.888,7.443a14,14,0,0,1,1.308.644,6.881,6.881,0,0,0,4.388.807A13.192,13.192,0,0,0,95.735,60.6L95.75,63.1l.042,7.495Z" transform="translate(16.362 14.755)"/>
    <path id="Pfad_1263" data-name="Pfad 1263" class="cls-8" d="M93.274,67.5l-.363,2.336s-8.949,2.274-12.454,2.95S69.393,72.6,68.849,74.079s2.3,3.505,2.3,3.505l9.067-.124,17.11,1.353s6.53-5.841,4.414-9.9S93.274,67.5,93.274,67.5Z" transform="translate(17.957 19.976)"/>
    <path id="Pfad_1264" data-name="Pfad 1264" class="cls-13" d="M74.263,53.114s-4.112,3.443-3.326,5.1S74.263,53.114,74.263,53.114Z" transform="translate(18.529 15.918)"/>
    <path id="Pfad_1265" data-name="Pfad 1265" class="cls-13" d="M70.4,57.891s-4.172,7.317-3.93,7.87,1.391,2.521,1.329,1.045S70.4,57.891,70.4,57.891Z" transform="translate(17.312 17.35)"/>
    <path id="Pfad_1266" data-name="Pfad 1266" class="cls-13" d="M71.332,58.886A38.2,38.2,0,0,1,69.4,65.341C68.434,67.248,71.332,58.886,71.332,58.886Z" transform="translate(18.074 17.648)"/>
    <path id="Pfad_1267" data-name="Pfad 1267" class="cls-13" d="M84.889,48.431a10.573,10.573,0,0,1-3.321,3.717A10.353,10.353,0,0,1,76.94,53.9H76.92a10.311,10.311,0,0,1-7.36-1.959c2.429-.892,5.54-1.966,5.54-1.966s.542-.39,1.088.777l8.163-3.787A4.445,4.445,0,0,0,84.889,48.431Z" transform="translate(18.174 14.075)"/>
    <path id="Pfad_1268" data-name="Pfad 1268" class="cls-8" d="M87.1,46.341a10.686,10.686,0,0,1-2.935,7.389,10.352,10.352,0,0,1-6.34,3.188h-.021a10.042,10.042,0,0,1-1.162.067,10.361,10.361,0,0,1-6.967-2.7,10.7,10.7,0,0,1-3.426-6.735,10.488,10.488,0,0,1-.066-1.2,10.728,10.728,0,0,1,3.063-7.521,10.337,10.337,0,0,1,14.791,0A10.728,10.728,0,0,1,87.1,46.347Z" transform="translate(17.235 10.703)"/>
    <path id="Pfad_1269" data-name="Pfad 1269" class="cls-13" d="M88.007,60.572l.971-1.482S94.3,52.635,99.5,56.754l-.181,5.657a15.223,15.223,0,0,1-.606,2.634,1.825,1.825,0,0,0,.181,1.661s.3,1.482-.12,1.482-1.15,2.213-1.15,2.213-1.028,2.275-.423,3.321,1.935,4.549,1.935,4.549a6.745,6.745,0,0,1-2.722-3.443s-5.139-4.058-9.13-1.482Z" transform="translate(23.104 16.597)"/>
    <path id="Pfad_1270" data-name="Pfad 1270" class="cls-13" d="M98.74,56.015a10.984,10.984,0,0,1-.408,3.21L89.2,60.64l-.342-2.41C90.055,56.962,94.4,52.931,98.74,56.015Z" transform="translate(23.541 16.447)"/>
    <path id="Pfad_1271" data-name="Pfad 1271" class="cls-18" d="M88.007,60.319l.971-1.482S94.3,52.381,99.5,56.5l-.181,5.657a15.22,15.22,0,0,1-.606,2.634,1.825,1.825,0,0,0,.181,1.661s.3,1.482-.12,1.482-1.15,2.213-1.15,2.213-1.028,2.275-.423,3.321,1.935,4.549,1.935,4.549a6.746,6.746,0,0,1-2.722-3.443s-5.139-4.058-9.13-1.482Z" transform="translate(23.104 16.521)"/>
    <path id="Pfad_1272" data-name="Pfad 1272" class="cls-13" d="M96.386,55.905s-8.766,5.473-8.343,10.272C88.043,66.177,92.94,57.38,96.386,55.905Z" transform="translate(23.31 16.755)"/>
    <path id="Pfad_1273" data-name="Pfad 1273" class="cls-13" d="M94.861,67.158l.042,7.494a5.988,5.988,0,0,1-4.456-1.235,5.462,5.462,0,0,1-1.619-2.947,10.611,10.611,0,0,1-.21-2.787.145.145,0,0,1,0-.028c.1-2.07.57-4.139.324-6.2S87.47,57.233,85.469,56.8a2.076,2.076,0,0,1-1.12-.413,1.675,1.675,0,0,1-.262-1.3l.058-.769c.015-.2.021-.393.021-.589a7.624,7.624,0,0,0-1.692-4.791,7.4,7.4,0,0,0-4.3-2.608l-.065-.012a4.026,4.026,0,0,0-1.713-.1c-1.072.252-1.765,1.309-2.752,1.811-1.894.962-5.053-.091-7.036-.421-.129-.021-.253-.046-.371-.074a10.516,10.516,0,0,1-.066-1.2,10.785,10.785,0,0,1,1.078-4.7,10.6,10.6,0,0,1,3.007-3.73,10.331,10.331,0,0,1,13.248.416,10.633,10.633,0,0,1,2.775,3.912,10.8,10.8,0,0,1-.566,9.378c.031.063.065.125.1.184,2.2,3.7,9.256,1.362,9.256,1.362l.424,13.219Z" transform="translate(17.231 10.701)"/>
    <path id="Pfad_1274" data-name="Pfad 1274" class="cls-19" d="M74.614,49.608c.981-.5,1.674-1.561,2.752-1.811a4.065,4.065,0,0,1,1.715.1l.065.013a7.412,7.412,0,0,1,4.474,2.843A7.643,7.643,0,0,1,85.109,55.9l-.058.769a1.651,1.651,0,0,0,.264,1.3,2.027,2.027,0,0,0,1.119.412c2,.435,3.227,2.593,3.473,4.661s-.23,4.144-.324,6.222.282,4.371,1.826,5.736c2.429,2.14,6.12.922,9.334.726-1.422,0-2.487-1.492-2.565-2.934a8.9,8.9,0,0,1,1.158-4.116,8.276,8.276,0,0,0,1.075-4.139c-.185-1.976-1.716-3.558-2.3-5.46-.683-2.213-.024-4.589.285-6.889.581-4.307-.324-9.156-3.6-11.94a41.508,41.508,0,0,0-4.561-2.855c-2.7-1.744-4.836-4.3-7.569-6s-6.57-2.325-8.955-.152c-.923.841-1.519,2.009-2.468,2.82-1.854,1.589-4.8,1.618-6.287,3.568-1.279,1.678-.933,4.06-.523,6.143.546,2.778.238,4.939,3.157,5.433C69.561,49.519,72.718,50.571,74.614,49.608Z" transform="translate(16.643 8.945)"/>
    <path id="Pfad_1275" data-name="Pfad 1275" class="cls-13" d="M98.671,72.661c-2.339.291-4.658.441-6.361-1.06-1.545-1.365-1.925-3.657-1.826-5.736s.572-4.157.324-6.223-1.472-4.225-3.473-4.659a2.055,2.055,0,0,1-1.119-.412,1.663,1.663,0,0,1-.264-1.3l.058-.769a7.641,7.641,0,0,0-1.489-5.146,7.41,7.41,0,0,0-4.474-2.842l-.065-.013a4.064,4.064,0,0,0-1.715-.1c-1.072.252-1.765,1.317-2.752,1.811-1.9.963-5.051-.089-7.038-.42-2.914-.486-2.61-2.651-3.157-5.433a10.622,10.622,0,0,1-.162-4.748,2.566,2.566,0,0,0-.223.265c-1.279,1.678-.933,4.06-.523,6.143.546,2.778.238,4.939,3.157,5.433,1.985.329,5.142,1.383,7.038.42.981-.5,1.674-1.561,2.752-1.811a4.065,4.065,0,0,1,1.715.1l.065.013a7.412,7.412,0,0,1,4.474,2.843A7.642,7.642,0,0,1,85.1,54.165l-.058.769a1.651,1.651,0,0,0,.264,1.3,2.025,2.025,0,0,0,1.119.412c2,.435,3.227,2.593,3.473,4.661s-.228,4.144-.324,6.222S89.857,71.9,91.4,73.26c2.429,2.14,6.12.922,9.334.726A2.459,2.459,0,0,1,98.671,72.661Z" transform="translate(16.638 10.674)"/>
    <path id="Pfad_1276" data-name="Pfad 1276" class="cls-20" d="M40.046,69.232l9.981-3.787a.936.936,0,0,1,.726.026.96.96,0,0,1,.5.54.981.981,0,0,1-.025.739.957.957,0,0,1-.531.5l-9.982,3.787-2.14-.217Z" transform="translate(9.556 19.595)"/>
    <path id="Pfad_1277" data-name="Pfad 1277" class="cls-21" d="M50.95,65.667a.982.982,0,0,1-.026.739.956.956,0,0,1-.532.5L40.4,70.71,38.8,70.545l-.232.25,2.14.217,9.981-3.787a.957.957,0,0,0,.531-.5.981.981,0,0,0,.026-.739.963.963,0,0,0-.389-.482A1.133,1.133,0,0,1,50.95,65.667Z" transform="translate(9.554 19.63)"/>
    <path id="Pfad_1278" data-name="Pfad 1278" class="cls-22" d="M40.047,68.345l.664,1.809-1.755-.179-.384-.04.525-.566Z" transform="translate(9.556 20.483)"/>
    <path id="Pfad_1279" data-name="Pfad 1279" class="cls-23" d="M39.095,69.129a.43.43,0,0,1,.1.114.167.167,0,0,1,0,.176.348.348,0,0,1-.1.071.326.326,0,0,0-.1.105.334.334,0,0,0-.044.138l-.385-.038Z" transform="translate(9.557 20.718)"/>
    <path id="Pfad_1280" data-name="Pfad 1280" class="cls-7" d="M64.286,78.6s8.646-1.846,23.153.494l-5.683-4.241L71.416,72.7,64.1,74.673Z" transform="translate(16.656 21.787)"/>
    <path id="Pfad_1281" data-name="Pfad 1281" class="cls-13" d="M64.286,78.6s8.646-1.846,23.153.494l-5.683-4.241L71.416,72.7,64.1,74.673Z" transform="translate(16.656 21.787)"/>
    <path id="Pfad_1282" data-name="Pfad 1282" class="cls-7" d="M64.053,80.475s4.354-11.976,26.715.038l-8.026-5.252s-19.226-5.4-21.448.823Z" transform="translate(15.875 21.904)"/>
    <path id="Pfad_1283" data-name="Pfad 1283" class="cls-13" d="M64.056,80.668s4.354-12.8,26.715.23l-8.026-5.7s-19.233-6.461-21.459.3Z" transform="translate(15.873 21.703)"/>
    <path id="Pfad_1284" data-name="Pfad 1284" class="cls-7" d="M64.053,80.684s4.354-12.993,26.715.041l-8.026-5.7s-19.226-6.276-21.448.494Z" transform="translate(15.875 21.692)"/>
    <path id="Pfad_1285" data-name="Pfad 1285" class="cls-13" d="M64.055,80.809s4.354-14.441,26.715.222l-8.032-6.409s-19.226-6.586-21.448,1.014Z" transform="translate(15.874 21.57)"/>
    <path id="Pfad_1286" data-name="Pfad 1286" class="cls-7" d="M64.055,80.843s4.354-14.617,26.715.046L82.737,74.48s-19.226-6.586-21.448,1.014Z" transform="translate(15.874 21.528)"/>
  </g>
  <g id="Gruppe_133" data-name="Gruppe 133" transform="matrix(0.921, -0.391, 0.391, 0.921, 66.938, 45.145)">
    <path id="Pfad_1293" data-name="Pfad 1293" class="cls-24" d="M0,4.777a21.639,21.639,0,0,0,2.366,0S3.183,2.126,5.3,2.411s1.264,3.018.2,4.038a6.4,6.4,0,0,0-2.079,4c1.3.041.732-.082,2.284,0,.693-2.528,2.079-2.61,3.139-4.568C9.995,3.635,8.811-.158,4.61.005.736.576-.039,3.105,0,4.777Z" transform="translate(0 0)"/>
    <path id="Pfad_1294" data-name="Pfad 1294" class="cls-24" d="M0,0V2.325H2.285V0Z" transform="translate(3.469 11.262)"/>
  </g>
  <g id="Gruppe_134" data-name="Gruppe 134" transform="matrix(0.996, -0.087, 0.087, 0.996, 75.968, 29.07)">
    <path id="Pfad_1293-2" data-name="Pfad 1293" class="cls-25" d="M0,4.777a21.639,21.639,0,0,0,2.366,0S3.183,2.126,5.3,2.411s1.264,3.018.2,4.038a6.4,6.4,0,0,0-2.079,4c1.3.041.732-.082,2.284,0,.693-2.528,2.079-2.61,3.139-4.568C9.995,3.635,8.811-.158,4.61.005.736.576-.039,3.105,0,4.777Z" transform="translate(0 0)"/>
    <path id="Pfad_1294-2" data-name="Pfad 1294" class="cls-25" d="M0,0V2.325H2.285V0Z" transform="translate(3.469 11.262)"/>
  </g>
</svg>
