<svg xmlns="http://www.w3.org/2000/svg" width="46" height="47" viewBox="0 0 46 47">
  <g id="_3-alphabet_and_number" data-name="3-alphabet and number" transform="translate(0 0.314)">
    <rect id="Rectangle_184" data-name="Rectangle 184" width="46" height="47" transform="translate(0 -0.314)" fill="none"/>
    <path id="Path_1221" data-name="Path 1221" d="M2.545,21.667A18.688,18.688,0,1,1,21.233,40.355,18.718,18.718,0,0,1,2.545,21.667Zm2.242,0A16.445,16.445,0,1,0,21.233,5.222,16.469,16.469,0,0,0,4.787,21.667Zm22.444-6.317a5.427,5.427,0,0,1-2.2,4.934,6.177,6.177,0,0,1,3.588,3.775c.878,2.784-.729,5.588-2.6,7.008a8.527,8.527,0,0,1-10.652-.262,6.9,6.9,0,0,1-1.588-1.775,1.141,1.141,0,0,1,.355-1.551,1.124,1.124,0,0,1,1.551.355,4.819,4.819,0,0,0,1.084,1.215,6.869,6.869,0,0,0,7.905.243c1.047-.8,2.392-2.672,1.813-4.56a4.482,4.482,0,0,0-5.065-2.71,1.148,1.148,0,0,1-1.289-1.084,1.1,1.1,0,0,1,.075-.43,1.18,1.18,0,0,1,.729-.673c3.289-.9,4.261-2.747,4.074-4.186a3.012,3.012,0,0,0-3.1-2.542H16.243a1.121,1.121,0,0,1,0-2.243h5.662A5.255,5.255,0,0,1,27.231,15.351Z" transform="translate(3.432 4.018)" fill="#404040" fill-rule="evenodd"/>
  </g>
</svg>
