<svg id="_1-alphabet_and_number" data-name="1-alphabet and number" xmlns="http://www.w3.org/2000/svg" width="46" height="46" viewBox="0 0 46 46">
  <rect id="Rectangle_182" data-name="Rectangle 182" width="46" height="46" fill="none"/>
  <path id="Path_1219" data-name="Path 1219" d="M2,22.3A19.323,19.323,0,1,1,21.323,41.625,19.355,19.355,0,0,1,2,22.3Zm2.319,0a17,17,0,1,0,17-17A17.029,17.029,0,0,0,4.319,22.3ZM22.83,31.133h3.517a1.18,1.18,0,0,1,1.159,1.179,1.163,1.163,0,0,1-1.159,1.159H16.8a1.159,1.159,0,1,1,0-2.319h3.71V14.206l-3.691,1.855a1.167,1.167,0,0,1-1.043-2.087l5.372-2.705a1.174,1.174,0,0,1,1.681,1.043Z" transform="translate(1.865 2.778)" fill="#404040" fill-rule="evenodd"/>
</svg>
