<svg xmlns="http://www.w3.org/2000/svg" width="46" height="47" viewBox="0 0 46 47">
  <g id="_2-alphabet_and_number" data-name="2-alphabet and number" transform="translate(0 0.157)">
    <rect id="Rectangle_183" data-name="Rectangle 183" width="46" height="47" transform="translate(0 -0.157)" fill="none"/>
    <path id="Path_1220" data-name="Path 1220" d="M2.645,22.87A19.891,19.891,0,1,1,22.535,42.761,19.923,19.923,0,0,1,2.645,22.87Zm2.387,0a17.5,17.5,0,1,0,17.5-17.5A17.529,17.529,0,0,0,5.032,22.87Zm14.4,9.11H29.954a1.214,1.214,0,0,1,1.213,1.193,1.2,1.2,0,0,1-1.193,1.193H15.434a1.2,1.2,0,0,1-.636-2.208A71.436,71.436,0,0,0,21.083,27.8c2.586-2.089,6.9-5.629,6.345-9.15A6.353,6.353,0,0,0,22.177,13.8a6.652,6.652,0,0,0-4.634,1.472,5.966,5.966,0,0,0-1.412,1.571A1.2,1.2,0,1,1,14.1,15.57,8.851,8.851,0,0,1,16.051,13.4a9.06,9.06,0,0,1,6.385-1.969,8.632,8.632,0,0,1,7.34,6.842c.776,4.873-4.2,8.951-7.18,11.377C21.66,30.428,20.506,31.244,19.432,31.98Z" transform="translate(1.876 2.113)" fill="#404040" fill-rule="evenodd"/>
  </g>
</svg>
