<svg xmlns="http://www.w3.org/2000/svg" width="117.967" height="99.369" viewBox="0 0 117.967 99.369">
  <g id="noun_bag_1832105" transform="translate(-4.75 -11.569)">
    <path id="Path_1213" data-name="Path 1213" d="M87.995,11.569H39.474V23.2H4.75V69.183l5.665,1.335v40.42H117.052V70.518l5.665-1.335V23.2H87.995ZM24.837,73.92l8.641,2.033V96.776H24.837Zm90.17,34.972H12.461V71.007l10.331,2.432V98.821H35.524V76.437L63.5,83.02l.235.055,28.21-6.639V98.822h12.732V73.439l10.331-2.43v37.884ZM93.99,75.954l8.641-2.033V96.776H93.99Zm26.683-50.711V67.567L98.1,72.881l-6.152,1.446v0L63.734,80.973l-28.21-6.642v0l-4.959-1.165L6.8,67.567V25.242H120.673ZM79.271,23.2H48.2V19.429H79.269V23.2Zm2.046,0V17.383H46.152V23.2H41.519V13.616H85.948V23.2Z" transform="translate(0)" fill="#ababab"/>
    <path id="Path_1214" data-name="Path 1214" d="M23.559,65.652a3.42,3.42,0,1,0,3.42,3.42A3.424,3.424,0,0,0,23.559,65.652Zm0,4.8a1.375,1.375,0,1,1,1.375-1.375A1.375,1.375,0,0,1,23.559,70.447Z" transform="translate(5.599 19.675)" fill="#ababab"/>
    <path id="Path_1215" data-name="Path 1215" d="M74.265,65.652a3.42,3.42,0,1,0,3.419,3.42A3.424,3.424,0,0,0,74.265,65.652Zm0,4.8a1.375,1.375,0,1,1,1.373-1.375A1.376,1.376,0,0,1,74.265,70.447Z" transform="translate(24.045 19.675)" fill="#ababab"/>
  </g>
</svg>
