<svg xmlns="http://www.w3.org/2000/svg" width="112.034" height="94" viewBox="0 0 112.034 94">
  <g id="noun_pointing_1856898" transform="translate(-4.75 -11.712)">
    <path id="Path_1216" data-name="Path 1216" d="M67.167,46.667H78.751l-3.66,7.072c-5.358-1.2-17.5-4.67-19.57-8.688-2.621-5.084-8.105-5.538-9.961-5.541l-1.088-1.829a13.559,13.559,0,1,0-10.9,0l-1.088,1.829c-1.856,0-7.34.458-9.961,5.541-2.536,4.911-10.117,18.2-11.663,20.9H4.75v5.515h8.482v34.246h8.579V99.666H56.233v6.046h8.579V71.466h8.482V65.951H50.2L51.39,54.5l17.8,6.258,8.746-6.41-.878-.185,3.879-7.494h35.844V18.43H67.167ZM27.406,25.274A11.617,11.617,0,1,1,39.022,36.891,11.631,11.631,0,0,1,27.406,25.274Zm-7.537,78.5H15.175v-4.1h4.694Zm43,0H58.175v-4.1h4.694Zm0-6.046H15.175V71.466H62.869Zm8.482-29.83v1.629H6.693V67.894H71.351ZM20.832,65.951l5.99-9.816,1.021,9.816ZM68.87,58.582,49.711,51.849l-1.466,14.1H29.8L28.159,50.213,18.554,65.951H13.1c2.317-4.06,8.827-15.507,11.152-20.009,2.518-4.882,8.45-4.5,8.7-4.475l.6.044,1.888-3.173a13.166,13.166,0,0,0,7.16,0l1.89,3.176.6-.047c.057-.006,6.17-.433,8.7,4.475,2.479,4.8,14.463,8.157,19.526,9.381Zm.24-38.209h45.732V44.724h-32.9l5.065-9.786-1.725-.892L79.757,44.724H69.109V20.373Z" transform="translate(0 0)" fill="#ababab"/>
    <rect id="Rectangle_173" data-name="Rectangle 173" width="12.856" height="1.943" transform="translate(94.092 26.559)" fill="#ababab"/>
    <rect id="Rectangle_174" data-name="Rectangle 174" width="7.855" height="1.943" transform="translate(99.093 33.52)" fill="#ababab"/>
  </g>
</svg>
