<svg xmlns="http://www.w3.org/2000/svg" width="291.951" height="169.611" viewBox="0 0 291.951 169.611">
  <defs>
    <style>
      .cls-1 {
        fill: #bfbfbf;
      }
    </style>
  </defs>
  <g id="noun_education_2003740" transform="translate(-16.432 -116.229)">
    <path id="Path_1226" data-name="Path 1226" class="cls-1" d="M288.01,234.048v-56.41l20.373-6.819L155.3,116.229,16.432,171.43l59.411,21.652v71.06l1.671.965c.827.478,20.614,11.763,51.405,17.508a187.919,187.919,0,0,0,34.469,3.226,178.381,178.381,0,0,0,19.376-1.049,177.053,177.053,0,0,0,63.582-19.622l1.783-.94V190.985l33.2-11.11v54.174a9.189,9.189,0,1,0,6.683,0ZM155.429,123.371l132.495,47.248L155.412,214.967,35.206,171.159Zm86.017,136.814A170.175,170.175,0,0,1,182.2,278.13a177.565,177.565,0,0,1-51.8-2.038,178.354,178.354,0,0,1-47.87-15.874v-64.7l72.792,26.528,86.128-28.825Zm43.222-15.08a2.506,2.506,0,1,1,2.506-2.506A2.509,2.509,0,0,1,284.668,245.1Z"/>
  </g>
</svg>
