<svg xmlns="http://www.w3.org/2000/svg" viewBox="0 0 461.22 531.66">
  <defs>
    <style>
      .a {
        fill: #231f20;
      }

      .b {
        fill: #d00;
      }

      .c, .f {
        fill: none;
        stroke-miterlimit: 3.86;
        stroke-width: 0.29px;
      }

      .c {
        stroke: #d00;
      }

      .d {
        fill: #fff;
      }

      .e {
        fill: #060;
      }

      .f {
        stroke: #060;
      }

      .g {
        fill: #fcef3c;
      }
    </style>
  </defs>
  <path class="a" d="M196.75,3.2c9.18,2.68,18.16,6.19,26.21,11.66C235,9.28,247,3.61,260.82,2.27a66.14,66.14,0,0,1,16.81-.83c15.06-.1,27,5.47,39.93,10.42,7.27,3.43,14.08,6.37,21.07,9.62,9.13,4.23,20.53,10.47,29.91,14.7,13.62,7.43,28.25,10.35,44.86,10.66,15.16-1.24,28.77-5.37,40.84-13.62,2.59,1.65,6,7.48,6,7.48a34.44,34.44,0,0,0-13.41,22.23c-2.06,13.88-2.48,30.68-2.58,31.92,0,3.1,1.29,235.47.83,248.27-.21,4.95-2.17,25.63-6.51,34.4-12.79,39.41-48.4,67.26-84.33,84.85-17.28,8.46-33.17,16.71-50.29,23.21-1.24,1.44-36.21,15.58-50.76,23.94-5.85,2.76-22.7,13.06-27.86,22.14l-2.62-3.53c-13.16-16.24-29.4-20.89-46.42-28.88-18.66-8.76-38.17-16.51-56.74-25.28C87,457.26,54,438.13,31.8,404.29c-3.92-5.36-9.36-17.36-10.83-20-3.3-7.65-4.85-14-6.91-21-.78-6.62-2.28-12-1.76-17.65,0,0,.33-271.76-.31-280.19C11.3,56.32,6.6,47.71,0,40.7c2.19-2.58,7.61-6.06,7.61-6.06,16.82,16.81,44.2,14.88,63.8,6.42,22.19-8.36,41.68-21.35,63.65-30.12,3.61-1.55,7.53-3,10.94-4.54,8.87-3.61,18.67-5,28.47-6.4,7.74.31,15.27,1,22.28,3.2"/>
  <path class="b" d="M303.68,14.08C340,26.87,372.3,53.37,412.38,53.43c9,4.29,32-11.13,31.71-2.42-7.26,19.56-5.19,41.25-5.68,61.9,2.5,58.85.83,117.87,1,176.79-1.16,35.88,4.85,75.64-17,107-21.48,33-56.36,54.44-91.5,70.51-41.55-23-77-58.65-96-102.46-9.71-20.09-9.85-42.45-9.49-64.24-.11-64.91-.69-130-.11-194.61-.46-27.87.11-55.75,0-83.6,20.33-10.65,43.75-18.7,66.73-12a79.26,79.26,0,0,1,11.54,3.84"/>
  <path class="c" d="M303.68,14.08c19.35,7.53,34.77,15.4,41.52,18.76s20.64,10.31,27.6,12.91a141.05,141.05,0,0,0,25.66,6.42,129.53,129.53,0,0,0,20.87,1.32c4.41-.16,11.77-2.57,13.82-2.87,0,0,10.48-3.39,11.66-3.11,2.39.15-.44,1.82-.72,3.5-1.11.11-2.94,7.61-3.85,14.19-1.29,9.54-1.81,25.14-1.83,32v15.68c2.41,3.25.7,207.29.72,225.51a82,82,0,0,1-1,11.86,104.27,104.27,0,0,1-1.48,11.38c-.63,3.61-3.81,15.81-6.95,21.92-1.94,4.64-3.35,7.89-9.29,15.86-1.59,2.07-2.06,4-6.19,8.9,0,0-4.12,4.76-7.76,8.58-9,9.48-14.54,13.34-18.77,16.82,0,0-5.71,4.25-14.65,10.63-3.68,2.62-19.55,11.81-19.55,11.81-2.91,1.93-21.76,10.29-22.55,11-6.6-3.77-12-7.25-16.09-9.7a175.19,175.19,0,0,1-15.06-10.83c-.73-1.22-8.59-6.71-13.61-11.45-2.94-2.75-4.13-3.51-8.9-8.28-4.91-4.52-23-27-25.05-31a188.47,188.47,0,0,1-14.54-24.3c-.26-.52-7.95-19.6-9.8-28a109.93,109.93,0,0,1-2.37-24.78l-.52-174h.21c.85-29.69-.67-59.22.19-89.25.37-12.66-.74-21.43,0-33.29,2.06-.64,4.45-2.05,9.28-4.25,4.26-1.93,11-4.9,16.79-6.91a96.75,96.75,0,0,1,11.71-2.51A62.22,62.22,0,0,1,279.4,8.2a77,77,0,0,1,24.24,5.88Z"/>
  <path class="d" d="M190.1,4c.41.31.1.93.21,1.45-17.23-2.79-33.84,1.64-48.8,7.22-20.11,8.87-40.23,20.22-60.86,28.89H78.89c-.21-2.38,2.69-1.35,3.71-2.9,29-12.47,55.5-31.57,88.11-36.2A84.68,84.68,0,0,1,190.1,4"/>
  <path class="d" d="M365.79,37.6c7.14,3.35,12.06,5.78,18.36,8.15-1.76-.21-3.2-.52-5.16-.72-17-6.6-32.19-15-48.59-22.8-25.3-12-51.35-22.67-79.74-13.31A256,256,0,0,0,225.17,19c-.72-1.24.81-2.55,1.53-3.48,2.81-1.31,3.09-1.68,5.38-2.71,17.44-7.63,41.42-11.48,58.57-7.6,18.71,4.21,36,13.9,53.37,21.43,7.42,3.3,14.48,7.51,21.77,10.93"/>
  <path class="d" d="M220.53,159.13c-11.66,21.35-43.12,12.28-49.51,38.37-4.44,18.16,3.09,40.44-6.5,56.23-6.61,14.13-21.05,23.93-34.36,30.43-13.1,5.47-27.85,17.74-28.27,33.22-.1,2.58-.92,5.36-.2,7.63l-.51.72c-.41,19.81-1.55,40-12.38,55.5a60.77,60.77,0,0,1-39.41,24.24c-2.27.93-5.26.42-7.84.52-3.72-5.87-7.12-10.68-10.47-17.63a113.84,113.84,0,0,1-6.66-18.79c-2.06-7.94-4.12-16-3.92-25-.12-2.3-.31-3.09,1.24-3,6.91-.21,12.07-4.74,16.5-9.39a28.09,28.09,0,0,0,4.23-16.61c.11-21.45.62-42.81,14.86-58.38,15.06-20.33,51.38-15.27,52.3-46.53-.61-22.29-6-46,9.39-63.13,7-9.71,17.75-15.58,29-17.86,2.17-1.54,7.45-2.65,10-4.3,9.67-4,13.05-8.18,15.52-16.23.33-2.6.83-3.4.72-5.25,1.35-12.38-1.75-24.87.73-36.83a43.93,43.93,0,0,1,9.69-21c10.42-10.62,21.67-18.26,36-19.81l-.1,132.88Z"/>
  <path class="d" d="M454,38.33c0,1.75-2,1.85-3,2.78a68.73,68.73,0,0,1-12.38,5.36c-3.79.93-4.83,2.09-9.91,2.28-.21-.52-1.49-1.09-.21-1.76,8.78-2.16,16.82-5.88,25.18-8.87Z"/>
  <path class="d" d="M12,48.54C15.14,54,16,61.9,16.89,68.29l.1,86.4c-.1,6.81-.93,13.21-.2,19.29L17,347.81c.42,2.78,1.25,5.47,1.25,8.46,1.64,7.94,3.4,16,6.18,23.52l-.21.21C17,367.41,14.52,352,14.73,336V158.4c.72-5.36.79-65.4.31-89.85-.08-3.87-.41-5.58-1.63-10.7-1.68-7.09-4.26-10.55-7.56-16,2.79,1,4.44,4.33,6.19,6.71"/>
  <path class="a" d="M199.18,48c-9,6.19-13.93,16.3-14.85,26.92-2.28-.3-.83-3.91-1.24-5.87.41-2.78,1.85-5.06,2.06-7.95,2.37-5.57,7.43-12.27,13.62-14.13l.41,1Z"/>
  <path class="a" d="M199,61.85A38.48,38.48,0,0,0,193.51,76c-.73.21-.93-.62-1.45-1,.1-7,2.68-14.12,9.19-17.53,2.16,2.27-1.76,2.48-2.28,4.44"/>
  <path class="a" d="M330.4,58.85c3.09,1.76,5.06,3.72,6,7.23,1.21,1.31,1.72,2.34,2.68,1.23,0-.72.62-2.06,0-3a13,13,0,0,0,.51-3.71,3.7,3.7,0,0,1,3.51-.93,12.24,12.24,0,0,1,2.37,3.06c1.24,1.35,2.27,3,2.58,3.13,1,1.54,2.58,3.09,4.95,2.47,2.58-1.75-.31-6.91,3.41-7.73,3.61-1,4.53,1.55,6.5,3.19.74,1.66.87,1.14,1.24,3.51a24.13,24.13,0,0,1,6.39,1.24c1.75.52,3.3,2.37,4.23,3.92a6,6,0,0,1-1.55,5c-.41.1-1.13-.21-1.44.31,1.23.82,1.54,3.3,3.51,3.4.2-4.33,3.4-10.63-2-13.63a5.84,5.84,0,0,1-5.05-1.43V63.6a8.11,8.11,0,0,1,2.27,2c4.13-1.14,6.08,2.16,9.9,1a13.75,13.75,0,0,1,4.95,3.92c2.28,1,3.1,1.27,5,2.29-1.76-1.08,1.8,2.72,1.8,2.72,1.21,3.65-1,9.41,0,11.86a2.17,2.17,0,0,0,2.43,1.5c1.85-1.35.72-7.22.51-7.22.73-.42.42-1.76,1.65-1.24,2,.82.52,3,1.24,4.23-.1,1-.62,1.95-.41,3.19.62.83,2.17,0,2.68-.52,3-.61,6.4-.1,8.15,2.28.31,2,1.44,2.88,1,5.15-.9,1-.41,1.45-1,2.07,1,.83,4,4.23,4,7.12.41,2.57-1,6.49,1.24,7.73.52-.1.62.11,1.24.73.11,1.13-1.13,1.34-1.76,1.24-.72-1.76-5.26-.31-5.26-.31,2.48.51,1.68,4,2.59,5.9-.34,2-1.14,6.78-.31,7.5.1,3.41.93,7.22.2,10.94-1.24-.31-.8,2.71-4.64,3.92-2.78,2,.1,5.78-1.55,8.46-.51,2-2.22,5.8-3.72,10.11-1.59,1.75-7.94,7.74-6.49,9.49.41-.62,5.06-2.06,5.06-2.06,4.74-.91,8.76-2,10.41-3,.93-.11,0-1.55.93-1.24.93-4.54.41-9.7.52-14.55.36-3-.16-.18,1-4a10.72,10.72,0,0,1,4.64-3c2.89-.51,6.3-.2,7.73,2.07,3.21,1,1,5.78,3.41,7.63.93,0,1.55.42,2.48.21.83,1.65-1.24,1.45-2.17,1.75-.62-.41-1.54-.1-2.27-.2a17.49,17.49,0,0,1-2.47-3c-.62-.2-.83.52-1.45.21a2.25,2.25,0,0,0,0,2.27s.62,6,1.24,8.67c0,0,1.6,2.7,2.37,2.83.1,1.34,2.58.91,2.71,3.23,0,.13,1.81,2.45.1,6.83.31,1.45-.3,1.76-1.43,2.17.1,1,1.54,2.16,3,2.27l.2-.21c2.27,2.48,3,5.68,2.27,9.39-.82,1.13-3,3.09-2.68,5-.21,0,0,1.65,1.65,1.75-.41,2.38,2.08,3.92.21,6.91a5.78,5.78,0,0,1-2,3.92c0,.62.1,1.45.72,1.55.72,1.45-.41,4.13,1,5,.92,2.78-1,6.49,1.75,8.15,0,0,2,2-2.5,7.7-2-.13-4.51,2.51-4.2,3.65-.52-.21-1.86,2.29-.52,2.47,1.65-.73,2.47-2.58,5-2.16,1.7-.6,3.19.31,4.74.41.1,2.06-1.75,2.21-2.27,4.23-2.71.69-2.89,7.32-2.47,8.45.66,1.78,3-1,3-1h1.44c.51,1.23.23,2-.72,3.71-.72,1.93-.93,9.9-.93,9.9.83.93,3.61-.83,2.88,1.55a8.49,8.49,0,0,0-3.19,2.47c-2.06.11-2,3.2-2.68,4.65a9.64,9.64,0,0,1,2.68,2c-2.37.51-5.67,2.89-6.19,6-.62.21,0,1.6-3,4.23-.93,2.37-4.74,2.91-4.74,2.91s-4,.85-4.52,1.16c0,0-2.51,10.78-3.32,14.18,0,0-2.61,7.88-4.75,11.46-.62,2-5.68,9.59-5.68,9.59-.21,1.24-5.46,7.22-5.46,9,0,0-1.94,7.76-.42,11.14.42,4.61,4.13,9.29,4.44,9.39a11.63,11.63,0,0,1,3,3.41,15.79,15.79,0,0,1-1,9.69c-.84,1.89-3.72,2.58-5.67,3.5-3.41,1.45-13.21,8.77-15.17,9.91.31.73-3,1.44-5.9,4.44-2.07,2.16-5.55,4.54-6.89,7.43,0,0-.72,2.57-.83,3.4,1.14.1.73,1.34.83,2.06-2,1.44-6.09-.82-7.22.93-2.27,1.76-3.62,5.26-8,4.23-1.65.82-2.37,2.37-4.43,2.47-.72.62-2.38-.3-2.27,1.24-.93-.1-4.65,1.35-4.65,2-3.81-1.14-4,3.81-7.73,2,0,0,.72-4.54.82-5.67-.82-.1-1.65-.82-2.47-.2a16.8,16.8,0,0,1-2.48,4.43c-1.81.65-4,2.48-4.23,3.51-1.13.1-4.43.92-4.43.92-6.3.1-14.24,1.24-19.4-.92-3.41-.29-2.16-2.48-4.43-2.07-1.34-1.75.92-5.77,1-6.18a18.52,18.52,0,0,1,1.45-3.92c.11-1.55,4.44-11.15,4.44-11.15.93-1,2.47-2,3.3-3,0,0,6.68-1.06,11.14,1,3.09.52,5.68-1.65,7.43-3,.72.21,4.95-3,4.95-3,3.51.72,6.39-1.14,9.39-1.24,18.51-11.37,24.71-16.15,28-18.77,3-2.48.82-6.2,0-9a16.49,16.49,0,0,0-3.77-7.22c-1.49-2.48-11-8.64-14.81-9.6-2.47-.72-2.08,4-1.23,7.43,1.54.31,1,3.2,1,3.2.1.31.72,6,.72,6-.93,2-2.47,5.11-4.23,6.71-1.13.41-10.42-1.24-10.42-1.24s-11.86-1.55-14.91-2c-2.47.1-3.86-.54-5.62.8-.93,2-5.57.11-5.67,0-.82.31-.41,2.37-2,2.68-.62-1.13-1.83-.52-3.51-.93a53.51,53.51,0,0,0-9.93-1.64c-2.7-.91-8.38-1.16-9.36-2.58-1.78-2.57-.31-5.29-1.76-4.75-2.57-.62-1.78,1-3,2.79l-.94,3.19a9.25,9.25,0,0,0-2.47,3.72c-.2.93-5.47,2.17-5.47,2.17l-14.15-.42s-10.2-1.86-10.91-2.48c-1-2.68.92-4.63,1.75-6.7,0,0,4.23-11.35,5.47-10.93a5.66,5.66,0,0,1,5.67-3,33.58,33.58,0,0,0,8.46-4.65,12.29,12.29,0,0,1,7.94-3c7.79-.1,18.77,2,18.77,2l15.58,2.48c5.55.51,8.15,2,12.9,1.23.62-1.13-.52-3.19-.52-3.19-6.44-7.2-8.38-11.07-9.41-13.78C310,310.2,304,303.89,303,301c.41-1.75-4-9.69-5-11.34,0,0-3.22-7.54,2-13.11,1.24-1.13,8.09-5.65,12-10.29,1.41-1.54,3.3-3.32,2.67-5.8-2.05-.92-5.26-7.6-5.77-8.12-1.13-1.24-12-11.22-16.89-16.38.26-1.81-2.4-1.18-2.61-2.22-2.06.31-17.43-6.91-17.85-8.15-1.24.31-3.19-1-2.67,1.24,1.23,2.27,12,12.59,13.81,12.07.83.93,1,2.16,2,2.78,1.33,2.48-2.59,3.72.52,5.37,2.26-.62,2.68-2.89,4.22-4.12l2.09.51s7.4,4.44,7.09,5.67c3.4,3.41,6.5,7.12,8.36,11.55,0,0,.41,3.31-.72,4.55-2.37-.21-3.61,1.13-5.67,1.65-3.13.43-10.32,3.09-11.66,3.3a9.16,9.16,0,0,1-3.71-1c.1-1.14-4.75-4.75-7.64-4.24-.82-.71-2.38-.61-3.51-.92a15.08,15.08,0,0,1-4.23-4.54c-.72-.82-2.56-5.17-4-7a112,112,0,0,0-13.57-15,59.33,59.33,0,0,0-4.95-5.25c-1-1-1.75-3.21-2.27-3.41,0,0-.2-7.22,2.27-9.69.93-.83,2-1.66,3-2.48,1.14-1.55-1-1.86-1.23-2.69a22.57,22.57,0,0,1-5.47-2.78c-2.48-.1-2.91-2.14-6.66-3.43-3.51-3.54-4.28-5.65-4.28-5.65.11-1-.1-2.27-1.24-2.27a28.33,28.33,0,0,1-2.86-3.81l-.85-9.6c1.11-2.14,1-26,1-26V149.53c.62-1.75,2.58-2.68,3.72-3.71,1.44-.62,12-5.67,13.31-6.71a7.43,7.43,0,0,1,7-1.24c1.7.7,5.7,6.24,6.4,8.46a47.47,47.47,0,0,0,8.58,13.39c4.13,4.26,4.73,3.53,6.78,5.6.62-.62,6-3.54,7.64-6.61,10.09-6.47,9.44-.75,12.15-4.54a59.07,59.07,0,0,1,11.37-11.34c5.65-3.62,9.7-2.68,9.7-3,1.55,0,5.1-.5,6.91-2.17.31-1.34,3.92-1.86,4.44-2.48,6.29-.62,12-1.44,16.61-4.95l.2-1.23c-3.09-1-7.22,1.13-9.08-1.76-1.34-1-3.61-2.47-2.47-4.75-.83-1.13-3.71-2-3.71-2-2-.93-4.85,0-6.2-1.76-3.5.21-9.18-1.85-10.93,1.76-.73.41-2,.1-2.27,1-5.67,1.23-7-4-11.86-5-1-.73-1.24-2.79-1.45-3.51.42-.52.21-1.34.52-2-.83-1.54-4.75-3.19-4.95-3.19v-3.71c2.37-2.79,6.7.2,9.59-1.76A26.83,26.83,0,0,0,295,99.7c-.82-2.78-4.23-2.16-3.91-5.15,1.75-.72.62-3.51.93-5.16,1.64-2.17,6.7-4,6.7-4,2.37-.41,2.68-3.4,4.95-4.23,1.75-1.14,4.65-1.14,6.91-.72l2,1.54,9.88-1,12-.51c.93-2.68-2.68-2.79-3.71-4.24-.62-.72.21-2.36-1-2.67-.52-2.69,0-5.79-.52-8.46a46.71,46.71,0,0,0-3.72-3.93s-6.49.31-6.7-2.47l7.74-.2c0-.94.72-.73,1.45-.83.2,1.44,1.75.72,2.47,1.23"/>
  <path class="d" d="M339.38,70.82c4.74.31,10-.93,14.34.93-.21,1.14.51,2.58.2,3.71H342.06c-.31.32-.62.52-.52,1,1.35,1.44,3.61.2,5.27.92,2.57.62,5.67-.2,8.15.83V79c-2,1-3.31-.93-5.47-.31-6.19.21-12.8.31-16.62-4.13-1.85-4.33-.1-9.28-3.4-12.89,5.06,1.44,4,9.08,9.91,9.18"/>
  <path class="d" d="M346.29,68c-1.45-1-5.47,1.44-4.44-2.48-.93-.42-.41-1.44-.51-2.16l.51-.52c2,1.13,3.2,3.71,4.44,5.16"/>
  <path class="d" d="M362.07,69.79c3,7.84,14.65,13.11,10.93,22.49.62.51,1.45.2,2.28.31,2.47-1.65,1.44-4.65,1.64-7.22-.2-.64-4.38-5.6-5.66-8.44-.17-.34,3,.39,3-2.83.36-1.09-1-5.29-4.13-5.68-.27-1.17,3.15-.93,3.74-.52,1.81-.38,3.74,2.72,2.71,7-1,3.74,2.33,9.89,3.18,9a6,6,0,0,0-.86-3c-.64-3.61,4.05-8.25.34-12.17,1.54-.42,1.95,1.44,2.68,2.48,1.34,4.84-4.85,10.1.82,13.2,1.14-.93-.2-2.06.21-3.3.11-2,1.85-3.3,2.68-5,.72.42.83,1.45.83,2.28-2,2.88-2.17,6.6-2.07,10.41.83,1.87,2.9,5.06,5.26,5.16.94-1.34-1.13-2.78-1.75-4.22-2.89-5.79,3.92-10.94-2-15.58-.21-.83.1-1.86,1.24-1.45,4.85,3.92,2.16,9.7,2.16,15.06,2.28,2.17,3.1,4.85,3.72,7.74,1.75-.11.82-2.17,1.75-3,2.48-1.65,4.65-3.92,8.16-3a8.69,8.69,0,0,1,4.23,5c.71,3.2-3,1.23-4.23,2.47-2.38,2.58-5.58,5.06-9.09,4.75a4.56,4.56,0,0,0,2.17,2c3.82.1,6.92-3,10.42-4.23,5.26,2.17,1.24,8.35,3.51,11.86-6.09-2-5.47,8.67-11.66,7.74-1.55-3.3-.83-7.64-4.44-9.69-.51.82-2.16.2-1.54,1.74l.72.73c0,1.13,1,2.79.82,3.92,1,1.44-.2,4.54,2.48,5.26,2.79.93,5.05.21,7.84-.31.72,3.09-8.15,3.51-2.17,5.78,1.14.1,2.07-1.24,3-1-2.05,2.16-4.54,2.57-7.21,3.71-.52-2.27,1.34-6.6-2.27-7.42-2.79.82.31,3.19-.73,5.15.11,2.07-1.75,5.47,1,6.19,2.47-3.09,7.84-1.76,10.1-4.95h.73c.31,2.47-2.07,4.43-4.13,5.47-2,.21-4.12-.41-5.78.52,1.86,2.26,4.85,2.78,7.94,2.47,1-.73,3-1.24,2.8-3h.71c1.14,2.68-1.75,3.82-3.2,5.46-2,1.66-5.25.72-7.73,1.76-.52,1,.72,1.85,1.55,1.95,1.54-.51,2.47,1.56,3.19,2.69l.21.83c-1.24,1.33-2.37-1.45-3.4-1.55-1.45,0-2.38-1.24-3.51.31-.52-3.2,3.41-7.74-.52-10.73-2.58.72-1.13,4-2.17,5.77.93,3.51-5.15,7.12-.51,9.4a3.19,3.19,0,0,1,4.43-2c2.07.31,2.69,2.69,3.72,4.13v1c-2.27-2.47-5.26-2.47-8.46-2-1.44.41-2.17,2.48-4.12,1.76-1.76,3.92-5.27,6.7-6.2,10.62.42,1.34,2.28.51,3.41.72,1.13-1,2.27-1.85,4-1.44,1,.93,1.76,1.65,1.45,3.41-2.37.3-3.09-2.59-6-1.24.41,2.36,5.06,2.78,3,6v.21h-2.48c-.52-.62-1.75-.72-2.68-.72a1.18,1.18,0,0,0-.52,1.24c1.76.83,4.54,2,5,4.44-1.56-.31-3.1-1.35-5.48-.93a2.28,2.28,0,0,0-2.68-1.24c-.31-1.13,2.17-3.51,3-4.95-.62-.83-1.85-2.78-3-1.24-2.88,2.58-4.33,6.09-6.49,8.87-.1,1.35.51,1.86,1.54,2.47,2.38-.71,3.92-3.29,6.71-3,.92.2,1.85,1.44,2.89,1.75a2.88,2.88,0,0,1,1.23,3.2c-1.44.62-2.16-1-3.92-.93a.41.41,0,0,0-.51-.52,1,1,0,0,0-1.24.52c1,2,4.85,2.68,3,5.88-1.54-.41-2.37-1.65-3.71-2.17a11.52,11.52,0,0,0-7.22.73c-.42-1.76,2.88-3.3.31-4.75-3.1.52-3.3,4-5,6,0,1.54-3.19,3.61-.31,4.63,3.51-.41,5.48-5.46,9.7-4.63,2.48-.62,3.51,1.85,3.93,3.71v1.23c-2.28-.92-4-3.09-6.41-2.26l-.2.31c1.34,1.85,3.3,2.88,3.2,5.36l-.31,3.3c-1-.1-1-1.86-1.65-2.79a8.7,8.7,0,0,0-5-3c-2.88-.2-5.77,2.38-7.22,4.75-3.4,9.9,2,19.7,9.4,26.2,13.4,12.07,29.8,24.55,35,42.1,1,2.26,1.95,5.15,4.64,6,3,.42,4.74-1.75,6.19-3.92.93-5.67,1.44-11.14.51-16.92-.41-6-6.39-11.55-11.66-13.82-6-1.44-13-2.47-16.09-8.66-3.4-9.49.1-19.81.73-29.5,2.88-9.81-2.07-25.69,11.65-28.17,4.13-.82,9.7.21,11.45-4.74,2.68-7.12-3.92-16.2,3.72-20.54,1.34-1,3.19-.2,4.43.52.62.62,1.35,1.24,1.24,2.16-1.75.42-3.51,2.38-5.26,1.25-4,5.78.83,13.82-2.17,20.32-.61.72,1.55,1.85-.3,2.47-.93.21-2.18-.51-2.69.73,1.65,3.6,4.23.31,6.4.31,1.85-1,3.71-2.89,4-5,.31.1.52-.41.72-.51,1.24,2.79,3.1,7.22.21,9.9-6,5.27-16.1-.1-22.7,4.23a1.6,1.6,0,0,0,2.48.93c7.74-.51,16,3.51,22.49-2.17.93,0,1.95,1.45,2.26,2.48.42,2.68,1.56,7-1,9.18-.83.93-2.28,1.86-2.48,2.89a8,8,0,0,1,3.5,4.54c-.41,3.61-.72,7.73-4.53,9.59-4.33,2.17-9.39,1-14.34,1v-.31c-4.34-.93-10.42-1.55-14.13,1.54,1.13,3,3.09-.62,4.94.21,9.5-.21,19.91,5.16,27.75-1.75,1.14,2.26-.71,3.4-1.95,4.74-4.95,1.44-10.83.72-14.85,4.43a12.89,12.89,0,0,0-2.28,5c.62.31.62,1.44,1.76,1,3-6.81,11.76-4.44,16.81-7.43a2.39,2.39,0,0,1,1.24-1.55c.62,1.76-.83,3.3-2.16,4.54-3.61.73-7.43,2.48-9.19,6.19,0,.62-.1,1.55.73,1.65,1.64.11,2.57-1.75,4.23-2.47a19.71,19.71,0,0,0,7.22-4.44h.72c.62,7.33-11.35,7.64-9,16.1,1.55.82.83,3.3,2.78,3.71,1.45-2.07,2.59-5.88,5.89-5.47-3.71,4.85-2.79,11.66-2.89,17.65.51,2.05-3.51,4-.82,5.46a9.25,9.25,0,0,0,4.23-6h.51a11.69,11.69,0,0,1-4.95,10.62c-.31,0-.62,0-.72.31-.11,1,1.44.83,1.75,1.66-1.44,2.67-2.07,5.15-4.54,7.21,2.68,1.55-.62,3.51-1.44,5-1.76,2.16-4.86,1.64-7.22,1.75-.94-1.14-2.38-3.41-3.92-4.23-1.76.72.31,1.65.51,2.48.42,15-5.47,27.54-12.17,39.3-4.75,5.57-9.19,12.28-6.91,20.12a29.23,29.23,0,0,0,2.26,8.35c.73,2.27,1.66,5.26,3.93,6,.62,2.68,1.13,6-.52,8.15-9.9,6.7-19.6,13-28.68,21-2.06,2.27-4.13,4.64-4,8.15-2.79,1.44-1.76-3.41-4.13-3.92-1,2-1,4.43-2.06,6.4-.83.82-.93,2.16-2,2.78-2.79-.83.61-5.47-3-6-1.64,1.13.31,2.89-.72,4.23-.61,1.13-.51,2.68-2,3.2-.41-1.86.11-4.65-2.47-5.89-1.86.93-.41,4.13-1.24,5.89-.62.41.21,1.85-1,1.54-1.45-1.34.2-4.23-2.17-4.95-1.86.82-.62,3.2-1,4.44-1.45-.11-1-3.2-3.2-2.79-1.55,2.48.21,6.3-2.68,7.43.31-1.86-.51-3.2-1.24-4.64a5.28,5.28,0,0,0-5-1.76c-1.45,1.45-3.3,3-3.3,5.17-3.3,7.42-13.52,4.73-19.81,4.94-2.58-.31-5.37-.72-7.11-2.68,1.85-5.47,3.81-11.55,6.18-16.82,1.55-3.3,5.06-1.64,7.95-1.75,9.08,5.26,13.82-6.6,22.48-5,5.16-1.24,8.77-5.16,13.42-7.22,7.11-4.85,14.54-10,21.76-15.27,2.69.42,7.33,1.55,8.87-1-2.68-1.65-6.91-.41-8.35-3.92-1.85-7.94-5.15-16.4-13.41-20.32a30.36,30.36,0,0,1-18.57-21.56c-1.13-2.07.82-4.54-2-6-.93-3-3.51-5.37-4.44-8.36-1.24-7.32-.62-15.26,5.16-20,5.47-3,12.07-7.53,11.14-14.85-.93-1.14,0-4.13-2.26-3.51,0,2.06.3,5.57-1.24,7.63-.31,2.68-2.79,3.92-5,5a33,33,0,0,0-10.1,9.48c-.93,1.14-.93,3.92-3.2,2.69-2.79-1.65-6.4-4.33-9.39-2.48a2.21,2.21,0,0,1-.52-1.95c.52-.63,1.24,0,1.76.2,3.3.52,4.53-3.4,6.6-5.47.52-1-.72-1.44-1.24-2.16-1.54.92-2.89,3.09-4.13,4.43-.1-.51.21-1.13-.31-1.44.73-1-.41-2.79,1-4,3.5-2.06,6.08,1.86,9.59.52a11.27,11.27,0,0,0,4.54-4.75c.1-.72-.82-1.13-1.24-1.65-1-.21-1,.93-1.55,1.45-2.57,2.57-6.91,3.71-9.89,2.47-2.9-2.16-5-4.33-8-6.91-3.3-2.57-4-7.53-7.84-9.9a53.57,53.57,0,0,1-10.94-11.66c6.71-.82,11.35,7.74,18.57,3.2,4.65-4.23,2.06-11.76,8.46-15.06a.79.79,0,0,0-.82-.72c-2.48.82-4.65,3.5-6.2,5.67-2.16,3-1.13,8.77-6.6,8.15-3.3-1.24-6.18-3.61-9.9-3.72-8.77-3-18.16-4.54-25.79-10.1-2.58-.42-4.23-3-7.43-2.07-1.14,1.76-3,3.2-2.27,5.78,3.72,3.71,6.09,8.05,10.42,10.62.62,1.76-2.58,4.75,1,5,.71-.83,1.43-2.38,2.16-2.48.52,1.44-2.78,2.79-.21,3.72,1.35-.11,1.45-2,2.68-2-.2,2-.51,3.72.31,5.68.93.92,2.79,2.16,4.23.92,2.17-1.33,4.85-5.25,7.43-2,4.64,4.43,9.29,9.08,10.63,15.37-3.2,1.55-7.22,1.86-10.22,3.5-2.16.42-4.94,1.24-7.11.21-3.41-2.89-6.81-5.67-11.66-5.16-4.33-2.47-3.61-7.12-6.91-9.9-4.95-8.05-12.49-14.95-19.6-22.08a9.49,9.49,0,0,1-.93-5.15c2.88-4.44,8.36-8.26,9.39-13.62.92-2.89,1.75-6.19,4.64-7.74,3.3-1,5.57,2,9,1.24,11.35,0,21.77,2.37,31.67,5.67,3.3.41,5.27-3.61,8.67-1.44a8.22,8.22,0,0,0,6.91-3.92c-1.54-1.45-3,.52-4.64.21-3.2.82-6.29,1.64-9.49.2-2.17.72,1.24,2.06-.93,2.48-9.29-3.51-18.88-6.29-29.71-6.19-5.47.51-11.45-4.23-15.88.31l-2,3.92-.72-.72c.1-4.23-.42-8.77.51-12.59-.93-2.89,1.14-5.27,3.2-7,11.86-5,18.58-19.5,28.68-25.7,1.45,0,3-1.13,4.23,0a9.23,9.23,0,0,1-4.23,4.44c-.2.42-1.24.73-.51,1.24,2.17,1.44,3.71-1.45,5.47-2.27,6.29-7.53,12.48-20.53,23.83-20.22,6.6.82,9.9-6.5,16.81-5.26,1.55.42,3.1-2.07,4.23.31,0,2.16,2.79,3.82,4.43,5.36a14.52,14.52,0,0,0,10.84.31c-1.55-3.4-5.16-1.75-8.36-2.26-.2-1-1.75,0-2.27-.94-1.33-1.24-2.58-3.19-1.75-4.54.62-.92,2.06-1.33,2.47-.41,2.79,5.06,8.46,2.69,13.21,2.9,1-1.25,3.92-.31,3.71-2.69-.82-1.65-1.75-.42-3-.72-2.89.72-7.33,1.86-9.7,0-.51.41-.93-.72-1.44-1a3.64,3.64,0,0,1,1.44-2.48c1.66-.82,2,1.55,3.2,1.55,4.23,1.45,9.29.72,12.38-2.48,0-1.55-1.55-1.86-2.68-1.23-2.79,1.44-6.09,2.47-8.87.93.51-.93,2.16-1.14,3.19-2,3-6.91,15.06-2.89,13.11-12.59-.31-.51.1-1.75-1-1.54a5.47,5.47,0,0,0-1.23,4.23c-3.62,4.23-11.56.31-12.79,7.64-4.54,2.47-9.39-1.14-14.45,0-.72-.73-2.47-.42-2.89-2-.2-5.67-.1-10.93,2-16.09.61-2,6.18.1,3.19-3.2-2.27-.1-5.88-.21-6.91,2-1.55,2.16-.1,5.56-1.24,7.94-.2,1.23.42,2.78-.51,3.71-1.35.41-1-1.34-2.48-.72V117a19.66,19.66,0,0,1-7.63-1.66c.41-5.15,2.68-13-2.07-16.91a11.84,11.84,0,0,1-3.92-2l-.72.72c3,3.09,5.68,6.5,4.23,10.93-1,2.38,1.24,6.4-2.06,7.64a13.27,13.27,0,0,1-5.68,0,50.25,50.25,0,0,1-11.34-.73c-1.45-1.12-1.14-2.26,0-3.19,5.05-.52,10.1,1.55,14.85-.21a42,42,0,0,0,.52-7.22c-.11-2-1.65-3.61-2.79-5-5.67-2.48-13.41-.52-17-7.43-.72-1.75.93-2.68,2-3.51,4.23,0,6.81-3.61,9.9-5.87,1.66-.62,2.58.82,3.2,2,9.18-.51,17.85-2.06,27.44-1.44a14.35,14.35,0,0,0,4.23-2.06l15.17.82a8,8,0,0,0,1.65,2.68l1-1c-2.38-4.84-2.48-10.73-3.71-16.09.82-1.65.2-4.33,2.68-4.13,2.27,1.65,2.57,4.23,3.71,6.4"/>
  <path class="a" d="M362.07,73.71c2.68,4.23,7,7.84,8.67,12.17a2.31,2.31,0,0,1-1.24,2.68,3.23,3.23,0,0,1-2.16-2.16V84.85c-3.31-5.06-6.71-9.6-8.47-15.27l.31-2.26a21,21,0,0,1,2.89,6.39"/>
  <path class="d" d="M371.56,73.3c-.21,1.13.41,2.57-.52,3.4-1.54-1-2.78-3.4-4.43-4.64.41-1.24-.72-1.66-1-2.47,2.68-1.45,5.05,1.33,6,3.71"/>
  <path class="a" d="M335.15,89.08l-.52.52c-5.16-.62-9.49.1-14.65.51l-.41-.51c3.51-2.48,8.66-2.48,12.79-2,1,.31,2.48.11,2.79,1.45"/>
  <path class="a" d="M349.49,87.84c5.25,3.3,3.61,9.7,8.15,13.11-1.14.82-2.17-.42-3.21-.73-1.33,2-3.61,2.37-5.66,3-.52-1.13-2.49.21-2.28-1.44,1.55-.72,3.31-.62,4.44-2.07.41-1.23-.42-2-1.24-2.88-1.23-.31-2,2.47-3.2.93a7.23,7.23,0,0,1-.72-5.47c.21-.42.72-.62.51-1.24-3.3-1.34-4.33,6.71-7.94,3,.31-.73,1.34-.52,1.76-.21,2.16-2.07,2.78-5.47,5.88-6.51,1,1.35,2.48-.92,3.51.52"/>
  <path class="a" d="M313.79,90.63c.83,2.16-1.85,2.37-2.89,3.2a3.65,3.65,0,0,1-2.78-.73c-.1-1.24,1.23-.82,1.75-1.54.72-1.24-1.44-2.07,0-2.69a4,4,0,0,1,3.92,1.76"/>
  <path class="a" d="M367.54,95.06c-.62,2.17-3.51,4.85-.93,6.92.41.2.1.82.21,1.23a4.93,4.93,0,0,1-4.24-1.44,3.53,3.53,0,0,1-.92-4c.51-2.17,2.89-3.1,4.64-3.71.72.2.72.51,1.24,1"/>
  <path class="a" d="M401.48,95.79c-2.58,1-3.3,4.33-6.19,4.94h-2.68c-1.14,1.66,2.47,3.82-.52,5a3.66,3.66,0,0,1-2.47-1.45c-1.24-3.71-4.65-6-6.5-9.48,3.81-.73,5.88,3.3,8.25,5.46,3.81-.72,5.36-6.5,9.59-5.46Z"/>
  <path class="a" d="M378.16,95.79c-1,1.13-2.58,2.06-2,3.92,1,1.54.73,3.61,1.55,5.25l3.41,6.72a.74.74,0,0,1-1.24.2c-2.68-3.82-9.19-7-6.7-13.41.71-1.76,3.71-5.06,4.94-2.68"/>
  <path class="a" d="M346.49,100c-.72.92-1.85-.21-2.68-.52a6.48,6.48,0,0,1-1.75-3.71l1-.73a27.34,27.34,0,0,0,3.4,5"/>
  <path class="b" d="M309.66,101.25c-.51,1.24-1.75.62-2.78,1.45a3.85,3.85,0,0,0-3-.73,1.4,1.4,0,0,1-1.66.73c-.82-.52-.61-1.76-.3-2.48,2.58.31,5.46-.82,7.73,1"/>
  <path class="a" d="M405.4,103c0,1.33-1.55.1-2,1.23a8.37,8.37,0,0,1-7.43,2.48c-.31-.31-.52-.82-.93-.82.72-.94,2.79-1.14,4.13-1.66C401.07,103,404,100,405.4,103"/>
  <path class="d" d="M308.63,105.9a8.91,8.91,0,0,0-4.23.82c.31,1.34,2.17-.11,2,1.45l-.72.51c-3.61-1.34-7.74.52-11.34-.72-.11-.72-.94-1.35-.32-2.06.62-1.45,2.37-.31,3.3,0,3.82-.1,7.84-1.76,11.35-.41v.41Z"/>
  <path class="a" d="M407.46,105.9c.93,2.27-1.75.82-2.26,2.06-1.66,1.34-3.72,2.78-6.41,2.16l-2.26-1.44c.83-1.24,3.92.52,5-1.55,2-.41,3.82-3.4,6-1.23"/>
  <path class="a" d="M328.44,109.4c.31.83-.72.62-1,1-1.13-.51-2.68,0-3.41-1.54.62-.93,3.72-1.55,4.44.51"/>
  <path class="a" d="M389.61,111.16c-.82,3.3-4.74,4.43-7.43,5.88-.61-.32-.51-.94-.51-1.45,2.58-.82,4.33-3.61,6.4-5.46.72-.21,1,.62,1.54,1"/>
  <path class="a" d="M328.65,114.15v.21c-1.76.72-3.4-.21-4.95-1,1-1.55,3-.1,4.54-.2Z"/>
  <path class="a" d="M391.58,115.08a12.13,12.13,0,0,1-8.46,5.67,1.12,1.12,0,0,1-.42-1.23c2.68-.73,4.75-3.31,6.91-5.37.94-.31,1.35.41,2,.93"/>
  <path class="a" d="M180.61,121.58a20.74,20.74,0,0,1-15.06,12.78c-.83-.1-1-1.12-1.24-1.43a10,10,0,0,1,3.51-1,32.49,32.49,0,0,0,12.38-15.06c2,.93.31,3.09.41,4.75"/>
  <path class="d" d="M407.15,117c.72.82-.1,1.54-.21,2.26-1.43-.41-.62-2.26.21-2.26"/>
  <path class="d" d="M307.4,118.27c.1,1.86-3.21,1.55-2.48-.2Z"/>
  <path class="a" d="M391.58,121.06c-1.76,2.17-4.23,2.58-6.2,4.44l-1.44-.52,6.19-5.88c.31.41,2.06.62,1.45,2"/>
  <path class="a" d="M392.61,125.29c-1.45,3.51-5.47,4.54-7.94,6.6-.52.62-1.14,0-1.56-.41,3.1-2,5.37-5.57,8.67-7.43Z"/>
  <path class="a" d="M188.55,126c-2.78,7.32-8.76,15.47-17.33,16.3-.41-.31-1.34-.31-.93-1.24,7.12-2.68,14-8.76,17-15.78.61-.31.82.41,1.23.72"/>
  <path class="a" d="M392.61,131c.82,2.79-2.48,3.82-4,4.95-1.56.21-3.3,2.18-4.65.73,1.45-2.07,4.75-2.68,6.19-5.47.51-.11,1.76-2,2.48-.21"/>
  <path class="a" d="M194.54,135.4c-1.34,6.91-8.36,12.79-14.86,14.85-1.34-.2-2.58.62-3-.72a35.64,35.64,0,0,0,16.61-15.37c.93-.52,1,.72,1.24,1.24"/>
  <path class="a" d="M390.85,137.88c.31,2.47-3.3,3.51-5.25,4.43-1.35.31-3.41,1.14-4.65-.21.93-1.13,2.37-.82,3.4-1.54,2.07-1.14,3.92-2.58,6-3.4Z"/>
  <path class="d" d="M259.12,152.52c2.78,5.88,7.84,11.66,12.89,15.79-.11,3-3.41,4.95-5.26,7.43-3.51,2.68-6.81,4.74-10.11,7.43-1.34-.83-1.54-3-1.75-4.65-2.38-6.91-3.31-15.16-9.6-19.6-3,.93-3,5.06-3.51,8,1,1.64.11,4.12.73,5.87.52,3.2,1.85,6,2.78,9-1,.72-2.37,1.65-2.47,3-.21,1.86,0,3.71,1.64,4.95.73-.21,1.66.31,2.07-.51,1.54.62,3.41.51,4.64,2,.62,5.87,1.13,13.3-.51,18.57-.1,1.65-1.45,1.13-2.69,1.24-4.64-3.61-12.48-4.85-13.61-11.66-6.2-4.85-2.68-12.59-3-19.29l.51-.72c1.34-8.88-.31-16.92-.51-25.8.92-.62.41-1.85.51-2.68,2.07-2,4.12-3.61,6.71-4.23l11.35-6c5.36,1.54,6.8,7.43,9.18,12"/>
  <path class="a" d="M202,143.34c-2.16,6.71-7.12,13.31-14.34,14.86-1.85,0-4,2.16-5.46,0,1.23-.72,2.47-1.76,4.22-1.55,5.58-3.71,11.56-7.63,14.35-14,.62-.3.82.41,1.23.72"/>
  <path class="a" d="M388.38,146a24,24,0,0,1-9.39,3.71c-.52-.2-1.34-.72-1.24-1.24,3.92-.83,7.23-3.19,10.63-5.47,1.54.62.52,2.07,0,3"/>
  <path class="a" d="M140.58,146.75v.82c-11.24,5-18.57,16.3-20.63,28.16-.62.31-.82-.51-1.24-.71.73-8.57,3.72-16.82,9.7-22.5,3.51-2.47,7.12-5.77,11.66-6.18l.51.41Z"/>
  <path class="a" d="M385.9,149.22c0,.52.52.72.72,1-2.26,4.23-7.63,4-11.86,5-.72.21-1-.62-1.55-1,3.92-1.45,7.94-2.58,11.45-5Z"/>
  <path class="a" d="M210.32,151.29c-2,9.18-11.76,14.54-19.81,16.3-1-.31-2.88.71-3.19-1,.31-.93,1.85-.11,2.47-.73,8.36-1.75,14.75-8.35,19.29-15.57.52.1.83.62,1.24,1"/>
  <path class="d" d="M418.81,150.25c-.1.72.41,2-.52,2.28v-2.28Z"/>
  <path class="a" d="M248.7,151.49c-.72,3.82-5.47,3.3-8.36,4.75a2.67,2.67,0,0,1-1.55-2.06,1.13,1.13,0,0,1,1.55,0c2.89-.1,4.75-3,7.43-3.72l.93,1Z"/>
  <path class="d" d="M397.77,154.69c-.11,1.34.2,2.78-.21,4a14,14,0,0,0-3-3.71c-.92.21-1.12-.93-2.26-.52l-.73.73,2.69,2.68c-1.13,1.24.51,4.23-2,4.23-1-2.17-3.82-1.65-5.16-1.75h-.31c.93-1.66,2.17-3.2,2.48-5.16,2.06-2.07,7-4.75,8.46-.52"/>
  <path class="a" d="M383.63,155.41c-.1,1.76-1.65,2.79-3,3.71-3.51,1.14-7.84,2-11.55,1.25l-.52-.42c2.58-1.14,6.29-.83,8.87-2.47,2.58.31,4.23-4,6.19-2.07"/>
  <path class="a" d="M321,155.41c.21.41,1,.62.72,1.24-2.16,1.55-4.12-.72-6.7,0-.21-.1-.31-.52-.72-.41.31-1.86,2.68-.73,4-1,.52.83,2,.52,2.68.21"/>
  <path class="d" d="M419.53,166.55c-.52.62-.93,1.65-1.44,1.76.82-3.92.51-8.57.2-12.59,2.27,2.58.83,7.22,1.24,10.83"/>
  <path class="a" d="M257.88,167.07c.31,3.3,4.33,5.37,3.2,9-1.24.1-1.76-1.35-2.68-2.07-2.38-4.95-5.06-10.93-7.95-16.3l.21-.72a43.15,43.15,0,0,1,7.22,10.11"/>
  <path class="a" d="M316.78,158.2c.41.52,1.45.83,1,1.75-2.78,1.24-6.49-.21-9.38-.82.3-2.69,4.22-.93,6.39-1.45.31.93,1.34.31,2,.52"/>
  <path class="a" d="M240.34,163.36c.21,5.25.41,11.24,1.65,16.4-.82,1.24-1.86-.31-2.48-.82.42-.83-.92-1.55-.41-2.69-.72-4.64-1-10.42.21-14.85.72.3,1.65,1.24,1,2"/>
  <path class="a" d="M378.68,162.63c-2.16,4.44-7.74,3.72-12.07,4.44-.62-.11-1-.83-1.55-1.23.93-.93,2.38-.31,3.51-.73,3.41-.41,6.09-3.3,9.39-3.2l.72.72Z"/>
  <path class="a" d="M313.07,161.91c.62.41,1,1.14.52,1.76-2.89,3.4-6.92-.52-10.43,1.44-.2-.31-1.64-.52-1.23-1.44a11.22,11.22,0,0,1,9.18-1c.51-.51,1.34-.51,2-.72"/>
  <path class="b" d="M246,163.67c.1.92,1.35.92,1.24,2.16.73,2.06,2.58,3.41,2.17,6.19h.51c.72,1-.41,3.2,1,3.51.72,1-.52,3.1.93,3.72-.52,3.09,2,4.63,1,7.63-.62,0-1,.41-1.76.31v-.83l-4.95-.41c-.72-2.07,1.24-1.35,2-2.27l-.2-.21c.51.21.2-2.89.2-4.22-.1-.31-.41-.31-.72-.31-.73-.73.52-2.69-.93-2.69-.11-1.54.2-3.51-1.24-4.23l.21-8.35Z"/>
  <path class="c" d="M246,163.67c.1.92,1.35.92,1.24,2.16.73,2.06,2.58,3.41,2.17,6.19h.51c.72,1-.41,3.2,1,3.51.72,1-.52,3.1.93,3.72-.52,3.09,2,4.63,1,7.63-.62,0-1,.41-1.76.31v-.83l-4.95-.41c-.72-2.07,1.24-1.35,2-2.27l-.2-.21c.51.21.2-2.89.2-4.22-.1-.31-.41-.31-.72-.31-.73-.73.52-2.69-.93-2.69-.11-1.54.2-3.51-1.24-4.23l.21-8.35Z"/>
  <path class="a" d="M308.84,168.1c.1.52.83.83.52,1.45-3.3,1.24-8.36.62-11.87,1.54-1.86-2.16,1.75-1.54,2.27-3a19.35,19.35,0,0,1,9.08,0"/>
  <path class="a" d="M373.73,168.82c.41,2.69-2.68,2.07-3.92,3.2-2.07-.1-4.75.41-6.19-.51,2.48-1.24,5.57-2,8.14-3.41.73.1,1.87-.41,2,.72"/>
  <path class="e" d="M220.53,170.27c-11.95,12.1-37.94,9.52-43.38,29.14-3.68,19.81,3.1,42-8.41,60.11-10.63,20.37-34.16,27.16-51.68,39.8-15.57,18.37-7,44.38-14.25,65.78-7.21,24.58-30.34,45.57-56.62,46.36,17.7,26,46.53,41.42,73.86,55.37,13.16-4.47,25.84-13.51,36.4-23.13,23.75-19.77,43.13-45.22,54.87-73.9,12.43-31.25,8.24-65.29,9.21-98.09V170.27ZM51.66,258.17C62.47,240.87,85,239.58,99.21,226.8c12.93-16.34,2-38.34,5.77-57.19,2.14-22.48,22-39.24,43-44.26,23.4-3.52,24.39-27.43,21.71-46.15-2.38-28,21.19-52.34,48-56.11.1-7.61-25.12-15.86-36.8-15.5C143,8.69,112.27,34.07,77.68,46.3,59,55.57,36.16,58.92,16.79,49.77c7.36,21.49,2.24,44.85,3,67.15-.23,73.49-.25,147,.4,220.47,20.1.68,18.69-22.2,18.56-36.27.56-15,2.32-31.42,12.91-42.95Z"/>
  <path class="f" d="M220.53,170.27c-11.95,12.1-37.94,9.52-43.38,29.14-3.68,19.82,3.1,42-8.41,60.11-10.63,20.37-34.16,27.16-51.68,39.8-15.57,18.37-7,44.38-14.25,65.78-7.21,24.58-30.34,45.57-56.62,46.36,17.7,26,46.53,41.42,73.86,55.37,13.16-4.47,25.84-13.51,36.4-23.13,23.75-19.77,43.13-45.22,54.87-73.9,12.43-31.25,8.24-65.29,9.21-98.1V170.27ZM51.66,258.17C62.47,240.87,85,239.58,99.21,226.8c12.93-16.34,2-38.34,5.77-57.19,2.14-22.48,22-39.24,43-44.26,23.4-3.52,24.39-27.43,21.71-46.15-2.38-28,21.19-52.34,48-56.11.1-7.61-25.12-15.86-36.8-15.5C143,8.69,112.27,34.07,77.68,46.3,59,55.57,36.16,58.92,16.79,49.77c7.36,21.49,2.24,44.85,3,67.15-.23,73.49-.25,147,.4,220.47,20.1.68,18.69-22.2,18.56-36.27.55-15,2.34-31.45,12.91-42.95Z"/>
  <path class="a" d="M407.67,174c-2.58,1-5.68.93-7.94,3-1.24-.3-.73-1.33-.52-2.16,2.06-2.17,5.16-2.27,7.94-1.76Z"/>
  <path class="a" d="M306.16,174.81c-4.23,3.09-10.73,1-14.65,5.16-.51-.62-1.34-1-.41-1.76C293,176.87,295,173.88,298,174a5.05,5.05,0,0,1,3.71-.93c1.55,1.76,3.92-1.64,4.44,1.76"/>
  <path class="a" d="M370.32,174.81c-.2,2.16-2.16,2.78-4,3.2a60.49,60.49,0,0,1-7.64.51l-1-1c1.13-1.24,3.51-.62,4.94-1.44,2.9.1,5.06-1.86,7.43-2.07l.31.83Z"/>
  <path class="a" d="M278.92,176.46c-1.75,4-6.6,7.43-9.69,10.93-.62-.41-1.24-.51-.93-1.44,3.3-3.51,6.18-8,9.9-10.42Z"/>
  <path class="b" d="M389.1,181.93c-.93,2.06-.31,4.64-.52,6.91h-.51c-.11,3.61-.62,7.12-.42,10.93a.89.89,0,0,0-.82.73l-.41,7.22h-.31l-.52,9.9c-1.34.51-.41,2.48-.72,3.72.21.3.52.2.72.2.31,2.48.21,5.88,2.06,6.91a8.76,8.76,0,0,0,2.9,3.51c1,1.34,1.95,2.68,4,3-.1,1.34,1.54.52,2.16.93.31,1.65,3.3-.1,3.51,1.75,1.65.62,3.61.62,4.75,2l2.47.31c.41,2.37,4.44,2.27,4.44,4.65,1.13,0,.31,2.47,1.24,2.26.83.31-.11,2.79,1.24,3a98.53,98.53,0,0,1,0,13.31c-1.45.62-1,2.68-3.21,2.27-1.44-1.44-1-3.82-2.47-4.95.72-2.17-1.34-2.48-1.55-4.23-.21-1.34-1.44-1.65-1.44-3.19-1.45-.42-.21-2.69-2-2.69-.11-.41.2-.82-.31-1-.93-.51-1.13-1.86-1.75-2.68-1-.31-.83-2.79-2.69-2.27.41-2-1.75-2.38-2.47-3.92H396c.31-.83-.83-1-.93-1.24-4.53-4.75-8.66-9.49-13.92-13.41-.73-1-.93-2.06-2.48-2.27-.82-.41-.31-2.16-1.75-1.65.31-1.24-1.35-.62-1.45-1.55-1.54-3-3.92-4-5.67-6.7-.93-.52-1.14-1.76-1.76-2.69-.92-1-2.06-1.64-1.95-3.5-1.24-.94-.52-2.79-.73-4.13,1,.31.42-.93.93-1.24v-.82c1,.31.52-.83,1-1.24,1.76.41,3.82-1,4.43,1.24-.82.72-.61,1.75-.2,2.78.83.62,1.76-.2,2.69-.31.31-1.14,2.47-.52,1.95-2.47,1-.83,2.07-1.24,2-2.89,1.23.3.41-1.13,1-1.55v-.72c1.66.21-.1-2.27,1.45-2,.21-1.65,2-2,1.55-3.72,1.13-1,1.75-3,3.2-3.2,1-1.64,1.95-3.61,2.68-4.94l.31-2.79a.76.76,0,0,0,.93-.93v3.41Z"/>
  <path class="c" d="M389.1,181.93c-.93,2.06-.31,4.64-.52,6.91h-.51c-.11,3.61-.62,7.12-.42,10.93a.89.89,0,0,0-.82.73l-.41,7.22h-.31l-.52,9.9c-1.34.51-.41,2.48-.72,3.72.21.3.52.2.72.2.31,2.48.21,5.88,2.06,6.91a8.76,8.76,0,0,0,2.9,3.51c1,1.34,1.95,2.68,4,3-.1,1.34,1.54.52,2.16.93.31,1.65,3.3-.1,3.51,1.75,1.65.62,3.61.62,4.75,2l2.47.31c.41,2.37,4.44,2.27,4.44,4.65,1.13,0,.31,2.47,1.24,2.26.83.31-.11,2.79,1.24,3a98.53,98.53,0,0,1,0,13.31c-1.45.62-1,2.68-3.21,2.27-1.44-1.44-1-3.82-2.47-4.95.72-2.17-1.34-2.48-1.55-4.23-.21-1.34-1.44-1.65-1.44-3.19-1.45-.42-.21-2.69-2-2.69-.11-.41.2-.82-.31-1-.93-.51-1.13-1.86-1.75-2.68-1-.31-.83-2.79-2.69-2.27.41-2-1.75-2.38-2.47-3.92H396c.31-.83-.83-1-.93-1.24-4.53-4.75-8.66-9.49-13.92-13.41-.73-1-.93-2.06-2.48-2.27-.82-.41-.31-2.16-1.75-1.65.31-1.24-1.35-.62-1.45-1.55-1.54-3-3.92-4-5.67-6.7-.93-.52-1.14-1.76-1.76-2.69-.92-1-2.06-1.64-1.95-3.5-1.24-.94-.52-2.79-.73-4.13,1,.31.42-.93.93-1.24v-.82c1,.31.52-.83,1-1.24,1.76.41,3.82-1,4.43,1.24-.82.72-.61,1.75-.2,2.78.83.62,1.76-.2,2.69-.31.31-1.14,2.47-.52,1.95-2.47,1-.83,2.07-1.24,2-2.89,1.23.3.41-1.13,1-1.55v-.72c1.66.21-.1-2.27,1.45-2,.21-1.65,2-2,1.55-3.72,1.13-1,1.75-3,3.2-3.2,1-1.64,1.95-3.61,2.68-4.94l.31-2.79a.76.76,0,0,0,.93-.93v3.41Z"/>
  <path class="a" d="M167.82,181c-5.88,5.87-6.91,13.71-8.67,21.24-2.27.21-1-3-1-4.22.83-6.81,2.38-13.93,8.67-17.85.41,0,.62.52,1,.83"/>
  <path class="a" d="M336.07,180.48c0,.41.52.62.83.93l-3.51,3c-5.16.41-10.41.72-14.33,4.23l-1.56-.72c.31-2.79,3.3-3.82,5.27-4.95,4.64-.52,9.18-.93,13.3-2.48"/>
  <path class="a" d="M366.09,181.2c-1.85,3.61-6.39,3.71-10.21,4.23-1.24-.41-2.37.93-3.19-.52v-.51c3.92-1.13,8-1.54,11.44-3.92a1.88,1.88,0,0,1,2,.72"/>
  <path class="a" d="M408.91,184.71l3.51.21v.2l3.4.31v.21c2.27-.21,3.51,1.44,5.67.52l1.55-1.24c.31.41,1.55,1.13.72,2-4.75,3.41-11.34.92-16.61.31a30.09,30.09,0,0,0-8.67.72l-.51-.72a15.13,15.13,0,0,1,10.94-2.79v.31Z"/>
  <path class="a" d="M363.31,186.36c-1,3.4-5.26,3.61-8.15,4.75-1.55-.21-3.61,1.54-4.64-.52,3.61-1.55,7.73-3,11.34-5.16.73-.21,1,.62,1.45.93"/>
  <path class="a" d="M278.2,188.42c-2,2.28-4,4.64-6.5,5.89-.31-.21-.51-.73-.93-.73,1.76-2.88,4.65-5.57,6.71-7.94,1.13.41,1.44,1.55.72,2.78"/>
  <path class="a" d="M409.42,191.31c1,.72,2.79.72,4.23,1,1,1,3.4-.1,4.64,1,1.66.93,3.82-2.17,4,.72-3.51,1-8.57,1.34-12-.31-4.44.42-9.49-.83-13.31,1-.31-.51-1.54-.82-.72-1.44,3.41-2.89,8.56-1.76,13.1-2.07"/>
  <path class="a" d="M359.9,193.79c-2,2.47-5.25,3.82-8.45,4.54-.73-.1-1.14-.72-1.76-1.24,2.47-1.45,5.16-2.06,7.22-4.23,1,.31,3-.83,3,.93"/>
  <path class="d" d="M371.05,195v.52c-2.17-1-3.72.81-5.47,1.23-.41-1.65,1.75-2.06,3-3.2a2,2,0,0,1,2.48,1.45"/>
  <path class="a" d="M244.05,197.81c.11.41-.2.72-.51.93-.62-.41-1.24-.52-1.76-1.24l.21-.92c1.24-.42,1.55.51,2.06,1.23"/>
  <path class="a" d="M412.41,198.33v.21c2.9.41,5.37.41,7.84-.73.62.42,1.14,1.14.52,1.76-7.33,3.71-15.79-2.17-23.21,1.23l-.83-.82c1.14-1,2.48-2.79,4.54-2.17,2.79-1.55,5.27.73,8.36,0,.62.83,1.86.31,2.78.52"/>
  <path class="a" d="M244.47,201.53c0,.41-.41.62-.72.92-.83-.2-2.48-1.44-2-2.16a2.57,2.57,0,0,1,2.69,1.24"/>
  <path class="a" d="M424.79,202.25a9.14,9.14,0,0,1-3.71,3.71c-8.26,2.48-16-3.92-24-.2l-.71-.83c2.88-2.58,7.42-2.16,11.55-2.16v.2c5.05.62,11.76,3,16.09-1.44Z"/>
  <path class="a" d="M244.05,204.72c.11.41-.2.72-.51,1-1.14-.51-2.48-.93-2.27-2.47,1.55-.41,2.07.42,2.78,1.44"/>
  <path class="a" d="M358.36,207.92a8.5,8.5,0,0,1-6.4,4.75l-.51-.73,4.94-5.25c1.25-.31,1.45.51,2,1.23"/>
  <path class="a" d="M360.42,212.36v1.24l-7.22,4.53c-.52-.2-1.65-.31-1.24-1.23,2.68-1.55,4.85-4.23,7.63-5.47Z"/>
  <path class="a" d="M407,215.14v.52c-2.79.62-6.51.41-7.74,3.2-.41,1.34-1.13,3.1-.2,4.43-.31.41-1,.1-1.45.21-1.76-1.34-1.86-3-1.55-4.95,2-3,5.88-4.43,9.7-4.43.52.1.83.61,1.24,1"/>
  <path class="a" d="M362.9,216.38c-1.86,2.28-4.75,5.26-7.94,5.88l-.73-.72c2-1.86,5.06-4,7.12-6.4.52-.1,1,.83,1.55,1.24"/>
  <path class="a" d="M264.79,223.81c-1.14,1.34-2.37,3.3-4.23,3.71-.31-.41-.93-.82-.72-1.55,2-1.54,3.61-4.23,5.26-6.18,2.27,1.13-.21,2.68-.31,4"/>
  <path class="a" d="M287.38,224.53c3.61,1,5.16-2.89,7.84-3.92,1.66.62.21,1.86,0,2.68-.72,1-2.68,2-2.16,3.21a25.35,25.35,0,0,0,7.94-5l.93,1c-1.14,1.95-3.51,3.71-4.23,5.66,3.4-.31,6-3.3,8.25-6,2.06.72.1,2.48-.31,3.51-.82,1.34-3.51,2.58-2.68,3.92,2.48-1.34,4.43-3.61,6.4-5.16,1.44,2.78-2.79,4.85-3.2,6.91,2.47-.31,3.51-2.47,5.67-3.4,2.27,2.58-4.13,3.3-2.16,6.4-3.31-.62-5.78-3.1-9.18-3.21-10.63-1.23-17.65-8.14-27.76-10.62-.31-.93.62-.21.73-.83,4.74,1.24,9.59,2.38,13.92,4.75"/>
  <path class="a" d="M407.67,231.44c-1.24.1-1.86-1.33-2.69-2,.21-1.13-.61-2.58.73-3.19,1.75.82,1.65,3.61,2,5.15"/>
  <path class="a" d="M402.92,230.2c-1.23,1-2.47-.71-2.89-1.44a2.18,2.18,0,0,1,.93-2.27c2.06,0,1,2.58,2,3.71"/>
  <path class="a" d="M113,228.45c-2.07,8.77-10.62,13.41-18.26,15.89-.62-.21-1.75-.21-1.24-1.24,6.7-2.48,13.92-7.33,16.82-14.13.61-.83,2-2.07,2.68-.52"/>
  <path class="a" d="M272.73,238.36v1h-1l-8.35-8.46v-1.43a91.67,91.67,0,0,1,9.38,8.87"/>
  <path class="a" d="M417.78,238.36c.21.82,1.85,1.75.52,2.27-2.59-.94-3.82-2.89-5.68-5-.1-.62.1-1.64,1-1.23a13.65,13.65,0,0,0,4.13,3.92"/>
  <path class="a" d="M118.3,236.7c-3.4,7.74-11.55,13.31-19.39,15.07l-1.24-1.24c7.32-3.3,14.75-8.15,20.11-14.65Z"/>
  <path class="a" d="M383.63,237.94c-1.14,2.07-3.3,3.51-5.16,4.95-.71.11-1.85-.41-1.54-1.24,2.26-1.23,3.5-3.5,5.77-4.74l.93,1Z"/>
  <path class="a" d="M386.62,240.83c-.72,3-3.92,4-6,6-.52,0-1.14.1-1.45-.52,1.66-1.76,4.23-4,6-6.19.62-.21,1,.31,1.44.72"/>
  <path class="a" d="M322.77,243.31c-.93,2.37-3.71,3.3-5.68,4.54-3.51.1-7-.83-8.46-4a25.42,25.42,0,0,0,3.51.72c2.79-1,7,1.35,8.87-1.95a1.84,1.84,0,0,1,1.76.72"/>
  <path class="a" d="M389.61,244.13c-.3,2.68-2.89,3.51-4.74,5.16-2,.42-3.4,3.3-5.47,2.27v-1c3.09-2.07,6.6-4.33,8.67-7.64,1.13-.51,1,.72,1.54,1.24"/>
  <path class="a" d="M122.74,245.78c-4.13,7.12-10.94,12.48-18.88,13.41-.31-.2-.51-.72-.93-.72.52-1.75,2.58-1.55,3.92-2.26,6.19-2.28,10.63-7.54,14.86-12.38.51.41,1.85.92,1,1.95"/>
  <path class="a" d="M393.33,248.57c-.83,2.16-3.51,3.09-5.26,4.64-2.27.72-4.23,3.92-6.6,2.79,1.65-2.48,4.74-3.51,6.9-6l2.69-3.2a8.51,8.51,0,0,1,2.27,1.76"/>
  <path class="a" d="M325.24,248.26c-2.16,2.47-5.15,5.46-9,4.23-1.45-.31-2.07-2.17-3.2-3,2.06-.21,4.23,1.65,6.71.3,2.16-.1,3.5-3.81,5.46-1.54"/>
  <path class="a" d="M127.69,252.28c-4.33,7.12-11.86,12.59-19.81,13.83-.41-.42-1.13-.93-.51-1.45,6.91-3.71,13.82-8.05,19.6-14.13a1.88,1.88,0,0,1,.72,1.75"/>
  <path class="a" d="M396,252.8a34.08,34.08,0,0,1-11.66,7.63c-.2-.2-.31-.62-.72-.51.83-2.27,3.82-2.27,5.47-4.23,2.06-1,5.47-8.57,6.91-2.89"/>
  <path class="a" d="M328.23,253.21a8.06,8.06,0,0,1-3.71,4.54c-2.79.52-5.78.31-7.74-1.76v-.72c2.38,1.24,4.64-.41,6.92-.51,1.54-.52,3.2-3.2,4.53-1.55"/>
  <path class="a" d="M289.34,253.73a.42.42,0,0,1-.52.51c-.71.2-1-.31-1.43-.72.2-1.34,1.85-.93,1.95.21"/>
  <path class="a" d="M398.49,256c-.31,1.54-2.38,3.3-3.92,4.22-2.17.93-4.23,3.72-6.5,2.9v-.93a56.81,56.81,0,0,0,8.45-7.43c1-.41,1.66.52,2,1.24"/>
  <path class="a" d="M291.51,256.2a1.43,1.43,0,0,1-2.48.31c-.2-.52-.1-1.55.82-1.55.63.21,1.45.52,1.66,1.24"/>
  <path class="a" d="M332.15,258.68c-.82,2-3,3.09-4.74,4-2.27-.51-4.23,0-5.68-2.06v-.73a3.85,3.85,0,0,1,2.48.73c2.27-1.14,5.26-1.14,6.71-3.92a1.4,1.4,0,0,1,1.23,2"/>
  <path class="a" d="M293.06,258.16c-.93,2.07,2.47,2.58.21,4.23.71.62,1.33-.21,1.74.73.21.72-.31,1.13-.72,1.54a2.32,2.32,0,0,1-2.26-1c1.34-1.14-2.38-2.69.31-3.71-.62-.31-1.25.1-1.76-.73a1.32,1.32,0,0,1,1.24-1.75c.62-.31.83.51,1.24.72"/>
  <path class="a" d="M278.72,258.16c.72,1.66,4.43.62,2.68,3-1.35-.61-3.4-.61-3.92-2-.41-.93.52-1.13,1.24-1"/>
  <path class="a" d="M133.36,259.71c-4.85,7.22-12.07,12.69-20.32,14.13-.21-.41-1-.62-.72-1.23,7.53-3.2,13.92-8.26,20.32-13.93Z"/>
  <path class="a" d="M400.76,260.64v.83c-3.82,2.88-7.64,5.77-12.17,7.11l-.73-.72c4.44-1.86,7.43-6.39,11.87-8.67l1,1.45Z"/>
  <path class="a" d="M74.46,260.43c-1.14,1.55-3.31,2.58-4.95,3.92-8.26,7.63-9.71,18.46-12.69,28.48a1.4,1.4,0,0,1-1.65-.73c.1-6.29,2.27-11.76,3.71-17.54,2.79-5.67,8.36-13.72,15.06-14.85-.1.31.31.51.52.72"/>
  <path class="a" d="M402.92,266.11c-2.89,2.37-6.5,4-9.9,6l-1.24-.52c3.3-2.47,6.2-5.67,9.49-8.15.63.62,1.65,1.55,1.65,2.69"/>
  <path class="d" d="M318,265.38A33.76,33.76,0,0,0,316.58,278c.3,1.24,1.85,2.37,3.2,2.78,3.71-1.64,6.29,2.48,9.9,2.48.51,1.75,0,4.54.51,6.71-.62,7.32,3.51,10.82,6.91,16.5.73,7.22,4.44,13.31,8.46,18.88-2.78,5.37-.41,11.66,1.66,16.51-1.24,2.26-.93,5.05-2.89,7-7.12-.41-14.34-2-21.56-2.78-3.92,1.34-8-2.58-11.14.31l.2,1.44c-.41.51-1.13.2-1.75.2-2.06-1-2.68-3.61-4.44-4.64-1.75,1.34-.72,4-.93,5.68-1.34,0-2.16-1.45-2.48-2.48.11-1.55-.1-3-1.23-3.92-1.24,1.65-2.79,3.3-2.48,5.67-2.78-1.13-.72-4.43-2.06-6.18-1.75,0-1.86,2.06-2.48,3.19.11.83.31,1.55-.41,2-2.06-.31-2.16-2.07-2.78-3.72,0-1,1.13-2.27,0-3.2-1.45.21-1.45,1.86-2.48,2.69l.31,3.5c-1.13.42-1.75-1.34-2.27-2.27-.83-2,1.76-3.61-.21-5.15-3.3-.11-6.91-.31-8.66,2.68-2.58,3.3-1.75,10.1-7.74,9.69-6.71.1-14.13.21-20.32-2l-.21-1c2.06-5.16,3.41-11,7.64-14.85,5.46-.93,10.11-2.58,14.44-6.4,4.23-1.75,10.21-1,14.33-.31,13,2,26.21,4.34,39.62,4.75,1.86-1.14,1.45-3.1,2.17-4.75-3.3-6.19-10.11-10.21-11.86-17-5.47-4.34-10.63-10-11.66-16.82-2.69-2.68-2.89-6.8-2.69-10.93,2.69-8.05,13.11-9.7,15.38-17.85.61,0,2-.1,1.44,1"/>
  <path class="a" d="M139.55,266.62v1C133.88,275.7,124.9,280,115.82,282c-.41-.41-1.24-1-.51-1.54,9.08-2.28,16.3-9.08,23.72-14.35l.52.52Z"/>
  <path class="a" d="M404.47,270.54c-.41,1.45-4.23,2.78-1.75,4.75.72-.21,1.34-1.45,2.27-.73a2.34,2.34,0,0,1,0,3c-1.14.11-1.86,1.35-2.07,2.48v1.44c.83,0,1.86-2.68,3-1,1.95,4.22-4.75,3.19-3.2,7,.82,0,1.65-1.55,2.27,0,.72,2.78-5,3.61-2.07,6.08.93,2.79-4.84,3.61-1.65,6.2-.82,2.68-3.61,4.64-4,7.74-3.3,2.88-2.58,7.32-6.7,9.89-1.66,2.69-3.82,5.68-5.37,8.67-4.75-2.68,2.16-5.88,2.68-8.67.21.11.31-.1.52-.31-2.06-1.23-4.13.42-6.19.52a7.72,7.72,0,0,0-1-.93c3.81-1.85,8.66-2.06,11.14-5.77-2.17-.52-5.06,2.26-6.91-.42.72-1.34,1.65.42,2.47-.51,2.48-2.06,6.91-1.55,7.63-5.47-2.47-.92-5.25,2.89-7.42.21,3.6-1.45,8.25-2,10.21-5.88-2.58-1.35-5,2.68-6.91.2,2.89-1.34,6.19-3,8.15-5.67l-.52-.52c-2.16,1-5.15,3-7.22,1.55,3.1-2,7.74-3,8.67-6.7-2.06.1-4.34,1.23-6.4,2.26l-1-1c2.68-2.27,6.81-3.2,7.74-6.91l-.73-.72c-2.68,1-4.85,3.1-7.94,3.2l-.72-.72a48.63,48.63,0,0,0,8.66-6.2l.21-2.05c-3.09-.21-5.77,4.53-8.46,1.74,3.81-3,7.43-4.84,10.94-8.66,1-.2,1.13,1.34,1.75,2"/>
  <path class="a" d="M310.9,284c-.82,1-.21,2.58-1.54,3.51-2.69-1.13-.21-2.89-.93-4.95A1.92,1.92,0,0,1,310.9,284"/>
  <path class="a" d="M329.16,292.82c-2.58,2-5,4.64-7.94,5.68-.52-.31-1-1.14-.42-1.66,2.59-2.37,5.27-3.92,7.44-6.49a4.33,4.33,0,0,1,.92,2.47"/>
  <path class="a" d="M348,293.13a5.19,5.19,0,0,1-1.54,4.64c-2.07-1,0-3.92-1.76-4.95-.21-2.68,2.78-1.23,3.3.31"/>
  <path class="a" d="M102.41,293.55c-8.15,6.81-10.73,16.5-10.62,26.51-2.37-1.76-.62-5.78-1.55-8.36-.2-3.61,1.34-7.32,2.48-10.41,1.85-3.61,4.75-7.84,9-8.88l.72,1.14Z"/>
  <path class="a" d="M330.19,296.85v.93L323,302.72l-1.75-.51c1.75-2.06,4.75-3.92,6.5-6.39,1.14-.42,1.65.62,2.47,1"/>
  <path class="a" d="M331.64,300.77c.21,2.58-2.68,2.68-3.92,4.44l-7.22,4c-.31-.52-1-.62-.72-1.55,3.92-2,7.11-4.85,10.41-7.94.73-.11.93.72,1.45,1"/>
  <path class="a" d="M333.6,305.2v1c-3.3,3.51-6.81,5.06-11.14,6.4a.88.88,0,0,1-.21-1.44c3.61-1.66,6.4-4.54,9.38-6.91.94-.31,1.45.41,2,.92"/>
  <path class="a" d="M335.87,309.64c-1.24,2.68-4.33,3.92-6.71,5.47-1.85.21-4,3.72-5.46,1,3.71-2.27,7.11-5.88,10.41-7.95.83,0,1.45.83,1.76,1.45"/>
  <path class="a" d="M337.11,314.18c-.41,2.68-2.48,3.3-4.44,4.64-2,0-4.23,3.61-5.68.52,3.2-2.07,5.79-4.33,9.09-6.19Z"/>
  <path class="a" d="M338.86,319.34c-1.65,2.37-4.64,3.61-7.22,4.74-.52-.2-1.65-.3-1.24-1.23,2.78-1.14,4-3.61,6.5-5,.82-.1,1.34.93,2,1.45"/>
  <path class="a" d="M340.1,322.84c.31,2.69-2.89,3.41-4.44,4.64-1.13.11-2.47,2.07-3.5.31V327c2.57-1.34,4.54-4.13,7.22-5.15Z"/>
  <path class="a" d="M342.57,326.76V328c-3.09,2.17-6.39,4.54-9.9,5l-.72-.73c3.09-1.55,5.05-4.23,8.15-5.68l.93-1.23a3,3,0,0,1,1.54,1.44"/>
  <path class="a" d="M388.38,335.43c.52,4.54,1.54,9,4.23,12.59-.52,1.33-1.76.62-2.48.31a8.52,8.52,0,0,1-2.78-5.47,18.37,18.37,0,0,1-.21-12.9c3.3.62-.31,3.51,1.24,5.47"/>
  <path class="a" d="M342.06,331.92c-.31,1-1.76,2-2.48,1-.31-.1-.21-.41-.21-.72.83-.41,2.17-2.37,2.69-.31"/>
  <path class="a" d="M332.67,336.87c1.24-.3,1.55.83,2.47,1.55l-.51.52a20.78,20.78,0,0,1-7.43-4.23c-.62-1.45.83-2.06,2-1.76.62,1.55,2.37,2.69,3.51,3.92"/>
  <path class="a" d="M46.5,336.46a20,20,0,0,1-9.19,11.35c-3.5.72-7.52,3.61-10.93.72,1.24-.72,3.92.72,5-1.24,6.18-1.13,10.72-6.6,13.61-11.86.93-.31,1.14.41,1.55,1"/>
  <path class="a" d="M278.2,339.14c.1,1.45-.93,2.17-2,2.69a2.11,2.11,0,0,1-2.48-.93c2.48.21,2.48-6.19,4.44-1.76"/>
  <path class="a" d="M259.32,338.42c.31.62.72.62.52,1.45-.93.41-.73,1.95-2,1.54-.41-2.68-2.38,1-3-1.23.11-.93.21-2,1.24-2.28,1.14,1.66,1.66,0,3.2.52"/>
  <path class="a" d="M262.31,341.62l-.71.72c-.94-.72-1.87-1.75-.73-3l1.24-1.24c1.75.83.72,2.27.2,3.51"/>
  <path class="a" d="M306.67,339.66c3.31-.21,4.95,2,8.36,1.24,1.44.72,3.2.61,4.74.92v.31c1.24.73,3.92-.62,4.23,1.24-1.95.62-5.26-.2-7.42-.31-5.37-1.13-11.35-1.55-16.61-2.47-1.14.31-3.1.82-3.92-.41l-.31-.31c1.75-1.76,5.16-.62,7.73-.93.42,1.44,2.18-.21,3.2.72"/>
  <path class="a" d="M265.82,340.59c.1.82-.1,1.54-.72,1.75a.9.9,0,0,1-1.23-.72,1.82,1.82,0,0,1,.71-2c.93-.41.83.52,1.24.93"/>
  <path class="a" d="M268.3,341.41v.93a1.29,1.29,0,0,1-1.76-1.24c.42-.92,1.35-.31,1.76.31"/>
  <path class="a" d="M52.38,344.3c-3.2,5.78-6.5,11.55-13.1,13.93-2.79.31-6.71,1.65-8.87-.31,2.16-1.86,6-1.14,8.66-2.69,5.06-2.57,9.39-8,12.79-11.86Z"/>
  <path class="d" d="M225,350.29c13.31,42.4,45.49,82.42,83.67,108.42l16.84,11s-1.68.77-4.67,2.09c-4.36,2.68-23.35,10.48-26.28,11.7-26.18,11-59.06,27.09-68.63,37.81-11.76-11.13-25.63-17.32-39.57-24.14-3.48-1.18-57.89-25.91-59.36-27.54,18.56-9.59,33.73-22.49,49-37.65,8.78-10.21,17.55-20.32,24.77-31.15,3.61-6.51,6.75-11.72,10.31-19.6a164.71,164.71,0,0,0,12-36.42c1.34,1.34,1.34,3.61,2,5.47"/>
  <path class="a" d="M56.82,356.68c-4.13,6.81-10.84,12.69-19.29,11.45-.31-.52-1.14-.83-.93-1.54,8.67-.31,16.3-6.82,20.74-14.55,2.47,1.24-.52,3.09-.52,4.64"/>
  <path class="a" d="M393.54,356.48c-9.81,10.42-23.32,17.22-35.18,25.47-1.34.11-2.89,2.07-4.13.32,10.11-6.4,19.91-13.52,29.71-20.64l8.15-5.87c.93-.31,1,.41,1.45.72"/>
  <path class="a" d="M64.55,362.87C62.8,369.78,55.79,376,49.18,378c-2.16.52-5,1.35-6.39-.72A19.43,19.43,0,0,0,49,375.05a26.4,26.4,0,0,0,7.84-5,29.94,29.94,0,0,0,6.72-8.15Z"/>
  <path class="a" d="M70.23,372.36A23,23,0,0,1,54.86,386.9c-2.69-.1-5.89.42-7.64-1.23,2.69-.31,5.05-1.24,7.64-1.76,5.77-2,10.73-7.53,14.85-12.07l.52.52Z"/>
  <path class="a" d="M77.14,379.79c-3.2,7.84-11.45,13-19.29,14.54-1.14-.2-3.71.73-3.92-1.23a34,34,0,0,0,22-14.34c.93-.42.93.51,1.24,1"/>
  <path class="a" d="M308.84,389.9a1.64,1.64,0,0,1-2.68,0c-.52-.62.31-1.24.72-1.76,1.44-1.85,3.61.11,2,1.76"/>
  <path class="a" d="M312.55,390.11c-.21.82-.31,1.75-1.23,2.27-.83-.31-1.86-.73-1.45-2,.73-1,2.06-1.85,2.68-.3"/>
  <path class="a" d="M315.85,391.14a4,4,0,0,1-1.54,2.68,2.23,2.23,0,0,1-.93-2.47,1.24,1.24,0,0,1,2.47-.21"/>
  <path class="a" d="M318.74,392.38c-.31.92,0,2.06-1.23,2.68-.62.21-1.24-.62-1.45-1.24-.1-.93,1-1.75,1.75-2.16.41,0,.62.51.93.72"/>
  <path class="a" d="M233.33,409.19a13.94,13.94,0,0,1,10.21,1c4,1.34,6.8,3.92,10.41,6.4,4.44,4,8.26,9.7,5.89,16.4,2.37,1.55,7.22.52,6.91,4.64.31,2.27-2.06,3.82-3.4,5a13.68,13.68,0,0,1,5.46,10.21c.31,7.11-2,13.21-5.46,18.77-2.68,3.4-6.5,3.92-10.42,4.23-.31,1.14.51,1.86,1,2.69.11,2.47,1,6.08-1.74,7.43-3,.51-5.27-.52-7.43-2-1,2.17-.83,4.85-2.79,6.71-5.05,5.77-13.2,4.22-20.22,5.15-6.71-.31-14.86-2.36-17.33-9.18a1.47,1.47,0,0,0-.52-1.23c-2.26.52-4.33,2.37-6.9,1.23-1.35-.92-1.76-2.78-1.56-4.63-.31-1.45,3-3.21,0-4-6.59.11-10.31-8-12.79-12.79-1.65-4.75-3.4-11.24-.51-15.89l3.4-3.2c-2-2.27-4.74-4.64-3.92-8.14,1.34-4,9.8-.21,6.91-5.27-.51-2.16-.41-5.36,1-7.43,3.61-8.87,13.4-16.5,23.72-16.09,1.13,1.65,3.41.62,4.44,2.47,1.44-.61,2.58-2.88,3.51-4.22.71-1.24,2.06-1.24,3-2.17,5.15-.62,3.71,10.62,9.08,3.92"/>
  <path class="b" d="M241.58,412l1.44.2c.93,1,1.45,2.07,3.2,2,2.37,2,5.36,2.89,6.91,5.47.83.11,2,.62,2.06,1.44.52.73.73,1.76,1.66,2.07-.21.41.41,1.34.51,2h.52c.1,1.44-.1,3.4,1,3.91-.82,1.25-1,4-2.06,5.48a27.79,27.79,0,0,0-2.89,3.19,1.46,1.46,0,0,0-1.76,1,1,1,0,0,0,.52,1.23h.21v.72c-.42-.1-.52.31-.73.52,2.07,3.71,7.64,2,10.63,3.71-.11,1.24,2,.52,1.24,2.17,1.55.93,1.13,3,1.75,4.54-1.44,2.37-.31,6.6-1,9.59-1.34.21-.52,2.07-.93,3-.93.73-1.34,2.38-2.06,3.51.31,2-2.17,2-2.48,3.41-.92,1.34-2.89.72-3.4,2.27-1.34.2-3.3-.62-4,.72-1.54-1.34-4.74-.21-6.18-2-.93.51-2.59-.11-3.2.93-.62.62-2,2.68-.72,4l-.73.72.93.73c.42,3.19.52,6.8-.93,9.38-.93.72-2.27,1.14-2.78,2.07-.72.72-2.69-.52-2.69.93-5.25,2.26-12.68,1-18.77,1-1.14-1.44-3.61-.31-5.26-1-.93-1.24-3-1.45-3.93-2.69-1.74-1.44-.92-3.82-.71-6,1.23.1.61-1.65,1.44-2,1.14-2.37-.83-3.61-1.24-5.67a11.24,11.24,0,0,0-4.22-.52c-2.28,1.14-3.82,2.78-6.92,2-1-1-2.16-.93-3.41-2-.92-.41-1.54-1.55-2.47-2-.2-1.34-1.34-1-1.24-2.48-1,0-1.13-.93-1-1.75-1.54-1.24-1.75-3.1-3-4.43-.11-.83.41-2.38-.93-2.28-.31-1.13.62-2.78-.82-3.4-.41-3.82.41-7.22,2.78-8.67.62-.93,1.86-1.44,2.68-2.26,2.17-.21,4.54.62,5.47-.73a4.94,4.94,0,0,0,3.92-2.78v-.72c2-.42-.62-1.14-.41-2.18H197c.21-1.54-1.34-1.33-1.24-2.78-2-2-4.64-3.09-4.94-6.18L191,427a13.27,13.27,0,0,0,2-3.51c.31-1.75,2.37-2.79,3-4.43,2.07-.52,3-2.38,5-3.41.42-1.24,2.68-1.13,3-2.48,2.59-.92,5.58-1,7.43-2.06.62.83,2.69.62,3.92,1,.93.62,2,1.75,3.2,2,.11.42-.2.83.31,1,.92.31,1,2.16,1.75,3l.73,1.65c-1.14-1.14-2.07-1.86-3-2.9-2.28-.41-5.37-.51-6.92.94-.31.1-.82-.21-1,.31.21.72-.72.62-1.24.72-.62,1.13-3.09.62-2.68,2.68-1.86.72-1.86,4.23-5,3.19-.31,0-.62,0-.73.32v.51c-2.26-.41-2.47,1.45-4,2.17-.31.21-.21.51-.21.72-.62.93-2.36,1.86-2.67,3-.73,2.26,1.13,3.5,1.24,5.46h.4c0,1.24,1.66.62,1.76,1.76,1.86,0,2.37,1.95,3.5,3,.52,2.67-.72,4.12-2.78,4.95-2.17.52-3.81.1-5.88.93a19.78,19.78,0,0,0-3.2,4.43,11.51,11.51,0,0,0,1.24,6.5c.42.62,2,1.55,2.47,2.17-.41,1.34,1.56.41,1.25,1.75.2,1.44-.63,3.51.72,4.23.72.73-.52,2.68.92,2.68,1.14,1.35,1.76,3,3.52,4,1.74-.52,3.5.93,4.94-.31.93-.73,2.17-.31,3.71-.42a4.65,4.65,0,0,1,2,5c-.21-.11-.31.1-.52.2.31.31.52.62,1,.52,1.13-.31-.31-2.27,1.23-2a6,6,0,0,0,0-3.3h-.51c-.21-.83-.41-2.17-1.45-2.68-3.71-1.86-5.68,2.68-9.7.72-.82-1.24-2.37-1.76-2.47-3.71l-.21-5c.31.11.52-.31.73-.51-2.07-2.38-4-2.79-5.17-5.89h-.51c.31-2.47-1-5.46,1.24-6.49.21,0,.52.1.72-.21v-.52a12.58,12.58,0,0,0,9.69-2.68l-.3-4.74c-.93.41-.31-.73-.72-.94-2.69-2.57-7-2.67-6.71-7.42,1,.31.51-.93,1-1.23,3-2.18,4.44-4.54,8.36-5,1.14-1.86,2.68-3,3.51-4.74,1.34,0,.82-1.35,2.16-1.25a8,8,0,0,1,7.23-1.74c.41.92,1.74,1.13,1.23,2.78.31.31,1,.31.72.93-.31-.1-.52.41-.72.52,1.34,1.85,2,4.43,5.16,3.71,0,.31,0,.62.31.72-.1-1.24,1.34-.62,2-1.24,1.44-1.55.92-3.61,2.48-4.95-.11-1.44,1.13-1.34,1.44-2.47h4.23c.72,1.44,3.41,1,4,2.47,3.82,1.34,1.34,6.5,5.88,6,2.27,1.23,5.68,1.33,6.5,4.43h.41c1.45,4.23-3.71,5.05-3.92,8.66h-.52a5.11,5.11,0,0,0,0,3H248c-.41,1.23,1.24,1.23,1.45,2,2.68.31,5.87.2,7.43,2v4.74c-1.35.21-.31,2.38-1.24,3.2-.83,1-3.41,1.65-2.17,3.92H254c.31,3.41.72,7.53-1.76,9.7-1.24,1.44-3.81,1.44-5.67,1-.62-1.34-2.89-.41-3.51-1.76-2.16-.41-3.3.62-4.74,1.45-.52.72.21,1.75-.93,2,.93,2.58,1.44,6,.52,8.46-1.86.93-2.38,3.3-4.75,3.5-3,1.24-4.44-1.23-7.43-.82.21-1.13-1.13-.82-1.75-1.24-2.48,1-5.78,2.58-8.16.52-2.26-.21-2.47-1.14-3.92-2.17-.41,0-.2-1.13-1-.82-.41.51-.1,1.23-.21,1.75.11.31.41.31.72.31-.31,2,1.24,2.47,2.48,3.2h.52c.72,1.34,3.5.41,4.43,1.75.72-1.44,3.51-.2,3.92-1.75h.51V485a26.23,26.23,0,0,0,3.92.42v.51a20.9,20.9,0,0,0,7.23,0v-.51c.92.31,1.44-.31,2.27-.42-.21-.82.72-.62,1.24-.82,1.33-.62,1.85-2.48,2.68-3.92.41-2.48-.62-4.34-1-6.4,1.24-.41.83-1.75,1.76-2.27,4.85-.1,12.28,2,14.13-3.71,1.14-.62.83-2.27,1.24-3.51h.21c.72-3-.52-7.22,2.06-9.07.82-2.9.51-5.47.2-8.46-1.54-1.24-3.09-2.79-5.67-2.49-1.76-.3-4.33-1.43-3-4.22a21.44,21.44,0,0,0,2.68-3.41c1.86-1.13.73-3.82,1-5.77-1.35-.31-.42-2.38-1.76-2.48-.73-.62-.73-2.06-2.16-2-.83-1.44-2.28-1.65-4-2.17-.1-.92-1.13-.41-1.75-.82-.11-1.34-1.24-.93-1.24-2.48-.93-.82-2-1.54-2.89-2.47h-.83a7,7,0,0,0-4.94-2.17c-.11-.92-1.24-.31-2-.51a4.35,4.35,0,0,1-3.92,1.75c.42-2.68,3-3.4,3.92-5.67,1,.41,1.55-.72,2-1,2.47,0,5.36-.11,7,1"/>
  <path class="c" d="M241.58,412l1.44.2c.93,1,1.45,2.07,3.2,2,2.37,2,5.36,2.89,6.91,5.47.83.11,2,.62,2.06,1.44.52.73.73,1.76,1.66,2.07-.21.41.41,1.34.51,2h.52c.1,1.44-.1,3.4,1,3.91-.82,1.25-1,4-2.06,5.48a27.79,27.79,0,0,0-2.89,3.19,1.46,1.46,0,0,0-1.76,1,1,1,0,0,0,.52,1.23h.21v.72c-.42-.1-.52.31-.73.52,2.07,3.71,7.64,2,10.63,3.71-.11,1.24,2,.52,1.24,2.17,1.55.93,1.13,3,1.75,4.54-1.44,2.37-.31,6.6-1,9.59-1.34.21-.52,2.07-.93,3-.93.73-1.34,2.38-2.06,3.51.31,2-2.17,2-2.48,3.41-.92,1.34-2.89.72-3.4,2.27-1.34.2-3.3-.62-4,.72-1.54-1.34-4.74-.21-6.18-2-.93.51-2.59-.11-3.2.93-.62.62-2,2.68-.72,4l-.73.72.93.73c.42,3.19.52,6.8-.93,9.38-.93.72-2.27,1.14-2.78,2.07-.72.72-2.69-.52-2.69.93-5.25,2.26-12.68,1-18.77,1-1.14-1.44-3.61-.31-5.26-1-.93-1.24-3-1.45-3.93-2.69-1.74-1.44-.92-3.82-.71-6,1.23.1.61-1.65,1.44-2,1.14-2.37-.83-3.61-1.24-5.67a11.24,11.24,0,0,0-4.22-.52c-2.28,1.14-3.82,2.78-6.92,2-1-1-2.16-.93-3.41-2-.92-.41-1.54-1.55-2.47-2-.2-1.34-1.34-1-1.24-2.48-1,0-1.13-.93-1-1.75-1.54-1.24-1.75-3.1-3-4.43-.11-.83.41-2.38-.93-2.28-.31-1.13.62-2.78-.82-3.4-.41-3.82.41-7.22,2.78-8.67.62-.93,1.86-1.44,2.68-2.26,2.17-.21,4.54.62,5.47-.73a4.94,4.94,0,0,0,3.92-2.78v-.72c2-.42-.62-1.14-.41-2.18H197c.21-1.54-1.34-1.33-1.24-2.78-2-2-4.64-3.09-4.94-6.18L191,427a13.27,13.27,0,0,0,2-3.51c.31-1.75,2.37-2.79,3-4.43,2.07-.52,3-2.38,5-3.41.42-1.24,2.68-1.13,3-2.48,2.59-.92,5.58-1,7.43-2.06.62.83,2.69.62,3.92,1,.93.62,2,1.75,3.2,2,.11.42-.2.83.31,1,.92.31,1,2.16,1.75,3l.73,1.65c-1.14-1.14-2.07-1.86-3-2.9-2.28-.41-5.37-.51-6.92.94-.31.1-.82-.21-1,.31.21.72-.72.62-1.24.72-.62,1.13-3.09.62-2.68,2.68-1.86.72-1.86,4.23-5,3.19-.31,0-.62,0-.73.32v.51c-2.26-.41-2.47,1.45-4,2.17-.31.21-.21.51-.21.72-.62.93-2.36,1.86-2.67,3-.73,2.26,1.13,3.5,1.24,5.46h.4c0,1.24,1.66.62,1.76,1.76,1.86,0,2.37,1.95,3.5,3,.52,2.67-.72,4.12-2.78,4.95-2.17.52-3.81.1-5.88.93a19.78,19.78,0,0,0-3.2,4.43,11.51,11.51,0,0,0,1.24,6.5c.42.62,2,1.55,2.47,2.17-.41,1.34,1.56.41,1.25,1.75.2,1.44-.63,3.51.72,4.23.72.73-.52,2.68.92,2.68,1.14,1.35,1.76,3,3.52,4,1.74-.52,3.5.93,4.94-.31.93-.73,2.17-.31,3.71-.42a4.65,4.65,0,0,1,2,5c-.21-.11-.31.1-.52.2.31.31.52.62,1,.52,1.13-.31-.31-2.27,1.23-2a6,6,0,0,0,0-3.3h-.51c-.21-.83-.41-2.17-1.45-2.68-3.71-1.86-5.68,2.68-9.7.72-.82-1.24-2.37-1.76-2.47-3.71l-.21-5c.31.11.52-.31.73-.51-2.07-2.38-4-2.79-5.17-5.89h-.51c.31-2.47-1-5.46,1.24-6.49.21,0,.52.1.72-.21v-.52a12.58,12.58,0,0,0,9.69-2.68l-.3-4.74c-.93.41-.31-.73-.72-.94-2.69-2.57-7-2.67-6.71-7.42,1,.31.51-.93,1-1.23,3-2.18,4.44-4.54,8.36-5,1.14-1.86,2.68-3,3.51-4.74,1.34,0,.82-1.35,2.16-1.25a8,8,0,0,1,7.23-1.74c.41.92,1.74,1.13,1.23,2.78.31.31,1,.31.72.93-.31-.1-.52.41-.72.52,1.34,1.85,2,4.43,5.16,3.71,0,.31,0,.62.31.72-.1-1.24,1.34-.62,2-1.24,1.44-1.55.92-3.61,2.48-4.95-.11-1.44,1.13-1.34,1.44-2.47h4.23c.72,1.44,3.41,1,4,2.47,3.82,1.34,1.34,6.5,5.88,6,2.27,1.23,5.68,1.33,6.5,4.43h.41c1.45,4.23-3.71,5.05-3.92,8.66h-.52a5.11,5.11,0,0,0,0,3H248c-.41,1.23,1.24,1.23,1.45,2,2.68.31,5.87.2,7.43,2v4.74c-1.35.21-.31,2.38-1.24,3.2-.83,1-3.41,1.65-2.17,3.92H254c.31,3.41.72,7.53-1.76,9.7-1.24,1.44-3.81,1.44-5.67,1-.62-1.34-2.89-.41-3.51-1.76-2.16-.41-3.3.62-4.74,1.45-.52.72.21,1.75-.93,2,.93,2.58,1.44,6,.52,8.46-1.86.93-2.38,3.3-4.75,3.5-3,1.24-4.44-1.23-7.43-.82.21-1.13-1.13-.82-1.75-1.24-2.48,1-5.78,2.58-8.16.52-2.26-.21-2.47-1.14-3.92-2.17-.41,0-.2-1.13-1-.82-.41.51-.1,1.23-.21,1.75.11.31.41.31.72.31-.31,2,1.24,2.47,2.48,3.2h.52c.72,1.34,3.5.41,4.43,1.75.72-1.44,3.51-.2,3.92-1.75h.51V485a26.23,26.23,0,0,0,3.92.42v.51a20.9,20.9,0,0,0,7.23,0v-.51c.92.31,1.44-.31,2.27-.42-.21-.82.72-.62,1.24-.82,1.33-.62,1.85-2.48,2.68-3.92.41-2.48-.62-4.34-1-6.4,1.24-.41.83-1.75,1.76-2.27,4.85-.1,12.28,2,14.13-3.71,1.14-.62.83-2.27,1.24-3.51h.21c.72-3-.52-7.22,2.06-9.07.82-2.9.51-5.47.2-8.46-1.54-1.24-3.09-2.79-5.67-2.49-1.76-.3-4.33-1.43-3-4.22a21.44,21.44,0,0,0,2.68-3.41c1.86-1.13.73-3.82,1-5.77-1.35-.31-.42-2.38-1.76-2.48-.73-.62-.73-2.06-2.16-2-.83-1.44-2.28-1.65-4-2.17-.1-.92-1.13-.41-1.75-.82-.11-1.34-1.24-.93-1.24-2.48-.93-.82-2-1.54-2.89-2.47h-.83a7,7,0,0,0-4.94-2.17c-.11-.92-1.24-.31-2-.51a4.35,4.35,0,0,1-3.92,1.75c.42-2.68,3-3.4,3.92-5.67,1,.41,1.55-.72,2-1,2.47,0,5.36-.11,7,1Z"/>
  <path class="b" d="M226.21,423.84c-1.14,0-1,1.14-2.28.72-.51-1-1.54-1-2.16-1.75l-.31-2.17c-.2.11,1,.31,1.55.42l-.31.31c.72,1.33,2.58.61,3.51.2l.72-1.75c1.23,1.65-1.24,2.16-.72,4"/>
  <path class="a" d="M211.56,429.72c2,.72,2.58,3.09,4.75,3.3.61,1,.92,2.07,2.47,2,3.3.42,4.95-1.75,8.36-1-.21.52.41.93.82,1h1.44c-.31.62.52.82,1,.72.31-.1.72.21.93-.2V435c1.64-.62,1.75-2.06,3.71-2.27.93-1.24,1.34-2.47,2.47-3.2A7,7,0,0,1,240,427c1.13,1-.41,1.65-.2,2.68-1.66,2.68-3.61,4.85-5.27,7.74a1.51,1.51,0,0,0,1.24.51c2.17-3.19,4.65-5.57,6.5-9,1.14-.52,1,1.13,1.76,1.24-1,2.57-3.61,3.5-4,6.49-1.34.42-.31,3-1.75,3.72.1.72-.21,1.65.31,2.17h.51c-.2.82.31,1.33.42,1.95H240c.21,2.69.42,5.47,2.79,6.2.1.92,1.24,1.23,2.16,1,.41,1.45,2.38,1.14,3.51,2h3.41v2.47c-3.1-1.13-6.92-1.65-10.32-2.47a1,1,0,0,0-.31,1.54l9.9,2.69c0,.51.11,1.13-.51,1.44-1.86-.62-4.54.51-6.19-.93-1.45-.62-2.89.11-4.44.21-.51.51-2,1-2.48,1.75-.72,1-.31,2.07-2,2-.11,1.65-1.66,1.75-2.28,2.79-1.44.41-1.95,1.14-3.19,2-2.27-.62-1.86,2.16-3,3v3.2h-.42c-1.44,1.85.83,6-2.06,6.7l.31-12.38c-.72-.21-.31-1.33-1.24-1l-.72.72-.31,12.69h-.93c.1-3.61-1.13-6.6-1-10.21-2-.31-.1-3.2-2-3.4,0-1.14-1.24-1.45-2.27-1.24-2-.42-2.48-2.07-4.43-3,.31-2.79-3.51-1.86-5.16-1.76-.52,1.76-3.41-.31-3.51,1.76a1,1,0,0,1-1.24-.73c-.11,1.35-1.65.42-2.47.73L199,461c3.09-1.14,6.7-2.68,9.91-3.51.1-.52.71-.83.51-1.45-.41-.92-1.34-.31-2.06-.51-.93,1.65-3.3.1-3.92,2-2.07.1-3.51,1.45-5.47,1.75v-1.44c2.27-1,4.64-2,6.19-4,2.48.31,3.2-1.24,4.44-2.68l.31-5.27c1.23.31.41-1,.92-1.45.73-1.54,2.59-3.5,1.55-5.66h-.51c.2-.93-.31-1.55-.52-2.28-.21-.41-1.44-.82-1.44-1.75-.93-1.86-2.17-3.71-3-5.67.31-.11.83.2,1-.21v-.72c2.16,2.89,4.23,7.22,7.42,9.9.31-.2.73-.2.93-.51v-.73c-2.68-3.3-4.33-6.7-7.42-9.48.31-.11.82-.62,1.54-.42.62,1.24,2.17,1.34,2.17,2.89"/>
  <path class="g" d="M226.72,412.18c-.62,2.17-.51,5.26-3,6-1.34-1.76-1.44-4.23-1.95-6,1.33-.93.81-3.71,2.88-3.92C226,409.29,226.21,410.84,226.72,412.18Z"/>
  <path class="g" d="M264.27,438.38c-2.47,1-3.71,4.23-6.91,3l-2.16-1.24c1-1.65,1.64-3.71,4.13-3.92C260.76,436.94,264.68,435.39,264.27,438.38Z"/>
  <path class="g" d="M227.14,436.94v1.45c-1.34.51-2-.73-2.9-1.24.62-1.14,1.76.31,2.9-.21Z"/>
  <path class="g" d="M223.42,438.9c-.72.83-2.37,1.45-3.4,2.47-1.24-.71-.52-3.09-2.48-2.68-1.13.73-1.24,2.17,0,2.68.93,1.66-2.06,2.38-2.79,3.72-.41-.61,0-1.55-.92-2-.62-.31-.83.52-1.24.72-.52,1.86,1.86,3.1-.31,4.44-.31.41-.83.31-1.24.52-1-5.16,3.71-8.15,6.71-11.15,2.06,1.55,5.46-3.2,5.67,1.24Z"/>
  <path class="g" d="M189.58,438c.21,1.45,2,.21,2.69.93,1.13,1.14,3,2.37,2.47,4.23a11.55,11.55,0,0,1-8.87-.52c-.72-.82-2.37-1.75-1.75-3.4,1.65-.83,3.3-1.65,5.46-1.24Z"/>
  <path class="g" d="M232.6,439.93a13.66,13.66,0,0,1,4.75,6.2c-1.55.71-2.47-.83-4-1,0-.72-1.13-.52-.72-1.45.72.31.83-.51.72-1,.52-1.14-.72-.83-1.24-1.24-1.43.52-2.57.83-3.71-.21-.72-1.45,1.24-1.14,1.55-2.47,1.55-.72,1.24,1.75,2.68,1.23Z"/>
  <path class="g" d="M227.14,443.13c.3.72-.41.52-.72.72l-2.49,1.55c-.2-1.55-2.36-.93-2.16-2.48,1.75-.51,4.44-2.68,5.37.21Z"/>
  <path class="g" d="M220.53,444.57c-.21,1.55,2.07.93.93,2.48-1.55,1.14-2.78,3.41-4.64.83-.52-2.28,2-1.65,2.48-3.51.2.51.82.2,1.23.2Z"/>
  <path class="g" d="M232.6,446.84a4.82,4.82,0,0,1-3.4,2c-1.14-.11-1.85-1.76-2.78-2,1.23-.71,3.09-2.27,4.74-1,0,.92,1,.61,1.44,1"/>
  <path class="g" d="M227.14,450.76l-3.41,2.48-3-1.65c.41-1.54,2.17-2.16,3.19-3.3,1.14,1,2.9,1.24,3.21,2.47Z"/>
  <path class="g" d="M237,448.6c-.41,1.24,1.76,1.34,1,2.68a2.61,2.61,0,0,1-2,.52l-.31-.21c0,1.14-1.13,1.34-2,.72l-2.17-2c2-.1,3.41-2.47,5.37-1.75Z"/>
  <path class="g" d="M216.82,451.07c.31,1.45-1.76,1.45-1.76,2.48-1.75.31-1.23-2-2.26-2.79a2.18,2.18,0,0,1,4,.31Z"/>
  <path class="g" d="M232.09,453.76c-.62,1.13-2.48,1.75-3.4,2.47-.93-.41-3-.52-2.28-2.16C228.17,453.35,230.44,451.48,232.09,453.76Z"/>
  <path class="g" d="M213.11,455.72a1.67,1.67,0,0,1-.83,1.75c-.31-1.14-2.17-2.47-1.45-3.92C212.39,453.24,212.49,454.89,213.11,455.72Z"/>
  <path class="g" d="M221.46,455c-1.13.62-.83,3.21-3,2.48-.21-1.14-2.78-.72-1.45-2.48C217.85,452.62,220.74,453.86,221.46,455Z"/>
  <path class="g" d="M234.87,459.43c-.72,0-2-1.34-3.2-1.24-.41-2,2.28-1,2.68-2.68.93-.1,2.18.41,2.69-.52.52,1.45-1.65,3.2-2.17,4.44Z"/>
  <path class="g" d="M226.21,459c-1.55.82-2.79,2.16-4.44.92-.31-1.44,1.55-2.06,2.16-3.4.62.62,2.59,1.14,2.28,2.48Z"/>
  <path class="g" d="M217.23,460.67c-.31,1.14-1.85,1-2.47.31-.11-.93-1.45-.72-.93-2,1-2.05,2.27.11,3.19.42a.8.8,0,0,1,.21,1.24Z"/>
  <path class="g" d="M233.63,460.67c-2.16.41-3.71,4.95-6,1.54-.93-1.95,1.65-1.23,1.75-2.78C231.16,458.91,232.09,460.57,233.63,460.67Z"/>
  <path class="g" d="M222.18,464c-1.33.62-2.58-.72-3.92-1a1.55,1.55,0,0,1,1.45-1.45C220.23,462.63,222.9,462,222.18,464Z"/>
  <path class="g" d="M249.42,477.59c-.1,2.16,2.47,2.58,1.55,5.15-1.65,1.24-1.86-1.13-3.51-.72.3-1.23-1-.41-1.44-1-.42-1.44-2.28-2.37-2-4.23,1.45-1.86,4-.51,5.37.83Z"/>
  <path class="g" d="M205.37,478.31a7.38,7.38,0,0,1-5,5.67l-2.17-.2c-.31-3.92,2.89-5.68,5.67-7C204.54,477.07,205.78,477.17,205.37,478.31Z"/>
  <path class="g" d="M223.73,466.37l-1,.9-.13,12.63,2.45-.13V470l.13-2.45-1.42-1.16Z"/>
  <path class="g" d="M199.1,461.08l9.81-3.61.77-1.29-.65-.78-1.55-.12-1.29.77-1.68.39-1.16.39-.64.51-1.41.52L198.07,459l1,2.06Z"/>
  <path class="g" d="M241.27,453.47l-.52,1,.91,1.29,9.54,2.45.65-2.06-5.16-1.42-4.26-1-1.16-.26Z"/>
  <path class="g" d="M242.69,429.1l-4.77,6.32-2.2,2.58-1.41-.39,2.18-3.35,3.23-4.52.65-2.19,2.32,1.55Z"/>
  <path class="g" d="M206.71,428.33l3.48,5.15,2.33,3.23,1.54,1.29,1.16-.39.13-1.16-4.13-5.29-2.19-3-1.29-1Z"/>
</svg>
